<?xml version="1.0" encoding="UTF-8"?>
<svg version="1.1" xmlns="http://www.w3.org/2000/svg" width="1000" height="1000">
<path d="M0 0 C330 0 660 0 1000 0 C1000 330 1000 660 1000 1000 C670 1000 340 1000 0 1000 C0 670 0 340 0 0 Z " fill="#E3EEE5" transform="translate(0,0)"/>
<path d="M0 0 C11.16399336 6.2063811 20.26180548 15.21316448 29.09423828 24.32885742 C32.73602557 28.17707166 32.73602557 28.17707166 37 31.25 C41.22753213 31.26746914 43.88886072 27.8803729 46.75 25.125 C47.82625946 24.11398318 48.90308229 23.10356575 49.98046875 22.09375 C50.50044434 21.60261719 51.02041992 21.11148438 51.55615234 20.60546875 C54.62364373 17.72574062 57.80493042 14.98600786 61 12.25 C62.22589844 11.15365234 62.22589844 11.15365234 63.4765625 10.03515625 C73.3493932 1.48534177 82.98467171 -4.02420044 96.37109375 -3.37890625 C119.24786206 0.58574359 137.892393 30.34050984 150.265625 47.83203125 C191.32119332 106.67483629 191.32119332 106.67483629 195 136.25 C196.08397568 136.24000725 196.08397568 136.24000725 197.18984985 136.22981262 C204.15592584 136.168538 211.12190152 136.1234555 218.08817482 136.09456348 C221.66567521 136.0792085 225.24294495 136.0585598 228.8203125 136.02368164 C300.18888468 135.34692313 300.18888468 135.34692313 315.9375 148.75 C316.618125 149.575 317.29875 150.4 318 151.25 C318.8971875 152.11625 318.8971875 152.11625 319.8125 153 C322.50613113 158.10372214 321.43421364 162.75488849 319.8984375 168.04296875 C315.50830015 180.97891107 308.36384675 190.37999937 299 200.25 C298.278125 201.013125 297.55625 201.77625 296.8125 202.5625 C291.25633519 208.27741237 285.33377667 213.41637786 279 218.25 C278.40751465 218.70246094 277.8150293 219.15492188 277.20458984 219.62109375 C237.91015625 249.25 237.91015625 249.25 223 249.25 C222.79464915 253.22839072 222.67169017 257.20540141 222.5625 261.1875 C222.50384766 262.30447266 222.44519531 263.42144531 222.38476562 264.57226562 C222.23312297 271.95942904 223.29025119 275.76562649 228.24731445 281.26782227 C230.73127341 284.07702449 231.88862669 286.78457314 233.3125 290.25 C234.01826172 291.920625 234.01826172 291.920625 234.73828125 293.625 C237.66109036 302.02242059 238.33929858 309.74931057 238.3125 318.625 C238.32861328 319.68460937 238.34472656 320.74421875 238.36132812 321.8359375 C238.37066153 337.06805153 232.9613643 353.8126279 222.30859375 365.03125 C219.32289381 367.75645263 217.43839116 369.13657347 213.421875 370.17578125 C211.51948909 370.86862869 211.51948909 370.86862869 210 372.25 C208.54406772 376.06830377 208.18654088 380.02361851 207.6875 384.0625 C202.06443605 420.26311153 186.39385122 454.15698148 163 482.25 C162.23671387 483.16773193 162.23671387 483.16773193 161.45800781 484.10400391 C142.25137467 507.07932854 142.25137467 507.07932854 130.37866211 513.71508789 C126.66527338 517.67240239 127.27250688 521.68017696 127.29296875 526.921875 C127.27784744 527.95942932 127.26272614 528.99698364 127.24714661 530.065979 C127.20418366 533.37753893 127.19542299 536.68818884 127.1875 540 C127.16436249 542.24611809 127.13899873 544.49221443 127.11132812 546.73828125 C127.04839112 552.24219604 127.013525 557.74575399 127 563.25 C128.70650223 563.23334541 128.70650223 563.23334541 130.44747925 563.21635437 C141.24343275 563.11437032 152.03928673 563.03974561 162.83561516 562.99093914 C168.38426894 562.96500243 173.93252948 562.92990014 179.48095703 562.87280273 C184.84971019 562.817909 190.21808853 562.78846021 195.58710098 562.77561378 C197.6209413 562.76647571 199.65476442 562.74863596 201.68844223 562.72134972 C218.67520437 562.50279432 233.30123396 565.26124706 248.9375 572.125 C250.12267212 572.63643555 250.12267212 572.63643555 251.33178711 573.15820312 C261.65782407 577.72730229 270.42929997 583.94425269 279 591.25 C279.9590625 592.06210937 280.918125 592.87421875 281.90625 593.7109375 C305.84162422 614.49732859 317.85818832 641.18641237 322 672.25 C322 689.74 322 707.23 322 725.25 C135.22 725.25 -51.56 725.25 -244 725.25 C-244 661.38686878 -244 661.38686878 -238.375 645.25 C-238.12266602 644.51563721 -237.87033203 643.78127441 -237.61035156 643.0246582 C-232.68008346 629.29934287 -225.36148836 617.36213119 -216 606.25 C-215.25878906 605.35667969 -214.51757812 604.46335937 -213.75390625 603.54296875 C-199.24986164 586.71207206 -179.23161556 573.64476947 -157.9375 567.25 C-156.90254395 566.93820801 -156.90254395 566.93820801 -155.84667969 566.62011719 C-151.47518323 565.40545808 -147.52406746 565.06174232 -143 565.25 C-143 564.59 -143 563.93 -143 563.25 C-111.98 563.25 -80.96 563.25 -49 563.25 C-49 547.41 -49 531.57 -49 515.25 C-50.32 514.59 -51.64 513.93 -53 513.25 C-58.88538878 509.12696424 -64.04442742 504.4319693 -69 499.25 C-69.78375 498.46625 -70.5675 497.6825 -71.375 496.875 C-72.24125 496.00875 -73.1075 495.1425 -74 494.25 C-74.59941406 493.70859375 -75.19882812 493.1671875 -75.81640625 492.609375 C-104.71954166 465.56924095 -123.60882157 423.22252443 -129.1875 384.5625 C-129.36474609 383.37205078 -129.54199219 382.18160156 -129.72460938 380.95507812 C-130.15566283 378.05420491 -130.5806768 375.15258788 -131 372.25 C-131.90878906 371.9715625 -132.81757813 371.693125 -133.75390625 371.40625 C-143.36584725 367.98250206 -149.01321706 360.23975441 -153.44140625 351.359375 C-154.7580261 348.3566957 -155.91080887 345.3420261 -157 342.25 C-157.32097656 341.38503906 -157.64195312 340.52007812 -157.97265625 339.62890625 C-163.09238612 323.22195798 -161.53852723 302.77132161 -154.05859375 287.30322266 C-151.37303025 282.24146204 -148.4880456 277.60030225 -144.21484375 273.72265625 C-141.73895114 271.48223781 -141.73895114 271.48223781 -141.87890625 268.671875 C-142.21728516 267.34929687 -142.21728516 267.34929687 -142.5625 266 C-142.77003906 265.12859375 -142.97757812 264.2571875 -143.19140625 263.359375 C-143.45824219 262.33328125 -143.72507812 261.3071875 -144 260.25 C-144.08636719 259.51442871 -144.17273438 258.77885742 -144.26171875 258.02099609 C-144.83093966 253.46439686 -144.83093966 253.46439686 -147.5246582 249.95703125 C-149.60442283 248.92074714 -151.67853607 248.13316794 -153.875 247.375 C-155.51751285 246.72677533 -157.15673965 246.07017621 -158.79296875 245.40625 C-159.64810059 245.06335938 -160.50323242 244.72046875 -161.38427734 244.3671875 C-192.33999942 231.14585241 -228.58693992 205.86921371 -242.8125 174.4375 C-245.24472843 167.90888684 -245.94443531 161.16363324 -245 154.25 C-242.14133729 148.32170316 -236.82761284 145.72519011 -231 143.25 C-228.30233424 142.35627858 -225.59234866 141.70888796 -222.8125 141.125 C-221.65355225 140.87689575 -221.65355225 140.87689575 -220.47119141 140.6237793 C-194.5521932 135.37524689 -167.30936998 136.08737099 -141 136.1875 C-138.65234473 136.1925351 -136.30468838 136.19709438 -133.95703125 136.20117188 C-128.30466344 136.21199519 -122.65233705 136.22856754 -117 136.25 C-116.87919067 135.59261337 -116.75838135 134.93522675 -116.63391113 134.25791931 C-115.73914015 129.56217605 -114.80579099 125.1247699 -112.96875 120.69140625 C-112.57582764 119.73854736 -112.18290527 118.78568848 -111.77807617 117.80395508 C-111.35631104 116.8167749 -110.9345459 115.82959473 -110.5 114.8125 C-110.05567627 113.76408936 -109.61135254 112.71567871 -109.15356445 111.63549805 C-92.86949786 73.82509611 -62.62902038 17.45456041 -24 -1.75 C-15.92306059 -4.44231314 -7.63302057 -3.55345139 0 0 Z " fill="#FEDB5D" transform="translate(542,110.75)"/>
<path d="M0 0 C11.16399336 6.2063811 20.26180548 15.21316448 29.09423828 24.32885742 C32.73602557 28.17707166 32.73602557 28.17707166 37 31.25 C41.22753213 31.26746914 43.88886072 27.8803729 46.75 25.125 C47.82625946 24.11398318 48.90308229 23.10356575 49.98046875 22.09375 C50.50044434 21.60261719 51.02041992 21.11148438 51.55615234 20.60546875 C54.62364373 17.72574062 57.80493042 14.98600786 61 12.25 C62.22589844 11.15365234 62.22589844 11.15365234 63.4765625 10.03515625 C73.3493932 1.48534177 82.98467171 -4.02420044 96.37109375 -3.37890625 C119.24786206 0.58574359 137.892393 30.34050984 150.265625 47.83203125 C191.32119332 106.67483629 191.32119332 106.67483629 195 136.25 C196.08397568 136.24000725 196.08397568 136.24000725 197.18984985 136.22981262 C204.15592584 136.168538 211.12190152 136.1234555 218.08817482 136.09456348 C221.66567521 136.0792085 225.24294495 136.0585598 228.8203125 136.02368164 C300.18888468 135.34692313 300.18888468 135.34692313 315.9375 148.75 C316.618125 149.575 317.29875 150.4 318 151.25 C318.8971875 152.11625 318.8971875 152.11625 319.8125 153 C322.50613113 158.10372214 321.43421364 162.75488849 319.8984375 168.04296875 C315.50830015 180.97891107 308.36384675 190.37999937 299 200.25 C298.278125 201.013125 297.55625 201.77625 296.8125 202.5625 C291.25633519 208.27741237 285.33377667 213.41637786 279 218.25 C278.40751465 218.70246094 277.8150293 219.15492188 277.20458984 219.62109375 C265.48335151 228.45917691 253.03324545 235.53670334 240 242.25 C239.22495117 242.65847168 238.44990234 243.06694336 237.65136719 243.48779297 C211.70990437 257.08568062 182.37016684 264.62738829 153.68261719 269.76171875 C151.01569096 270.24714398 148.35552152 270.76036991 145.6953125 271.28125 C135.8965316 273.17614554 126.10176439 274.7183483 116.1875 275.875 C115.24237549 275.98593994 114.29725098 276.09687988 113.32348633 276.21118164 C110.58170512 276.51406987 107.8385566 276.78883913 105.09228516 277.04760742 C103.60638796 277.1913424 102.12125234 277.34304921 100.63671875 277.50024414 C81.28789508 279.52516342 61.99452705 279.56008408 42.56298828 279.51074219 C38.03980014 279.49936565 33.51684768 279.50612619 28.9936676 279.51760387 C1.65661052 279.57682441 -25.16887534 278.46777478 -52.25 274.4375 C-53.14689545 274.30683136 -54.04379089 274.17616272 -54.96786499 274.04153442 C-67.94786221 272.1463287 -80.79580224 269.96979868 -93.54345703 266.84130859 C-96.05182248 266.23752594 -98.56734365 265.68599521 -101.08984375 265.14453125 C-150.30179149 254.38116725 -207.56466462 228.85197624 -236.84765625 185.515625 C-242.92182051 175.66562891 -246.60859098 166.02551066 -245 154.25 C-242.14133729 148.32170316 -236.82761284 145.72519011 -231 143.25 C-228.30233424 142.35627858 -225.59234866 141.70888796 -222.8125 141.125 C-221.65355225 140.87689575 -221.65355225 140.87689575 -220.47119141 140.6237793 C-194.5521932 135.37524689 -167.30936998 136.08737099 -141 136.1875 C-138.65234473 136.1925351 -136.30468838 136.19709438 -133.95703125 136.20117188 C-128.30466344 136.21199519 -122.65233705 136.22856754 -117 136.25 C-116.87919067 135.59261337 -116.75838135 134.93522675 -116.63391113 134.25791931 C-115.73914015 129.56217605 -114.80579099 125.1247699 -112.96875 120.69140625 C-112.57582764 119.73854736 -112.18290527 118.78568848 -111.77807617 117.80395508 C-111.35631104 116.8167749 -110.9345459 115.82959473 -110.5 114.8125 C-110.05567627 113.76408936 -109.61135254 112.71567871 -109.15356445 111.63549805 C-92.86949786 73.82509611 -62.62902038 17.45456041 -24 -1.75 C-15.92306059 -4.44231314 -7.63302057 -3.55345139 0 0 Z " fill="#C0694F" transform="translate(542,110.75)"/>
<path d="M0 0 C31.02 0 62.04 0 94 0 C94.99 4.95 94.99 4.95 96 10 C99.75024187 20.85825843 106.85557359 26.16848735 116.75 31.1875 C137.05467643 41.05575903 158.51069697 44.18768161 180.8840332 44.18530273 C183.16572017 44.18747922 185.44691432 44.20566778 187.72851562 44.22460938 C211.75958755 44.32017005 243.22637557 40.6759368 261.38671875 23.0390625 C265.80680353 17.45241782 268.86028273 11.40235618 269.57055664 4.29638672 C269.65318253 3.49047089 269.73580841 2.68455505 269.82093811 1.85421753 C269.90957375 0.93637985 269.90957375 0.93637985 270 0 C281.94509919 -0.11657804 293.89005991 -0.20505913 305.83561516 -0.25906086 C311.38426894 -0.28499757 316.93252948 -0.32009986 322.48095703 -0.37719727 C327.84971019 -0.432091 333.21808853 -0.46153979 338.58710098 -0.47438622 C340.6209413 -0.48352429 342.65476442 -0.50136404 344.68844223 -0.52865028 C361.67520437 -0.74720568 376.30123396 2.01124706 391.9375 8.875 C392.72761475 9.21595703 393.51772949 9.55691406 394.33178711 9.90820312 C404.65782407 14.47730229 413.42929997 20.69425269 422 28 C422.9590625 28.81210937 423.918125 29.62421875 424.90625 30.4609375 C448.84162422 51.24732859 460.85818832 77.93641237 465 109 C465 126.49 465 143.98 465 162 C278.22 162 91.44 162 -101 162 C-101 98.13686878 -101 98.13686878 -95.375 82 C-94.99649902 80.89845581 -94.99649902 80.89845581 -94.61035156 79.7746582 C-89.68008346 66.04934287 -82.36148836 54.11213119 -73 43 C-72.25878906 42.10667969 -71.51757812 41.21335937 -70.75390625 40.29296875 C-56.24986164 23.46207206 -36.23161556 10.39476947 -14.9375 4 C-14.2475293 3.79213867 -13.55755859 3.58427734 -12.84667969 3.37011719 C-8.47518323 2.15545808 -4.52406746 1.81174232 0 2 C0 1.34 0 0.68 0 0 Z " fill="#3B88C3" transform="translate(399,674)"/>
<path d="M0 0 C4.59929482 2.27492002 7.02230767 5.72478157 8.94140625 10.3359375 C9.31138016 13.09924322 9.48279013 15.45304286 9.44692993 18.20294189 C9.45606511 19.34570796 9.45606511 19.34570796 9.46538484 20.5115602 C9.48092406 23.04871304 9.46822131 25.58491358 9.45556641 28.12207031 C9.46103007 29.94760224 9.46827315 31.77312958 9.47715759 33.59864807 C9.49247672 37.52300062 9.49530399 41.44709178 9.48839188 45.37146759 C9.47758795 51.58366573 9.49500949 57.79559186 9.51620483 64.00775146 C9.54645437 73.84006553 9.55815811 83.67229886 9.56178129 93.5046556 C9.56842604 111.09531008 9.59755692 128.68590793 9.64687765 146.27649379 C9.66332288 152.44444763 9.66880246 158.61228407 9.66528726 164.7802577 C9.66484829 168.62776966 9.67244349 172.47523782 9.68196297 176.32273674 C9.68463165 178.09838368 9.6839182 179.87403966 9.6794529 181.649683 C9.64962349 194.39972926 10.3824667 205.87791388 15.50390625 217.7109375 C15.85614258 218.52892822 16.20837891 219.34691895 16.57128906 220.18969727 C26.9182893 243.3975174 45.50983303 258.54005387 68.81922913 267.61257935 C71.08988157 268.3865463 73.33922503 268.92175233 75.68432617 269.42407227 C76.88468758 269.68342308 76.88468758 269.68342308 78.10929871 269.94801331 C79.01619194 270.14003578 79.01619194 270.14003578 79.94140625 270.3359375 C79.94026709 269.78806371 79.93912793 269.24018992 79.93795425 268.6757139 C79.87082919 236.20880067 79.81935122 203.74190581 79.78821026 171.2749392 C79.78445811 167.37714034 79.78057515 163.47934162 79.77661133 159.58154297 C79.7758244 158.80555699 79.77503747 158.02957101 79.77422669 157.23007031 C79.76117053 144.66317442 79.73751553 132.09631967 79.70994786 119.5294482 C79.68189951 106.6359803 79.6652312 93.74253396 79.65914077 80.84903681 C79.65502314 72.89218107 79.64201498 64.93544162 79.61765685 56.97862168 C79.59993376 50.87871027 79.59803919 44.77889903 79.60208321 38.67895889 C79.6012565 36.17555779 79.59527096 33.67215237 79.58378983 31.16877747 C79.56889886 27.75504522 79.57244065 24.34181352 79.5806427 20.92807007 C79.57190418 19.93390056 79.56316565 18.93973105 79.55416232 17.91543519 C79.59927063 10.98563613 80.78185978 6.7588433 85.50390625 1.4609375 C88.96040581 -1.1959241 92.21802233 -1.32147015 96.4765625 -1.078125 C101.77942423 -0.18731146 104.89266897 1.89121025 108.10665512 6.31875706 C110.68470715 11.08010254 110.48477533 15.74372229 110.42242432 21.04832458 C110.42584202 22.11602917 110.42925972 23.18373376 110.43278098 24.28379303 C110.43936064 27.85540418 110.41738128 31.42626101 110.39550781 34.99780273 C110.39437936 37.56037885 110.39501315 40.12295626 110.39727783 42.68553162 C110.39818821 48.19944768 110.38685552 53.71312157 110.36432648 59.22698784 C110.33177502 67.19898996 110.32139626 75.17090061 110.31637451 83.14296199 C110.30762678 96.07802599 110.2810254 109.01298891 110.24316406 121.94799805 C110.20643044 134.51081843 110.17812531 147.07361134 110.16113281 159.63647461 C110.16008192 160.4112544 110.15903102 161.18603418 110.15794829 161.98429214 C110.15272802 165.87125605 110.14767321 169.75822016 110.14270067 173.6451844 C110.10125489 205.87550888 110.03082072 238.10570914 109.94140625 270.3359375 C111.85281841 269.87089428 113.76338171 269.40236127 115.67358398 268.93237305 C116.73761948 268.6718364 117.80165497 268.41129974 118.89793396 268.14286804 C122.76164776 267.1184629 126.36241925 265.78213453 130.00390625 264.1484375 C130.68018066 263.84728027 131.35645508 263.54612305 132.05322266 263.23583984 C138.28729544 260.35345093 143.64865717 256.71500828 148.94140625 252.3359375 C150.20017578 251.33820313 150.20017578 251.33820313 151.484375 250.3203125 C167.96667867 236.52117454 177.2892603 216.45314768 179.94140625 195.3359375 C180.23057034 189.28992692 180.22238945 183.25173771 180.21264648 177.19995117 C180.21704054 175.38542448 180.22234515 173.5708998 180.22848511 171.75637817 C180.23992891 167.86925717 180.24544033 163.98219028 180.2463665 160.09505272 C180.2483161 153.94697031 180.26641526 147.79899922 180.28712463 141.6509552 C180.33617929 126.38924213 180.367228 111.12749919 180.38842773 95.86572266 C180.40495017 83.98515855 180.42773808 72.10469091 180.47144848 60.22419149 C180.49321824 54.11336854 180.5012835 48.00272896 180.49905574 41.8918699 C180.50072213 38.09373339 180.51476725 34.29571688 180.53226852 30.49762344 C180.53786788 28.7376181 180.53835339 26.97758788 180.53333092 25.2175808 C180.52719014 22.8136993 180.53941914 20.41057525 180.55613708 18.00675964 C180.54992527 17.31191457 180.54371345 16.61706951 180.5373134 15.90116853 C180.61462056 9.79425574 182.48723434 5.96744745 186.50390625 1.4609375 C189.95048833 -1.18172717 193.16496982 -1.31858531 197.41015625 -1.08203125 C202.84841045 -0.18404792 206.56640907 1.61630341 210.02147675 5.93736839 C212.22562922 9.83905566 212.50391253 12.81912596 212.44934082 17.17398071 C212.45558078 17.94495445 212.46182075 18.71592818 212.4682498 19.51026475 C212.48415945 22.08479426 212.47158322 24.65837421 212.45898438 27.23291016 C212.46440703 29.08309988 212.4715305 30.93328528 212.48022461 32.78346252 C212.49846156 37.8071248 212.49138411 42.83045842 212.47870827 47.85412645 C212.46856138 53.12853901 212.4779806 58.40292394 212.48425293 63.67733765 C212.49153335 72.5495913 212.48194059 81.42171188 212.46289062 90.29394531 C212.44121506 100.50595547 212.44810357 110.71764498 212.47019625 120.92964709 C212.48845168 129.72409071 212.49085658 138.51843869 212.48044157 147.31289518 C212.47424989 152.55275223 212.47324841 157.79245963 212.48658752 163.03230667 C212.4982903 167.9753098 212.48986197 172.91790826 212.4670105 177.86086845 C212.46179529 179.65853013 212.46311083 181.45622686 212.47206116 183.25387383 C212.54631461 199.70720461 210.68739756 216.25054167 203.69140625 231.3359375 C203.10335205 232.64788086 203.10335205 232.64788086 202.50341797 233.98632812 C199.29257412 240.96495928 195.67986173 247.26209912 190.94140625 253.3359375 C190.53696289 253.85559082 190.13251953 254.37524414 189.71582031 254.91064453 C173.66853986 275.28670605 150.17854911 294.52560927 123.94140625 299.3359375 C119.28019918 299.7895876 114.61791765 300.09197039 109.94140625 300.3359375 C109.95769038 307.08084657 110.01250351 313.82465746 110.09399414 320.5690918 C110.11717767 322.86296467 110.13157066 325.15694405 110.13696289 327.45092773 C110.14624945 330.75051266 110.18723613 334.04842164 110.234375 337.34765625 C110.22847603 338.88385872 110.22847603 338.88385872 110.22245789 340.45109558 C110.30902372 346.36756072 110.30902372 346.36756072 113.3449707 351.32739258 C114.20179443 351.9902124 115.05861816 352.65303223 115.94140625 353.3359375 C120.36074945 359.47391416 121.0863446 363.6996558 121.05493164 371.12182617 C121.05507767 372.01959274 121.05522369 372.91735931 121.05537415 373.84233093 C121.05467689 376.81288053 121.04689322 379.78336759 121.0390625 382.75390625 C121.03719766 384.81228094 121.03577407 386.87065608 121.03477478 388.92903137 C121.03095484 394.34924544 121.02112898 399.76943274 121.0100708 405.18963623 C120.99804796 411.69161171 120.99345195 418.19359612 120.98761749 424.69557953 C120.97791698 434.57571747 120.95875674 444.45579669 120.94140625 454.3359375 C104.11140625 454.3359375 87.28140625 454.3359375 69.94140625 454.3359375 C69.78097101 431.44717697 69.78097101 431.44717697 69.74609375 421.66796875 C69.72221031 415.00296239 69.69399831 408.33817647 69.63964844 401.67333984 C69.59609119 396.29816272 69.57224806 390.92322211 69.56189728 385.54788208 C69.55452367 383.50021646 69.54012473 381.45256334 69.51848602 379.40499878 C69.48932097 376.53013441 69.48545575 373.65623923 69.48730469 370.78125 C69.47292358 369.94039352 69.45854248 369.09953705 69.44372559 368.23320007 C69.48338744 362.50958001 70.68497246 358.10151719 73.94140625 353.3359375 C75.28078247 352.19088745 75.28078247 352.19088745 76.6472168 351.02270508 C80.21640057 346.84276814 79.66890211 342.67702339 79.6484375 337.34765625 C79.67111946 335.76015312 79.67111946 335.76015312 79.69425964 334.14057922 C79.73716784 330.76798244 79.74597806 327.39628016 79.75390625 324.0234375 C79.77704799 321.73370012 79.80241264 319.44398406 79.83007812 317.15429688 C79.8929612 311.54816863 79.92787068 305.94239038 79.94140625 300.3359375 C79.10593262 300.293479 78.27045898 300.25102051 77.40966797 300.20727539 C70.61240134 299.78676076 64.48187292 299.06723982 58.06640625 296.7734375 C57.30956543 296.51022705 56.55272461 296.2470166 55.77294922 295.97583008 C38.79001469 289.83529888 25.05313182 279.64255712 11.94140625 267.3359375 C11.05582031 266.56443359 11.05582031 266.56443359 10.15234375 265.77734375 C-7.12848647 250.01165741 -18.24027694 224.19795429 -21.05859375 201.3359375 C-21.15107124 198.64277054 -21.20228173 195.97583782 -21.19903564 193.28343201 C-21.20200677 192.50172593 -21.20497789 191.72001985 -21.20803905 190.9146257 C-21.2166696 188.31082992 -21.21822945 185.70708041 -21.21972656 183.10327148 C-21.22435851 181.23022362 -21.22938367 179.3571767 -21.23477173 177.48413086 C-21.24785604 172.40785847 -21.25433219 167.33159928 -21.25878239 162.25531268 C-21.26171777 159.08309487 -21.26582331 155.91088063 -21.27028656 152.73866463 C-21.28394713 142.81067085 -21.29362248 132.88268529 -21.29748845 122.95468277 C-21.30197459 111.49806837 -21.31955428 100.04157295 -21.34848905 88.58499473 C-21.37009244 79.72368419 -21.38019191 70.86240717 -21.38152957 62.00107056 C-21.38257798 56.71026119 -21.38849423 51.4195639 -21.40634918 46.12878227 C-21.422808 41.15553035 -21.42499602 36.18247506 -21.41621017 31.20920563 C-21.4154388 29.38468716 -21.41979577 27.5601582 -21.42966843 25.73566628 C-21.44236045 23.24402916 -21.43652645 20.75309156 -21.42608643 18.26145935 C-21.43414283 17.54054011 -21.44219923 16.81962088 -21.45049977 16.0768556 C-21.38976755 9.87485304 -19.57813988 6.04079413 -15.49609375 1.4609375 C-10.93382176 -2.04588351 -5.28717249 -1.70553951 0 0 Z " fill="#67757F" transform="translate(157.05859375,381.6640625)"/>
<path d="M0 0 C10.89 0 21.78 0 33 0 C33.66 3.3 34.32 6.6 35 10 C38.75024187 20.85825843 45.85557359 26.16848735 55.75 31.1875 C76.05467643 41.05575903 97.51069697 44.18768161 119.8840332 44.18530273 C122.16572017 44.18747922 124.44691432 44.20566778 126.72851562 44.22460938 C150.75958755 44.32017005 182.22637557 40.6759368 200.38671875 23.0390625 C206.18219305 15.71403202 207.96750668 9.29243986 209 0 C219.89 0 230.78 0 242 0 C242 46.86 242 93.72 242 142 C162.14 142 82.28 142 0 142 C0 95.14 0 48.28 0 0 Z " fill="#76B154" transform="translate(460,674)"/>
<path d="M0 0 C3.24322096 1.54945451 6.25104961 3.36993918 9.3125 5.25 C51.23294452 29.58602729 109.01464146 29.2189424 156.1875 29.25 C157.39432434 29.25133942 158.60114868 29.25267883 159.84454346 29.25405884 C181.03849961 29.24898525 201.93195226 28.22943694 223 26 C224.19093262 25.88253418 225.38186523 25.76506836 226.60888672 25.64404297 C253.62065857 22.96895471 287.70118057 19.46642975 309.75390625 1.79296875 C312 0 312 0 314 0 C314.6512183 2.66545164 315.29607161 5.33219056 315.9375 8 C316.11990234 8.74378906 316.30230469 9.48757813 316.49023438 10.25390625 C318.27158861 17.70320577 319.15456335 24.94234944 319.25 32.625 C319.27578125 33.87539063 319.3015625 35.12578125 319.328125 36.4140625 C318.73364371 42.91089374 315.76712331 46.76255706 311 51 C310.49210937 51.46148437 309.98421875 51.92296875 309.4609375 52.3984375 C287.35500922 70.80381391 251.41989867 73.57787985 224.25 76.75 C223.28441162 76.86561279 222.31882324 76.98122559 221.32397461 77.1003418 C198.92860173 79.50395243 176.25765564 79.18821072 153.76123047 79.18530273 C150.50010671 79.18522119 147.23912259 79.1922301 143.97802734 79.20581055 C125.54725105 79.28133755 107.33630317 79.12849835 89 77 C88.0924144 76.89964447 87.1848288 76.79928894 86.2497406 76.69589233 C58.36213894 73.60559612 19.77813542 69.09125424 -0.66796875 47.8359375 C-8.05449762 37.65509125 -5.08948077 25.2834785 -3.24365234 13.66137695 C-2.45271332 8.99404874 -1.38622641 4.52633057 0 0 Z " fill="#292F33" transform="translate(424,250)"/>
<path d="M0 0 C8.15833766 1.35972294 14.87034527 2.66301239 22.375 5.625 C23.27911621 5.97763916 24.18323242 6.33027832 25.11474609 6.69360352 C37.50875805 11.65804364 47.96478584 18.12158286 58 27 C58.97710938 27.83273437 59.95421875 28.66546875 60.9609375 29.5234375 C83.23150973 48.8312955 97.90526443 76.01983292 100.81738281 105.42926025 C101.52515854 115.39276493 101.19407742 125.45825803 101.125 135.4375 C101.08375 143.873125 101.0425 152.30875 101 161 C67.67 161 34.34 161 0 161 C0 107.87 0 54.74 0 0 Z " fill="#77B155" transform="translate(763,675)"/>
<path d="M0 0 C0 52.8 0 105.6 0 160 C-33.33 160 -66.66 160 -101 160 C-101.061875 151.440625 -101.12375 142.88125 -101.1875 134.0625 C-101.21481201 131.39808838 -101.24212402 128.73367676 -101.27026367 125.98852539 C-101.36573118 110.13283641 -100.63760899 95.09724989 -95.375 80 C-94.99649902 78.89845581 -94.99649902 78.89845581 -94.61035156 77.7746582 C-89.68008346 64.04934287 -82.36148836 52.11213119 -73 41 C-72.25878906 40.10667969 -71.51757812 39.21335937 -70.75390625 38.29296875 C-56.24986164 21.46207206 -36.23161556 8.39476947 -14.9375 2 C-14.2475293 1.79213867 -13.55755859 1.58427734 -12.84667969 1.37011719 C-8.23761261 0.08944697 -4.97792806 0 0 0 Z " fill="#77B255" transform="translate(399,676)"/>
<path d="M0 0 C4.29 0 8.58 0 13 0 C13.226875 1.44375 13.45375 2.8875 13.6875 4.375 C15.40081401 12.72888281 18.61900932 19.87198193 25.37890625 25.27734375 C47.60775915 39.88676868 73.76564136 44.18807981 99.8840332 44.18530273 C102.16572017 44.18747922 104.44691432 44.20566778 106.72851562 44.22460938 C130.75958755 44.32017005 162.22637557 40.6759368 180.38671875 23.0390625 C185.86502258 16.11491093 188.70762531 8.77124077 189 0 C193.29 0 197.58 0 202 0 C202.31227697 8.01510896 201.55666373 14.41683889 199 22 C198.37931641 23.86011719 198.37931641 23.86011719 197.74609375 25.7578125 C186.80405223 57.27089209 161.0816059 84.05067644 135 104 C133.4840625 105.24136719 133.4840625 105.24136719 131.9375 106.5078125 C122.87822074 113.86084749 111.04842282 122.7205507 98.90625 122.5234375 C83.25001199 119.70363119 69.72744327 106.6573476 58.4765625 96.265625 C56.43353735 94.39661145 54.36162974 92.58190742 52.265625 90.7734375 C40.35563305 80.37198897 28.94785672 69.07763675 20 56 C19.57783203 55.38447266 19.15566406 54.76894531 18.72070312 54.13476562 C8.21280829 38.62751995 -1.37441606 19.2418248 0 0 Z " fill="#3E721D" transform="translate(480,674)"/>
<path d="M0 0 C1.12229169 0.95645728 2.24380547 1.91382742 3.36499023 2.87158203 C3.98961655 3.40461945 4.61424286 3.93765686 5.25779724 4.48684692 C7.25465457 6.2211748 9.1517891 8.04668115 11.0625 9.875 C35.96629907 32.06356373 71.1767227 35.4446885 103 34 C108.78446933 33.47965793 114.35592084 32.33996124 120 31 C121.24394531 30.73316406 122.48789062 30.46632813 123.76953125 30.19140625 C141.54522049 26.00341664 156.45864531 17.41963336 169.7734375 5.015625 C171.77592784 3.20284427 173.82963601 1.60257263 176 0 C176.15330105 6.90074897 176.25769325 13.8010521 176.32958984 20.703125 C176.35959036 23.04639088 176.40040491 25.38954611 176.45263672 27.73242188 C177.02363286 54.02063646 177.02363286 54.02063646 167.74291992 64.56420898 C151.84897262 80.95289566 122.39706694 85.73018442 100.57369995 86.23738098 C97.61003951 86.275384 94.64766898 86.27753992 91.68383789 86.26074219 C89.43543664 86.24999013 87.18783097 86.26073066 84.93945312 86.2734375 C59.11647139 86.30080882 27.82538752 81.66286225 8.203125 63.3203125 C1.05594903 55.64240564 -0.59667851 47.63621758 -0.390625 37.40234375 C-0.38496521 36.32747208 -0.37930542 35.2526004 -0.37347412 34.14515686 C-0.35124317 30.74213433 -0.3010706 27.34019949 -0.25 23.9375 C-0.22991789 21.61785384 -0.21167013 19.29819104 -0.1953125 16.97851562 C-0.15142212 11.3186449 -0.08464412 5.65940019 0 0 Z " fill="#FEDB5C" transform="translate(493,633)"/>
<path d="M0 0 C0.14695313 1.21236328 0.14695313 1.21236328 0.296875 2.44921875 C1.28540303 10.56399989 1.28540303 10.56399989 6 17 C10.48120964 19.98747309 14.75232595 19.84167715 20 19 C23.82160264 16.97759435 26.22494819 14.33872586 28.375 10.625 C29.2162706 7.09166348 29.6324259 3.61447866 30 0 C35.18692945 2.37116775 37.43784051 6.11218806 40 11 C41.31221524 14.93664572 41.13088917 18.68322191 41.11352539 22.78588867 C41.11367142 23.68365524 41.11381744 24.58142181 41.1139679 25.50639343 C41.11327064 28.47694303 41.10548697 31.44743009 41.09765625 34.41796875 C41.09579141 36.47634344 41.09436782 38.53471858 41.09336853 40.59309387 C41.08954859 46.01330794 41.07972273 51.43349524 41.06866455 56.85369873 C41.05664171 63.35567421 41.0520457 69.85765862 41.04621124 76.35964203 C41.03651073 86.23977997 41.01735049 96.11985919 41 106 C24.17 106 7.34 106 -10 106 C-10.16043524 83.11123947 -10.16043524 83.11123947 -10.1953125 73.33203125 C-10.21919594 66.66702489 -10.24740794 60.00223897 -10.30175781 53.33740234 C-10.34531506 47.96222522 -10.36915819 42.58728461 -10.37950897 37.21194458 C-10.38688258 35.16427896 -10.40128152 33.11662584 -10.42292023 31.06906128 C-10.45208528 28.19419691 -10.4559505 25.32030173 -10.45410156 22.4453125 C-10.46848267 21.60445602 -10.48286377 20.76359955 -10.49768066 19.89726257 C-10.44824146 12.76266917 -8.30845883 7.16421713 -3.3125 2 C-1 0 -1 0 0 0 Z " fill="#C0694F" transform="translate(237,730)"/>
<path d="M0 0 C2.16827968 1.17332358 4.29013805 2.43414451 6.375 3.75 C11.94618044 7.25109095 17.17528119 9.13958886 23.625 10.4375 C24.37571777 10.58864258 25.12643555 10.73978516 25.89990234 10.89550781 C37.58395881 13.02721188 49.40781122 13.23874474 61.25 13.25 C62.36051727 13.25151062 62.36051727 13.25151062 63.49346924 13.25305176 C93.04990507 13.54974873 93.04990507 13.54974873 119.75 2.75 C124.15525083 -0.38864164 126.63556654 -0.87941532 132 0 C136.30746475 2.23656823 139.52075882 4.80436107 142 9 C142.75716537 13.19882613 142.95327217 15.42206811 140.7421875 19.08203125 C128.16514811 34.37922102 107.42689704 38.17601845 88.6875 40.1875 C56.90317218 43.14294202 15.62776975 45.30037892 -11 25 C-14.96630621 21.61252454 -18.29697247 18.38091081 -18.875 13 C-18.42371579 7.82048801 -14.69063311 4.34828931 -11 1 C-7.33995089 -0.83002455 -3.9133113 -0.77279677 0 0 Z " fill="#C16A4F" transform="translate(519,549)"/>
<path d="M0 0 C5.76846508 2.27547895 9.82091286 6.09126908 12.98779297 11.37304688 C14.96733383 16.51049494 14.6959081 21.97669027 14.59692383 27.40869141 C14.56255779 29.49648935 14.57631147 31.58005224 14.59570312 33.66796875 C14.5873793 42.18304767 13.9812707 48.38635745 8.25390625 55.0234375 C3.04765884 59.18362596 -0.94279161 61.54891816 -7.890625 61.30078125 C-14.19217892 60.40222634 -18.03406423 57.328744 -21.9375 52.4375 C-26.6979699 46.00707027 -26.25008095 40.18626665 -26.29516602 32.39575195 C-26.30664839 31.01576453 -26.32704102 29.6358202 -26.35668945 28.25610352 C-26.55563846 18.98997004 -26.58006115 12.09217769 -20.1484375 4.94140625 C-19.56320312 4.48636719 -18.97796875 4.03132813 -18.375 3.5625 C-17.78460937 3.08941406 -17.19421875 2.61632812 -16.5859375 2.12890625 C-11.71765999 -1.33644399 -5.71587163 -0.67592971 0 0 Z " fill="#682313" transform="translate(668,391)"/>
<path d="M0 0 C4.52597501 3.42207867 8.41075326 7.6330251 10.5625 12.9375 C10.96192301 17.29960204 10.93411074 21.66646367 10.93310547 26.04443359 C10.93745831 28.16717004 10.97374009 30.28779014 11.01171875 32.41015625 C11.08501919 41.06796484 10.66377264 47.289391 4.74609375 53.99609375 C3.88177734 54.67865234 3.88177734 54.67865234 3 55.375 C2.42121094 55.84808594 1.84242188 56.32117188 1.24609375 56.80859375 C-3.84048029 60.21931277 -10.61034283 59.66072873 -16.4375 58.9375 C-21.9887765 56.42289356 -25.5290206 52.17276291 -28.4375 46.9375 C-30.15897041 41.77308878 -29.70251416 36.25748689 -29.73266602 30.85107422 C-29.74416543 29.41575242 -29.76458536 27.9804727 -29.79418945 26.54541016 C-30.11689449 10.89331442 -30.11689449 10.89331442 -23.5859375 3.9765625 C-23.00070312 3.50992187 -22.41546875 3.04328125 -21.8125 2.5625 C-21.22210938 2.08039063 -20.63171875 1.59828125 -20.0234375 1.1015625 C-14.63176975 -2.85586851 -6.09586242 -1.88417566 0 0 Z " fill="#672213" transform="translate(509.4375,392.0625)"/>
<path d="M0 0 C0.66902344 0.40089844 1.33804687 0.80179688 2.02734375 1.21484375 C16.8958748 10.01621582 31.51214293 18.06944657 48.25 22.625 C49.00007324 22.83157227 49.75014648 23.03814453 50.52294922 23.25097656 C63.00090986 26.50195974 75.47813429 27.37979796 88.3125 27.3125 C89.03744659 27.31067719 89.76239319 27.30885437 90.50930786 27.30697632 C101.30531461 27.26132315 111.50165994 26.71207118 122 24 C123.45829505 23.65608764 124.91663014 23.31234499 126.375 22.96875 C142.58262979 18.96819863 157.06446452 12.09540738 171 3 C172.66223635 1.99265294 174.3274486 0.99012605 176 0 C176.44943019 3.92387131 176.3520906 5.52943025 173.9453125 8.74609375 C147.49378761 33.98861542 116.1124782 41.71078321 80.20947266 41.09326172 C53.61418271 40.32044864 28.01589864 31.97093067 8 14 C7.18789063 13.29359375 6.37578125 12.5871875 5.5390625 11.859375 C0.0521202 6.81523857 0.0521202 6.81523857 -0.20703125 2.76171875 C-0.13871094 1.85035156 -0.07039063 0.93898438 0 0 Z " fill="#F9CA55" transform="translate(493,627)"/>
<path d="M0 0 C1.36283615 -0.01285538 1.36283615 -0.01285538 2.75320435 -0.02597046 C4.67121048 -0.03743236 6.58930353 -0.03847563 8.50732422 -0.02978516 C11.42958293 -0.02347148 14.34777415 -0.07037051 17.26953125 -0.12109375 C19.13801575 -0.12564111 21.00651108 -0.12704608 22.875 -0.125 C23.74188446 -0.14341949 24.60876892 -0.16183899 25.50192261 -0.18081665 C31.09834604 -0.09622854 34.08583638 1.09202921 38.18460083 4.92398071 C41.25252662 8.63809855 41.96474801 11.72148082 41.8203125 16.578125 C41.25859595 21.1245183 39.34453092 23.90287759 36.0078125 26.9140625 C29.87050552 31.16296734 22.01610964 29.94397532 14.76904297 30.0065918 C12.89710989 30.02811757 11.02527598 30.06215595 9.15380859 30.10913086 C6.44583481 30.17645882 3.7399451 30.20364704 1.03125 30.22265625 C-0.20983017 30.26440224 -0.20983017 30.26440224 -1.47598267 30.30699158 C-7.94988508 30.28436302 -11.81276541 28.096631 -16.4296875 23.6015625 C-18.91633895 19.66436436 -19.15517876 15.16051372 -18.4296875 10.6015625 C-13.99299409 2.05681963 -9.11331732 -0.01907367 0 0 Z " fill="#C1694F" transform="translate(569.4296875,477.3984375)"/>
<path d="M0 0 C0.36707489 15.42787849 0.60136677 37.89899614 -9.94921875 50.2890625 C-12 52 -12 52 -15.375 52.5625 C-19.81075121 51.87419378 -22.09458548 50.2827353 -25 47 C-27.3038632 43.356656 -29.21506286 39.54889465 -31.125 35.6875 C-31.89263672 34.17639648 -31.89263672 34.17639648 -32.67578125 32.63476562 C-33.67180846 30.66959627 -34.66068752 28.70078391 -35.64160156 26.72802734 C-36.50256442 24.99898367 -37.37317045 23.27468075 -38.25683594 21.55712891 C-41 16.21435246 -41 16.21435246 -41 14 C-41.99 13.67 -42.98 13.34 -44 13 C-43.31502441 12.84362061 -42.63004883 12.68724121 -41.92431641 12.52612305 C-33.22668142 10.45508606 -24.82304097 7.70402191 -16.375 4.8125 C-14.33703401 4.11720246 -12.29862061 3.42333512 -10.25894165 2.733078 C-8.43498497 2.11556448 -6.6127053 1.49310401 -4.79052734 0.87036133 C-2 0 -2 0 0 0 Z " fill="#FEAB33" transform="translate(765,361)"/>
<path d="M0 0 C0.80107178 0.26216309 1.60214355 0.52432617 2.42749023 0.79443359 C5.44007715 1.77810881 8.45387527 2.75795915 11.46850586 3.73535156 C12.76554218 4.15670744 14.06210532 4.57952311 15.3581543 5.00390625 C22.52507415 7.34954424 29.59897125 9.53429028 37 11 C36.566875 11.4640625 36.13375 11.928125 35.6875 12.40625 C33.23521256 16.17550661 32.22736465 20.19965735 31 24.5 C30.73872314 25.39187012 30.47744629 26.28374023 30.20825195 27.20263672 C28.50718764 33.06321462 26.93186475 38.94002114 25.54296875 44.8828125 C25 47 25 47 24 49 C21.10613199 49.11811706 19.6214972 49.09867817 17 48 C5.06068043 35.90923029 1.59875078 16.29127048 0 0 Z " fill="#FEAC33" transform="translate(397,362)"/>
</svg>
