<?xml version="1.0" encoding="UTF-8"?>
<svg version="1.1" xmlns="http://www.w3.org/2000/svg" width="1000" height="1000">
<path d="M0 0 C330 0 660 0 1000 0 C1000 330 1000 660 1000 1000 C670 1000 340 1000 0 1000 C0 670 0 340 0 0 Z " fill="#E3EEE5" transform="translate(0,0)"/>
<path d="M0 0 C11.16399336 6.2063811 20.26180548 15.21316448 29.09423828 24.32885742 C32.73602557 28.17707166 32.73602557 28.17707166 37 31.25 C41.22753213 31.26746914 43.88886072 27.8803729 46.75 25.125 C47.82625946 24.11398318 48.90308229 23.10356575 49.98046875 22.09375 C50.50044434 21.60261719 51.02041992 21.11148438 51.55615234 20.60546875 C54.62364373 17.72574062 57.80493042 14.98600786 61 12.25 C62.22589844 11.15365234 62.22589844 11.15365234 63.4765625 10.03515625 C73.3493932 1.48534177 82.98467171 -4.02420044 96.37109375 -3.37890625 C119.24786206 0.58574359 137.892393 30.34050984 150.265625 47.83203125 C167.41281065 72.40819822 182.72540031 98.0052784 193 126.25 C193.39960937 127.34183594 193.79921875 128.43367187 194.2109375 129.55859375 C195 132.25 195 132.25 195 136.25 C195.89272362 136.24333817 195.89272362 136.24333817 196.80348206 136.23654175 C253.80723425 135.83105236 253.80723425 135.83105236 279 138.25 C280.29309082 138.37012451 280.29309082 138.37012451 281.61230469 138.49267578 C294.59153327 139.74692623 310.28635642 141.31194868 320.125 150.875 C323.39827664 156.76689796 322.87528631 162.07660513 321.11328125 168.46484375 C310.05563113 199.36013859 279.05115591 224.02472253 251 239.25 C250.34 239.25 249.68 239.25 249 239.25 C249.4434375 240.34183594 249.886875 241.43367187 250.34375 242.55859375 C261.25672999 271.80717334 260.51960897 306.1101817 260.3264122 336.94623566 C260.31223507 339.42125125 260.30360001 341.89623127 260.29653931 344.37127686 C260.16777971 387.51840149 259.50509625 430.7549812 256.5625 473.8125 C256.50710052 474.6402594 256.45170105 475.4680188 256.3946228 476.32086182 C255.78204347 485.20490125 254.85897521 494.02496811 253.6171875 502.84375 C253.50907242 503.65183609 253.40095734 504.45992218 253.28956604 505.29249573 C251.71108759 515.84941153 247.41038996 528.16985196 238.81640625 534.98046875 C237.70072266 535.70169922 237.70072266 535.70169922 236.5625 536.4375 C235.82128906 536.92605469 235.08007812 537.41460938 234.31640625 537.91796875 C222.62989542 544.63820516 208.06045857 541.60210578 195.64746094 538.36474609 C171.96942718 531.79075551 148.55630866 523.76706763 125.43139648 515.47119141 C124.63161377 515.18550293 123.83183105 514.89981445 123.0078125 514.60546875 C122.01225342 514.24424927 122.01225342 514.24424927 120.99658203 513.87573242 C118.71183332 513.15968804 116.34782965 512.71956593 114 512.25 C113.67 522.48 113.34 532.71 113 543.25 C119.52974609 543.18039062 119.52974609 543.18039062 126.19140625 543.109375 C129.73442895 543.08352408 133.27742384 543.06187846 136.82048798 543.04299927 C140.52090917 543.02216104 144.22094427 542.99448555 147.92114258 542.94824219 C169.99667135 542.68003796 191.32815778 543.46206206 212.375 551 C213.36266357 551.34216553 214.35032715 551.68433105 215.36791992 552.03686523 C228.35948056 556.64758938 240.6990225 562.29180413 252 570.25 C253.44246094 571.26513672 253.44246094 571.26513672 254.9140625 572.30078125 C279.99472299 590.54420742 294.82027162 611.7361544 302 642.25 C302 669.64 302 697.03 302 725.25 C128.42 725.25 -45.16 725.25 -224 725.25 C-224 617.3021542 -224 617.3021542 -195 587.25 C-192.43758111 584.77889225 -189.75795583 582.49978976 -187 580.25 C-185.61361328 579.10724609 -185.61361328 579.10724609 -184.19921875 577.94140625 C-167.83802208 564.74394807 -149.10643629 555.17155234 -129.0625 548.9375 C-128.33764404 548.70708008 -127.61278809 548.47666016 -126.8659668 548.23925781 C-107.69215393 542.617746 -88.3325455 542.86397632 -68.56384277 543.04400635 C-64.09647164 543.08070356 -59.62897137 543.09397124 -55.16149139 543.11136627 C-48.44073499 543.14005786 -41.72080004 543.19769052 -35 543.25 C-35 532.69 -35 522.13 -35 511.25 C-49.91114163 515.63401307 -64.65098813 520.40262878 -79.375 525.375 C-105.09383276 534.05922958 -105.09383276 534.05922958 -117 537.25 C-118.21139648 537.58378662 -118.21139648 537.58378662 -119.44726562 537.92431641 C-140.82445117 543.71835662 -140.82445117 543.71835662 -149.58984375 540.21484375 C-162.26732258 532.64210681 -166.98167569 516.38346571 -170.75 503 C-171.05292969 501.96359375 -171.35585938 500.9271875 -171.66796875 499.859375 C-173.15983699 494.66104299 -174.42247449 489.63010608 -175 484.25 C-175.17015625 484.77730713 -175.3403125 485.30461426 -175.515625 485.84790039 C-186.03384245 518.07043158 -204.96053961 545.41042386 -235.7734375 561.23046875 C-243.59192916 565.08432856 -251.58337617 567.97121341 -260 570.25 C-260.77214844 570.47558594 -261.54429687 570.70117188 -262.33984375 570.93359375 C-266.6599075 572.13591476 -270.53809225 572.31389367 -275 572.25 C-274.983714 578.85250489 -274.92889472 585.4538882 -274.84741211 592.0559082 C-274.82423055 594.30127693 -274.80983605 596.54675442 -274.80444336 598.79223633 C-274.7951553 602.02233673 -274.75416577 605.25072609 -274.70703125 608.48046875 C-274.71293022 609.98386055 -274.71293022 609.98386055 -274.71894836 611.5176239 C-274.6217529 617.34821131 -274.6217529 617.34821131 -271.59643555 622.2277832 C-270.73961182 622.89511475 -269.88278809 623.56244629 -269 624.25 C-264.5806568 630.38797666 -263.85506165 634.6137183 -263.88647461 642.03588867 C-263.88632858 642.93365524 -263.88618256 643.83142181 -263.8860321 644.75639343 C-263.88672936 647.72694303 -263.89451303 650.69743009 -263.90234375 653.66796875 C-263.90420859 655.72634344 -263.90563218 657.78471858 -263.90663147 659.84309387 C-263.91045141 665.26330794 -263.92027727 670.68349524 -263.93133545 676.10369873 C-263.94335829 682.60567421 -263.9479543 689.10765862 -263.95378876 695.60964203 C-263.96348927 705.48977997 -263.98264951 715.36985919 -264 725.25 C-280.83 725.25 -297.66 725.25 -315 725.25 C-315.16043524 702.36123947 -315.16043524 702.36123947 -315.1953125 692.58203125 C-315.21919594 685.91702489 -315.24740794 679.25223897 -315.30175781 672.58740234 C-315.34531506 667.21222522 -315.36915819 661.83728461 -315.37950897 656.46194458 C-315.38688258 654.41427896 -315.40128152 652.36662584 -315.42292023 650.31906128 C-315.45208528 647.44419691 -315.4559505 644.57030173 -315.45410156 641.6953125 C-315.46848267 640.85445602 -315.48286377 640.01359955 -315.49768066 639.14726257 C-315.45800431 633.42155015 -314.25343007 629.01891811 -311 624.25 C-309.66062378 623.09141479 -309.66062378 623.09141479 -308.29418945 621.90942383 C-304.78073732 617.83663101 -305.27204659 613.91499875 -305.29296875 608.69921875 C-305.27028679 607.17830376 -305.27028679 607.17830376 -305.24714661 605.62666321 C-305.20425117 602.39671624 -305.19542953 599.16770351 -305.1875 595.9375 C-305.16435723 593.74411576 -305.13899236 591.55075375 -305.11132812 589.35742188 C-305.04845789 583.98827241 -305.01353817 578.61948829 -305 573.25 C-305.84692917 573.08984406 -305.84692917 573.08984406 -306.71096802 572.92645264 C-309.31113596 572.43110341 -311.90943933 571.92655069 -314.5078125 571.421875 C-315.83969604 571.17026611 -315.83969604 571.17026611 -317.19848633 570.91357422 C-346.4683909 565.18597691 -371.24892615 545.31922195 -388 521.25 C-395.96027444 509.27018104 -400.9804363 496.27992404 -404 482.25 C-404.16199566 481.60104049 -404.32399131 480.95208098 -404.49089593 480.28345603 C-405.75173006 475.08062135 -406.28886661 470.26153795 -406.26069641 464.91902161 C-406.26452196 464.13152312 -406.26834751 463.34402464 -406.27228898 462.53266257 C-406.28252251 459.92120053 -406.27864545 457.30996234 -406.2746582 454.69848633 C-406.27900985 452.81529031 -406.28419451 450.93209606 -406.29014587 449.04890442 C-406.30349382 443.95413558 -406.30411957 438.85944112 -406.30158257 433.76465821 C-406.30051068 429.50739882 -406.30540148 425.25015435 -406.310188 420.99289817 C-406.32126718 410.95171561 -406.32172858 400.91057047 -406.31567383 390.86938477 C-406.30962539 380.51337669 -406.32197078 370.15750417 -406.3432439 359.80151922 C-406.36085245 350.90194579 -406.3668627 342.00241555 -406.36360615 333.10282534 C-406.36179303 327.79081607 -406.36443305 322.47890366 -406.37832069 317.16691017 C-406.39088335 312.17556262 -406.38896973 307.18442706 -406.37590981 302.19308281 C-406.37354162 300.36211704 -406.37628736 298.53113641 -406.38453293 296.70018768 C-406.39498098 294.1998877 -406.38691581 291.70030176 -406.3742218 289.20002747 C-406.38159609 288.47658152 -406.38897037 287.75313557 -406.39656812 287.00776702 C-406.33029775 280.7986482 -404.52493909 276.96090727 -400.4375 272.375 C-396.98100044 269.7181384 -393.72338392 269.59259235 -389.46484375 269.8359375 C-385.39436227 270.51972678 -383.29232413 271.68198718 -380 274.25 C-376.53515531 279.29957472 -375.41627286 283.06903526 -375.50120544 289.22416687 C-375.49582089 289.997556 -375.49043634 290.77094514 -375.48488861 291.5677703 C-375.4716767 294.14405983 -375.48673047 296.71938638 -375.50170898 299.2956543 C-375.4978836 301.14911841 -375.49226268 303.00257955 -375.48498535 304.85603333 C-375.47304821 308.8409594 -375.473514 312.82562193 -375.48357964 316.8105526 C-375.49916802 323.1196321 -375.48544184 329.42844214 -375.46754456 335.73750305 C-375.4367373 347.9991091 -375.43522209 360.2606326 -375.43719482 372.5222702 C-375.43858782 388.11134003 -375.4281397 403.70034583 -375.3886171 419.28936893 C-375.37373301 425.55242785 -375.3739172 431.81524704 -375.38609493 438.07830942 C-375.39082747 441.98707043 -375.3832524 445.89574096 -375.37255096 449.80448723 C-375.37015794 451.60713011 -375.37283338 453.40978854 -375.38115883 455.21241379 C-375.43697169 468.07393428 -374.14165747 479.43198629 -368.8125 491.3125 C-368.36185181 492.32582397 -368.36185181 492.32582397 -367.90209961 493.35961914 C-365.02369266 499.5911073 -361.36593097 504.95334731 -357 510.25 C-356.39671875 511.01570312 -355.7934375 511.78140625 -355.171875 512.5703125 C-347.72380189 521.55181242 -338.43959036 528.30432293 -328.125 533.625 C-327.53847656 533.93445557 -326.95195312 534.24391113 -326.34765625 534.56274414 C-321.80562731 536.78011735 -317.09663926 538.0963215 -312.21826172 539.36181641 C-311.52317001 539.54452591 -310.82807831 539.72723541 -310.11192322 539.91548157 C-308.40860519 540.36282778 -306.70439085 540.80675878 -305 541.25 C-305.00113916 540.70212621 -305.00227832 540.15425242 -305.003452 539.5897764 C-305.07057706 507.12286317 -305.12205503 474.65596831 -305.15319599 442.1890017 C-305.15694814 438.29120284 -305.1608311 434.39340412 -305.16479492 430.49560547 C-305.16558185 429.71961949 -305.16636878 428.94363351 -305.16717956 428.14413281 C-305.18023572 415.57723692 -305.20389072 403.01038217 -305.23145839 390.4435107 C-305.25950674 377.5500428 -305.27617505 364.65659646 -305.28226548 351.76309931 C-305.28638311 343.80624357 -305.29939127 335.84950412 -305.3237494 327.89268418 C-305.34147249 321.79277277 -305.34336706 315.69296153 -305.33932304 309.59302139 C-305.34014975 307.08962029 -305.34613529 304.58621487 -305.35761642 302.08283997 C-305.37250739 298.66910772 -305.3689656 295.25587602 -305.36076355 291.84213257 C-305.36950207 290.84796306 -305.3782406 289.85379355 -305.38724393 288.82949769 C-305.34213562 281.89969863 -304.15954647 277.6729058 -299.4375 272.375 C-295.98100044 269.7181384 -292.72338392 269.59259235 -288.46484375 269.8359375 C-283.16198202 270.72675104 -280.04873728 272.80527275 -276.83475113 277.23281956 C-274.2566991 281.99416504 -274.45663092 286.65778479 -274.51898193 291.96238708 C-274.51556423 293.03009167 -274.51214653 294.09779626 -274.50862527 295.19785553 C-274.50204561 298.76946668 -274.52402497 302.34032351 -274.54589844 305.91186523 C-274.54702689 308.47444135 -274.5463931 311.03701876 -274.54412842 313.59959412 C-274.54321804 319.11351018 -274.55455073 324.62718407 -274.57707977 330.14105034 C-274.60963123 338.11305246 -274.62000999 346.08496311 -274.62503174 354.05702449 C-274.63377947 366.99208849 -274.66038085 379.92705141 -274.69824219 392.86206055 C-274.73497581 405.42488093 -274.76328094 417.98767384 -274.78027344 430.55053711 C-274.78132433 431.3253169 -274.78237523 432.10009668 -274.78345796 432.89835464 C-274.78867823 436.78531855 -274.79373304 440.67228266 -274.79870558 444.5592469 C-274.84015136 476.78957138 -274.91058553 509.01977164 -275 541.25 C-272.31702969 540.49084372 -269.63659345 539.72414616 -266.95703125 538.953125 C-266.20748169 538.74187988 -265.45793213 538.53063477 -264.68566895 538.31298828 C-243.80013487 532.26970722 -227.08930954 518.76857505 -216 500.25 C-207.24079076 483.64360332 -204.69927851 468.60005727 -204.72875977 450.04394531 C-204.72436687 448.20986196 -204.71906267 446.3757806 -204.71292114 444.54170227 C-204.70146767 440.60927361 -204.69596519 436.67689849 -204.69503975 432.74445343 C-204.69309181 426.52504111 -204.6750012 420.30573908 -204.65428162 414.08636475 C-204.60520255 398.64600657 -204.57418207 383.20561873 -204.55297852 367.76519775 C-204.53645696 355.74907546 -204.51366749 343.73304857 -204.46995777 331.71699023 C-204.44818417 325.53508389 -204.44012314 319.35335882 -204.44235051 313.17141676 C-204.44068417 309.32848485 -204.42663913 305.48567154 -204.40913773 301.64278221 C-204.40353795 299.86181437 -204.40305324 298.08082194 -204.40807533 296.29985237 C-204.41421533 293.8674566 -204.40198838 291.43580963 -204.38526917 289.003479 C-204.39148098 288.30016992 -204.3976928 287.59686083 -204.40409285 286.87223935 C-204.32730707 280.73570044 -202.47493943 276.9048101 -198.4375 272.375 C-194.42890573 269.23258439 -189.8513153 269.66550418 -185 270.25 C-184.01 270.58 -183.02 270.91 -182 271.25 C-181.83395264 270.47398437 -181.66790527 269.69796875 -181.49682617 268.8984375 C-180.73331718 265.34757777 -179.96048947 261.79880745 -179.1875 258.25 C-178.92646484 257.02925781 -178.66542969 255.80851562 -178.39648438 254.55078125 C-177.0105929 248.22016586 -175.49199632 242.23677794 -173 236.25 C-173.82242188 236.02441406 -174.64484375 235.79882812 -175.4921875 235.56640625 C-179.78973893 233.95362804 -183.31285566 231.71400867 -187.125 229.1875 C-188.24660522 228.45104248 -188.24660522 228.45104248 -189.39086914 227.69970703 C-199.58275924 220.94882282 -209.11184919 213.66465724 -218 205.25 C-218.47969238 204.80817383 -218.95938477 204.36634766 -219.45361328 203.91113281 C-231.67989481 192.61626521 -243.81061914 177.6997448 -244.5625 160.3125 C-244.27857834 155.53430629 -243.43145246 152.7631537 -240 149.25 C-234.67166382 144.88845472 -228.92316793 142.71413728 -222.26953125 141.1796875 C-221.52740387 141.00838318 -220.78527649 140.83707886 -220.0206604 140.6605835 C-211.69525818 138.83588869 -203.36553014 138.07270228 -194.875 137.5 C-193.61552048 137.40844131 -193.61552048 137.40844131 -192.33059692 137.31503296 C-167.2684803 135.52918297 -142.10736097 135.97029877 -117 136.25 C-116.80417076 135.34004776 -116.80417076 135.34004776 -116.60438538 134.41171265 C-116.42951096 133.60988556 -116.25463654 132.80805847 -116.07446289 131.98193359 C-115.81675865 130.79354385 -115.81675865 130.79354385 -115.55384827 129.58114624 C-106.94341574 93.33985306 -81.1453098 57.73943011 -58 29.25 C-57.49807129 28.62851074 -56.99614258 28.00702148 -56.47900391 27.36669922 C-42.57419326 10.27676352 -24.14589142 -11.24079917 0 0 Z " fill="#FEDB5C" transform="translate(542,110.75)"/>
<path d="M0 0 C11.16399336 6.2063811 20.26180548 15.21316448 29.09423828 24.32885742 C32.73602557 28.17707166 32.73602557 28.17707166 37 31.25 C41.22753213 31.26746914 43.88886072 27.8803729 46.75 25.125 C47.82625946 24.11398318 48.90308229 23.10356575 49.98046875 22.09375 C50.50044434 21.60261719 51.02041992 21.11148438 51.55615234 20.60546875 C54.62364373 17.72574062 57.80493042 14.98600786 61 12.25 C62.22589844 11.15365234 62.22589844 11.15365234 63.4765625 10.03515625 C73.3493932 1.48534177 82.98467171 -4.02420044 96.37109375 -3.37890625 C119.24786206 0.58574359 137.892393 30.34050984 150.265625 47.83203125 C167.41281065 72.40819822 182.72540031 98.0052784 193 126.25 C193.59941406 127.88775391 193.59941406 127.88775391 194.2109375 129.55859375 C195 132.25 195 132.25 195 136.25 C195.89272362 136.24333817 195.89272362 136.24333817 196.80348206 136.23654175 C253.80723425 135.83105236 253.80723425 135.83105236 279 138.25 C280.29309082 138.37012451 280.29309082 138.37012451 281.61230469 138.49267578 C294.59153327 139.74692623 310.28635642 141.31194868 320.125 150.875 C323.39827664 156.76689796 322.87528631 162.07660513 321.11328125 168.46484375 C309.68595318 200.39302616 277.80634492 224.52199072 249 240.25 C248.34741211 240.60771484 247.69482422 240.96542969 247.02246094 241.33398438 C231.23139189 249.79538453 214.0364488 254.93457554 197 260.25 C196.00129883 260.56598145 195.00259766 260.88196289 193.97363281 261.20751953 C169.29404517 268.90569786 142.80437174 273.06822216 117.14622498 275.89976501 C115.02807918 276.13555513 112.91069215 276.37825237 110.79408264 276.62745667 C87.79895156 279.30024473 65.04128982 279.65578807 41.91271973 279.51428223 C38.16750948 279.49509452 34.42234829 279.49111974 30.67709541 279.4875679 C26.1206464 279.48236872 21.56423861 279.46792786 17.0078125 279.453125 C16.17413273 279.45124428 15.34045296 279.44936356 14.48151016 279.44742584 C-0.70518228 279.40303003 -15.868779 279.00717359 -30.94140625 277.015625 C-31.86941544 276.89758011 -32.79742462 276.77953522 -33.7535553 276.65791321 C-36.69106996 276.28054227 -39.62687832 275.89180776 -42.5625 275.5 C-43.57568298 275.36616913 -44.58886597 275.23233826 -45.63275146 275.0944519 C-60.90004853 273.06798862 -75.99909303 270.78766832 -91 267.25 C-92.11922852 266.99105957 -93.23845703 266.73211914 -94.39160156 266.46533203 C-130.70255279 257.99343616 -165.49516845 245.15850534 -196 223.25 C-197.06734375 222.48816406 -198.1346875 221.72632813 -199.234375 220.94140625 C-205.86293209 216.08775467 -212.03608887 210.89619897 -218 205.25 C-218.47969238 204.80817383 -218.95938477 204.36634766 -219.45361328 203.91113281 C-231.67989481 192.61626521 -243.81061914 177.6997448 -244.5625 160.3125 C-244.27857834 155.53430629 -243.43145246 152.7631537 -240 149.25 C-234.67166382 144.88845472 -228.92316793 142.71413728 -222.26953125 141.1796875 C-221.15634018 140.92273102 -221.15634018 140.92273102 -220.0206604 140.6605835 C-211.69525818 138.83588869 -203.36553014 138.07270228 -194.875 137.5 C-193.61552048 137.40844131 -193.61552048 137.40844131 -192.33059692 137.31503296 C-167.2684803 135.52918297 -142.10736097 135.97029877 -117 136.25 C-116.80417076 135.34004776 -116.80417076 135.34004776 -116.60438538 134.41171265 C-116.42951096 133.60988556 -116.25463654 132.80805847 -116.07446289 131.98193359 C-115.81675865 130.79354385 -115.81675865 130.79354385 -115.55384827 129.58114624 C-106.94341574 93.33985306 -81.1453098 57.73943011 -58 29.25 C-57.49807129 28.62851074 -56.99614258 28.00702148 -56.47900391 27.36669922 C-42.57419326 10.27676352 -24.14589142 -11.24079917 0 0 Z " fill="#C0694F" transform="translate(542,110.75)"/>
<path d="M0 0 C3.71983475 -0.01093738 7.43700199 -0.07301711 11.15604877 -0.14671612 C14.07244814 -0.19553265 16.98821661 -0.20754066 19.90498924 -0.21006203 C21.92891815 -0.22057426 23.95254754 -0.26837965 25.97590637 -0.31755066 C36.51279849 -0.2415668 42.53229737 3.02553311 51.13745117 8.66577148 C70.65733813 19.22104706 95.49666462 20.36869152 117.13745117 19.66577148 C118.26159424 19.63459229 118.26159424 19.63459229 119.40844727 19.6027832 C141.91641246 18.90151957 164.22848863 13.27174651 183.13745117 0.66577148 C185.81109619 0.39834595 185.81109619 0.39834595 189.07983398 0.37524414 C190.92016205 0.35610458 190.92016205 0.35610458 192.79766846 0.33657837 C194.14530275 0.33351459 195.49293918 0.33129012 196.84057617 0.32983398 C198.23850639 0.32339448 199.63643529 0.31666529 201.03436279 0.30966187 C203.98005267 0.2976626 206.92562529 0.29398217 209.87133789 0.29516602 C212.84652572 0.2953265 215.82108437 0.28178533 218.79614258 0.25415039 C240.93462434 0.05165467 262.4125851 0.85884303 283.51245117 8.41577148 C284.50011475 8.75793701 285.48777832 9.10010254 286.50537109 9.45263672 C299.49693174 14.06336087 311.83647367 19.70757562 323.13745117 27.66577148 C324.0990918 28.3425293 325.06073242 29.01928711 326.05151367 29.71655273 C351.13217416 47.9599789 365.95772279 69.15192588 373.13745117 99.66577148 C373.13745117 127.05577148 373.13745117 154.44577148 373.13745117 182.66577148 C199.55745117 182.66577148 25.97745117 182.66577148 -152.86254883 182.66577148 C-152.86254883 74.71792568 -152.86254883 74.71792568 -123.86254883 44.66577148 C-121.30012994 42.19466374 -118.62050465 39.91556124 -115.86254883 37.66577148 C-114.93829102 36.90393555 -114.0140332 36.14209961 -113.06176758 35.35717773 C-96.7005709 22.15971955 -77.96898511 12.58732382 -57.92504883 6.35327148 C-56.83776489 6.0076416 -56.83776489 6.0076416 -55.72851562 5.6550293 C-37.48794908 0.30713313 -18.84305709 0.04492143 0 0 Z " fill="#226699" transform="translate(470.862548828125,653.334228515625)"/>
<path d="M0 0 C4.59828253 2.27441932 7.02855914 5.72215428 8.94140625 10.3359375 C9.30959252 13.13375279 9.47862281 15.5256311 9.44020081 18.31010437 C9.44558536 19.0834935 9.45096991 19.85688264 9.45651764 20.6537078 C9.46972955 23.22999733 9.45467578 25.80532388 9.43969727 28.3815918 C9.44352265 30.23505591 9.44914357 32.08851705 9.4564209 33.94197083 C9.46835804 37.9268969 9.46789225 41.91155943 9.45782661 45.8964901 C9.44223823 52.2055696 9.45596441 58.51437964 9.47386169 64.82344055 C9.50466895 77.0850466 9.50618416 89.3465701 9.50421143 101.6082077 C9.50281843 117.19727753 9.51326655 132.78628333 9.55278915 148.37530643 C9.56767324 154.63836535 9.56748905 160.90118454 9.55531132 167.16424692 C9.55057878 171.07300793 9.55815385 174.98167846 9.56885529 178.89042473 C9.57124831 180.69306761 9.56857287 182.49572604 9.56024742 184.29835129 C9.50443456 197.15987178 10.79974878 208.51792379 16.12890625 220.3984375 C16.42933838 221.07398682 16.72977051 221.74953613 17.03930664 222.44555664 C19.91771359 228.6770448 23.57547528 234.03928481 27.94140625 239.3359375 C28.5446875 240.10164062 29.14796875 240.86734375 29.76953125 241.65625 C37.21760436 250.63774992 46.50181589 257.39026043 56.81640625 262.7109375 C57.69619141 263.17512085 57.69619141 263.17512085 58.59375 263.64868164 C63.13577894 265.86605485 67.84476699 267.182259 72.72314453 268.44775391 C73.76578209 268.72181816 73.76578209 268.72181816 74.82948303 269.00141907 C76.53280106 269.44876528 78.2370154 269.89269628 79.94140625 270.3359375 C79.94026709 269.78806371 79.93912793 269.24018992 79.93795425 268.6757139 C79.87082919 236.20880067 79.81935122 203.74190581 79.78821026 171.2749392 C79.78445811 167.37714034 79.78057515 163.47934162 79.77661133 159.58154297 C79.7758244 158.80555699 79.77503747 158.02957101 79.77422669 157.23007031 C79.76117053 144.66317442 79.73751553 132.09631967 79.70994786 119.5294482 C79.68189951 106.6359803 79.6652312 93.74253396 79.65914077 80.84903681 C79.65502314 72.89218107 79.64201498 64.93544162 79.61765685 56.97862168 C79.59993376 50.87871027 79.59803919 44.77889903 79.60208321 38.67895889 C79.6012565 36.17555779 79.59527096 33.67215237 79.58378983 31.16877747 C79.56889886 27.75504522 79.57244065 24.34181352 79.5806427 20.92807007 C79.57190418 19.93390056 79.56316565 18.93973105 79.55416232 17.91543519 C79.59927063 10.98563613 80.78185978 6.7588433 85.50390625 1.4609375 C88.96040581 -1.1959241 92.21802233 -1.32147015 96.4765625 -1.078125 C101.77942423 -0.18731146 104.89266897 1.89121025 108.10665512 6.31875706 C110.68470715 11.08010254 110.48477533 15.74372229 110.42242432 21.04832458 C110.42584202 22.11602917 110.42925972 23.18373376 110.43278098 24.28379303 C110.43936064 27.85540418 110.41738128 31.42626101 110.39550781 34.99780273 C110.39437936 37.56037885 110.39501315 40.12295626 110.39727783 42.68553162 C110.39818821 48.19944768 110.38685552 53.71312157 110.36432648 59.22698784 C110.33177502 67.19898996 110.32139626 75.17090061 110.31637451 83.14296199 C110.30762678 96.07802599 110.2810254 109.01298891 110.24316406 121.94799805 C110.20643044 134.51081843 110.17812531 147.07361134 110.16113281 159.63647461 C110.16008192 160.4112544 110.15903102 161.18603418 110.15794829 161.98429214 C110.15272802 165.87125605 110.14767321 169.75822016 110.14270067 173.6451844 C110.10125489 205.87550888 110.03082072 238.10570914 109.94140625 270.3359375 C112.62437656 269.57678122 115.3048128 268.81008366 117.984375 268.0390625 C118.73392456 267.82781738 119.48347412 267.61657227 120.2557373 267.39892578 C141.14127138 261.35564472 157.85209671 247.85451255 168.94140625 229.3359375 C177.70061549 212.72954082 180.24212774 197.68599477 180.21264648 179.12988281 C180.21703938 177.29579946 180.22234358 175.4617181 180.22848511 173.62763977 C180.23993858 169.69521111 180.24544106 165.76283599 180.2463665 161.83039093 C180.24831444 155.61097861 180.26640505 149.39167658 180.28712463 143.17230225 C180.3362037 127.73194407 180.36722418 112.29155623 180.38842773 96.85113525 C180.40494929 84.83501296 180.42773876 72.81898607 180.47144848 60.80292773 C180.49322208 54.62102139 180.50128311 48.43929632 180.49905574 42.25735426 C180.50072208 38.41442235 180.51476712 34.57160904 180.53226852 30.72871971 C180.5378683 28.94775187 180.53835301 27.16675944 180.53333092 25.38578987 C180.52719092 22.9533941 180.53941787 20.52174713 180.55613708 18.0894165 C180.54992527 17.38610742 180.54371345 16.68279833 180.5373134 15.95817685 C180.61409918 9.82163794 182.46646682 5.9907476 186.50390625 1.4609375 C189.95048833 -1.18172717 193.16496982 -1.31858531 197.41015625 -1.08203125 C202.85249656 -0.1833732 206.57112737 1.6162997 210.02189732 5.94685936 C212.20645403 9.80390492 212.5019984 12.71581671 212.44261169 17.02212524 C212.45091329 18.15408453 212.45091329 18.15408453 212.45938259 19.30891168 C212.47295423 21.82818756 212.45803862 24.34646661 212.44311523 26.86572266 C212.44690014 28.67650268 212.45240159 30.48727981 212.45948792 32.29804993 C212.47345138 37.21429303 212.46226015 42.13018638 212.4457767 47.04641008 C212.43189801 52.20870755 212.43839062 57.37098527 212.44190979 62.53329468 C212.44461307 71.21724042 212.43113774 79.90104808 212.40795898 88.58496094 C212.38146579 98.57880509 212.37956429 108.57241668 212.39134735 118.56628382 C212.40219571 128.21554852 212.39587555 137.86473032 212.38179207 147.51398849 C212.37608124 151.60037608 212.37607617 155.686702 212.38085747 159.77309036 C212.38569291 164.61098345 212.37525925 169.44862821 212.35390282 174.28647423 C212.34841851 176.04543279 212.34779076 177.80441565 212.35285568 179.56337547 C212.44271041 215.29923745 202.0830389 244.42466303 176.94140625 270.3359375 C162.51138833 284.81503711 144.55330504 294.02604926 124.94140625 299.3359375 C124.16925781 299.56152344 123.39710938 299.78710938 122.6015625 300.01953125 C118.28149875 301.22185226 114.403314 301.39983117 109.94140625 301.3359375 C109.95769225 307.93844239 110.01251153 314.5398257 110.09399414 321.1418457 C110.1171757 323.38721443 110.1315702 325.63269192 110.13696289 327.87817383 C110.14625095 331.10827423 110.18724048 334.33666359 110.234375 337.56640625 C110.22847603 339.06979805 110.22847603 339.06979805 110.22245789 340.6035614 C110.31965335 346.43414881 110.31965335 346.43414881 113.3449707 351.3137207 C114.20179443 351.98105225 115.05861816 352.64838379 115.94140625 353.3359375 C120.36074945 359.47391416 121.0863446 363.6996558 121.05493164 371.12182617 C121.05507767 372.01959274 121.05522369 372.91735931 121.05537415 373.84233093 C121.05467689 376.81288053 121.04689322 379.78336759 121.0390625 382.75390625 C121.03719766 384.81228094 121.03577407 386.87065608 121.03477478 388.92903137 C121.03095484 394.34924544 121.02112898 399.76943274 121.0100708 405.18963623 C120.99804796 411.69161171 120.99345195 418.19359612 120.98761749 424.69557953 C120.97791698 434.57571747 120.95875674 444.45579669 120.94140625 454.3359375 C104.11140625 454.3359375 87.28140625 454.3359375 69.94140625 454.3359375 C69.78097101 431.44717697 69.78097101 431.44717697 69.74609375 421.66796875 C69.72221031 415.00296239 69.69399831 408.33817647 69.63964844 401.67333984 C69.59609119 396.29816272 69.57224806 390.92322211 69.56189728 385.54788208 C69.55452367 383.50021646 69.54012473 381.45256334 69.51848602 379.40499878 C69.48932097 376.53013441 69.48545575 373.65623923 69.48730469 370.78125 C69.47292358 369.94039352 69.45854248 369.09953705 69.44372559 368.23320007 C69.48340194 362.50748765 70.68797618 358.10485561 73.94140625 353.3359375 C75.28078247 352.17735229 75.28078247 352.17735229 76.6472168 350.99536133 C80.16066893 346.92256851 79.66935966 343.00093625 79.6484375 337.78515625 C79.67111946 336.26424126 79.67111946 336.26424126 79.69425964 334.71260071 C79.73715508 331.48265374 79.74597672 328.25364101 79.75390625 325.0234375 C79.77704902 322.83005326 79.80241389 320.63669125 79.83007812 318.44335938 C79.89294836 313.07420991 79.92786808 307.70542579 79.94140625 302.3359375 C79.09447708 302.17578156 79.09447708 302.17578156 78.23043823 302.01239014 C75.63027029 301.51704091 73.03196692 301.01248819 70.43359375 300.5078125 C69.10171021 300.25620361 69.10171021 300.25620361 67.74291992 299.99951172 C38.47301535 294.27191441 13.6924801 274.40515945 -3.05859375 250.3359375 C-11.01886819 238.35611854 -16.03903005 225.36586154 -19.05859375 211.3359375 C-19.22058941 210.68697799 -19.38258506 210.03801848 -19.54948968 209.36939353 C-20.81032381 204.16655885 -21.34746036 199.34747545 -21.31929016 194.00495911 C-21.32311571 193.21746062 -21.32694126 192.42996214 -21.33088273 191.61860007 C-21.34111626 189.00713803 -21.3372392 186.39589984 -21.33325195 183.78442383 C-21.3376036 181.90122781 -21.34278826 180.01803356 -21.34873962 178.13484192 C-21.36208757 173.04007308 -21.36271332 167.94537862 -21.36017632 162.85059571 C-21.35910443 158.59333632 -21.36399523 154.33609185 -21.36878175 150.07883567 C-21.37986093 140.03765311 -21.38032233 129.99650797 -21.37426758 119.95532227 C-21.36821914 109.59931419 -21.38056453 99.24344167 -21.40183765 88.88745672 C-21.4194462 79.98788329 -21.42545645 71.08835305 -21.4221999 62.18876284 C-21.42038678 56.87675357 -21.4230268 51.56484116 -21.43691444 46.25284767 C-21.4494771 41.26150012 -21.44756348 36.27036456 -21.43450356 31.27902031 C-21.43213537 29.44805454 -21.43488111 27.61707391 -21.44312668 25.78612518 C-21.45357473 23.2858252 -21.44550956 20.78623926 -21.43281555 18.28596497 C-21.44018984 17.56251902 -21.44756412 16.83907307 -21.45516187 16.09370452 C-21.3888915 9.8845857 -19.58353284 6.04684477 -15.49609375 1.4609375 C-10.93382176 -2.04588351 -5.28717249 -1.70553951 0 0 Z " fill="#67757F" transform="translate(157.05859375,381.6640625)"/>
<path d="M0 0 C48 0 48 0 62 8 C81.93597879 18.25278909 106.02432067 19.71379777 128 19 C129.12414307 18.9688208 129.12414307 18.9688208 130.27099609 18.93701172 C152.77896129 18.23574809 175.09103746 12.60597503 194 0 C209.84 0 225.68 0 242 0 C242 50.16 242 100.32 242 152 C162.14 152 82.28 152 0 152 C0 101.84 0 51.68 0 0 Z " fill="#76B154" transform="translate(460,654)"/>
<path d="M0 0 C11.96031664 28.84546955 10.51890854 64.97197815 10.3264122 95.69623566 C10.31223507 98.17125125 10.30360001 100.64623127 10.29653931 103.12127686 C10.16777971 146.26840149 9.50509625 189.5049812 6.5625 232.5625 C6.50710052 233.3902594 6.45170105 234.2180188 6.3946228 235.07086182 C5.78204347 243.95490125 4.85897521 252.77496811 3.6171875 261.59375 C3.50907242 262.40183609 3.40095734 263.20992218 3.28956604 264.04249573 C1.71108759 274.59941153 -2.58961004 286.91985196 -11.18359375 293.73046875 C-12.29927734 294.45169922 -12.29927734 294.45169922 -13.4375 295.1875 C-14.17871094 295.67605469 -14.91992188 296.16460938 -15.68359375 296.66796875 C-27.37010458 303.38820516 -41.93954143 300.35210578 -54.35253906 297.11474609 C-79.55380088 290.1178451 -104.40734962 281.45174953 -129.04150391 272.68945312 C-131.68333027 271.75944594 -134.33921235 270.87407517 -137 270 C-137.97265651 266.37183681 -138.12559009 263.60879981 -137 260 C-133.25768382 256.51668593 -129.08999551 253.91964675 -124.78613281 251.18505859 C-120.43250523 248.29652548 -116.75120019 244.61123004 -113 241 C-112.47438477 240.5054834 -111.94876953 240.0109668 -111.40722656 239.50146484 C-102.13440775 230.75496975 -94.2732582 221.46116879 -87 211 C-86.60506348 210.43909668 -86.21012695 209.87819336 -85.80322266 209.30029297 C-70.57011445 187.45671511 -58.99965987 162.18556693 -53.65625 136.0703125 C-53 133 -53 133 -52 131 C-49.62890625 130.76171875 -49.62890625 130.76171875 -46.5625 130.6875 C-38.33800715 130.10143163 -32.02268001 127.47478697 -26.25 121.5 C-22.04362171 116.26186854 -19.54055102 110.16990961 -17 104 C-16.66871094 103.20722656 -16.33742188 102.41445313 -15.99609375 101.59765625 C-9.91349538 86.28831446 -11.29700272 64.40693237 -17.44140625 49.25390625 C-21.51359207 40.09423057 -27.30507831 30.98847987 -36.5 26.375 C-43.18932727 23.95200277 -48.61881185 24.09633055 -55.125 27 C-60.63512318 30.00005146 -65.17278279 34.34556557 -68 40 C-73.53475425 38.14154123 -77.47145634 34.61979327 -81.96484375 30.99609375 C-85.12740355 28.91621208 -87.26671924 28.31713413 -91 28 C-91 27.67 -91 27.34 -91 27 C-89.79988281 26.78085937 -88.59976563 26.56171875 -87.36328125 26.3359375 C-60.71820144 21.32949858 -31.92197885 13.89897292 -7.78222656 1.24853516 C-3.27526744 -1.09175581 -3.27526744 -1.09175581 0 0 Z " fill="#FEAC33" transform="translate(792,352)"/>
<path d="M0 0 C1.62228516 0.80050781 1.62228516 0.80050781 3.27734375 1.6171875 C28.81847764 14.057262 54.38953114 22.67776777 82 29 C80.89591797 29.87398438 80.89591797 29.87398438 79.76953125 30.765625 C77.35774807 32.71137955 75.01179167 34.70147175 72.6875 36.75 C71.99011719 37.36359375 71.29273438 37.9771875 70.57421875 38.609375 C70.05472656 39.06828125 69.53523438 39.5271875 69 40 C66.11111598 38.68458222 63.9969482 37.22864115 61.6875 35.0625 C56.50886091 30.56555013 51.28327775 28.30460129 44.390625 28.59765625 C36.53181383 29.92029931 30.75673612 34.38288543 25.8125 40.43359375 C14.35916354 56.65092576 11.76232842 75.91800466 14.29736328 95.27001953 C16.5123475 107.76396149 22.59190866 122.70632063 32.98828125 130.48828125 C37.22331007 133.15868131 40.80157096 134.27975032 45.80078125 134.6328125 C46.77829346 134.7064502 47.75580566 134.78008789 48.76293945 134.85595703 C49.50116943 134.90349121 50.23939941 134.95102539 51 135 C51.17015625 135.65258789 51.3403125 136.30517578 51.515625 136.97753906 C56.97502321 157.70437666 63.86923157 177.09588629 74 196 C74.31936523 196.60005859 74.63873047 197.20011719 74.96777344 197.81835938 C88.50343402 223.02079745 108.22330898 247.45864387 133.375 261.6875 C137.80330326 264.35874589 137.80330326 264.35874589 138.67578125 267.203125 C138.6875 269.4375 138.6875 269.4375 138 273 C133.37937731 275.05528894 128.82796913 276.75486033 123.9765625 278.21484375 C117.31144506 280.2523454 110.69283612 282.41010186 104.0859375 284.62890625 C103.13390442 284.94814056 102.18187134 285.26737488 101.20098877 285.59628296 C97.26757062 286.91637121 93.33498379 288.23890375 89.40332031 289.56420898 C78.33089125 293.29370577 67.28572561 296.96131357 56 300 C55.19079102 300.22308838 54.38158203 300.44617676 53.54785156 300.67602539 C32.17047848 306.46633001 32.17047848 306.46633001 23.41015625 302.96484375 C10.73267742 295.39210681 6.01832431 279.13346571 2.25 265.75 C1.94707031 264.71359375 1.64414062 263.6771875 1.33203125 262.609375 C-0.94623208 254.67089299 -2.24848199 247.54084172 -1.5725708 239.2510376 C-0.9169634 229.82265141 -0.84453466 220.43123625 -0.83886719 210.98339844 C-0.83422426 209.14666142 -0.82919769 207.30992533 -0.82382202 205.47319031 C-0.81085763 200.54220069 -0.80428749 195.61122455 -0.79981136 190.6802206 C-0.79686099 187.59472668 -0.79275321 184.50923631 -0.78830719 181.4237442 C-0.77468872 171.75367782 -0.76498859 162.08361971 -0.7611053 152.41354442 C-0.75660608 141.27567195 -0.73894875 130.13792107 -0.7101047 119.00008559 C-0.68851475 110.36279098 -0.67840284 101.72553071 -0.67706418 93.08820939 C-0.67601636 87.93898448 -0.67011041 82.78987478 -0.65224457 77.64067841 C-0.63580538 72.81093104 -0.63358804 67.98138619 -0.64238358 63.15162086 C-0.64315556 61.37988811 -0.63879007 59.60814459 -0.62892532 57.83643913 C-0.61625443 55.41942341 -0.62205515 53.00313094 -0.63250732 50.58612061 C-0.62445092 49.88467352 -0.61639452 49.18322643 -0.60809398 48.46052337 C-0.65184846 44.13897657 -1.37752127 41.44864717 -4 38 C-4.72058594 37.49339844 -5.44117188 36.98679687 -6.18359375 36.46484375 C-8 35 -8 35 -8.34765625 33.00390625 C-7.09271632 22.25955751 -5.14303058 9.63347528 0 0 Z " fill="#FEAC33" transform="translate(369,348)"/>
<path d="M0 0 C3.2318235 1.54040186 6.2090674 3.36428202 9.25 5.25 C35.52330662 20.58139684 68.30899437 24.21201373 98 27 C99.65370605 27.15879639 99.65370605 27.15879639 101.34082031 27.32080078 C140.75093371 30.9071552 181.23376996 30.68571725 220.56396484 26.3671875 C223.62073783 26.04052937 226.67348638 25.76822716 229.73828125 25.53125 C255.55771075 23.48310978 288.92792782 18.54015508 309.73828125 1.796875 C312 0 312 0 314 0 C314.6512183 2.66545164 315.29607161 5.33219056 315.9375 8 C316.11990234 8.74378906 316.30230469 9.48757813 316.49023438 10.25390625 C318.27158861 17.70320577 319.15456335 24.94234944 319.25 32.625 C319.27578125 33.87539063 319.3015625 35.12578125 319.328125 36.4140625 C318.73364371 42.91089374 315.76712331 46.76255706 311 51 C310.49210937 51.46148437 309.98421875 51.92296875 309.4609375 52.3984375 C302.86553568 57.88976324 294.89613652 60.86497726 287 64 C286.04480469 64.3815625 285.08960938 64.763125 284.10546875 65.15625 C269.29192955 70.53510464 253.28943657 72.98186182 237.75 75.1875 C236.68338135 75.3421875 235.6167627 75.496875 234.51782227 75.65625 C230.68452205 76.17089957 226.84725902 76.60669889 223 77 C222.14031616 77.08860291 221.28063232 77.17720581 220.39489746 77.26849365 C200.05678429 79.26897095 179.75209192 79.31119771 159.33789062 79.26074219 C154.67331367 79.2493149 150.00896402 79.25615109 145.34439468 79.26761341 C126.48700868 79.30709265 107.7447221 79.33017273 89 77 C88.26382446 76.91320984 87.52764893 76.82641968 86.76916504 76.73699951 C82.08224871 76.18000327 77.41620537 75.52520827 72.75 74.8125 C71.72146408 74.65584869 71.72146408 74.65584869 70.67214966 74.49603271 C15.43337062 65.97120229 15.43337062 65.97120229 -1.58984375 45.9296875 C-7.99911953 37.15909959 -5.11782225 24.71097531 -3.64453125 14.578125 C-2.75088643 9.61704222 -1.49999203 4.80997445 0 0 Z " fill="#292F33" transform="translate(424,250)"/>
<path d="M0 0 C32.1194926 14.05227801 61.1202648 34.03823987 75.5569458 67.27809143 C80.74101405 80.64877984 81.56541608 93.63231195 81.390625 107.81640625 C81.38472124 109.44721932 81.38065452 111.07804008 81.37841797 112.7088623 C81.35770844 118.66019278 81.30186579 124.6113595 81.25 130.5625 C81.1675 143.906875 81.085 157.25125 81 171 C54.27 171 27.54 171 0 171 C0 114.57 0 58.14 0 0 Z " fill="#76B155" transform="translate(763,665)"/>
<path d="M0 0 C0 56.43 0 112.86 0 171 C-26.73 171 -53.46 171 -81 171 C-81.061875 151.6021875 -81.061875 151.6021875 -81.125 131.8125 C-81.14320801 127.75428955 -81.16141602 123.6960791 -81.18017578 119.51489258 C-81.18920898 114.4954834 -81.18920898 114.4954834 -81.19088745 112.13334656 C-81.19392527 110.5105733 -81.20088867 108.88780408 -81.21115112 107.26506042 C-81.38816917 77.75629429 -72.80138023 54.55607883 -52 33 C-49.43758111 30.52889225 -46.75795583 28.24978976 -44 26 C-43.07574219 25.23816406 -42.15148437 24.47632813 -41.19921875 23.69140625 C-11.81663312 0 -11.81663312 0 0 0 Z " fill="#77B255" transform="translate(399,665)"/>
<path d="M0 0 C6.1044642 -0.40116961 9.74726273 0.3962173 14.9375 3.75 C16.16638979 4.49220398 17.39685592 5.2318044 18.62890625 5.96875 C19.74136719 6.6390625 20.85382812 7.309375 22 8 C41.41082995 18.62896866 66.44657517 19.70008241 88 19 C89.12414307 18.9688208 89.12414307 18.9688208 90.27099609 18.93701172 C112.77896129 18.23574809 135.09103746 12.60597503 154 0 C156.04296875 -0.1953125 156.04296875 -0.1953125 158.1875 -0.125 C159.445625 -0.08375 160.70375 -0.0425 162 0 C150.59348222 20.97436524 138.89754433 41.77561856 127.01611328 62.48388672 C124.00312743 67.73651749 121.00078651 72.9952305 117.99761963 78.253479 C117.00240558 79.99578858 116.00687785 81.73791849 115.01123047 83.47998047 C111.26560065 90.03362675 107.52211821 96.58849251 103.78094482 103.14468384 C101.43154165 107.26114591 99.07782348 111.37511422 96.72265625 115.48828125 C94.34262881 119.64521624 91.97567625 123.80907445 89.62109375 127.98046875 C88.62252873 129.73705472 87.62383995 131.49357034 86.625 133.25 C85.95537231 134.44798218 85.95537231 134.44798218 85.2722168 135.67016602 C84.23788377 137.48019762 83.12732839 139.24637806 82 141 C81.34 141 80.68 141 80 141 C79.64921387 140.36835937 79.29842773 139.73671875 78.93701172 139.0859375 C72.39814036 127.32571276 65.81367372 115.6035702 59 104 C53.58544342 94.77567764 48.31369267 85.47985459 43.10498047 76.13793945 C38.02267905 67.02462666 32.85720581 57.96126991 27.66601562 48.90966797 C25.78871771 45.63099908 23.91737702 42.34895445 22.046875 39.06640625 C20.65653429 36.62744199 19.26588349 34.18865477 17.875 31.75 C17.53374084 31.15161316 17.19248169 30.55322632 16.84088135 29.93670654 C12.20948992 21.81983212 7.53758612 13.72906818 2.74169922 5.70800781 C0 1.10214494 0 1.10214494 0 0 Z " fill="#3E721D" transform="translate(500,654)"/>
<path d="M0 0 C0.14695313 1.21236328 0.14695313 1.21236328 0.296875 2.44921875 C1.28540303 10.56399989 1.28540303 10.56399989 6 17 C10.48120964 19.98747309 14.75232595 19.84167715 20 19 C23.82160264 16.97759435 26.22494819 14.33872586 28.375 10.625 C29.2162706 7.09166348 29.6324259 3.61447866 30 0 C35.18692945 2.37116775 37.43784051 6.11218806 40 11 C41.31221524 14.93664572 41.13088917 18.68322191 41.11352539 22.78588867 C41.11367142 23.68365524 41.11381744 24.58142181 41.1139679 25.50639343 C41.11327064 28.47694303 41.10548697 31.44743009 41.09765625 34.41796875 C41.09579141 36.47634344 41.09436782 38.53471858 41.09336853 40.59309387 C41.08954859 46.01330794 41.07972273 51.43349524 41.06866455 56.85369873 C41.05664171 63.35567421 41.0520457 69.85765862 41.04621124 76.35964203 C41.03651073 86.23977997 41.01735049 96.11985919 41 106 C24.17 106 7.34 106 -10 106 C-10.16043524 83.11123947 -10.16043524 83.11123947 -10.1953125 73.33203125 C-10.21919594 66.66702489 -10.24740794 60.00223897 -10.30175781 53.33740234 C-10.34531506 47.96222522 -10.36915819 42.58728461 -10.37950897 37.21194458 C-10.38688258 35.16427896 -10.40128152 33.11662584 -10.42292023 31.06906128 C-10.45208528 28.19419691 -10.4559505 25.32030173 -10.45410156 22.4453125 C-10.46848267 21.60445602 -10.48286377 20.76359955 -10.49768066 19.89726257 C-10.44824146 12.76266917 -8.30845883 7.16421713 -3.3125 2 C-1 0 -1 0 0 0 Z " fill="#C0694F" transform="translate(237,730)"/>
<path d="M0 0 C1.02083333 0.875 2.04166667 1.75 3.0625 2.625 C3.7121875 3.17671875 4.361875 3.7284375 5.03125 4.296875 C6.21935827 5.32468295 7.39170708 6.37172203 8.53125 7.453125 C25.4129259 23.12896691 48.69743213 28.10355087 71 29 C71.86238281 29.05285156 72.72476563 29.10570312 73.61328125 29.16015625 C98.49607792 30.05020963 123.43505072 21.41837702 142 5 C143.99221726 3.3238707 145.99713842 1.66343432 148 0 C148.27314003 5.14076282 148.4720199 10.2772646 148.60424805 15.42358398 C148.65937758 17.17107717 148.73431329 18.91806709 148.82983398 20.66381836 C149.60132622 35.13239205 149.60132622 35.13239205 145.74194336 39.63354492 C142.89087002 41.47915904 140.16612914 42.7849291 137 44 C135.78210339 44.61245616 134.56661375 45.22976716 133.35546875 45.85546875 C116.23868189 53.05253943 99.486359 56.33407049 81 57 C80.17709473 57.03399902 79.35418945 57.06799805 78.50634766 57.10302734 C63.91449303 57.64043534 50.2537045 56.12348837 36 53 C35.30406738 52.85046875 34.60813477 52.7009375 33.89111328 52.546875 C23.96681787 50.32835204 14.76014936 46.11230601 6 41 C4.95320068 40.45279297 3.90640137 39.90558594 2.82788086 39.34179688 C0 37 0 37 -0.78881836 33.58007812 C-0.83630781 32.23119729 -0.85151862 30.88091605 -0.83984375 29.53125 C-0.85592178 28.813927 -0.87199982 28.096604 -0.88856506 27.35754395 C-0.93244908 25.07116006 -0.93485161 22.78676366 -0.9375 20.5 C-0.96421491 18.96219256 -0.99348456 17.42442724 -1.02539062 15.88671875 C-1.21969261 3.78255288 -1.21969261 3.78255288 0 0 Z " fill="#FDDB5C" transform="translate(507,617)"/>
<path d="M0 0 C2.9375 1.625 2.9375 1.625 6 4 C7.65264541 5.06377176 9.32066418 6.10388373 11 7.125 C12.2065625 7.87136719 12.2065625 7.87136719 13.4375 8.6328125 C24.69344585 14.63827141 42.39243977 13.97893238 54.6015625 11.125 C61.17364783 8.91001781 66.24961333 5.53410179 71.7578125 1.3984375 C75.49745237 -0.93395113 77.6839538 -0.79127514 82 0 C86.95520521 2.57289501 90.49116963 5.98233926 93 11 C93.47925161 15.21741416 93.02268112 17.93988107 90.43359375 21.37109375 C80.0484622 33.17109336 64.79744308 40.68706336 49.08203125 41.875 C28.23475294 42.72051699 8.31175856 42.17656117 -9 29 C-9.86238281 28.36578125 -9.86238281 28.36578125 -10.7421875 27.71875 C-14.74099908 24.61519475 -18.3740931 21.18701574 -19.3828125 16.05078125 C-19.67418868 10.95169817 -18.39252164 7.92818295 -15 4 C-10.27981832 -0.17132334 -6.09009227 -1.08317431 0 0 Z " fill="#DF2032" transform="translate(543,542)"/>
<path d="M0 0 C4.12593192 2.87855716 7.06537651 6.00862953 8.6875 10.875 C9.00288514 15.4532744 9.01162692 20.03717358 9.0625 24.625 C9.11857422 26.51992188 9.11857422 26.51992188 9.17578125 28.453125 C9.27463119 38.90925207 9.27463119 38.90925207 6.40234375 43.11328125 C2.06072037 47.52986791 -2.14996586 50.02397071 -8.4375 50.3125 C-15.11154663 49.55897861 -18.9282547 46.86816826 -23.3125 41.875 C-26.56501165 36.6817828 -25.72179974 30.54705528 -25.75 24.625 C-25.78287109 23.42230469 -25.81574219 22.21960938 -25.84960938 20.98046875 C-25.89351368 13.70831872 -25.36699403 8.36994186 -20.3125 2.875 C-14.32211188 -2.21514472 -7.29965031 -2.47912652 0 0 Z " fill="#682314" transform="translate(657.3125,419.125)"/>
<path d="M0 0 C5.93080042 2.85557057 9.40540576 7.60810864 13 13 C13.4941734 17.04592163 13.4166137 21.11467111 13.4375 25.1875 C13.47037109 26.29931641 13.50324219 27.41113281 13.53710938 28.55664062 C13.58367419 35.70645588 12.77635028 40.53467719 8 46 C4.43174357 49.48122579 0.48185767 51.29860243 -4.5 51.625 C-9.43608777 51.3010426 -13.53935761 49.55697719 -17 46 C-21.63154192 38.97453499 -21.60701081 32.63266722 -21.5 24.375 C-21.51546875 23.17359375 -21.5309375 21.9721875 -21.546875 20.734375 C-21.51794571 14.21082031 -21.46360358 9.91405899 -17 5 C-16.154375 4.05125 -15.30875 3.1025 -14.4375 2.125 C-10.18541868 -1.21823951 -5.11769035 -0.81730279 0 0 Z " fill="#672313" transform="translate(517,418)"/>
<path d="M0 0 C1.17230919 -0.0049926 1.17230919 -0.0049926 2.36830139 -0.01008606 C4.01823337 -0.01513947 5.66817553 -0.01749488 7.31811523 -0.01733398 C9.83529567 -0.01952051 12.35203765 -0.03769284 14.86914062 -0.05664062 C16.47525892 -0.05957492 18.0813793 -0.06155947 19.6875 -0.0625 C20.43660141 -0.06968552 21.18570282 -0.07687103 21.95750427 -0.08427429 C27.23948309 -0.06130377 31.09992244 0.35773494 34.91015625 4.16796875 C36.60960757 8.58654218 36.57316602 14.06843782 35.16015625 18.54296875 C33.510153 20.68797298 32.47948335 21.21326972 29.91015625 22.16796875 C26.96238106 22.372688 24.11178778 22.47203936 21.1640625 22.46875 C20.31593491 22.47303513 19.46780731 22.47732025 18.59397888 22.48173523 C16.80281465 22.4874701 15.01162713 22.487985 13.22045898 22.48364258 C10.48575959 22.48048388 7.75214374 22.5039472 5.01757812 22.52929688 C3.27474094 22.53157015 1.53190086 22.53227324 -0.2109375 22.53125 C-1.02566025 22.54045975 -1.840383 22.54966949 -2.67979431 22.55915833 C-7.73954823 22.51809606 -11.33645616 21.92135634 -15.08984375 18.16796875 C-15.24199549 15.87984061 -15.31170867 13.58597747 -15.33984375 11.29296875 C-15.365625 10.03742188 -15.39140625 8.781875 -15.41796875 7.48828125 C-15.08984375 4.16796875 -15.08984375 4.16796875 -13.82421875 2.28515625 C-9.62250634 -0.42135219 -4.8366512 0.0071657 0 0 Z " fill="#C26B4F" transform="translate(571.08984375,500.83203125)"/>
</svg>
