<?xml version="1.0" encoding="UTF-8"?>
<svg version="1.1" xmlns="http://www.w3.org/2000/svg" width="1000" height="1000">
<path d="M0 0 C330 0 660 0 1000 0 C1000 330 1000 660 1000 1000 C670 1000 340 1000 0 1000 C0 670 0 340 0 0 Z " fill="#E3EEE5" transform="translate(0,0)"/>
<path d="M0 0 C1.38893967 -0.00714523 1.38893967 -0.00714523 2.80593872 -0.01443481 C36.87146006 -0.08099355 70.50301227 7.48451287 95.6796875 31.765625 C99.17052728 35.39112625 101.88577275 39.10257479 104.3125 43.5 C104.85777344 44.48226562 104.85777344 44.48226562 105.4140625 45.484375 C107.69997134 49.84679645 109.53761398 54.37597498 111.31640625 58.96484375 C111.94018658 60.55242583 112.59000695 62.13028906 113.27734375 63.69140625 C123.51765533 87.33871211 126.42041312 115.02480628 128.3125 140.5 C128.39709473 141.53084717 128.39709473 141.53084717 128.48339844 142.58251953 C133.1080574 199.92555422 121.94182701 256.15495687 104.3125 310.5 C104.0798645 311.21746399 103.847229 311.93492798 103.60754395 312.6741333 C97.29330134 332.11524245 90.83221422 351.48590963 83.3125 370.5 C82.88565918 371.58667969 82.45881836 372.67335938 82.01904297 373.79296875 C59.7546768 430.11012219 29.27181559 482.81295789 -10.6875 528.5 C-11.31785156 529.22960937 -11.94820312 529.95921875 -12.59765625 530.7109375 C-14.28178101 532.65209269 -15.98289587 534.57681027 -17.6875 536.5 C-18.31760986 537.21494629 -18.94771973 537.92989258 -19.59692383 538.66650391 C-24.98730845 544.72733438 -30.57850672 550.54710438 -36.32641602 556.26928711 C-37.75589717 557.69337492 -39.17990511 559.12278044 -40.60351562 560.55273438 C-45.80334361 565.7453253 -51.09016861 570.74013193 -56.6875 575.5 C-57.67492187 576.36882813 -58.66234375 577.23765625 -59.6796875 578.1328125 C-114.02290216 625.11244793 -181.77611735 656.20166092 -252.3125 668.3125 C-253.5085083 668.5197168 -254.7045166 668.72693359 -255.93676758 668.94042969 C-311.93533803 678.10165523 -372.52058701 671.08433926 -423.6875 646.5 C-424.69901123 646.02095215 -424.69901123 646.02095215 -425.73095703 645.53222656 C-446.96782621 635.43407733 -466.02616419 622.99715877 -483.6875 607.5 C-484.52667969 606.77296875 -485.36585938 606.0459375 -486.23046875 605.296875 C-497.25993841 595.58086584 -507.79612864 585.22586893 -516.6875 573.5 C-517.16509766 572.87706055 -517.64269531 572.25412109 -518.13476562 571.61230469 C-544.925024 536.46468676 -565.12756193 491.5382396 -570.6875 447.5 C-570.81995117 446.51547852 -570.95240234 445.53095703 -571.08886719 444.51660156 C-575.26744943 412.88144748 -575.67659351 381.14070258 -565.6875 350.5 C-565.16923497 348.58902276 -564.65113049 346.67799995 -564.13623047 344.76611328 C-550.66816276 295.97159052 -522.60665247 249.690079 -489.11279297 212.10449219 C-487.90874584 210.74906263 -486.72016002 209.37992213 -485.53515625 208.0078125 C-480.31451405 202.0325032 -474.72270198 196.43268271 -469.125 190.8125 C-468.3211084 190.00393555 -467.5172168 189.19537109 -466.68896484 188.36230469 C-461.84954661 183.53579157 -456.88766594 178.93401701 -451.6875 174.5 C-450.67815683 173.62265874 -449.66902523 172.74507399 -448.66015625 171.8671875 C-382.17889173 114.93423882 -300.52643701 77.21332806 -190.6875 37.5625 C-190.03190094 37.33470856 -189.37630188 37.10691711 -188.70083618 36.8722229 C-179.77162558 33.77649807 -170.7929466 31.0262308 -161.6875 28.5 C-159.73658074 27.94279936 -157.78604135 27.38426649 -155.8359375 26.82421875 C-149.46384396 25.01019711 -143.07913173 23.24384941 -136.6875 21.5 C-135.13844971 21.07630127 -135.13844971 21.07630127 -133.55810547 20.64404297 C-90.15599052 8.92170379 -45.05130941 0.11296459 0 0 Z " fill="#C5E4B2" transform="translate(728.6875,193.5)"/>
<path d="M0 0 C1.38893967 -0.00714523 1.38893967 -0.00714523 2.80593872 -0.01443481 C36.87146006 -0.08099355 70.50301227 7.48451287 95.6796875 31.765625 C99.17052728 35.39112625 101.88577275 39.10257479 104.3125 43.5 C104.85777344 44.48226562 104.85777344 44.48226562 105.4140625 45.484375 C107.69997134 49.84679645 109.53761398 54.37597498 111.31640625 58.96484375 C111.94018658 60.55242583 112.59000695 62.13028906 113.27734375 63.69140625 C123.51765533 87.33871211 126.42041312 115.02480628 128.3125 140.5 C128.39709473 141.53084717 128.39709473 141.53084717 128.48339844 142.58251953 C133.1080574 199.92555422 121.94182701 256.15495687 104.3125 310.5 C104.0798645 311.21746399 103.847229 311.93492798 103.60754395 312.6741333 C97.29330134 332.11524245 90.83221422 351.48590963 83.3125 370.5 C82.88565918 371.58667969 82.45881836 372.67335938 82.01904297 373.79296875 C59.7546768 430.11012219 29.27181559 482.81295789 -10.6875 528.5 C-11.31785156 529.22960937 -11.94820312 529.95921875 -12.59765625 530.7109375 C-14.28178101 532.65209269 -15.98289587 534.57681027 -17.6875 536.5 C-18.31760986 537.21494629 -18.94771973 537.92989258 -19.59692383 538.66650391 C-24.98730845 544.72733438 -30.57850672 550.54710438 -36.32641602 556.26928711 C-37.75589717 557.69337492 -39.17990511 559.12278044 -40.60351562 560.55273438 C-45.80334361 565.7453253 -51.09016861 570.74013193 -56.6875 575.5 C-57.67492187 576.36882813 -58.66234375 577.23765625 -59.6796875 578.1328125 C-114.02290216 625.11244793 -181.77611735 656.20166092 -252.3125 668.3125 C-253.5085083 668.5197168 -254.7045166 668.72693359 -255.93676758 668.94042969 C-311.93533803 678.10165523 -372.52058701 671.08433926 -423.6875 646.5 C-424.69901123 646.02095215 -424.69901123 646.02095215 -425.73095703 645.53222656 C-446.96782621 635.43407733 -466.02616419 622.99715877 -483.6875 607.5 C-484.52667969 606.77296875 -485.36585938 606.0459375 -486.23046875 605.296875 C-497.25993841 595.58086584 -507.79612864 585.22586893 -516.6875 573.5 C-517.16509766 572.87706055 -517.64269531 572.25412109 -518.13476562 571.61230469 C-544.925024 536.46468676 -565.12756193 491.5382396 -570.6875 447.5 C-570.81995117 446.51547852 -570.95240234 445.53095703 -571.08886719 444.51660156 C-575.26744943 412.88144748 -575.67659351 381.14070258 -565.6875 350.5 C-565.16923497 348.58902276 -564.65113049 346.67799995 -564.13623047 344.76611328 C-550.66816276 295.97159052 -522.60665247 249.690079 -489.11279297 212.10449219 C-487.90874584 210.74906263 -486.72016002 209.37992213 -485.53515625 208.0078125 C-480.31451405 202.0325032 -474.72270198 196.43268271 -469.125 190.8125 C-468.3211084 190.00393555 -467.5172168 189.19537109 -466.68896484 188.36230469 C-461.84954661 183.53579157 -456.88766594 178.93401701 -451.6875 174.5 C-450.67815683 173.62265874 -449.66902523 172.74507399 -448.66015625 171.8671875 C-382.17889173 114.93423882 -300.52643701 77.21332806 -190.6875 37.5625 C-190.03190094 37.33470856 -189.37630188 37.10691711 -188.70083618 36.8722229 C-179.77162558 33.77649807 -170.7929466 31.0262308 -161.6875 28.5 C-159.73658074 27.94279936 -157.78604135 27.38426649 -155.8359375 26.82421875 C-149.46384396 25.01019711 -143.07913173 23.24384941 -136.6875 21.5 C-135.13844971 21.07630127 -135.13844971 21.07630127 -133.55810547 20.64404297 C-90.15599052 8.92170379 -45.05130941 0.11296459 0 0 Z M-52.58496094 29.02148438 C-55.75327083 29.51014407 -58.92614874 29.9507326 -62.1015625 30.390625 C-79.00729802 32.86481204 -95.56733269 36.6431177 -112.1875 40.5625 C-113.29663757 40.82384735 -114.40577515 41.0851947 -115.54852295 41.35446167 C-127.33962358 44.14445966 -139.09064825 46.97702618 -150.6875 50.5 C-151.3044574 50.68629974 -151.92141479 50.87259949 -152.55706787 51.06454468 C-235.45549356 76.13679567 -320.22496567 109.65881156 -427.6875 186.5 C-428.66589844 187.2940625 -429.64429688 188.088125 -430.65234375 188.90625 C-438.69830181 195.51385863 -446.12613281 202.72434804 -453.5 210.0625 C-453.98786987 210.54519348 -454.47573975 211.02788696 -454.97839355 211.52520752 C-461.6793015 218.16999726 -467.80463041 225.12065713 -473.6875 232.5 C-474.56252844 233.53934608 -475.44265388 234.57446808 -476.33203125 235.6015625 C-486.69028171 247.65819277 -495.65820133 260.79425043 -503.6875 274.5 C-504.3578125 275.62535156 -505.028125 276.75070312 -505.71875 277.91015625 C-526.6205568 313.59242364 -543.13791161 354.00969504 -543.125 395.875 C-543.1260675 396.61578796 -543.12713501 397.35657593 -543.12823486 398.11981201 C-543.10078304 411.39258862 -541.61136802 423.76232149 -537.6875 436.5 C-537.45756348 437.24862305 -537.22762695 437.99724609 -536.99072266 438.76855469 C-527.74035294 467.7438812 -507.29919071 492.31724697 -481.6875 508.5 C-481.07036133 508.90234863 -480.45322266 509.30469727 -479.81738281 509.71923828 C-460.79248341 522.0455676 -439.75992598 529.71616929 -417.6875 534.5 C-416.32310791 534.79729004 -416.32310791 534.79729004 -414.93115234 535.10058594 C-384.05206853 541.64617904 -348.95659938 543.95382858 -317.6875 538.5 C-316.86330566 538.36045898 -316.03911133 538.22091797 -315.18994141 538.07714844 C-266.34478675 529.66388538 -223.13940209 509.9985588 -182.30859375 482.27587891 C-179.76470132 480.55230649 -177.21165354 478.84316267 -174.65625 477.13671875 C-165.22306529 470.80488086 -156.22689969 464.14331333 -147.45068359 456.93212891 C-145.13857509 455.05414103 -142.78506921 453.23281857 -140.42871094 451.41088867 C-128.2133094 441.95131735 -116.70726103 431.68266419 -105.43115234 421.13037109 C-103.52685433 419.34979113 -101.61700222 417.57527381 -99.70703125 415.80078125 C-84.95257483 402.10247757 -84.95257483 402.10247757 -71.296875 387.328125 C-69.66163566 385.47062012 -67.95268207 383.73393991 -66.1875 382 C-62.47549513 378.33705246 -59.08623131 374.45273697 -55.6875 370.5 C-54.70631925 369.37058085 -53.72449288 368.2417224 -52.7421875 367.11328125 C-49.92575486 363.87646023 -47.11772555 360.63250087 -44.31445312 357.38427734 C-43.28842321 356.19596718 -42.26123714 355.00865338 -41.23242188 353.82275391 C-33.90896273 345.37160706 -27.07899265 336.59851728 -20.34033203 327.67626953 C-18.72825136 325.55365696 -17.1000537 323.44467286 -15.46484375 321.33984375 C1.26244993 299.77338317 16.60803665 277.10750058 30.3125 253.5 C30.6513623 252.91992188 30.99022461 252.33984375 31.33935547 251.7421875 C44.32873542 229.41496177 55.64380549 206.44565613 65.3125 182.5 C65.66924805 181.61908691 66.02599609 180.73817383 66.39355469 179.83056641 C79.0142622 148.25348026 93.22079162 102.86256869 79.3125 69.5 C78.67634766 67.91832031 78.67634766 67.91832031 78.02734375 66.3046875 C70.32548431 49.18467681 55.95010531 40.43685173 39.3125 33.5 C36.01371197 32.27432549 32.73384187 31.3178094 29.3125 30.5 C28.22324219 30.23445313 27.13398437 29.96890625 26.01171875 29.6953125 C13.10712573 26.73360263 0.32389803 26.26088653 -12.875 26.25 C-13.99207336 26.24898788 -13.99207336 26.24898788 -15.13171387 26.24795532 C-27.76629897 26.26597778 -40.08436507 27.08359296 -52.58496094 29.02148438 Z " fill="#3E721D" transform="translate(728.6875,193.5)"/>
<path d="M0 0 C0.74101959 0.00310181 1.48203918 0.00620361 2.24551392 0.00939941 C31.09240062 0.15072388 60.16198561 4.38923794 82.03515625 25.0546875 C87.10365676 30.42395617 90.30748346 36.46197744 93.125 43.25 C93.74955078 44.74273437 93.74955078 44.74273437 94.38671875 46.265625 C101.18979898 66.41229066 97.98617403 92.00447462 93.125 112.25 C92.77888672 113.7050293 92.77888672 113.7050293 92.42578125 115.18945312 C72.68304437 195.77951397 22.68355425 268.19220699 -30.43359375 330.55419922 C-31.87699616 332.25234846 -33.31381423 333.95590193 -34.75 335.66015625 C-41.62271128 343.78506472 -48.7742128 351.60467672 -56.07958984 359.34130859 C-57.89149162 361.26753216 -59.69161636 363.20409431 -61.48828125 365.14453125 C-70.32166854 374.6807928 -79.14723131 384.18970965 -89.046875 392.640625 C-90.90437988 394.27586434 -92.64106009 395.98481793 -94.375 397.75 C-98.03813296 401.46230253 -101.91906155 404.85459354 -105.875 408.25 C-106.88331053 409.13354655 -107.89108274 410.01770766 -108.8984375 410.90234375 C-117.28639016 418.22829713 -125.99316727 425.04314872 -134.88671875 431.7421875 C-136.69727697 433.11522379 -138.49291013 434.5044634 -140.28125 435.90625 C-148.56596678 442.39861238 -157.13011279 448.39498062 -165.875 454.25 C-166.83132324 454.89420898 -167.78764648 455.53841797 -168.77294922 456.20214844 C-183.39122505 466.0236956 -198.16119486 475.25448912 -213.875 483.25 C-214.73367676 483.68892578 -215.59235352 484.12785156 -216.47705078 484.58007812 C-254.68943798 503.92046041 -296.26726801 514.50811967 -339.125 514.4375 C-339.91901215 514.43623108 -340.71302429 514.43496216 -341.53109741 514.43365479 C-398.58863519 514.26056459 -453.6319691 500.97829773 -495.02612305 459.46801758 C-509.78918633 444.26684975 -519.08830777 426.52517727 -524.875 406.25 C-525.19259277 405.20875977 -525.19259277 405.20875977 -525.51660156 404.14648438 C-528.86163021 392.91863861 -529.26470697 381.69741343 -529.3125 370.0625 C-529.32189606 368.99322266 -529.32189606 368.99322266 -529.33148193 367.90234375 C-529.39006207 357.35427724 -528.11996386 347.54461276 -525.875 337.25 C-525.68703857 336.31921631 -525.49907715 335.38843262 -525.30541992 334.42944336 C-511.72810182 267.81386459 -467.22471594 201.88080752 -413.875 160.25 C-412.01809253 158.66988192 -410.16408524 157.08635134 -408.3125 155.5 C-379.62752514 131.62646138 -346.84895229 112.50008761 -313.875 95.25 C-313.27896973 94.93760376 -312.68293945 94.62520752 -312.06884766 94.30334473 C-278.41475164 76.69297623 -243.4528809 61.53666679 -207.875 48.25 C-207.21425476 48.00245972 -206.55350952 47.75491943 -205.8727417 47.49987793 C-175.06516702 35.96774565 -143.94158124 25.47117489 -111.94073486 17.75128174 C-109.65146376 17.19575556 -107.36451089 16.63122853 -105.07763672 16.06591797 C-82.3876201 10.47085999 -59.82657708 5.6121519 -36.62402344 2.72167969 C-34.06720148 2.39999565 -31.51311999 2.05593125 -28.96191406 1.69238281 C-19.27485837 0.32992103 -9.77610954 -0.07332117 0 0 Z M-93.875 72.25 C-97.49515435 72.68383521 -101.11553875 73.05877388 -104.74414062 73.41210938 C-110.54799232 74.01250783 -116.16994425 75.0401241 -121.875 76.25 C-123.77361648 76.63713573 -125.67223369 77.02426784 -127.57086182 77.41134644 C-176.08814099 87.35955819 -223.2516987 101.9098346 -268.875 121.25 C-269.93557617 121.69762695 -270.99615234 122.14525391 -272.08886719 122.60644531 C-303.26763598 135.84462804 -335.34324405 150.32617452 -363.07666016 169.97705078 C-365.10759537 171.4146419 -367.15301824 172.83032236 -369.19921875 174.24609375 C-376.9824827 179.65612237 -384.5669453 185.20703712 -391.875 191.25 C-392.77605469 191.96671875 -393.67710937 192.6834375 -394.60546875 193.421875 C-400.76804997 198.35193998 -406.39191141 203.58069331 -411.875 209.25 C-414.2495712 211.64704348 -416.63108777 214.02154699 -419.09375 216.328125 C-447.55486798 243.42466883 -466.34726097 281.95571297 -474.40234375 320.0234375 C-474.78864076 321.84318376 -475.20284169 323.65698727 -475.625 325.46875 C-481.06860991 351.77953125 -475.00958353 380.64622838 -460.875 403.25 C-440.31418396 433.35556183 -413.99101601 447.50737698 -378.93212891 454.70288086 C-352.76067103 459.38665638 -322.29426356 457.16378881 -297.04882812 448.95166016 C-295.38582055 448.41488076 -293.71662092 447.89724999 -292.04492188 447.38818359 C-262.58746648 438.41639269 -236.08590593 424.78612558 -210.875 407.25 C-210.17262207 406.76160645 -209.47024414 406.27321289 -208.74658203 405.77001953 C-194.45945998 395.77313506 -180.86388401 384.98758263 -168.0078125 373.19921875 C-165.93210952 371.3021935 -163.81811316 369.4599197 -161.6875 367.625 C-158.51970207 364.86984108 -155.56604511 361.96231378 -152.625 358.96875 C-150.93378452 357.30773479 -149.18529359 355.77938597 -147.375 354.25 C-138.43914442 346.53823423 -129.95951938 337.95208416 -122.34375 328.9375 C-120.76237031 327.12059567 -119.09302804 325.4378872 -117.375 323.75 C-113.6631281 320.08729197 -110.26488482 316.21020571 -106.875 312.25 C-105.96760636 311.19517618 -105.06004092 310.14050014 -104.15234375 309.0859375 C-101.56295594 306.07490283 -98.98243926 303.05638093 -96.40380859 300.03613281 C-94.97872046 298.37117836 -93.54696522 296.71223918 -92.11328125 295.0546875 C-52.10947773 248.59489674 2.86438872 179.69772419 0.125 115.25 C-0.81121109 105.00517581 -4.16372691 95.93189602 -11.890625 88.8984375 C-12.87289062 88.08246094 -12.87289062 88.08246094 -13.875 87.25 C-14.57109375 86.66476562 -15.2671875 86.07953125 -15.984375 85.4765625 C-34.28296458 71.41489467 -71.60460415 64.82653472 -93.875 72.25 Z " fill="#A5D287" transform="translate(714.875,219.75)"/>
<path d="M0 0 C1.04124023 0.24943359 1.04124023 0.24943359 2.10351562 0.50390625 C28.30509672 6.98825721 51.419307 20.5747865 71 39 C71.88042969 39.78117187 72.76085937 40.56234375 73.66796875 41.3671875 C80.84249888 48.00124342 85.14740413 54.4864748 86.43359375 64.3125 C87.67374798 97.38327935 63.74169446 131.07500285 42.3125 154.375 C40.22689478 156.60145129 38.11675807 158.80318863 36 161 C35.41557129 161.61166016 34.83114258 162.22332031 34.22900391 162.85351562 C26.19897259 171.2233859 17.94183111 178.85316001 8.63476562 185.77978516 C7.07284303 186.94562881 5.52812258 188.1344133 3.984375 189.32421875 C-18.27590587 206.37654621 -41.80651456 219.57366663 -69 227 C-70.39798828 227.39445312 -70.39798828 227.39445312 -71.82421875 227.796875 C-77.86975075 229.41341562 -83.95934348 230.58346518 -90.125 231.625 C-90.85291748 231.74818604 -91.58083496 231.87137207 -92.33081055 231.99829102 C-116.35440561 235.89670327 -143.20539074 236.67759298 -166 227 C-167.21429688 226.49146484 -167.21429688 226.49146484 -168.453125 225.97265625 C-179.27369135 220.21272893 -183.43933328 205.00265502 -186.97973633 193.97753906 C-195.00089435 167.55555916 -194.67628804 142.74779703 -188 116 C-187.80776855 115.19739746 -187.61553711 114.39479492 -187.41748047 113.56787109 C-181.58906012 89.63436662 -168.78850955 67.90194651 -151.46923828 50.49267578 C-150.03019639 49.03067808 -148.63577362 47.53618159 -147.24609375 46.02734375 C-111.24140616 7.57297013 -51.58329922 -12.63467502 0 0 Z " fill="#662113" transform="translate(483,372)"/>
<path d="M0 0 C12.39796732 -0.65363433 25.88221718 3.28517065 35.359375 11.25390625 C46.72777588 21.85609829 52.07100272 34.29698495 52.671875 49.75390625 C52.44436126 67.97775685 43.47482992 83.69007124 31.15625 96.5546875 C17.98987399 109.17609762 0.79774283 117.7749876 -17.640625 118.25390625 C-18.5584375 118.31578125 -19.47625 118.37765625 -20.421875 118.44140625 C-33.65021862 118.99838914 -46.8694829 114.66018004 -57.109375 106.21875 C-67.9567649 95.96796654 -73.66154262 83.38615238 -74.203125 68.44140625 C-74.03282585 50.80480013 -65.66323727 35.66090044 -53.640625 23.25390625 C-52.84591797 22.33158203 -52.84591797 22.33158203 -52.03515625 21.390625 C-38.71491966 6.49524475 -18.96859522 1.82390339 0 0 Z " fill="#7B3124" transform="translate(441.640625,395.74609375)"/>
</svg>
