<?xml version="1.0" encoding="UTF-8"?>
<svg version="1.1" xmlns="http://www.w3.org/2000/svg" width="1000" height="1000">
<path d="M0 0 C330 0 660 0 1000 0 C1000 330 1000 660 1000 1000 C670 1000 340 1000 0 1000 C0 670 0 340 0 0 Z " fill="#E3EEE5" transform="translate(0,0)"/>
<path d="M0 0 C0.6422679 -0.00297112 1.28453579 -0.00594224 1.94626635 -0.0090034 C4.09071172 -0.01764965 6.23510099 -0.01919523 8.37956238 -0.02069092 C9.92082334 -0.02532231 11.46208317 -0.0303474 13.00334167 -0.03573608 C17.18787032 -0.04883892 21.37238292 -0.05530195 25.55692887 -0.05974674 C28.17743725 -0.06268341 30.7979413 -0.06678952 33.41844749 -0.07125092 C41.63466998 -0.08492583 49.85088253 -0.09459016 58.0671156 -0.09845281 C67.51780331 -0.10292117 76.9683455 -0.12041203 86.418989 -0.1494534 C93.74327375 -0.17117003 101.06751788 -0.18116253 108.39183444 -0.18249393 C112.75632403 -0.18353567 117.12067684 -0.18930648 121.48513222 -0.20731354 C125.60151084 -0.22396566 129.71765245 -0.225868 133.83405304 -0.21717453 C135.33185912 -0.21641298 136.82967885 -0.2206279 138.32745171 -0.23063278 C157.88932757 -0.35346715 175.58798382 2.81237663 190.26823425 16.6675415 C205.97443425 32.3896734 214.66691367 53.98860346 214.71897888 76.07884216 C214.71178833 77.32394058 214.70459778 78.569039 214.69718933 79.85186768 C214.69662397 81.20307914 214.69694421 82.55429121 214.69807434 83.90550232 C214.69864399 87.54327888 214.68695321 91.18092132 214.67292643 94.81866693 C214.66035374 98.63163718 214.65924344 102.4446111 214.65687561 106.25759888 C214.65067994 113.46444458 214.63429524 120.671229 214.61417663 127.87804782 C214.5917578 136.0885139 214.58080921 144.29898303 214.57078576 152.50947213 C214.54992714 169.38649739 214.5147887 186.26346315 214.47013855 203.14044189 C216.10982605 203.09403564 216.10982605 203.09403564 217.78263855 203.04669189 C223.13985975 203.18289243 225.71875477 205.313225 229.3646698 209.11700439 C234.46376827 214.82882549 235.77557617 217.67208414 235.6849823 225.38262939 C235.20146518 231.58923098 231.93767871 235.10875931 227.47013855 239.14044189 C223.34210582 242.62346951 219.91535101 244.14044189 214.47013855 244.14044189 C214.17825328 250.80765159 214.02607427 257.46840108 213.96354675 264.1416626 C213.92675819 266.40279385 213.85985419 268.66366911 213.76042175 270.9229126 C212.98622185 285.52904452 212.98622185 285.52904452 219.15031433 298.27886963 C222.65229285 301.96797107 226.45204326 305.20100134 230.41654968 308.37887573 C239.56355226 316.22516399 246.38865899 327.8476663 252.47013855 338.14044189 C252.84380554 338.77256592 253.21747253 339.40468994 253.60246277 340.05596924 C262.33490047 355.08916795 269.2848362 372.00351527 272.47013855 389.14044189 C272.66881531 390.10699707 272.66881531 390.10699707 272.87150574 391.09307861 C282.17654992 437.52420356 273.0779093 487.70841729 246.83000183 527.14923096 C240.19594218 536.86330466 232.60428478 545.66476399 224.47013855 554.14044189 C224.00962097 554.62287354 223.54910339 555.10530518 223.07463074 555.60235596 C190.86701144 589.1641849 146.37552428 607.42634439 100.11149597 608.59625244 C52.91971541 609.27387728 8.83990427 593.7888504 -25.52986145 561.14044189 C-26.85778486 560.00906123 -28.19077734 558.8835906 -29.52986145 557.76544189 C-32.83457787 554.87212895 -35.90650678 551.78466087 -38.90486145 548.57794189 C-39.34985178 548.10259966 -39.79484211 547.62725744 -40.253317 547.1375109 C-42.73224537 544.39840185 -44.87845455 541.71344159 -46.72654533 538.5083828 C-50.96352133 531.21420188 -50.96352133 531.21420188 -57.90657425 526.85823441 C-61.93879411 526.38078896 -65.8472351 526.33837328 -69.89363098 526.45928955 C-71.42221515 526.45336564 -72.95078584 526.44127645 -74.47927856 526.42353821 C-78.60240222 526.39296079 -82.72035442 526.44791738 -86.84281015 526.51899767 C-91.16030069 526.57865062 -95.47742931 526.55862128 -99.79521179 526.54727173 C-107.95915533 526.53780346 -116.12093611 526.59933871 -124.28435409 526.68679273 C-133.58306428 526.78292184 -142.88138944 526.79928256 -152.18052888 526.8091538 C-171.29788537 526.83122352 -190.41344902 526.95278182 -209.52986145 527.14044189 C-209.51995178 528.385354 -209.51004211 529.63026611 -209.49983215 530.91290283 C-209.34385378 550.50784392 -219.23231359 569.58281056 -232.6587677 583.32403564 C-244.89763909 595.45601733 -258.81672219 602.96805029 -275.52986145 607.14044189 C-276.30072083 607.33380127 -277.0715802 607.52716064 -277.86579895 607.72637939 C-298.4786882 610.93014224 -319.62986042 606.42605837 -336.6197052 594.39825439 C-354.51338977 580.51563737 -367.88164165 561.86796457 -371.27986145 538.95294189 C-371.58236686 534.33973436 -371.61508249 529.76131617 -371.52986145 525.14044189 C-372.84986145 525.14044189 -374.16986145 525.14044189 -375.52986145 525.14044189 C-390.416314 523.58010551 -402.55041841 513.23976316 -411.9400177 502.34356689 C-416.03452461 497.0823856 -418.24507634 492.52901133 -419.8306427 486.08575439 C-420.37140226 483.87804974 -420.37140226 483.87804974 -422.90486145 482.95294189 C-423.77111145 482.68481689 -424.63736145 482.41669189 -425.52986145 482.14044189 C-431.16887559 476.03285638 -432.88012313 469.95179993 -432.73445129 461.78546143 C-432.31659479 454.3408342 -431.31223686 446.96726802 -430.34236145 439.57794189 C-430.11412842 437.79673907 -429.88627021 436.01548817 -429.6587677 434.23419189 C-428.12495491 422.31226514 -426.45724635 410.41132839 -424.71974182 398.51757812 C-422.85516079 385.74539906 -421.22417376 372.95094627 -419.65299988 360.13964844 C-418.18687024 348.19511793 -416.60810106 336.27869005 -414.83821106 324.37457275 C-414.11565818 319.46854611 -413.44245982 314.57835909 -412.9790802 309.64044189 C-412.90004456 308.80690186 -412.82100891 307.97336182 -412.73957825 307.11456299 C-412.60651298 305.6240461 -412.4877616 304.13212637 -412.38850403 302.63897705 C-411.87000345 296.70247826 -409.4867358 292.99153925 -405.21736145 288.95294189 C-399.25501709 284.93182593 -393.67618107 282.94938862 -386.52986145 284.14044189 C-384.33975539 285.10393378 -382.36707002 286.16940244 -380.3540802 287.46075439 C-378.53669946 288.35258728 -378.53669946 288.35258728 -376.6900177 287.54669189 C-374.39769166 286.05440008 -372.19870811 284.46033235 -370.01423645 282.8147583 C-364.43267659 278.63330256 -358.74874307 274.92994413 -352.52986145 271.76544189 C-351.64379211 271.30210449 -351.64379211 271.30210449 -350.73982239 270.82940674 C-339.77316446 265.45113357 -327.35056066 263.34342817 -315.46089172 260.93377686 C-298.48973041 257.48846405 -281.61114407 253.69034886 -264.7494812 249.74794006 C-261.77270167 249.05266944 -258.79523152 248.36042361 -255.81721497 247.67047119 C-254.23479035 247.30378917 -252.65261196 246.93604355 -251.07063293 246.56744385 C-248.61562527 245.99744158 -246.15895646 245.43519597 -243.70173645 244.87481689 C-242.95546997 244.70041077 -242.20920349 244.52600464 -241.44032288 244.34631348 C-237.71658424 243.50519342 -234.33704087 243.06416485 -230.52986145 243.14044189 C-230.55982712 242.15390625 -230.58979279 241.16737061 -230.6206665 240.15093994 C-231.39013229 214.37697676 -231.66393751 188.62984607 -231.598526 162.84533691 C-231.58611676 157.40038305 -231.58184184 151.95541644 -231.57607269 146.51045227 C-231.5666201 138.38709064 -231.5473687 130.26380796 -231.52986145 122.14044189 C-211.06986145 122.14044189 -190.60986145 122.14044189 -169.52986145 122.14044189 C-169.52986145 157.45044189 -169.52986145 192.76044189 -169.52986145 229.14044189 C-165.89986145 228.15044189 -162.26986145 227.16044189 -158.52986145 226.14044189 C-154.95847457 225.33172936 -151.39105536 224.54769141 -147.8072052 223.80059814 C-146.82224564 223.59236923 -145.83728607 223.38414032 -144.82247925 223.16960144 C-141.70473688 222.51101506 -138.58610867 221.85675155 -135.46736145 221.20294189 C-131.37200852 220.34108452 -127.27703943 219.47741626 -123.1822052 218.61309814 C-121.70063431 218.30077744 -121.70063431 218.30077744 -120.18913269 217.98214722 C-111.28787072 216.10068689 -102.40555158 214.13871453 -93.52986145 212.14044189 C-92.7273615 206.59887019 -91.92800461 201.05685592 -91.13117981 195.51446533 C-90.8614712 193.64130321 -90.59100075 191.76825057 -90.31965637 189.89532471 C-88.82847711 179.59869027 -87.40240559 169.29924476 -86.1353302 158.97247314 C-84.42772992 145.09253787 -82.55439643 131.23622406 -80.63135433 117.38469505 C-80.08569048 113.45398665 -79.54463228 109.52277124 -79.01472473 105.58990479 C-74.0564927 68.83530853 -67.33434696 36.43767663 -36.52986145 12.14044189 C-26.14663794 4.55477083 -12.84791704 0.03331636 0 0 Z " fill="#76B154" transform="translate(588.5298614501953,207.85955810546875)"/>
<path d="M0 0 C1.9480957 0.0009668 1.9480957 0.0009668 3.93554688 0.00195312 C17.29131681 0.06172534 30.23034222 0.62100002 43.25 3.75 C44.36133301 4.01466064 45.47266602 4.27932129 46.61767578 4.55200195 C71.04437188 10.58816413 92.75178874 20.83093054 112.6875 36.1875 C113.57953125 36.85652344 114.4715625 37.52554688 115.390625 38.21484375 C133.68173175 52.48081174 148.91435504 70.26170102 160.6875 90.1875 C161.06116699 90.81962402 161.43483398 91.45174805 161.81982422 92.10302734 C170.55226192 107.13622606 177.50219765 124.05057337 180.6875 141.1875 C180.81995117 141.83187012 180.95240234 142.47624023 181.08886719 143.14013672 C190.39391137 189.57126166 181.29527075 239.75547539 155.04736328 279.19628906 C148.41330363 288.91036276 140.82164623 297.71182209 132.6875 306.1875 C132.22698242 306.66993164 131.76646484 307.15236328 131.29199219 307.64941406 C99.08437289 341.211243 54.59288573 359.47340249 8.32885742 360.64331055 C-38.86292314 361.32093539 -82.94273428 345.8359085 -117.3125 313.1875 C-118.64042341 312.05611934 -119.97341589 310.9306487 -121.3125 309.8125 C-154.63403932 280.54632043 -172.6679811 236.65890095 -176.3125 193.1875 C-177.08700691 178.79135285 -176.82000053 164.40189365 -174.3125 150.1875 C-174.10625 148.96675781 -173.9 147.74601563 -173.6875 146.48828125 C-166.13732919 105.43422747 -144.04125643 69.12594684 -112.3125 42.1875 C-111.53519531 41.50945312 -110.75789062 40.83140625 -109.95703125 40.1328125 C-86.02537618 19.7854749 -57.93362166 8.11695118 -27.3125 2.1875 C-26.39170654 1.99841064 -25.47091309 1.80932129 -24.5222168 1.61450195 C-16.32150121 0.06041445 -8.32954807 -0.07784624 0 0 Z " fill="#292F33" transform="translate(680.3125,455.8125)"/>
<path d="M0 0 C1.53391892 1.34513604 3.05707331 2.70251829 4.57958984 4.06054688 C5.32080078 4.71667969 6.06201172 5.3728125 6.82568359 6.04882812 C25.52351265 23.61801559 37.70026573 50.25537826 38.68457031 75.78320312 C39.55744477 109.05002108 31.59375266 136.94481764 8.31005859 161.55273438 C1.90095023 168.18995309 -4.4712194 174.28649651 -12.42041016 179.06054688 C-12.99484863 179.41455566 -13.56928711 179.76856445 -14.16113281 180.13330078 C-23.57110593 185.89416404 -32.73373065 190.15779576 -43.42041016 193.06054688 C-44.09765137 193.25519531 -44.77489258 193.44984375 -45.47265625 193.65039062 C-63.6985617 198.79890396 -82.06432047 198.33069463 -100.42041016 194.06054688 C-101.60763672 193.79371094 -102.79486328 193.526875 -104.01806641 193.25195312 C-132.61646302 185.99756841 -155.85107473 166.49697328 -171.17041016 141.81054688 C-174.37890482 136.4098998 -176.97354253 130.83139637 -179.29541016 124.99804688 C-179.5696582 124.31516602 -179.84390625 123.63228516 -180.12646484 122.92871094 C-184.44065577 111.45457084 -185.92181567 99.9080557 -185.81152344 87.72924805 C-185.79544369 85.62743016 -185.81147507 83.52754147 -185.83056641 81.42578125 C-185.85194807 68.68286942 -183.83904893 56.52951476 -179.29541016 44.56054688 C-178.99755615 43.76720947 -178.69970215 42.97387207 -178.39282227 42.15649414 C-173.70164215 30.16471755 -166.79237187 19.80183565 -158.42041016 10.06054688 C-157.86998047 9.37734375 -157.31955078 8.69414063 -156.75244141 7.99023438 C-143.02265538 -8.64204799 -123.18829224 -19.22148329 -102.67041016 -24.75195312 C-101.90253174 -24.95916992 -101.13465332 -25.16638672 -100.34350586 -25.37988281 C-64.19595686 -34.5511296 -27.76798389 -23.92868065 0 0 Z " fill="#FECB4D" transform="translate(758.42041015625,550.939453125)"/>
<path d="M0 0 C20.46 0 40.92 0 62 0 C62 35.31 62 70.62 62 107 C65.63 106.01 69.26 105.02 73 104 C76.62991203 103.17945658 80.25602938 102.38378082 83.8984375 101.625 C84.89525543 101.41439941 85.89207336 101.20379883 86.9190979 100.98681641 C90.07043348 100.32150191 93.22265054 99.66049227 96.375 99 C100.52900239 98.1266863 104.68253304 97.2511523 108.8359375 96.375 C109.82430603 96.16738037 110.81267456 95.95976074 111.83099365 95.74584961 C118.08115755 94.42702102 124.30018663 93.02658566 130.49853516 91.48046875 C133.06382736 90.98774036 135.39501534 90.96662233 138 91 C137.37886613 102.22063336 135.77265499 113.24464967 134.12890625 124.3515625 C133.843333 126.3019841 133.55809652 128.25245504 133.2731781 130.20297241 C132.67823891 134.2695076 132.08039881 138.33560139 131.48022461 142.40136719 C130.71493655 147.58615818 129.95519769 152.77174259 129.19741917 157.95763588 C128.60961275 161.978111 128.01974544 165.99828151 127.42918205 170.01835251 C127.14850814 171.92946587 126.86825264 173.84064073 126.58844185 175.75188065 C122.60596551 202.9195152 122.60596551 202.9195152 119.84375 209.7421875 C117.86744339 215.03063759 116.52472822 220.57376135 115 226 C113.35 231.61 111.7 237.22 110 243 C25.19 243 -59.62 243 -147 243 C-145.85518635 224.68298168 -145.85518635 224.68298168 -144.80859375 216.8203125 C-144.5839493 215.04948362 -144.35934094 213.27865015 -144.13476562 211.5078125 C-143.78539899 208.80249845 -143.43391129 206.09747097 -143.08129883 203.39257812 C-142.73518316 200.72329577 -142.39663432 198.05312769 -142.05859375 195.3828125 C-141.95236191 194.58779327 -141.84613007 193.79277405 -141.73667908 192.97366333 C-140.05809258 181.50132774 -140.05809258 181.50132774 -143.5 170.875 C-143.9640625 170.12992188 -144.428125 169.38484375 -144.90625 168.6171875 C-145.2671875 168.08351563 -145.628125 167.54984375 -146 167 C-133.07346408 155.44661258 -119.42479985 147.08498665 -102.37109375 143.15234375 C-101.62944977 142.97966476 -100.88780579 142.80698578 -100.12368774 142.6290741 C-92.23783322 140.8040597 -84.32964536 139.08209006 -76.41967773 137.36526489 C-58.65741651 133.50687674 -40.93502916 129.49094315 -23.23117065 125.37345886 C-21.06064365 124.86901299 -18.88973337 124.36624706 -16.71875 123.86376953 C-14.5088823 123.35047437 -12.30009479 122.83243197 -10.09375 122.30419922 C-6.29982001 121.41265687 -2.88887861 120.92002844 1 121 C0.97003433 120.01346436 0.94006866 119.02692871 0.90919495 118.01049805 C0.13972916 92.23653487 -0.13407606 66.48940418 -0.06866455 40.70489502 C-0.05625531 35.25994116 -0.05198039 29.81497454 -0.04621124 24.37001038 C-0.03675865 16.24664874 -0.01750725 8.12336606 0 0 Z " fill="#77B255" transform="translate(357,330)"/>
<path d="M0 0 C0.6422679 -0.00297112 1.28453579 -0.00594224 1.94626635 -0.0090034 C4.09071172 -0.01764965 6.23510099 -0.01919523 8.37956238 -0.02069092 C9.92082334 -0.02532231 11.46208317 -0.0303474 13.00334167 -0.03573608 C17.18787032 -0.04883892 21.37238292 -0.05530195 25.55692887 -0.05974674 C28.17743725 -0.06268341 30.7979413 -0.06678952 33.41844749 -0.07125092 C41.63466998 -0.08492583 49.85088253 -0.09459016 58.0671156 -0.09845281 C67.51780331 -0.10292117 76.9683455 -0.12041203 86.418989 -0.1494534 C93.74327375 -0.17117003 101.06751788 -0.18116253 108.39183444 -0.18249393 C112.75632403 -0.18353567 117.12067684 -0.18930648 121.48513222 -0.20731354 C125.60151084 -0.22396566 129.71765245 -0.225868 133.83405304 -0.21717453 C135.33185912 -0.21641298 136.82967885 -0.2206279 138.32745171 -0.23063278 C157.88932757 -0.35346715 175.58798382 2.81237663 190.26823425 16.6675415 C205.97443425 32.3896734 214.66691367 53.98860346 214.71897888 76.07884216 C214.71178833 77.32394058 214.70459778 78.569039 214.69718933 79.85186768 C214.69662397 81.20307914 214.69694421 82.55429121 214.69807434 83.90550232 C214.69864399 87.54327888 214.68695321 91.18092132 214.67292643 94.81866693 C214.66035374 98.63163718 214.65924344 102.4446111 214.65687561 106.25759888 C214.65067994 113.46444458 214.63429524 120.671229 214.61417663 127.87804782 C214.5917578 136.0885139 214.58080921 144.29898303 214.57078576 152.50947213 C214.54992714 169.38650349 214.51327505 186.26345053 214.47013855 203.14044189 C201.27013855 203.14044189 188.07013855 203.14044189 174.47013855 203.14044189 C174.4443573 196.77118408 174.41857605 190.40192627 174.39201355 183.83966064 C174.36682685 179.78818893 174.34047986 175.73679051 174.3099823 171.68536377 C174.26175726 165.26438179 174.21767124 158.84356963 174.19914246 152.42242432 C174.18392262 147.24155834 174.1493828 142.06113869 174.10182953 136.88047218 C174.08707053 134.91072293 174.07910071 132.94090994 174.0782547 130.97110558 C174.06499115 115.56442031 172.60050628 102.87697511 161.58732605 91.13262939 C152.54375516 82.65649825 143.25668078 82.6989095 131.46647644 82.73638916 C129.84444713 82.73068053 128.22242184 82.72371436 126.60040283 82.71559143 C122.21192418 82.69769961 117.82364592 82.69882086 113.4351418 82.70453382 C109.76474435 82.70763135 106.09438506 82.70152696 102.42399305 82.69549507 C93.7620149 82.68146459 85.1001354 82.6829989 76.43815613 82.69439697 C67.5164621 82.70587772 58.59506871 82.69179992 49.67341429 82.6650005 C41.99926902 82.64281565 34.32521793 82.63621236 26.65104288 82.64207691 C22.0738587 82.64544091 17.49686722 82.64306847 12.91971016 82.62582588 C8.61445308 82.61031426 4.30964006 82.61435875 0.00440025 82.63313103 C-1.57051893 82.63680523 -3.14547132 82.63374267 -4.7203598 82.62324524 C-17.64371173 82.54371746 -25.66993109 84.58735466 -35.1665802 93.58184814 C-45.9912423 105.30111042 -48.08688109 118.40929138 -49.8697052 133.61309814 C-50.07920433 135.33971616 -50.28955442 137.0662311 -50.5007019 138.79264832 C-51.05480608 143.34137298 -51.59781816 147.89135319 -52.13832092 152.44171143 C-52.67595128 156.95337856 -53.22328533 161.4638642 -53.77009583 165.97442627 C-53.98544434 167.75391073 -54.20074599 169.53340087 -54.41600037 171.31289673 C-54.73622471 173.95991247 -55.05645831 176.60692707 -55.37682724 179.25392532 C-55.69235796 181.86205037 -56.00748142 184.47022414 -56.32234192 187.07843018 C-56.42434591 187.9230311 -56.52634991 188.76763203 -56.63144493 189.63782692 C-57.22155464 194.53765113 -57.79871618 199.43877555 -58.36423779 204.34149647 C-58.70825658 207.3105656 -59.06041269 210.27863422 -59.41423225 213.24654961 C-59.6509181 215.25734827 -59.87646319 217.2694486 -60.10162354 219.28157043 C-61.01156272 226.85937013 -61.9166402 233.54218958 -67.06111145 239.50762939 C-67.77388245 240.35696045 -67.77388245 240.35696045 -68.50105286 241.22344971 C-69.00555969 241.81480713 -69.51006653 242.40616455 -70.02986145 243.01544189 C-86.67304095 263.24276026 -100.45870842 287.52443656 -106.52986145 313.14044189 C-106.85986145 313.14044189 -107.18986145 313.14044189 -107.52986145 313.14044189 C-106.87077626 302.66405959 -105.34036007 292.34970678 -103.7993927 281.97637939 C-103.52338361 280.09879597 -103.24773151 278.22116003 -102.97241211 276.34347534 C-102.24637203 271.39769415 -101.51604673 266.45255576 -100.78462219 261.50756836 C-99.49295091 252.76873295 -98.20936447 244.02870195 -96.9243927 235.28887939 C-96.78326176 234.32925041 -96.64213081 233.36962143 -96.49672318 232.38091278 C-90.73697567 193.7484923 -90.73697567 193.7484923 -85.62875366 155.02690125 C-84.09955814 142.4616353 -82.37199485 129.92244959 -80.63139725 117.3849926 C-80.08571697 113.4541853 -79.54464567 109.52287055 -79.01472473 105.58990479 C-74.0564927 68.83530853 -67.33434696 36.43767663 -36.52986145 12.14044189 C-26.14663794 4.55477083 -12.84791704 0.03331636 0 0 Z " fill="#2A3034" transform="translate(588.5298614501953,207.85955810546875)"/>
<path d="M0 0 C0.67337731 -0.00367669 1.34675462 -0.00735338 2.0405373 -0.01114148 C4.30192982 -0.02217377 6.56327637 -0.02602143 8.82469177 -0.02983093 C10.44435777 -0.0360961 12.06402232 -0.04274295 13.6836853 -0.04974365 C19.00859069 -0.0707862 24.33349636 -0.0811486 29.65843201 -0.09111023 C31.49294996 -0.0951582 33.32746776 -0.09927513 35.1619854 -0.10346031 C43.78399108 -0.12251515 52.40598821 -0.13674361 61.0280109 -0.14507228 C70.97066056 -0.1548357 80.91308706 -0.18113054 90.85565811 -0.22157317 C98.54583438 -0.25177665 106.23594685 -0.26654531 113.92618126 -0.26985329 C118.51635414 -0.27219964 123.1062887 -0.28110536 127.69639778 -0.30631447 C132.01961068 -0.32967329 136.34242971 -0.33379722 140.66568947 -0.32355309 C142.2466488 -0.32305945 143.82762803 -0.3293288 145.40852737 -0.34310913 C155.2309183 -0.42389033 163.68809466 0.08175884 171.92015076 5.93623352 C181.33197443 15.89920002 186.92937037 26.60583967 186.74510193 40.43061829 C186.74554001 41.30975388 186.74597809 42.18888947 186.74642944 43.09466553 C186.74435826 45.96787104 186.72110694 48.84047513 186.69749451 51.71357727 C186.6918926 53.71853314 186.68762531 55.72349313 186.68463135 57.72845459 C186.67322942 62.980998 186.64380258 68.23328878 186.61051941 73.48573303 C186.57971786 78.85526615 186.56610453 84.22484047 186.55101013 89.59443665 C186.51892817 100.11212519 186.46778853 110.62962702 186.40452576 121.14717102 C185.49859995 121.14863758 184.59267414 121.15010414 183.65929604 121.15161514 C161.54645193 121.18877722 139.43375994 121.24791586 117.3210392 121.33107376 C106.62718604 121.37076761 95.93340543 121.40320893 85.23948669 121.41816711 C75.9112468 121.4312339 66.58316721 121.4583258 57.25501764 121.50178409 C52.32254374 121.52428648 47.39026674 121.5400885 42.45773697 121.53905487 C37.80041688 121.53830156 33.14353016 121.55651749 28.4863224 121.58833885 C26.79104278 121.59675037 25.09571404 121.59864853 23.40042305 121.59297371 C-2.67772587 121.51741182 -24.48937144 129.31641722 -44.59547424 146.14717102 C-46.5949095 147.81451599 -48.59527703 149.48074 -50.59547424 151.14717102 C-49.2720217 137.37080651 -47.74601548 123.6302105 -46.06422424 109.89326477 C-45.8251563 107.9303908 -45.5861854 105.967505 -45.3473053 104.00460815 C-44.85126112 99.93305112 -44.35357296 95.86169925 -43.85475159 91.79048157 C-43.21901375 86.60010629 -42.58824659 81.40914024 -41.95877838 76.21800137 C-41.46859257 72.18119709 -40.97539816 68.14476455 -40.48135376 64.10843086 C-40.24753251 62.19458844 -40.01471119 60.28062354 -39.78295898 58.36652946 C-37.25222685 37.48901217 -34.81308073 20.95162507 -18.59547424 6.14717102 C-12.53944304 1.89796172 -7.41821563 0.02623464 0 0 Z " fill="#BADCF4" transform="translate(576.5954742431641,289.8528289794922)"/>
<path d="M0 0 C0.92719369 -0.00453111 1.85438737 -0.00906223 2.80967784 -0.01373065 C5.88788003 -0.0262978 8.96590356 -0.02475932 12.04412842 -0.02310181 C14.26244329 -0.02909152 16.48075608 -0.03589808 18.69906616 -0.04345703 C24.70282884 -0.06107069 30.70653445 -0.06581022 36.71032047 -0.0670886 C40.4623098 -0.06851241 44.21428471 -0.07278619 47.96627045 -0.07808304 C60.383082 -0.09560976 72.79986586 -0.10492523 85.21668831 -0.10342209 C86.21843425 -0.10330222 86.21843425 -0.10330222 87.24041748 -0.10317993 C87.90906754 -0.10309817 88.5777176 -0.10301641 89.26662979 -0.10293217 C100.11929804 -0.10211807 110.97182792 -0.12129404 121.82445613 -0.14945666 C132.98254708 -0.17818271 144.14058732 -0.19163101 155.29872012 -0.19026911 C161.55753968 -0.18975893 167.81620221 -0.19547445 174.07498932 -0.21662521 C179.95527761 -0.23595707 185.8352581 -0.2361666 191.7155571 -0.22159195 C193.87387668 -0.21949708 196.0322153 -0.22424492 198.19050217 -0.23631287 C201.13534071 -0.25171379 204.0791108 -0.24249131 207.02392578 -0.22705078 C208.30650988 -0.24248147 208.30650988 -0.24248147 209.61500478 -0.25822389 C216.06764196 -0.18338565 219.7030056 1.72681634 224.34002686 6.33773804 C224.91108154 7.01578491 225.48213623 7.69383179 226.07049561 8.39242554 C226.65444092 9.07562866 227.23838623 9.75883179 227.84002686 10.46273804 C231.31556513 14.88615038 230.67898138 19.86349909 230.25799561 25.26742554 C227.87783635 32.03208869 222.50740658 37.08690016 216.17915154 40.33415508 C212.28358855 41.57873563 208.5648606 41.5386381 204.51950073 41.51225281 C203.63968123 41.51451738 202.75986173 41.51678195 201.85338104 41.51911515 C198.90500852 41.52441229 195.95684598 41.51557871 193.00848389 41.50692749 C190.89417961 41.50804041 188.77987565 41.51009828 186.66557312 41.51303101 C182.1104676 41.51775548 177.55541362 41.5166305 173.00030899 41.51125526 C165.78749123 41.50364554 158.57477271 41.51430263 151.36196899 41.52845764 C130.8504195 41.56619241 110.33891419 41.58441287 89.82733154 41.57284546 C78.50019555 41.56661494 67.17321937 41.57828479 55.84612262 41.60929078 C48.68732193 41.62788309 41.52897602 41.62468425 34.37018323 41.60512316 C29.89744509 41.59820429 25.4249493 41.61227237 20.95225716 41.63207245 C18.89125782 41.63708793 16.83021669 41.63371798 14.76925087 41.62093925 C-8.21091318 41.48868524 -26.74643102 48.41956433 -43.74200439 64.26742554 C-59.15636604 80.92148546 -67.59799352 104.8245828 -73.74200439 126.26742554 C-74.18095321 127.72129475 -74.62256142 129.17436258 -75.06622314 130.62680054 C-78.27491216 141.15370273 -81.30566475 151.72257457 -84.20611572 162.3387146 C-85.8955648 168.46452997 -87.77854282 174.49005507 -89.81817627 180.50814819 C-91.0314519 184.13194342 -92.12240546 187.78309426 -93.17950439 191.45492554 C-93.55306121 192.74012281 -93.92676854 194.02527634 -94.30059814 195.31039429 C-94.51571045 196.05281372 -94.73082275 196.79523315 -94.95245361 197.56015015 C-95.74441168 200.27567983 -96.54669613 202.98807201 -97.34919739 205.70050049 C-99.34996855 212.47053272 -101.3120908 219.25027441 -103.23661804 226.04240417 C-104.42616896 230.23633554 -105.62574817 234.42737267 -106.82598877 238.61825562 C-107.44091706 240.7742742 -108.05153808 242.93152556 -108.65802002 245.0899353 C-109.54935017 248.25802231 -110.45664066 251.42116925 -111.36700439 254.58383179 C-111.76411621 256.01681358 -111.76411621 256.01681358 -112.16925049 257.47874451 C-114.51905918 265.54549098 -117.58853732 272.43400184 -124.74200439 277.26742554 C-129.17916665 279.48600667 -135.32449215 278.78256657 -140.07012939 277.77133179 C-145.66252311 275.88229803 -148.82882795 272.65889609 -152.49200439 268.07992554 C-157.25806088 257.35629845 -152.80871288 246.87796351 -149.61700439 236.32211304 C-149.07025169 234.46622599 -148.52511604 232.60986186 -147.98150635 230.75305176 C-146.54679416 225.86833748 -145.09061167 220.99028698 -143.62963867 216.1133728 C-142.1713066 211.2322773 -140.73272716 206.34537761 -139.29278564 201.45883179 C-137.09382169 194.00432495 -134.88489305 186.55286205 -132.66656494 179.10409546 C-130.30071221 171.15850949 -127.9544269 163.20762978 -125.63653564 155.24789429 C-125.38029419 154.36830048 -125.12405273 153.48870667 -124.86004639 152.5824585 C-122.32552377 143.86227902 -119.83037012 135.13070772 -117.34869385 126.39535522 C-116.80559406 124.49046278 -116.25477736 122.58777443 -115.70294189 120.68539429 C-115.01963496 118.25493265 -114.37683711 115.83346854 -113.76934814 113.38461304 C-105.81812739 81.95145609 -87.10177094 43.48464098 -60.74200439 23.26742554 C-59.45616455 22.21168335 -59.45616455 22.21168335 -58.14434814 21.13461304 C-41.60450188 8.00068397 -21.25177858 -0.07779046 0 0 Z " fill="#5C913B" transform="translate(593.7420043945313,410.7325744628906)"/>
<path d="M0 0 C1.44632813 -0.01160156 1.44632813 -0.01160156 2.921875 -0.0234375 C25.54044846 0.03720211 45.0167632 9.05595676 61.3125 24.5 C77.4754717 41.3376511 84.14624169 61.30570043 83.83984375 84.31640625 C83.10940189 107.76767328 71.58890597 126.91794498 55.03515625 142.72265625 C44.36067222 152.08088812 31.3203668 157.83098741 17.625 161.25 C16.46871094 161.54003906 16.46871094 161.54003906 15.2890625 161.8359375 C-5.32382675 165.03970035 -26.47499897 160.53561647 -43.46484375 148.5078125 C-61.32156455 134.65387341 -74.42564855 116.29212143 -77.95703125 93.4921875 C-80.55229672 70.34923754 -76.62019943 48.89179768 -62 30.3125 C-45.71338338 11.75075124 -25.07006116 -0.19949651 0 0 Z " fill="#293033" transform="translate(295.375,653.75)"/>
<path d="M0 0 C15.50368827 11.74535951 25.31443832 27.65617164 28 47 C28.82448034 57.01021606 28.26719248 66.43651757 25 76 C24.50693359 77.47533203 24.50693359 77.47533203 24.00390625 78.98046875 C16.85623766 98.0986273 1.9539198 110.61277839 -16.1015625 118.95703125 C-24.29174905 121.90417385 -32.14973261 122.36494455 -40.8125 122.375 C-41.91142578 122.39949219 -43.01035156 122.42398438 -44.14257812 122.44921875 C-61.57931788 122.51086898 -76.12055065 114.13523026 -88.54443359 102.45996094 C-101.71345082 89.25118486 -107.33782756 71.78030205 -107.5625 53.5 C-107.4385301 34.69636762 -99.9188852 19.5956835 -87 6 C-62.66714716 -15.64070742 -26.9859328 -19.43243484 0 0 Z " fill="#FEE7B4" transform="translate(724,581)"/>
<path d="M0 0 C87.12 0 174.24 0 264 0 C259.38662791 18.45348837 259.38662791 18.45348837 256.8125 27.3125 C256.55275391 28.21677734 256.29300781 29.12105469 256.02539062 30.05273438 C255.06416755 33.38845167 254.09789963 36.7063011 253 40 C168.19 40 83.38 40 -4 40 C-3.16414131 26.62626096 -1.66204487 13.29635899 0 0 Z " fill="#FECB4D" transform="translate(214,533)"/>
<path d="M0 0 C1.54273977 -0.00379533 3.0854761 -0.00930527 4.62820435 -0.01637268 C8.77096882 -0.03018778 12.91331146 -0.01925652 17.05605197 -0.00266147 C21.42205952 0.01132926 25.78804602 0.00471308 30.15406799 0.00120544 C37.48282557 -0.001486 44.81141838 0.01188566 52.14013672 0.03515625 C60.57272666 0.06174924 69.00504122 0.0635122 77.43765873 0.05176789 C85.59994947 0.04092917 93.76214212 0.04722532 101.92442513 0.06132317 C105.37496364 0.06703141 108.82542913 0.06704148 112.27596855 0.06225777 C116.35148634 0.05742925 120.42670878 0.06782816 124.50217056 0.08921242 C125.98384289 0.09470191 127.46554408 0.09531941 128.94721794 0.09025955 C148.46802966 0.03203577 166.08576262 3.22683847 180.74902344 17.02001953 C187.44426015 23.7061795 193.18093983 31.8268169 196.95532227 40.50170898 C196.62532227 41.16170898 196.29532227 41.82170898 195.95532227 42.50170898 C107.84532227 42.50170898 19.73532227 42.50170898 -71.04467773 42.50170898 C-65.14867915 27.76171253 -52.6896531 16.15466897 -39.04467773 8.50170898 C-38.40401367 8.11499023 -37.76334961 7.72827148 -37.10327148 7.32983398 C-25.67535853 0.91243146 -12.80079715 -0.09139367 0 0 Z " fill="#76B055" transform="translate(598.044677734375,207.498291015625)"/>
<path d="M0 0 C4.74840917 2.9656731 8.40126102 6.74850613 10.3125 12.0625 C10.71650126 18.52943462 10.13300191 24.89933824 9.2890625 31.3046875 C9.18282562 32.1531424 9.07658875 33.00159729 8.96713257 33.87576294 C8.62970988 36.56377892 8.2841576 39.25066083 7.9375 41.9375 C7.48869596 45.45529355 7.0437626 48.97355791 6.6015625 52.4921875 C6.4913678 53.3659906 6.3811731 54.2397937 6.26763916 55.14007568 C5.51013291 61.23397682 4.86346092 67.33309126 4.2734375 73.4453125 C3.54432549 80.98395604 2.64572872 88.48042326 1.59899902 95.98254395 C1.02786415 100.12892959 0.48906307 104.2796385 -0.0546875 108.4296875 C-0.17549683 109.35035507 -0.29630615 110.27102264 -0.42077637 111.21958923 C-0.80185408 114.12549382 -1.18225216 117.03148672 -1.5625 119.9375 C-1.69378296 120.93963531 -1.82506592 121.94177063 -1.96032715 122.97427368 C-3.31385525 133.31778911 -4.65726454 143.66185074 -5.8984375 154.01953125 C-5.98902435 154.77532471 -6.07961121 155.53111816 -6.17294312 156.30981445 C-6.58623253 159.77145236 -6.99344488 163.23363896 -7.39404297 166.69677734 C-10.00442189 188.8864663 -10.00442189 188.8864663 -14.6875 194.0625 C-18.65921765 197.11830792 -22.59808899 199.69010407 -27.6875 200.0625 C-28.35523438 200.13597656 -29.02296875 200.20945312 -29.7109375 200.28515625 C-35.93000508 200.69905324 -39.98086429 199.13944975 -44.6875 195.0625 C-51.99065712 185.83745943 -51.28586078 176.83808069 -50.04360962 165.67892456 C-49.5609817 161.61503737 -49.03257369 157.55759401 -48.5 153.5 C-48.27176697 151.71879717 -48.04390876 149.93754628 -47.81640625 148.15625 C-46.28259346 136.23432324 -44.6148849 124.3333865 -42.87738037 112.43963623 C-41.01279934 99.66745716 -39.38181231 86.87300437 -37.81063843 74.06170654 C-36.34450879 62.11717604 -34.76573961 50.20074815 -32.99584961 38.29663086 C-32.27329673 33.39060422 -31.60009837 28.50041719 -31.13671875 23.5625 C-31.05768311 22.72895996 -30.97864746 21.89541992 -30.8972168 21.03662109 C-30.76415153 19.54610421 -30.64540015 18.05418448 -30.54614258 16.56103516 C-30.027642 10.62453637 -27.64437435 6.91359736 -23.375 2.875 C-15.76295718 -2.2587033 -8.43252904 -4.09579982 0 0 Z " fill="#3E721D" transform="translate(206.6875,493.9375)"/>
<path d="M0 0 C20.46 0 40.92 0 62 0 C62 35.31 62 70.62 62 107 C54.12465363 109.25009896 54.12465363 109.25009896 50.76806641 110.02148438 C50.01683502 110.1950647 49.26560364 110.36864502 48.49160767 110.54748535 C47.70289276 110.72775269 46.91417786 110.90802002 46.1015625 111.09375 C45.26716644 111.28594116 44.43277039 111.47813232 43.5730896 111.67614746 C40.92411834 112.28581781 38.27456344 112.892909 35.625 113.5 C33.85412959 113.90739094 32.08329591 114.31494161 30.3125 114.72265625 C21.22204134 116.81324632 21.22204134 116.81324632 18.24688721 117.4855957 C16.70849869 117.8377957 15.17270941 118.20149126 13.63934326 118.57495117 C12.8681012 118.75840088 12.09685913 118.94185059 11.30224609 119.13085938 C10.27772842 119.38095764 10.27772842 119.38095764 9.23251343 119.6361084 C6.46732576 120.08682397 3.79649878 120.05562187 1 120 C0.17252782 93.58526912 -0.13553603 67.20044617 -0.06866455 40.77355957 C-0.05626651 35.32112123 -0.0519822 29.86867022 -0.04621124 24.41622162 C-0.03675173 16.27745635 -0.01750273 8.13876966 0 0 Z " fill="#CAD5DB" transform="translate(357,330)"/>
<path d="M0 0 C3.93445203 3.1412665 6.74622404 6.7223483 9.44140625 10.94921875 C9.85132813 11.58601562 10.26125 12.2228125 10.68359375 12.87890625 C15.95224748 22.14712194 17.26184899 35.59856618 14.71875 45.8671875 C10.06065117 59.53974478 1.46230296 70.4387704 -11.55859375 76.94921875 C-23.22062435 81.29934128 -35.90820173 81.43013876 -47.55859375 76.94921875 C-58.29837693 70.88281402 -68.48513514 60.76131224 -72.6171875 48.9140625 C-73.88551124 44.32191769 -73.88895578 39.81122917 -73.87109375 35.07421875 C-73.88720703 34.22730469 -73.90332031 33.38039063 -73.91992188 32.5078125 C-73.92799658 21.96224913 -70.13903702 12.11689834 -63.12109375 4.19921875 C-62.27546875 3.45671875 -61.42984375 2.71421875 -60.55859375 1.94921875 C-59.63046875 1.10359375 -58.70234375 0.25796875 -57.74609375 -0.61328125 C-40.14011595 -14.90413855 -17.89594907 -12.00878096 0 0 Z " fill="#F4900D" transform="translate(713.55859375,601.05078125)"/>
<path d="M0 0 C8.72708574 6.315327 15.28888413 14.44863013 18 25 C18.33113931 28.60757881 18.37012972 32.19144486 18.375 35.8125 C18.39949219 36.75931641 18.42398438 37.70613281 18.44921875 38.68164062 C18.4907513 48.739439 14.75432074 56.61246169 8 64 C-1.27502846 72.87649208 -12.67079946 76.40088624 -25.359375 76.2109375 C-37.55990271 75.23633913 -47.30884073 68.71741123 -55.0859375 59.59375 C-62.39281668 49.69218311 -62.64465976 38.85457674 -62 27 C-61.43875653 23.98926172 -60.48432501 21.66503808 -59 19 C-58.5978125 18.20335937 -58.195625 17.40671875 -57.78125 16.5859375 C-52.42274334 6.73223914 -43.79382942 -1.0353117 -32.9765625 -4.41796875 C-21.69950625 -6.62306243 -9.91900708 -6.18853503 0 0 Z " fill="#FDCA4C" transform="translate(319,699)"/>
<path d="M0 0 C20.13 0 40.26 0 61 0 C61 12.87 61 25.74 61 39 C40.87 39 20.74 39 0 39 C0 26.13 0 13.26 0 0 Z " fill="#66757F" transform="translate(358,371)"/>
<path d="M0 0 C4.1645337 3.21926481 7.16752562 7.44007685 8.82421875 12.41015625 C9.50738387 20.04321266 8.64593392 25.02409804 3.63671875 31.03515625 C-1.27519298 35.18299282 -6.3550637 38.25050936 -13.03125 37.85546875 C-19.1131746 36.59255544 -24.52972229 33.83351252 -28.23828125 28.78515625 C-31.40973774 23.26068365 -31.83476986 18.66590723 -31.17578125 12.41015625 C-29.10106961 5.5576801 -25.02563999 1.65590718 -18.92578125 -1.90234375 C-12.31319494 -3.55549033 -6.0035716 -3.39755878 0 0 Z " fill="#F4910D" transform="translate(309.17578125,717.58984375)"/>
</svg>
