<?xml version="1.0" encoding="UTF-8"?>
<svg version="1.1" xmlns="http://www.w3.org/2000/svg" width="1000" height="1000">
<path d="M0 0 C330 0 660 0 1000 0 C1000 330 1000 660 1000 1000 C670 1000 340 1000 0 1000 C0 670 0 340 0 0 Z " fill="#E3EDE7" transform="translate(0,0)"/>
<path d="M0 0 C0.80953125 0.36222656 1.6190625 0.72445312 2.453125 1.09765625 C11.42213748 5.59741591 18.55369533 12.6560792 24 21 C24.77150391 22.09441406 24.77150391 22.09441406 25.55859375 23.2109375 C31.25891429 32.22341436 32.39307146 42.6415136 34 53 C34.58265625 52.2678125 35.1653125 51.535625 35.765625 50.78125 C46.37815327 37.57124977 55.85027485 31.69760796 72.8125 29.5078125 C85.81788233 28.83044884 96.08798569 34.56118898 105.81640625 42.8359375 C115.39390075 52.32776568 121.15209655 65.05606392 121.38061523 78.52368164 C121.36235742 87.38824552 121.28890659 95.01332643 117 103 C116.46761719 104.01449219 115.93523437 105.02898437 115.38671875 106.07421875 C110.68693089 114.54634188 104.96201346 123.50085154 96 128 C92.44479133 127.57445368 90.85530468 126.17543326 88.453125 123.60546875 C87.781604 122.90301025 87.11008301 122.20055176 86.41821289 121.47680664 C85.70270264 120.72133545 84.98719238 119.96586426 84.25 119.1875 C59.63689449 93.98391193 23.4603691 73.98245843 -12.33886719 72.39331055 C-30.84535639 72.24091851 -46.16528197 78.82994723 -60 91 C-60.76183594 91.66644531 -61.52367187 92.33289063 -62.30859375 93.01953125 C-77.22967096 106.95793787 -86.4682974 127.71867247 -87.27685547 148.08450317 C-87.41687833 154.11479662 -87.39111779 160.14435222 -87.36328125 166.17578125 C-87.36276073 168.43084208 -87.36328581 170.68590336 -87.36479187 172.94096375 C-87.36470251 177.66212776 -87.35436142 182.3831198 -87.33618164 187.10424805 C-87.31374117 193.05207857 -87.3130928 198.99965551 -87.31943893 204.94751644 C-87.34443753 236.00211843 -87.30229037 266.98827211 -82.83984375 297.78515625 C-82.16402615 302.57478465 -81.62341347 307.37241817 -81.12890625 312.18359375 C-78.67510056 335.93073973 -75.46361425 359.54352787 -70.33642578 382.88232422 C-69.9516595 385.30428556 -69.8606236 387.55176725 -70 390 C-75.47700335 396.10578319 -86.00000209 398.59408665 -93.85693359 399.23193359 C-97.11530091 399.39180086 -100.36294171 399.46621739 -103.625 399.5 C-104.67357178 399.51844971 -105.72214355 399.53689941 -106.80249023 399.5559082 C-116.26502793 399.48092065 -125.58723046 397.47165729 -132.5625 390.6640625 C-138.14873467 384.19738867 -138.82391718 377.55339026 -138.44140625 369.21484375 C-136.99229991 351.57934071 -125.99966485 333.71945239 -114.89453125 320.4921875 C-109.99566729 314.62825653 -106.8088097 309.08671535 -104 302 C-103.57396484 301.03658691 -103.14792969 300.07317383 -102.70898438 299.08056641 C-97.75198346 286.55614994 -98.2179789 273.86515414 -98.1875 260.5625 C-98.16431509 258.1738057 -98.1389416 255.78513159 -98.11132812 253.39648438 C-98.04899327 247.59764751 -98.01364527 241.79914534 -98 236 C-99.00083115 235.70900925 -99.00083115 235.70900925 -100.0218811 235.41213989 C-100.90749725 235.1512558 -101.7931134 234.8903717 -102.70556641 234.62158203 C-103.57903717 234.3657132 -104.45250793 234.10984436 -105.35244751 233.84622192 C-121.56610851 228.66394302 -137.45134392 219.57460599 -146.875 205.125 C-148.67670751 200.12025692 -148.9762647 195.7731577 -147.19140625 190.703125 C-139.83626562 175.94194311 -123.00585058 168.9326955 -108.47265625 163.12890625 C-105 162 -105 162 -98 161 C-98 155.39 -98 149.78 -98 144 C-99.711875 144.0825 -101.42375 144.165 -103.1875 144.25 C-114.03816764 144.2244088 -123.58932363 140.82437984 -132 134 C-132.62519531 133.49855469 -133.25039062 132.99710938 -133.89453125 132.48046875 C-139.31898654 127.62327676 -142.17333269 121.62125404 -145 115 C-145.34289062 114.22011719 -145.68578125 113.44023437 -146.0390625 112.63671875 C-150.22608229 101.3082867 -149.31045508 86.1164368 -145 75 C-139.75768788 63.8481724 -131.99082011 58.16720027 -121 53 C-110.22052126 49.32568076 -98.30787448 52.44227445 -88 56 C-88.0825 54.989375 -88.165 53.97875 -88.25 52.9375 C-88.22614027 39.45675178 -82.01724498 22.9254567 -73 13 C-72.47277344 12.41863281 -71.94554687 11.83726563 -71.40234375 11.23828125 C-67.18873145 7.11727582 -62.38234548 4.37343656 -57.1875 1.6875 C-56.54828613 1.34976563 -55.90907227 1.01203125 -55.25048828 0.6640625 C-39.78281929 -6.95981226 -15.60649588 -7.21209279 0 0 Z " fill="#DD2F44" transform="translate(315,112)"/>
<path d="M0 0 C10.374375 2.17023376 20.69088905 4.54128952 31 7 C31.15855469 7.85980469 31.31710937 8.71960938 31.48046875 9.60546875 C34.24925884 23.63298541 38.62673341 35.98962178 48 47 C49.66443736 48.00370616 51.33096274 49.00396164 53 50 C54.765625 52.375 54.765625 52.375 56.25 55 C56.75015625 55.86625 57.2503125 56.7325 57.765625 57.625 C60.38029117 62.65575011 61.05402324 67.59418741 59.375 73.01953125 C56.0397617 79.62486647 49.81488035 82.42568835 43.51855469 85.68603516 C40.55094602 87.23427768 37.60778813 88.82478666 34.6640625 90.41796875 C29.25115527 93.3451138 23.82130319 96.23827811 18.38346863 99.11877441 C14.39141282 101.24042738 10.43784828 103.42247466 6.49609375 105.63671875 C4.97423462 106.47444824 4.97423462 106.47444824 3.42163086 107.32910156 C1.54037981 108.36475644 -0.33093188 109.41878419 -2.18920898 110.49511719 C-8.67461016 114.01606024 -14.63771156 115.22526165 -22 114 C-29.42508782 110.05991308 -33.20153015 102.67025859 -36 95 C-36.92445118 90.74041343 -36.41240748 87.82481496 -34.4375 83.875 C-32.474355 81.55949564 -30.6477183 79.75805439 -28.34765625 77.8203125 C-27.71996338 77.28937988 -27.09227051 76.75844727 -26.44555664 76.21142578 C-25.96852295 75.81165527 -25.49148926 75.41188477 -25 75 C-25.66531738 74.9906543 -26.33063477 74.98130859 -27.01611328 74.97167969 C-30.05314019 74.91773981 -33.08866579 74.83413938 -36.125 74.75 C-37.69507813 74.72873047 -37.69507813 74.72873047 -39.296875 74.70703125 C-46.51738399 74.47853413 -50.49351345 73.3491442 -55.828125 68.25390625 C-56.53195312 67.41666016 -56.53195312 67.41666016 -57.25 66.5625 C-57.72953125 66.00691406 -58.2090625 65.45132813 -58.703125 64.87890625 C-62.52558807 59.34094018 -62.89584232 53.52685118 -62 47 C-59.61657159 41.07097562 -55.62340205 37.11821884 -50.13995361 33.91262817 C-47.69386187 32.86944096 -45.97506903 32.75837874 -43.32324219 32.77294922 C-42.40258972 32.77310028 -41.48193726 32.77325134 -40.53338623 32.77340698 C-39.05506317 32.78889084 -39.05506317 32.78889084 -37.546875 32.8046875 C-36.02383759 32.80893234 -36.02383759 32.80893234 -34.47003174 32.81326294 C-31.22990084 32.82444999 -27.99004724 32.84955209 -24.75 32.875 C-22.55208733 32.8850317 -20.35417032 32.89415722 -18.15625 32.90234375 C-12.77073886 32.92438449 -7.38538924 32.95784749 -2 33 C-2.00507568 31.92911133 -2.01015137 30.85822266 -2.01538086 29.75488281 C-2.01948783 28.32096388 -2.02346872 26.88704458 -2.02734375 25.453125 C-2.03100952 24.75074707 -2.03467529 24.04836914 -2.03845215 23.32470703 C-2.07077986 7.3086348 -2.07077986 7.3086348 0 0 Z " fill="#FEAC34" transform="translate(441,722)"/>
<path d="M0 0 C0.15855469 1.07636719 0.31710937 2.15273438 0.48046875 3.26171875 C2.49332004 16.1686081 5.47066141 27.40725689 13.546875 37.9765625 C15 40 15 40 16 43 C16.77988281 43.30164063 17.55976562 43.60328125 18.36328125 43.9140625 C21.54473409 45.22434974 22.39639191 46.48425718 24.1875 49.375 C24.92033203 50.53128906 24.92033203 50.53128906 25.66796875 51.7109375 C26.10753906 52.46632813 26.54710937 53.22171875 27 54 C27.39058594 54.65484375 27.78117188 55.3096875 28.18359375 55.984375 C29.77366317 59.91009664 28.86010471 63.95622412 28 68 C23.53032295 77.68430027 11.00955302 82.28578051 2.0625 87 C0.21575508 87.97928508 -1.63017512 88.96009529 -3.47612 89.94088745 C-4.74022555 90.61230678 -6.00464194 91.28314121 -7.2693634 91.95339966 C-11.6937227 94.29939097 -16.10449854 96.66945146 -20.5078125 99.0546875 C-21.10612381 99.37850403 -21.70443512 99.70232056 -22.32087708 100.03594971 C-25.1857904 101.58678057 -28.04954533 103.13969932 -30.91186523 104.6953125 C-31.93223877 105.24703125 -32.9526123 105.79875 -34.00390625 106.3671875 C-34.89924072 106.85300293 -35.7945752 107.33881836 -36.71704102 107.83935547 C-42.04905875 110.55012568 -47.13733077 110.44898203 -53 110 C-58.74622076 107.95689929 -62.35756119 102.2235926 -65.046875 96.9453125 C-66.85221483 92.56821498 -67.67987723 88.75914058 -67 84 C-64.43682783 78.2821544 -60.81588884 74.85537916 -56 71 C-56.65484375 70.99589111 -57.3096875 70.99178223 -57.984375 70.98754883 C-60.99046138 70.95437785 -63.99458361 70.88370974 -67 70.8125 C-68.02996094 70.80669922 -69.05992187 70.80089844 -70.12109375 70.79492188 C-78.24817022 70.56198019 -83.38427962 68.74607842 -89.05859375 62.8671875 C-89.51363281 62.20976563 -89.96867188 61.55234375 -90.4375 60.875 C-90.91058594 60.21242188 -91.38367188 59.54984375 -91.87109375 58.8671875 C-94.82454885 53.98223408 -94.77272656 48.51211614 -94 43 C-91.40928572 37.07452548 -87.66267997 33.02009598 -82 30 C-79.14512885 29.04837628 -77.39545683 28.87836861 -74.43676758 28.88647461 C-73.51603958 28.88655014 -72.59531158 28.88662567 -71.64668274 28.88670349 C-70.16061775 28.89444542 -70.16061775 28.89444542 -68.64453125 28.90234375 C-67.62775803 28.9037587 -66.6109848 28.90517365 -65.56340027 28.90663147 C-62.31307036 28.91223293 -59.06280912 28.92478568 -55.8125 28.9375 C-53.61002704 28.94251481 -51.40755299 28.94707775 -49.20507812 28.95117188 C-43.80336196 28.96220283 -38.40168588 28.97894238 -33 29 C-33.01160156 28.27296875 -33.02320313 27.5459375 -33.03515625 26.796875 C-33.10087723 19.47368041 -32.7234657 12.28633314 -32 5 C-28.08641574 4.28344971 -24.17202369 3.5715076 -20.25683594 2.86376953 C-18.92587836 2.62251323 -17.59514559 2.38001315 -16.26464844 2.13623047 C-14.3489079 1.78544091 -12.43227474 1.43953732 -10.515625 1.09375 C-9.36352539 0.88427734 -8.21142578 0.67480469 -7.02441406 0.45898438 C-4 0 -4 0 0 0 Z " fill="#FEAC34" transform="translate(614,726)"/>
<path d="M0 0 C0 24.75 0 49.5 0 75 C-18.87186871 69.33843939 -37.74551867 61.19020471 -48.875 44.125 C-50.67670751 39.12025692 -50.9762647 34.7731577 -49.19140625 29.703125 C-41.32688436 13.91965546 -22.62252984 6.72232082 -7 1 C-4 0 -4 0 0 0 Z " fill="#FEAB34" transform="translate(217,273)"/>
<path d="M0 0 C5.65296494 2.57929959 8.87015336 6.21044148 11.9921875 11.5625 C13.36139534 17.03933136 13.40138561 22.29934212 11.4921875 27.625 C8.09394336 32.66377579 4.48013006 36.30871075 -1.3203125 38.3125 C-8.72973944 39.1694436 -15.20020512 38.86562336 -21.3203125 34.3125 C-25.698776 29.81881378 -27.41058037 25.70716053 -27.6953125 19.5 C-27.55550359 13.6280258 -25.94023788 9.0655232 -21.859375 4.77734375 C-15.32478322 -0.91139985 -8.42363929 -2.49589312 0 0 Z " fill="#2B3135" transform="translate(295.3203125,250.6875)"/>
</svg>
