<?xml version="1.0" encoding="UTF-8"?>
<svg version="1.1" xmlns="http://www.w3.org/2000/svg" width="1000" height="1000">
<path d="M0 0 C330 0 660 0 1000 0 C1000 330 1000 660 1000 1000 C670 1000 340 1000 0 1000 C0 670 0 340 0 0 Z " fill="#E3EEE5" transform="translate(0,0)"/>
<path d="M0 0 C1.48922535 0.47508195 2.97883926 0.94894688 4.46875 1.421875 C41.1991482 13.37155664 71.63149047 35.03585317 99.66845703 61.06225586 C103.75085602 64.8300467 108.01572837 68.3283207 112.33984375 71.8125 C115.79884028 74.65690243 119.11324055 77.64292744 122.41796875 80.6640625 C124.51993349 82.5656887 126.64570993 84.42701543 128.7890625 86.28125 C141.16668778 97.10136828 152.10429729 108.85811646 161.70166016 122.20214844 C162.80292513 123.72710429 163.93533198 125.22949476 165.07421875 126.7265625 C178.22993331 144.4054778 185.56778654 166.02512637 185 188 C191.53119317 188.17128918 197.76515188 187.86991768 204.22851562 186.93188477 C231.6662594 183.00999007 259.85164979 183.47585768 287 189 C288.56723783 189.28257008 290.13492083 189.56268684 291.703125 189.83984375 C310.71178249 193.40409838 329.05610207 200.80076075 346 210 C347.48113281 210.75023437 347.48113281 210.75023437 348.9921875 211.515625 C387.60089141 231.421529 412.74999756 273.39860831 426.17529297 313.40771484 C429.93076363 325.21221085 432.76333124 337.30859773 435.25 349.4375 C435.40106201 350.16831787 435.55212402 350.89913574 435.70776367 351.65209961 C438.49320994 365.93124293 439.37400546 379.92877768 439.3125 394.4375 C439.31100952 395.31029602 439.30951904 396.18309204 439.3079834 397.08233643 C439.26372773 411.55162968 438.51485594 425.72360885 436 440 C435.86609863 440.77746582 435.73219727 441.55493164 435.59423828 442.35595703 C426.31047526 494.01869163 399.68758628 535.21296 357.02001953 565.59667969 C345.72324161 573.44462258 333.54590458 579.42340164 321 585 C319.94941406 585.47179687 318.89882813 585.94359375 317.81640625 586.4296875 C286.2565367 599.53324256 251.36110721 603.3899833 217.51733398 603.26074219 C214.20082181 603.25004298 210.8848551 603.26069965 207.56835938 603.2734375 C186.87648814 603.28913172 166.51153142 601.81026053 146.125 598.25 C145.36883392 598.12127502 144.61266785 597.99255005 143.83358765 597.85992432 C130.6647464 595.61605756 117.65605112 592.85534434 104.68457031 589.65527344 C102.25013879 589.06105607 99.81206481 588.49468703 97.3671875 587.9453125 C86.11353596 585.41249824 75.05186908 582.297361 64 579 C62.92202148 578.67902344 61.84404297 578.35804688 60.73339844 578.02734375 C-11.00115369 556.5335389 -86.90159126 528.00271794 -146 481 C-146.60714844 480.51998535 -147.21429688 480.0399707 -147.83984375 479.54541016 C-149.89943889 477.91288993 -151.9511507 476.27098296 -154 474.625 C-154.61681641 474.13169189 -155.23363281 473.63838379 -155.86914062 473.13012695 C-166.02040777 464.8802459 -175.42300042 455.76378837 -184.66479492 446.52050781 C-186.19237416 444.99513287 -187.72783582 443.47799328 -189.26367188 441.9609375 C-195.6254357 435.63574433 -201.45651856 429.06785366 -207 422 C-207.86032837 420.92057129 -207.86032837 420.92057129 -208.73803711 419.81933594 C-244.27136707 375.01856606 -266.3137092 319.11077072 -276 263 C-276.18103271 261.95199219 -276.18103271 261.95199219 -276.36572266 260.8828125 C-277.02711254 256.93322124 -277.53504584 252.97693798 -278 249 C-278.13317627 248.0097583 -278.13317627 248.0097583 -278.26904297 246.99951172 C-281.34616667 224.04821636 -281.82057664 199.71549773 -277 177 C-276.74259033 175.7320459 -276.74259033 175.7320459 -276.47998047 174.43847656 C-268.88658072 137.61829154 -251.43615609 102.75909272 -226 75 C-225.11174582 73.99484435 -224.22505153 72.9883083 -223.33984375 71.98046875 C-205.75287002 52.13231268 -184.44866554 36.92611906 -162 23 C-161.37996094 22.61263672 -160.75992188 22.22527344 -160.12109375 21.82617188 C-149.29361267 15.1299051 -137.66421532 10.04292941 -126 5 C-125.3404834 4.71463379 -124.6809668 4.42926758 -124.00146484 4.13525391 C-115.93649731 0.70147458 -107.68114959 -1.59168769 -99.14990234 -3.49853516 C-97.01772892 -3.99586473 -94.91297691 -4.56101991 -92.80078125 -5.13671875 C-63.87765089 -12.51059071 -28.00810127 -9.63581466 0 0 Z " fill="#D99E82" transform="translate(421,150)"/>
<path d="M0 0 C5.98711578 15.38606741 10.75243365 29.22351638 10 46 C9.08605469 46.18433594 8.17210937 46.36867188 7.23046875 46.55859375 C-33.94289 55.32405713 -68.71388124 74.18254824 -100 102 C-101.33883992 97.70306735 -100.16584293 94.80609042 -98.5625 90.75 C-98.29026611 90.04834717 -98.01803223 89.34669434 -97.73754883 88.6237793 C-91.26857871 72.34520119 -83.00402784 57.98690777 -70.9765625 45.1328125 C-68.8579525 42.90921919 -68.8579525 42.90921919 -66.625 39.9375 C-53.63311481 25.39896181 -20.43514925 0 0 0 Z " fill="#C1694F" transform="translate(596,293)"/>
<path d="M0 0 C7.0553798 5.32575407 12.2717254 11.95213141 14.21484375 20.671875 C15.40841278 31.58805842 13.86036941 39.37264754 7.02734375 47.921875 C1.9772845 53.35123055 -4.27407803 57.21201307 -11.78515625 57.671875 C-12.50058594 57.74535156 -13.21601563 57.81882812 -13.953125 57.89453125 C-22.27737134 58.41066099 -29.68965463 55.5929313 -36.44140625 50.77734375 C-38.72960317 48.72178019 -40.30832413 46.80895846 -41.97265625 44.234375 C-42.46121094 43.49316406 -42.94976562 42.75195312 -43.453125 41.98828125 C-47.44914127 35.03919723 -47.49622602 28.56387155 -46.78515625 20.671875 C-45.88405222 17.34509634 -44.56443568 14.61181021 -42.78515625 11.671875 C-42.45773437 11.05957031 -42.1303125 10.44726562 -41.79296875 9.81640625 C-38.13672818 3.77159976 -31.49427493 -0.65808703 -24.890625 -3 C-16.35809264 -4.3297453 -7.58444009 -4.49261343 0 0 Z " fill="#C1694F" transform="translate(449.78515625,585.328125)"/>
<path d="M0 0 C7.85406319 5.43178202 13.46711447 12.18419188 16.08984375 21.4453125 C17.63147018 31.05181108 14.91961937 39.16088203 9.92578125 47.35546875 C5.38974793 53.3880845 -1.24918505 56.88835423 -8.5703125 58.15234375 C-9.72853516 58.29736328 -9.72853516 58.29736328 -10.91015625 58.4453125 C-11.69261719 58.55230469 -12.47507813 58.65929687 -13.28125 58.76953125 C-21.77895536 59.38136604 -28.92688423 55.8512047 -35.30859375 50.39453125 C-42.07622911 43.31241469 -45.05997175 36.21217895 -45.47265625 26.4453125 C-45.19328083 17.86848724 -42.37224953 11.83495154 -36.59765625 5.5703125 C-27.12963809 -3.19483968 -11.6622337 -6.21117102 0 0 Z " fill="#C1694F" transform="translate(265.91015625,463.5546875)"/>
<path d="M0 0 C5.11257703 3.49246249 8.58137038 8.1315693 10.62109375 13.96875 C11.65528893 19.8718995 10.92726329 24.93361565 7.9609375 30.1484375 C4.41468871 34.96637318 -0.6383168 39.36440306 -6.67578125 40.33984375 C-13.23507874 40.51740435 -17.34789962 39.21767439 -22.37890625 34.96875 C-26.61550978 30.50314087 -29.50578003 25.8276969 -29.81640625 19.59375 C-29.58336953 13.30175849 -26.99611438 8.88386489 -23.00390625 4.15625 C-16.42093926 -1.32955582 -8.20906262 -3.55860843 0 0 Z " fill="#C1694F" transform="translate(352.37890625,401.03125)"/>
<path d="M0 0 C4.77547154 2.7398665 7.61298997 6.12364564 10 11.125 C11.31112722 17.32305594 11.8834402 22.9950678 8.6875 28.6875 C5.18437598 33.63190934 0.36513487 36.48245504 -5.3125 38.375 C-11.73479712 38.91926247 -15.91618685 37.93008184 -21.3125 34.375 C-25.72080429 30.65243193 -28.82588085 26.90595604 -29.6328125 21.05078125 C-29.90889317 15.04142531 -29.03982485 10.19677481 -25.3125 5.375 C-18.05780836 -1.32500697 -9.45687086 -4.33290091 0 0 Z " fill="#C1694F" transform="translate(756.3125,604.625)"/>
</svg>
