<?xml version="1.0" encoding="UTF-8"?>
<svg version="1.1" xmlns="http://www.w3.org/2000/svg" width="1000" height="1000">
<path d="M0 0 C330 0 660 0 1000 0 C1000 330 1000 660 1000 1000 C670 1000 340 1000 0 1000 C0 670 0 340 0 0 Z " fill="#E3EEE5" transform="translate(0,0)"/>
<path d="M0 0 C13.00260763 -0.4591611 25.88754299 4.24491254 35.93359375 12.4765625 C39.36249105 15.67686665 41.87848994 19.26422922 44.33203125 23.24609375 C45.54426455 25.29289734 45.54426455 25.29289734 47.55859375 27.1640625 C48.07244629 26.63449951 48.58629883 26.10493652 49.11572266 25.55932617 C51.46365614 23.14877056 53.8234326 20.75014488 56.18359375 18.3515625 C57.39595703 17.10149414 57.39595703 17.10149414 58.6328125 15.82617188 C67.41002628 6.9419189 67.41002628 6.9419189 73.68359375 5.765625 C82.20604645 5.87215566 87.76167707 10.22638183 93.55859375 16.1640625 C96.64503447 20.50436976 96.92856304 24.33280342 97.0546875 29.50390625 C95.90406333 35.67378859 91.86152238 40.26290927 87.68359375 44.7265625 C87.21598633 45.22833008 86.74837891 45.73009766 86.26660156 46.24707031 C81.78153343 51.01885513 77.12667956 55.62150011 72.47558594 60.23046875 C68.95713432 63.72754932 65.58301213 67.27950472 62.375 71.06640625 C59.94445638 73.87329211 57.40320154 76.57428723 54.87109375 79.2890625 C49.07590418 85.52772902 43.51457046 91.94523977 38.015625 98.4453125 C36.59836866 100.11714304 35.17343048 101.78208538 33.74609375 103.4453125 C28.11926333 110.0195682 22.69909518 116.72742158 17.3828125 123.5546875 C14.94254559 126.68520867 12.46395548 129.78318677 9.97460938 132.87475586 C0.28913384 144.90641202 -8.8103386 157.33630879 -17.80810547 169.88671875 C-18.8548969 171.34628085 -19.90325781 172.80471936 -20.95361328 174.26171875 C-29.86291248 186.62929156 -38.19624988 199.34655105 -46.44140625 212.1640625 C-46.96734375 212.97601074 -47.49328125 213.78795898 -48.03515625 214.62451172 C-57.02234913 228.50609707 -65.27847036 242.78557323 -73.44140625 257.1640625 C-73.90256836 257.97166016 -74.36373047 258.77925781 -74.83886719 259.61132812 C-101.84143471 306.95540826 -123.88698737 356.77631833 -141.76690674 408.22521973 C-142.39605659 410.03370532 -143.02964388 411.8406455 -143.66357422 413.64746094 C-148.70510598 428.06505242 -152.89022293 442.62954574 -156.72460938 457.41162109 C-157.31070566 459.66218291 -157.90788144 461.90863614 -158.51953125 464.15234375 C-159.31679847 467.0812873 -160.09537331 470.0142662 -160.86083984 472.95166016 C-161.29367411 474.60108999 -161.73245762 476.24896085 -162.17431641 477.89599609 C-167.22900085 496.81409565 -170.96495705 515.83359227 -174.35664368 535.10812378 C-175.04329606 538.99741771 -175.77315185 542.87181346 -176.578125 546.73828125 C-177.46794854 551.09121436 -178.00423829 555.43268859 -178.44140625 559.8515625 C-178.60673024 561.42722479 -178.77341736 563.0027446 -178.94140625 564.578125 C-179.02390625 565.35188477 -179.10640625 566.12564453 -179.19140625 566.92285156 C-179.55673316 570.19795019 -179.99585626 573.46151649 -180.44140625 576.7265625 C-181.19119873 582.24289292 -181.90170289 587.76193535 -182.56640625 593.2890625 C-182.6540625 594.00006104 -182.74171875 594.71105957 -182.83203125 595.44360352 C-183.25928498 599.04381916 -183.47802517 602.5419059 -183.44140625 606.1640625 C-182.8995166 605.0191333 -182.8995166 605.0191333 -182.34667969 603.85107422 C-174.95611318 588.27859502 -167.3983817 572.87716726 -158.94775391 557.84423828 C-157.38811775 555.06924869 -155.84214684 552.28691659 -154.296875 549.50390625 C-129.53209633 505.09290498 -101.08717221 462.76628431 -70.76318359 421.97900391 C-68.16581069 418.80280082 -68.16581069 418.80280082 -67.640625 414.93359375 C-68.63758587 411.48556812 -69.92934636 408.18272265 -71.25390625 404.8515625 C-83.72180859 372.55433008 -82.88910428 336.12802571 -69.23583984 304.35888672 C-63.88382061 292.34816796 -58.0539696 280.89906709 -50.44140625 270.1640625 C-50.01891602 269.56722656 -49.59642578 268.97039062 -49.16113281 268.35546875 C-39.25398183 254.43190521 -28.61924019 241.0847671 -17.44140625 228.1640625 C-16.71566406 227.32488281 -15.98992187 226.48570312 -15.2421875 225.62109375 C0.3744997 207.92603044 21.43936002 184.48126293 46.6015625 182.85546875 C57.76250654 182.39918819 65.80953892 183.82973203 74.68359375 191.0390625 C88.62121712 204.40690882 92.58864508 223.64699887 94.55859375 242.1640625 C94.55859375 243.4840625 94.55859375 244.8040625 94.55859375 246.1640625 C95.60273437 245.38804687 96.646875 244.61203125 97.72265625 243.8125 C112.47481818 232.94821473 127.7456734 222.89831477 143.68359375 213.8515625 C144.32828613 213.48450195 144.97297852 213.11744141 145.63720703 212.73925781 C152.20370965 209.09613728 158.30238509 207.94800288 165.62109375 210.0390625 C171.3272487 214.16691927 175.2961111 220.52673187 177.55859375 227.1640625 C178.21912773 232.92014432 177.62028715 236.48335568 174.2578125 241.24609375 C167.90388363 248.41799967 158.30876692 252.71322433 150.15698242 257.54980469 C143.2777819 261.66033617 136.72775221 266.06073895 130.31103516 270.85595703 C128.41590293 272.2705737 126.50910965 273.66858298 124.6015625 275.06640625 C117.01963662 280.65361198 109.68994295 286.44670177 102.55859375 292.59765625 C99.83074253 294.93124772 97.05419608 297.17844532 94.24609375 299.4140625 C84.42778998 307.40403111 75.27239171 316.29993234 66.41845703 325.33837891 C64.61429443 327.10938546 62.74808201 328.74431682 60.8203125 330.37890625 C56.55839244 334.086669 52.70434059 338.08269296 48.87109375 342.2265625 C48.18265381 342.96535645 47.49421387 343.70415039 46.78491211 344.46533203 C45.38043165 345.97331416 43.97750142 347.4827417 42.57617188 348.99365234 C40.7088089 351.00246851 38.83150435 353.00126883 36.94921875 354.99609375 C30.51245043 361.83579838 24.41797374 368.8185196 18.55859375 376.1640625 C16.90138112 378.17221427 15.23071867 380.1683005 13.55859375 382.1640625 C14.38359375 381.9475 15.20859375 381.7309375 16.05859375 381.5078125 C32.11280906 377.63759988 49.15055669 377.27170677 63.74609375 386.08984375 C75.52406828 394.77609997 83.45428348 405.39859227 88.55859375 419.1640625 C88.89503906 420.05609375 89.23148438 420.948125 89.578125 421.8671875 C94.4787991 436.18376353 95.81257395 451.30563327 96.12109375 466.3515625 C96.17958496 467.89118652 96.17958496 467.89118652 96.23925781 469.46191406 C96.26658411 477.0809837 94.28887228 482.18276577 89.55859375 488.1640625 C85.49398239 491.95080695 80.64974361 494.45885384 75.05859375 494.9140625 C68.40997373 494.37275892 63.29329285 490.83786749 58.62890625 486.27734375 C53.33872283 479.2279845 53.92848377 471.19405134 53.75390625 462.77734375 C53.45146819 450.52008289 52.83324691 433.47237377 43.93359375 424.1015625 C39.1466629 420.1964347 34.53705423 420.7827326 28.55859375 421.1640625 C25.35708444 421.72953931 22.37443776 422.65409638 19.30859375 423.7265625 C18.44306885 424.02248291 17.57754395 424.31840332 16.68579102 424.62329102 C8.04218479 427.73445169 -0.23266528 431.6257841 -8.50390625 435.6015625 C-9.15790405 435.9137674 -9.81190186 436.22597229 -10.48571777 436.54763794 C-18.36006824 440.32910219 -25.5441097 444.4644256 -32.72216797 449.48388672 C-35.30209828 451.07798623 -37.37343076 451.87628282 -40.2890625 452.61328125 C-45.85397389 454.20092879 -47.98168925 458.23260332 -50.87890625 462.9765625 C-51.89613341 464.56788146 -52.91573774 466.15768291 -53.9375 467.74609375 C-54.47922852 468.59921143 -55.02095703 469.4523291 -55.57910156 470.33129883 C-57.72129987 473.58981049 -59.98238019 476.75397371 -62.265625 479.9140625 C-67.3237225 486.92841436 -72.10234736 494.10289804 -76.81640625 501.3515625 C-77.65493125 502.6376248 -78.49347318 503.92367606 -79.33203125 505.2097168 C-81.35595322 508.31697953 -83.37460807 511.4276136 -85.39001465 514.54040527 C-86.315307 515.96932825 -87.24201474 517.39733449 -88.16894531 518.82519531 C-140.08462741 592.79521468 -140.08462741 592.79521468 -166.87890625 675.9765625 C-167.32038589 682.86966514 -170.34229146 687.50651602 -175.44140625 692.0390625 C-180.71438715 695.77409064 -184.9833969 696.80866972 -191.44140625 696.1640625 C-192.8236132 695.81656582 -194.19922498 695.44163595 -195.56640625 695.0390625 C-199.96000869 694.04695872 -201.2977768 694.75522849 -205.44140625 696.1640625 C-209.50952328 696.08632778 -213.61419587 695.75807956 -217.49609375 694.49609375 C-220.08591248 694.05405642 -221.13502762 694.97243354 -223.44140625 696.1640625 C-230.29939416 697.09478943 -235.92138737 696.73670675 -241.72265625 692.84375 C-247.64181783 687.05911482 -248.56275652 681.12322665 -249.87890625 673.1640625 C-250.08644531 671.97127686 -250.29398438 670.77849121 -250.5078125 669.54956055 C-250.94507906 667.02161327 -251.37576366 664.4925198 -251.80029297 661.96240234 C-252.41094035 658.34456079 -253.04916672 654.7327405 -253.6953125 651.12109375 C-256.93567131 632.71763127 -259.30566631 614.23969834 -261.51873779 595.68911743 C-262.04130536 591.33992469 -262.59344698 586.99667087 -263.18652344 582.65649414 C-265.05403322 568.95240844 -266.39505125 555.26635142 -267.44140625 541.4765625 C-267.61027195 539.29588596 -267.77930199 537.11522215 -267.94848633 534.93457031 C-268.3747134 529.40661265 -268.79094881 523.87795487 -269.20318604 518.34893799 C-269.43153303 515.29606205 -269.66328059 512.24346362 -269.89599609 509.19091797 C-271.81908623 483.85143252 -273.03895251 458.57423546 -273.44140625 433.1640625 C-273.96089844 432.94492187 -274.48039062 432.72578125 -275.015625 432.5 C-275.71300781 432.18289063 -276.41039062 431.86578125 -277.12890625 431.5390625 C-278.15564453 431.08660156 -278.15564453 431.08660156 -279.203125 430.625 C-284.73746842 427.01270604 -287.46349549 421.63054516 -290.04296875 415.73046875 C-290.36127151 415.02416824 -290.67957428 414.31786774 -291.00752258 413.59016418 C-291.68511518 412.08421862 -292.35852886 410.57638675 -293.02804565 409.0668335 C-294.43337783 405.89947706 -295.86028875 402.74201031 -297.28630066 399.58392334 C-298.00052506 398.00189471 -298.7137549 396.4194167 -299.42597961 394.83648682 C-313.88563523 356.51414217 -313.88563523 356.51414217 -339.02734375 326.91796875 C-341.33807693 326.06469613 -341.33807693 326.06469613 -343.44140625 326.1640625 C-343.69535156 326.69515625 -343.94929688 327.22625 -344.2109375 327.7734375 C-354.93908233 348.61669032 -354.93908233 348.61669032 -363.81640625 352.7265625 C-370.38054303 353.5187859 -376.12770428 353.07595512 -381.8046875 349.4765625 C-385.31190984 346.66408826 -388.42563238 343.19561023 -390.44140625 339.1640625 C-390.92042017 332.8829081 -389.93660193 328.87096932 -387.00390625 323.3515625 C-386.64409668 322.65869141 -386.28428711 321.96582031 -385.91357422 321.25195312 C-378.67108356 307.77261303 -368.29825506 296.77750502 -353.44140625 292.1640625 C-352.84972656 291.97457031 -352.25804687 291.78507812 -351.6484375 291.58984375 C-339.44295602 289.23515794 -327.6429835 291.10036292 -317.0625 297.6328125 C-314.70770671 299.35151673 -312.58705562 301.18991912 -310.44140625 303.1640625 C-309.5184375 303.99550781 -308.59546875 304.82695312 -307.64453125 305.68359375 C-290.78598377 321.38748403 -279.59302847 342.26826225 -270.44140625 363.1640625 C-270.3854277 362.51943054 -270.32944916 361.87479858 -270.27177429 361.21063232 C-269.67862682 354.39447195 -269.07666375 347.5791279 -268.4699707 340.76416016 C-268.24578346 338.23342803 -268.02371511 335.70250713 -267.80395508 333.17138672 C-266.55539193 318.80864435 -265.1327172 304.54942199 -262.78985596 290.32060242 C-262.28640992 287.20479701 -261.83001241 284.08240187 -261.36964417 280.95999146 C-255.99070016 244.66856236 -246.32161622 208.81152645 -233.31640625 174.5390625 C-232.94462753 173.54342789 -232.94462753 173.54342789 -232.56533813 172.52767944 C-229.37162123 164.02023841 -226.06763142 156.39375408 -219.25390625 150.1640625 C-212.05500767 147.60445412 -204.6130431 148.69653988 -197.7421875 151.75390625 C-192.95401441 154.68859298 -189.22027187 158.82746563 -187.44140625 164.1640625 C-186.72550256 170.91653685 -189.03621725 176.19958173 -191.50390625 182.4140625 C-192.33496041 184.57018726 -193.16568593 186.72643872 -193.99609375 188.8828125 C-194.41084961 189.94757813 -194.82560547 191.01234375 -195.25292969 192.109375 C-203.89551254 214.32301442 -210.26854153 236.68001574 -215.67919922 259.89746094 C-216.3208978 262.64759771 -216.97422738 265.39450365 -217.6328125 268.140625 C-225.25444906 300.46488467 -228.86264429 334.15580432 -230.10009766 367.30322266 C-230.13151855 368.10421387 -230.16293945 368.90520508 -230.1953125 369.73046875 C-230.23120483 370.76602905 -230.23120483 370.76602905 -230.26782227 371.82250977 C-230.44140625 374.1640625 -230.44140625 374.1640625 -230.94218445 377.33413696 C-231.44556201 381.19594459 -231.58221803 384.89125247 -231.60253906 388.78442383 C-231.60742749 389.51567758 -231.61231592 390.24693132 -231.61735249 391.00034428 C-231.63172225 393.41560092 -231.63856037 395.83080266 -231.64453125 398.24609375 C-231.65145232 399.96102935 -231.65844751 401.67596465 -231.66551208 403.39089966 C-231.68491494 408.91945599 -231.68943974 414.44797619 -231.69140625 419.9765625 C-231.69214268 420.91514729 -231.6928791 421.85373207 -231.69363785 422.82075882 C-231.71266818 452.50216103 -231.10610945 481.98332252 -228.65356445 511.57843018 C-228.44027299 514.17787391 -228.23699349 516.77791103 -228.03710938 519.37841797 C-227.24733227 529.64771772 -226.38263725 539.90751334 -225.44140625 550.1640625 C-225.33940918 551.29134766 -225.23741211 552.41863281 -225.13232422 553.58007812 C-224.86733118 556.48379208 -224.59498259 559.38662356 -224.31640625 562.2890625 C-224.24091553 563.08940918 -224.1654248 563.88975586 -224.08764648 564.71435547 C-223.74096199 568.5640499 -223.74096199 568.5640499 -222.44140625 572.1640625 C-222.34641846 571.40714111 -222.25143066 570.65021973 -222.15356445 569.87036133 C-218.40963323 540.29885949 -213.41635499 511.1620813 -206.44140625 482.1640625 C-206.25108826 481.372276 -206.06077026 480.5804895 -205.86468506 479.76470947 C-200.95658605 459.39273688 -195.96330445 439.08901421 -189.44140625 419.1640625 C-189.02222281 417.86460226 -188.60364201 416.56494752 -188.18554688 415.26513672 C-177.63310332 382.5095558 -165.4890282 350.57792709 -151.44140625 319.1640625 C-150.98588379 318.13732422 -150.53036133 317.11058594 -150.06103516 316.05273438 C-145.66387119 306.16115043 -141.10575086 296.38687312 -136.12890625 286.7734375 C-135.37789413 285.31239734 -134.62699899 283.85129705 -133.8762207 282.39013672 C-132.40554159 279.53001517 -130.90834181 276.68601854 -129.39526367 273.84814453 C-128.71572549 272.53464937 -128.03705445 271.22070512 -127.359375 269.90625 C-126.74860107 268.7497998 -126.13782715 267.59334961 -125.50854492 266.40185547 C-124.19128837 262.40518276 -124.70714058 260.93410917 -126.44140625 257.1640625 C-126.8379541 256.28145752 -127.23450195 255.39885254 -127.64306641 254.48950195 C-128.08440918 253.59448975 -128.52575195 252.69947754 -128.98046875 251.77734375 C-129.7221228 250.25995605 -129.7221228 250.25995605 -130.47875977 248.71191406 C-131.00268311 247.64424805 -131.52660645 246.57658203 -132.06640625 245.4765625 C-135.84137423 237.67817635 -139.58046892 229.87417599 -143.00390625 221.9140625 C-143.46821045 220.86472534 -143.46821045 220.86472534 -143.94189453 219.79418945 C-149.07334567 207.62446389 -149.90181833 195.77517175 -149.77758789 182.75268555 C-149.75391367 180.10239291 -149.75706002 177.45310681 -149.76367188 174.80273438 C-149.74435702 161.91112168 -148.50457149 150.18159209 -144.31640625 137.9140625 C-143.85790283 136.56127197 -143.85790283 136.56127197 -143.39013672 135.18115234 C-140.45058747 126.77032056 -136.78220768 118.93373229 -132.44140625 111.1640625 C-132.09883789 110.54370117 -131.75626953 109.92333984 -131.40332031 109.28417969 C-126.00973395 99.61794803 -119.68009369 90.80603129 -112.90820312 82.06445312 C-111.51457251 80.25885713 -110.13902345 78.44113003 -108.76953125 76.6171875 C-104.26540409 70.64135494 -99.58352487 64.92273393 -94.51171875 59.41796875 C-92.66825468 57.41102767 -90.89361532 55.36494008 -89.12890625 53.2890625 C-81.00750561 44.00478232 -72.15363261 35.75676984 -62.44140625 28.1640625 C-61.44625 27.35195312 -60.45109375 26.53984375 -59.42578125 25.703125 C-42.27879925 11.86062054 -22.1755234 1.49019517 0 0 Z " fill="#77B255" transform="translate(566.44140625,119.8359375)"/>
<path d="M0 0 C13.00260763 -0.4591611 25.88754299 4.24491254 35.93359375 12.4765625 C40.42936932 16.70015124 43.77736386 21.60875625 46.53125 27.10546875 C46.55859375 29.1640625 46.55859375 29.1640625 44.49609375 31.6796875 C43.52814083 32.60304593 42.54812773 33.51387021 41.55859375 34.4140625 C40.5255035 35.39781064 39.49425182 36.38349318 38.46484375 37.37109375 C37.96082031 37.8501416 37.45679688 38.32918945 36.9375 38.82275391 C34.61263313 41.08423029 32.53810429 43.54021242 30.43359375 46.00390625 C28.02924235 48.77391942 25.54457612 51.46760892 23.05859375 54.1640625 C18.82061137 58.7717397 14.64293511 63.41962557 10.55859375 68.1640625 C10.12434082 68.66663574 9.69008789 69.16920898 9.24267578 69.68701172 C3.39023493 76.46239012 -2.41574319 83.26762081 -8.0546875 90.22265625 C-9.81338422 92.39008445 -11.58146567 94.54767829 -13.359375 96.69921875 C-20.8267254 105.76754134 -27.9407548 115.06172944 -34.94921875 124.48828125 C-37.75135071 128.25482241 -40.60968031 131.96799364 -43.50390625 135.6640625 C-58.51360875 155.10448978 -71.90056452 175.87497918 -84.8984375 196.69580078 C-86.46923763 199.2085839 -88.04888201 201.71566524 -89.62890625 204.22265625 C-97.63727234 216.98342524 -105.12459101 229.9965789 -112.44140625 243.1640625 C-113.45434002 244.98181935 -114.46735845 246.79952903 -115.48046875 248.6171875 C-117.80715794 252.79596759 -120.12663773 256.9786684 -122.44140625 261.1640625 C-123.10140625 261.1640625 -123.76140625 261.1640625 -124.44140625 261.1640625 C-138.24591794 233.02834928 -138.24591794 233.02834928 -143.12890625 221.6640625 C-143.43054688 220.98045654 -143.7321875 220.29685059 -144.04296875 219.5925293 C-149.11092549 207.50212443 -149.90088592 195.6774318 -149.77758789 182.75268555 C-149.75391367 180.10239291 -149.75706002 177.45310681 -149.76367188 174.80273438 C-149.74435702 161.91112168 -148.50457149 150.18159209 -144.31640625 137.9140625 C-144.0107373 137.01220215 -143.70506836 136.1103418 -143.39013672 135.18115234 C-140.45058747 126.77032056 -136.78220768 118.93373229 -132.44140625 111.1640625 C-131.92755371 110.23352051 -131.92755371 110.23352051 -131.40332031 109.28417969 C-126.00973395 99.61794803 -119.68009369 90.80603129 -112.90820312 82.06445312 C-111.51457251 80.25885713 -110.13902345 78.44113003 -108.76953125 76.6171875 C-104.26540409 70.64135494 -99.58352487 64.92273393 -94.51171875 59.41796875 C-92.66825468 57.41102767 -90.89361532 55.36494008 -89.12890625 53.2890625 C-81.00750561 44.00478232 -72.15363261 35.75676984 -62.44140625 28.1640625 C-61.44625 27.35195312 -60.45109375 26.53984375 -59.42578125 25.703125 C-42.27879925 11.86062054 -22.1755234 1.49019517 0 0 Z " fill="#FECC4D" transform="translate(566.44140625,119.8359375)"/>
<path d="M0 0 C15.57142617 12.65031143 19.90636674 32.2451603 22.21142578 51.26293945 C22.40598783 52.81537438 22.68623247 54.35703621 22.99609375 55.890625 C22.03493159 60.04869608 18.36531227 62.05497468 15.08203125 64.53515625 C14.34903809 65.10911133 13.61604492 65.68306641 12.86083984 66.27441406 C10.73571347 67.93649792 8.59739832 69.58027986 6.45703125 71.22265625 C0.38962377 75.99105761 -5.47916044 80.87858719 -11.18359375 86.078125 C-13.23924271 87.94658738 -15.31786776 89.77959361 -17.41796875 91.59765625 C-27.46182914 100.37392226 -37.04115281 109.55884623 -46.45385742 119.00317383 C-48.36719069 120.9219113 -50.28587379 122.83518379 -52.20507812 124.74804688 C-57.67286456 130.21287015 -63.10703782 135.65718316 -68.11694336 141.55151367 C-70.4596115 144.29685923 -72.94946032 146.90343721 -75.41796875 149.53515625 C-79.87676355 154.3278054 -84.10417666 159.24455453 -88.203125 164.3515625 C-90.40142011 167.04896969 -92.65336895 169.68553844 -94.93310547 172.3137207 C-100.58600594 178.83087812 -105.93298956 185.50733559 -111.14013672 192.38574219 C-113.2931674 195.20499086 -115.48495955 197.99362792 -117.671875 200.78662109 C-124.47122678 209.47488566 -131.0807945 218.28111718 -137.54296875 227.22265625 C-140.43502427 223.82427647 -141.95897938 220.11262732 -143.48046875 215.97265625 C-143.73916748 215.27462891 -143.99786621 214.57660156 -144.2644043 213.85742188 C-156.71764668 179.30847001 -153.82398601 142.51635251 -138.65039062 109.47924805 C-133.95765299 99.54268271 -128.90211026 90.19012359 -122.54296875 81.22265625 C-121.9092334 80.32740234 -121.9092334 80.32740234 -121.26269531 79.4140625 C-111.35554433 65.49049896 -100.72080269 52.14336085 -89.54296875 39.22265625 C-88.81722656 38.38347656 -88.09148438 37.54429687 -87.34375 36.6796875 C-67.68365834 14.40309566 -31.84356804 -22.25625723 0 0 Z " fill="#FECC4D" transform="translate(638.54296875,308.77734375)"/>
</svg>
