<?xml version="1.0" encoding="UTF-8"?>
<svg version="1.1" xmlns="http://www.w3.org/2000/svg" width="1000" height="1000">
<path d="M0 0 C330 0 660 0 1000 0 C1000 330 1000 660 1000 1000 C670 1000 340 1000 0 1000 C0 670 0 340 0 0 Z " fill="#E3EEE5" transform="translate(0,0)"/>
<path d="M0 0 C1.28774323 0.00215515 2.57548645 0.0043103 3.9022522 0.00653076 C22.66246704 0.05697281 41.12928653 0.32282137 59.6875 3.3125 C60.91678223 3.50585938 62.14606445 3.69921875 63.41259766 3.8984375 C115.22940776 12.33176488 166.13427226 32.3490599 208.6875 63.3125 C209.35620117 63.7971875 210.02490234 64.281875 210.71386719 64.78125 C220.04465333 71.57692924 228.98184595 78.73557902 237.6875 86.3125 C238.44675781 86.97121094 239.20601562 87.62992187 239.98828125 88.30859375 C241.27282926 89.42852008 242.5543959 90.55188145 243.83203125 91.6796875 C245.19701413 92.88087243 246.57072113 94.0721617 247.94921875 95.2578125 C249.05716797 96.21300781 249.05716797 96.21300781 250.1875 97.1875 C250.8578125 97.76242188 251.528125 98.33734375 252.21875 98.9296875 C252.7034375 99.38601562 253.188125 99.84234375 253.6875 100.3125 C253.6875 100.6425 253.6875 100.9725 253.6875 101.3125 C252.32431641 101.35117188 252.32431641 101.35117188 250.93359375 101.390625 C225.80088664 102.52481896 204.49191805 112.60981242 187.25 130.8125 C172.19336222 148.28016801 163.08397401 171.78631055 164.50732422 194.97314453 C166.57146297 221.77338504 175.87339797 244.37141646 196.6875 262.3125 C214.06390013 275.89026524 233.0704116 281.8696845 255.125 281.75 C256.42759766 281.76998047 257.73019531 281.78996094 259.07226562 281.81054688 C268.21668124 281.80599515 276.06207057 280.31202309 284.6875 277.3125 C285.46923584 277.04074951 286.25097168 276.76899902 287.05639648 276.48901367 C311.32444933 267.45457609 326.77967167 250.32171843 337.6875 227.3125 C338.3475 227.3125 339.0075 227.3125 339.6875 227.3125 C345.48112484 242.13326575 350.66861023 256.91321072 354.6875 272.3125 C354.9035791 273.11059082 355.1196582 273.90868164 355.34228516 274.73095703 C358.50273785 286.46261477 360.61205334 298.31159015 362.4375 310.3125 C362.59800339 311.36020569 362.59800339 311.36020569 362.76174927 312.42907715 C364.88527241 326.42443539 365.89103258 340.27430862 365.92773438 354.42285156 C365.9374595 356.67810715 365.96862547 358.93245558 366 361.1875 C366.09261919 373.7282929 364.8894954 386.04368272 359.5 397.5625 C359.19666748 398.22668945 358.89333496 398.89087891 358.58081055 399.57519531 C349.51694301 418.71697227 332.85476181 433.64175138 313 440.75 C303.27586636 444.19231735 293.53767574 445.61652941 283.24529839 445.56976891 C281.75235176 445.57502802 281.75235176 445.57502802 280.22924459 445.58039337 C276.90951743 445.58966303 273.5899674 445.5847955 270.27023315 445.57992554 C267.85984566 445.58366403 265.44945938 445.58826634 263.03907502 445.59365618 C257.80617904 445.60332764 252.57331699 445.60680449 247.34041405 445.60474396 C239.55845215 445.60168723 231.776531 445.61003281 223.99457704 445.62049321 C209.28492971 445.63981388 194.57529635 445.64546071 179.86563782 445.64660732 C168.50353321 445.6475272 157.14143405 445.65164798 145.77933121 445.65800858 C142.50610197 445.65980373 139.23287273 445.66158336 135.95964348 445.66335833 C135.14585507 445.66380043 134.33206666 445.66424252 133.49361799 445.66469802 C110.60950457 445.67700291 87.72539304 445.6848995 64.84127617 445.68401146 C63.97885781 445.6839803 63.11643944 445.68394914 62.22788719 445.68391704 C57.85702032 445.68375083 53.48615345 445.68355275 49.11528657 445.68334763 C48.24725296 445.68330774 47.37921935 445.68326785 46.48488169 445.68322675 C44.72950655 445.68314587 42.97413141 445.68306228 41.21875627 445.68297596 C13.91404538 445.68175073 -13.39061582 445.69676006 -40.6953125 445.72412109 C-71.38891059 445.75486552 -102.08247604 445.77205216 -132.7760905 445.77019465 C-136.05120587 445.77004539 -139.32632124 445.76994798 -142.60143661 445.76988602 C-143.40782195 445.76986271 -144.21420729 445.7698394 -145.04502854 445.76981538 C-158.00202931 445.76975393 -170.95898682 445.78250644 -183.91597474 445.79975055 C-196.94631906 445.81673317 -209.97660033 445.81866032 -223.00694962 445.8055319 C-230.73975744 445.79816023 -238.47237327 445.80174708 -246.20516061 445.82141658 C-251.99124195 445.83488589 -257.77714687 445.8272574 -263.56321584 445.81167014 C-265.89493845 445.8086045 -268.22668205 445.81221602 -270.5583799 445.82339029 C-297.53856954 445.94406746 -320.29348876 440.40968301 -340.125 421.0625 C-355.42269268 405.56516369 -362.63528866 385.49843065 -362.64128113 363.94911194 C-362.63038707 362.35348433 -362.61450697 360.7578833 -362.59375 359.16235352 C-362.56249162 356.74935274 -362.5527459 354.33701204 -362.546875 351.92382812 C-362.48280956 338.78780672 -361.60845941 325.97051058 -359.4375 313 C-359.25751465 311.90896973 -359.0775293 310.81793945 -358.89208984 309.69384766 C-358.37217746 306.56557695 -357.84296737 303.43899468 -357.3125 300.3125 C-357.18617188 299.54470215 -357.05984375 298.7769043 -356.9296875 297.98583984 C-352.58687167 271.65751888 -344.67472966 245.45723802 -333.3125 221.3125 C-332.9825 221.3125 -332.6525 221.3125 -332.3125 221.3125 C-332.15394531 222.34246094 -331.99539063 223.37242187 -331.83203125 224.43359375 C-327.28215374 252.75028532 -316.44572192 276.69704522 -296.3125 297.3125 C-295.65765625 298.02921875 -295.0028125 298.7459375 -294.328125 299.484375 C-275.61192663 319.48031343 -245.95326344 333.05419092 -218.72558594 334.50341797 C-186.90930035 335.47377039 -158.32243789 330.47970713 -132.3125 311.3125 C-131.4875 310.71050781 -130.6625 310.10851562 -129.8125 309.48828125 C-107.98367906 292.80182678 -91.12367732 269.10868396 -84.3125 242.3125 C-84.11930176 241.5690332 -83.92610352 240.82556641 -83.72705078 240.05957031 C-78.73706897 220.07520233 -77.95757881 198.30131511 -83.3125 178.3125 C-83.64121094 177.04148437 -83.96992188 175.77046875 -84.30859375 174.4609375 C-88.72868496 158.46705618 -96.13252193 143.40582705 -106.3125 130.3125 C-106.73789062 129.76368164 -107.16328125 129.21486328 -107.6015625 128.64941406 C-113.74903617 120.80779012 -120.2922841 114.2963774 -128.3125 108.3125 C-129.23160156 107.61382812 -130.15070313 106.91515625 -131.09765625 106.1953125 C-160.74737847 84.0935505 -193.34909525 79.26028538 -229.3125 83.3125 C-224.98561126 78.68659862 -220.13334934 74.96709602 -215.0625 71.1875 C-213.73448364 70.19617065 -213.73448364 70.19617065 -212.37963867 69.18481445 C-204.2552027 63.17676096 -195.92425611 57.5943232 -187.3125 52.3125 C-186.2591748 51.66522949 -186.2591748 51.66522949 -185.18457031 51.00488281 C-175.81627702 45.28668468 -166.27780567 40.07110271 -156.38574219 35.31884766 C-154.26857217 34.29117752 -152.1694743 33.23188166 -150.0703125 32.16796875 C-121.98810775 18.14231993 -91.9571386 10.3690737 -61.21289062 4.84179688 C-59.39607604 4.51024351 -57.58168696 4.16476454 -55.77148438 3.79882812 C-37.28407173 0.14119529 -18.780392 -0.05632928 0 0 Z " fill="#DD2E44" transform="translate(498.3125,107.6875)"/>
<path d="M0 0 C81.84 0 163.68 0 248 0 C248.66 5.94 249.32 11.88 250 18 C250.68519219 21.87282544 251.39798508 25.66938792 252.25 29.5 C252.46543457 30.49572021 252.68086914 31.49144043 252.90283203 32.51733398 C253.35969272 34.61402735 253.82147763 36.70965358 254.28808594 38.80419922 C254.76561358 40.94783324 255.23755474 43.09271885 255.70410156 45.23876953 C258.8621695 59.76284127 262.60080427 73.96357818 267.09570312 88.12939453 C268.6664737 93.11565814 270.17276627 98.12148982 271.6875 103.125 C272.48980537 105.76614859 273.29339111 108.40688846 274.09976196 111.04679871 C274.69317089 112.99345719 275.28360006 114.94102685 275.87083435 116.88955688 C278.32595805 124.97645316 281.00435929 132.96900372 283.7734375 140.953125 C284.69172277 143.62184029 285.60734886 146.29146749 286.5234375 148.9609375 C287.94106423 153.08908357 289.36192658 157.21602776 290.79492188 161.33886719 C295.55255657 175.03847447 300.19529584 188.70580728 303.625 202.8125 C303.86519867 203.79244934 304.10539734 204.77239868 304.35287476 205.78204346 C308.36220552 223.22646106 306.92546789 239.7195714 297.8125 255.37109375 C286.21527753 272.19206513 268.67030615 277.86753155 249.58682251 281.54901123 C238.96243605 283.48781133 228.42004199 283.40705517 217.65380859 283.35644531 C215.45891743 283.35723804 213.2640264 283.35934096 211.06913757 283.36264038 C205.15810025 283.36773382 199.24723978 283.35432057 193.33623075 283.33711338 C187.1226469 283.32196881 180.90906431 283.32324885 174.69546509 283.32244873 C164.26732403 283.31876737 153.83924923 283.30385722 143.41113281 283.28125 C132.71679008 283.25811158 122.02249247 283.24382262 111.328125 283.24023438 C109.35233178 283.23957124 109.35233178 283.23957124 107.33662355 283.2388947 C106.0244154 283.23845686 104.71220725 283.23801901 103.36023521 283.2375679 C91.83440652 283.23357558 80.30858919 283.2210784 68.78276873 283.20722103 C65.10032076 283.20314094 61.41787319 283.20020582 57.73542404 283.19742584 C51.93225118 283.19249813 46.12910975 283.18223719 40.32595253 283.16798782 C38.20689109 283.16350242 36.08782546 283.16063518 33.96875954 283.15958023 C2.95552534 283.14069057 2.95552534 283.14069057 -9.0625 280.3125 C-9.81289551 280.13807373 -10.56329102 279.96364746 -11.33642578 279.78393555 C-27.14524642 275.89968382 -41.14639807 268.56239002 -50.3828125 254.74609375 C-60.37548952 237.77785234 -59.49972201 217.77148889 -54.890625 199.24316406 C-51.99177911 188.68716932 -48.26602657 178.35943905 -44.72073364 168.00761414 C-41.28009582 157.93807004 -37.97457412 147.82441005 -34.67297363 137.70858765 C-33.65429621 134.58969641 -32.63158858 131.47214951 -31.60839844 128.35473633 C-26.18836668 111.79888186 -21.08148431 95.16620702 -16.4375 78.375 C-15.84766489 76.25129968 -15.25782109 74.12760178 -14.66796875 72.00390625 C-14.38614746 70.98699707 -14.10432617 69.97008789 -13.81396484 68.92236328 C-13.06861548 66.24634892 -12.31259003 63.57371079 -11.55078125 60.90234375 C-9.01801585 51.99265236 -6.78833795 43.09497584 -5 34 C-4.74347656 32.74960937 -4.48695313 31.49921875 -4.22265625 30.2109375 C-2.21836613 20.09974258 -1.14826304 10.33436737 0 0 Z " fill="#99AAB5" transform="translate(376,553)"/>
<path d="M0 0 C29.7229588 -1.02982772 60.58022757 11.25702033 82.51953125 31.07421875 C83.62167969 32.12222656 83.62167969 32.12222656 84.74609375 33.19140625 C86.89229184 35.25893091 86.89229184 35.25893091 89.39453125 37.13671875 C93.91821919 40.8687613 97.30847053 45.5876814 100.89453125 50.19921875 C101.48363281 50.94945312 102.07273437 51.6996875 102.6796875 52.47265625 C122.32530007 78.94546752 130.24917689 112.06806798 126.49609375 144.65917969 C124.56137189 157.40229961 121.5337227 169.57400632 115.89453125 181.19921875 C115.4152417 182.21072998 115.4152417 182.21072998 114.92626953 183.24267578 C103.9202826 206.24283564 86.6848094 224.9643662 64.89453125 238.19921875 C63.96688965 238.76527832 63.96688965 238.76527832 63.02050781 239.34277344 C35.57955816 255.75482467 -0.46575115 260.36012174 -31.43359375 252.58984375 C-63.52428861 243.48706409 -93.54037207 222.59870851 -110.21777344 193.24121094 C-116.40518979 181.87286463 -121.31947421 170.109431 -124.35546875 157.51171875 C-124.51885742 156.8350415 -124.68224609 156.15836426 -124.85058594 155.46118164 C-125.32128682 153.38141637 -125.7131251 151.29504719 -126.10546875 149.19921875 C-126.29125488 148.46461426 -126.47704102 147.73000977 -126.66845703 146.97314453 C-128.31958448 138.46887518 -124.26511137 131.78791575 -120.48046875 124.44921875 C-119.78903009 123.07008547 -119.09861124 121.69044046 -118.40917969 120.31030273 C-97.71464594 79.24154216 -68.84122168 39.60205344 -33.10546875 10.19921875 C-32.39132812 9.57273438 -31.6771875 8.94625 -30.94140625 8.30078125 C-25.81050283 3.98094847 -21.76392591 1.92715297 -15.10546875 1.19921875 C-14.20054687 1.0909375 -13.295625 0.98265625 -12.36328125 0.87109375 C-8.24805723 0.45629663 -4.12663305 0.2647274 0 0 Z " fill="#F3AAB9" transform="translate(292.10546875,187.80078125)"/>
<path d="M0 0 C3.6176143 3.10807559 7.03214872 6.40348818 10.44580078 9.73242188 C11.41453125 10.5909375 11.41453125 10.5909375 12.40283203 11.46679688 C21.6458396 19.86559532 28.56367518 31.99747946 32.44580078 43.73242188 C32.83638672 44.85003906 33.22697266 45.96765625 33.62939453 47.11914062 C40.73278458 70.64143917 36.89011931 95.22250437 25.88720703 116.78710938 C21.92147505 123.98587459 17.1732006 129.86347035 11.44580078 135.73242188 C10.62080078 136.59867188 9.79580078 137.46492187 8.94580078 138.35742188 C8.12080078 139.14117187 7.29580078 139.92492187 6.44580078 140.73242188 C5.84896484 141.32410156 5.25212891 141.91578125 4.63720703 142.52539062 C-5.41355994 152.05978792 -17.36403557 157.81102187 -30.55419922 161.73242188 C-31.61638672 162.05210937 -32.67857422 162.37179687 -33.77294922 162.70117188 C-56.13772178 168.45211339 -80.8393029 164.96613389 -100.68310547 153.24804688 C-122.96271405 139.21625769 -138.07384981 117.53896561 -144.06445312 92.02709961 C-148.78735397 69.51620791 -145.27946986 45.67297478 -133.24169922 25.98242188 C-119.14825821 5.07559548 -99.73191871 -11.16865782 -74.55419922 -16.26757812 C-49.1120934 -20.07326443 -20.55382459 -16.76334547 0 0 Z " fill="#F3AAB9" transform="translate(625.55419921875,358.267578125)"/>
<path d="M0 0 C6.03520264 -0.92802613 9.92603207 -0.88152782 15.00341797 2.79931641 C25.2684975 11.75783201 33.84838228 22.33838651 42.38671875 32.90234375 C43.36458873 34.07508849 44.34466786 35.24599916 45.328125 36.4140625 C67.28770082 62.82646085 86.14906917 94.37437063 97.38671875 126.90234375 C96.72671875 126.90234375 96.06671875 126.90234375 95.38671875 126.90234375 C95.03609375 128.16046875 94.68546875 129.41859375 94.32421875 130.71484375 C88.25588285 148.61223995 71.70165634 164.04352242 55.13671875 172.27734375 C52.5706543 173.52615553 49.98549989 174.72344461 47.38671875 175.90234375 C46.319375 176.41023437 45.25203125 176.918125 44.15234375 177.44140625 C34.01278976 181.64869596 24.01968462 182.42321513 13.13671875 182.33984375 C12.45451263 182.3371347 11.77230652 182.33442566 11.06942749 182.33163452 C0.63201913 182.26876686 -8.77269825 181.54037747 -18.61328125 177.90234375 C-19.66644531 177.54011719 -20.71960938 177.17789063 -21.8046875 176.8046875 C-43.83860987 168.50327358 -60.92877513 150.13381857 -71.33984375 129.4765625 C-81.18926391 107.27897766 -81.42002738 81.30986434 -72.80224609 58.78222656 C-62.6724854 34.13136193 -45.51183023 16.40963104 -21.1875 5.75390625 C-14.17530016 2.837085 -7.28372196 1.81896192 0 0 Z " fill="#F3AAB9" transform="translate(740.61328125,208.09765625)"/>
<path d="M0 0 C13.18873496 10.17885769 21.63750256 24.44064936 23.94921875 40.9296875 C25.28998487 58.36394433 21.56971143 73.80552713 10.94921875 87.9296875 C10.5109375 88.53296875 10.07265625 89.13625 9.62109375 89.7578125 C0.19389232 101.78562122 -15.13176075 109.05713554 -30.05078125 110.9296875 C-46.50948288 112.16057331 -60.65779225 108.40206453 -73.671875 97.79296875 C-76.20819639 95.57321645 -78.64485404 93.28958828 -81.05078125 90.9296875 C-81.61667969 90.38828125 -82.18257813 89.846875 -82.765625 89.2890625 C-93.30216021 78.22150827 -97.57183185 62.56721696 -97.39819336 47.69116211 C-96.92133507 32.6347157 -91.66694834 17.8247802 -81.0859375 6.76171875 C-56.80210573 -15.09839085 -27.48392893 -18.65106573 0 0 Z " fill="#F3AAB9" transform="translate(577.05078125,159.0703125)"/>
</svg>
