<?xml version="1.0" encoding="UTF-8"?>
<svg version="1.1" xmlns="http://www.w3.org/2000/svg" width="1000" height="1000">
<path d="M0 0 C330 0 660 0 1000 0 C1000 330 1000 660 1000 1000 C670 1000 340 1000 0 1000 C0 670 0 340 0 0 Z " fill="#E3EEE5" transform="translate(0,0)"/>
<path d="M0 0 C13.26705292 5.75296985 18.76677342 21.44949683 23.82519531 34.05664062 C29.11393158 47.70375454 33.16611465 61.67815839 33.82421875 76.36328125 C33.98085146 78.71277183 34.34177475 80.74705016 35 83 C35.40089844 82.39414063 35.80179688 81.78828125 36.21484375 81.1640625 C40.66660416 74.60251088 45.5482987 68.74970426 51 63 C51.82242188 62.113125 52.64484375 61.22625 53.4921875 60.3125 C64.93930555 48.35586631 78.34346578 39.5521378 93 32 C93.67256836 31.65340332 94.34513672 31.30680664 95.03808594 30.94970703 C120.01128093 18.27256537 149.10167061 8.87581917 177.3125 8.6875 C177.99973145 8.68194092 178.68696289 8.67638184 179.39501953 8.6706543 C185.52110218 8.75955924 190.40224849 10.75678124 196 13 C196.6366759 29.47717217 195.91635168 44.22114764 191 60 C190.75362793 60.81065918 190.50725586 61.62131836 190.25341797 62.45654297 C181.2457408 91.54710064 167.16576674 120.37756814 146.1640625 142.6796875 C143.8747134 145.06608237 143.8747134 145.06608237 141.5625 148.125 C135.1626109 155.30536338 127.1058379 160.89632428 119 166 C120.11375 166.10957031 121.2275 166.21914063 122.375 166.33203125 C148.93651852 169.03951679 177.90784836 174.62164025 197 195 C199.87852607 199.31778911 199.79583463 202.93760748 199 208 C193.33467222 222.37937008 174.05661072 230.66245235 161 237 C157.68131498 238.37388403 154.37325849 239.5428366 150.95703125 240.6484375 C146.76573274 242.0245529 142.71724631 243.71942413 138.6394043 245.39746094 C116.70911153 254.40902225 93.31425266 263.46962524 70 268 C69.89478027 268.73718262 69.78956055 269.47436523 69.68115234 270.23388672 C68.57687965 277.44548689 66.95890343 284.21709423 64.625 291.125 C64.28049805 292.14634033 63.93599609 293.16768066 63.58105469 294.2199707 C49.98839961 333.21738107 26.60090518 368.64388876 0 400 C-0.8920236 401.05460587 -1.78394526 402.10929797 -2.67578125 403.1640625 C-4.08892462 404.83445403 -5.50322448 406.5037883 -6.92138672 408.16992188 C-9.77588234 411.52815202 -12.55952542 414.93250489 -15.3125 418.375 C-20.18887868 424.37602097 -25.48901532 429.95429734 -30.79296875 435.57421875 C-33.07558778 437.9974268 -35.29114532 440.45432352 -37.4375 443 C-39.74677174 445.63760584 -42.12028548 448.16847088 -44.609375 450.63671875 C-45.27654541 451.30123047 -45.94371582 451.96574219 -46.63110352 452.65039062 C-47.97490696 453.98159042 -49.32163167 455.30984948 -50.67163086 456.63476562 C-54.02841815 459.94632481 -57.07726255 463.29137092 -60 467 C-61.11473308 468.03455506 -62.2612574 469.03595261 -63.4375 470 C-67.32686139 473.31504447 -70.9123023 476.86702518 -74.5 480.5 C-78.54157182 484.58297076 -82.60593388 488.54867027 -86.98828125 492.26953125 C-89.48283603 494.41533274 -91.89218982 496.64585677 -94.3125 498.875 C-98.79662928 502.96437787 -103.40267238 506.84619021 -108.125 510.65625 C-110.69335234 512.7500155 -113.21994983 514.88143274 -115.73681641 517.03613281 C-122.01037826 522.40278632 -128.44257849 527.51842584 -135.02685547 532.49951172 C-137.28819831 534.21916194 -139.5367372 535.95489418 -141.78515625 537.69140625 C-184.96889865 570.96565899 -231.4140288 600.06761895 -279.10644531 626.39892578 C-281.7824555 627.87962734 -284.45058743 629.37353531 -287.1171875 630.87109375 C-337.49776855 658.98026309 -391.53628593 684.12751019 -448 697 C-448.71124023 697.16226074 -449.42248047 697.32452148 -450.15527344 697.49169922 C-465.61809598 700.89548728 -485.77383344 703.52803313 -500 694.9375 C-505.23233752 690.65531333 -508.08877468 683.56454158 -509 677 C-512.12498158 626.97539446 -488.02526871 574.25825985 -467 530 C-466.20770996 528.31704834 -466.20770996 528.31704834 -465.39941406 526.60009766 C-439.91702893 472.53370609 -408.9310027 421.15940743 -375 372 C-374.45102051 371.20223145 -373.90204102 370.40446289 -373.33642578 369.58251953 C-365.55231817 358.29768894 -357.29871468 347.39453652 -348.93994141 336.53076172 C-347.1190144 334.15526092 -345.31229525 331.76985265 -343.51171875 329.37890625 C-337.50733579 321.42099086 -331.31692497 313.71343375 -324.765625 306.19921875 C-322.27149098 303.33472807 -319.87703918 300.40024848 -317.5 297.4375 C-313.14747149 292.0720194 -308.48464434 287.03611045 -303.7734375 281.98828125 C-301.63645686 279.6964159 -299.54776652 277.37241243 -297.5 275 C-288.61121877 264.74514441 -279.18071838 255.01667543 -269.57128906 245.44091797 C-267.7338424 243.60889005 -265.9018835 241.77149395 -264.0703125 239.93359375 C-258.72415819 234.58473535 -253.4001955 229.26684045 -247.60839844 224.39404297 C-245.81694563 222.84134177 -244.15966961 221.19210134 -242.5 219.5 C-238.35727624 215.30166921 -233.92151134 211.49566702 -229.43896484 207.66650391 C-227.66730038 206.15307005 -225.89614799 204.63903823 -224.125 203.125 C-223.51527344 202.60478271 -222.90554688 202.08456543 -222.27734375 201.54858398 C-218.77272953 198.549911 -215.33227667 195.49841605 -211.9375 192.375 C-206.88276302 187.80127831 -201.52167414 183.67668941 -196.08300781 179.57666016 C-193.61794438 177.71081631 -191.16432815 175.83038367 -188.7109375 173.94921875 C-186.8281999 172.50771467 -184.94538723 171.06630863 -183.0625 169.625 C-182.16233154 168.93462646 -181.26216309 168.24425293 -180.3347168 167.53295898 C-173.75632351 162.51139267 -167.64034438 158.26391586 -160 155 C-157.16312167 153.42961081 -154.40140239 151.73692364 -151.625 150.0625 C-125.68702531 134.76455202 -94.86556752 119.37009046 -64 120 C-63.74089844 118.57300781 -63.74089844 118.57300781 -63.4765625 117.1171875 C-56.78512167 82.86558494 -40.85769003 22.77890634 -11 2 C-7.10879387 -0.19254499 -4.51293708 -0.5918606 0 0 Z " fill="#F3900C" transform="translate(648,121)"/>
<path d="M0 0 C13.26705292 5.75296985 18.76677342 21.44949683 23.82519531 34.05664062 C29.11393158 47.70375454 33.16611465 61.67815839 33.82421875 76.36328125 C33.98085146 78.71277183 34.34177475 80.74705016 35 83 C35.40089844 82.39414063 35.80179688 81.78828125 36.21484375 81.1640625 C40.66660416 74.60251088 45.5482987 68.74970426 51 63 C51.82242188 62.113125 52.64484375 61.22625 53.4921875 60.3125 C64.93930555 48.35586631 78.34346578 39.5521378 93 32 C93.67256836 31.65340332 94.34513672 31.30680664 95.03808594 30.94970703 C120.01128093 18.27256537 149.10167061 8.87581917 177.3125 8.6875 C177.99973145 8.68194092 178.68696289 8.67638184 179.39501953 8.6706543 C185.52110218 8.75955924 190.40224849 10.75678124 196 13 C196.6366759 29.47717217 195.91635168 44.22114764 191 60 C190.75362793 60.81065918 190.50725586 61.62131836 190.25341797 62.45654297 C181.2457408 91.54710064 167.16576674 120.37756814 146.1640625 142.6796875 C143.8747134 145.06608237 143.8747134 145.06608237 141.5625 148.125 C135.1626109 155.30536338 127.1058379 160.89632428 119 166 C120.11375 166.10957031 121.2275 166.21914063 122.375 166.33203125 C148.93651852 169.03951679 177.90784836 174.62164025 197 195 C199.87852607 199.31778911 199.79583463 202.93760748 199 208 C193.33467222 222.37937008 174.05661072 230.66245235 161 237 C157.68131498 238.37388403 154.37325849 239.5428366 150.95703125 240.6484375 C146.76573274 242.0245529 142.71724631 243.71942413 138.6394043 245.39746094 C85.3172398 267.30852068 85.3172398 267.30852068 70 267 C70.02356567 266.02728149 70.02356567 266.02728149 70.04760742 265.03491211 C70.91975232 223.47003187 54.26171381 193.0878618 26.40625 163.21875 C9.5168757 145.90179661 -10.27816123 133.03850375 -33 125 C-33.89203125 124.63648438 -34.7840625 124.27296875 -35.703125 123.8984375 C-44.63879576 120.40319213 -54.5361771 120.4461852 -64 120 C-57.66313177 85.09993468 -41.40831452 23.16210325 -11 2 C-7.10879387 -0.19254499 -4.51293708 -0.5918606 0 0 Z " fill="#77B255" transform="translate(648,121)"/>
<path d="M0 0 C3.71506064 1.23835355 3.9643053 2.19113688 5.828125 5.5390625 C6.64555176 6.98176514 6.64555176 6.98176514 7.47949219 8.45361328 C8.06375977 9.5001709 8.64802734 10.54672852 9.25 11.625 C18.85322494 28.45463909 29.31653142 44.74155282 40.79638672 60.35644531 C42.07476725 62.10209598 43.33690952 63.85876532 44.59765625 65.6171875 C50.92751963 74.40420335 57.62330498 82.84235036 64.51464844 91.19433594 C66.60967469 93.74114958 68.67671132 96.31047916 70.75 98.875 C74.34108006 103.26190549 78.07804072 107.4916924 81.8984375 111.6796875 C83.72282794 113.69397731 85.49093802 115.74148614 87.25 117.8125 C91.06689101 122.21315082 95.22002536 126.27371249 99.38183594 130.3449707 C105.66360628 136.52794148 105.66360628 136.52794148 108 140 C107.67 140.99 107.34 141.98 107 143 C90.73775059 144.78488103 74.8396847 137.6329577 60.86621094 130.00585938 C59.06495007 129.0350071 57.24677134 128.11295196 55.4140625 127.203125 C43.98349587 121.45438257 33.52221569 114.24549083 23 107 C22.20142578 106.4519873 21.40285156 105.90397461 20.58007812 105.33935547 C-26.01871879 73.26090097 -26.01871879 73.26090097 -38 52 C-37.56851826 48.49846588 -35.9909379 46.36089768 -33.859375 43.61328125 C-32.88097656 42.34158081 -32.88097656 42.34158081 -31.8828125 41.04418945 C-30.82707031 39.69200317 -30.82707031 39.69200317 -29.75 38.3125 C-28.28645071 36.41667255 -26.82290916 34.52083913 -25.359375 32.625 C-24.62525391 31.67882812 -23.89113281 30.73265625 -23.13476562 29.7578125 C-20.61577759 26.50363948 -18.12179508 23.23103975 -15.63061523 19.95556641 C-10.51189819 13.22819731 -5.33401463 6.55874307 0 0 Z " fill="#D67503" transform="translate(322,428)"/>
<path d="M0 0 C4.26537461 0.30466961 6.15377807 3.05985683 9 6 C9.94262705 6.9570936 10.88666659 7.91279787 11.83203125 8.8671875 C12.31583252 9.35630615 12.79963379 9.8454248 13.2980957 10.34936523 C18.3659433 15.4547948 23.51882736 20.33774619 29 25 C30.11192343 25.97383918 31.22246754 26.94925432 32.33203125 27.92578125 C40.10122412 34.74743687 48.00800048 41.31362703 56.20751953 47.61083984 C57.9858747 48.98905299 59.74204764 50.39180933 61.49609375 51.80078125 C71.15388082 59.47098332 81.30462617 66.35557806 91.5625 73.1875 C92.25461578 73.64895416 92.94673157 74.11040833 93.65982056 74.58584595 C107.89742652 84.06149938 122.42060807 93.06263303 137 102 C133.43599798 108.08850344 128.52427488 112.66326363 123.5 117.5625 C121.79976966 119.22811026 120.10177678 120.89600818 118.40625 122.56640625 C117.65666016 123.29802979 116.90707031 124.02965332 116.13476562 124.78344727 C113.92404052 127.07886964 111.97400028 129.50040155 110 132 C108.76092021 133.15988087 107.49027205 134.28714554 106.1875 135.375 C102.7248275 138.30247358 99.6499683 141.42333667 96.640625 144.8125 C95 146 95 146 93.07421875 145.89453125 C83.62605976 141.81990148 75.41186113 132.06496154 68 125 C67.50290527 124.52626953 67.00581055 124.05253906 66.49365234 123.56445312 C59.77271796 117.11271806 53.74246139 110.32866576 48 103 C46.83210937 101.55753906 46.83210937 101.55753906 45.640625 100.0859375 C26.62161612 76.16075117 13.09352735 48.73239491 3 20 C2.619646 18.91759033 2.23929199 17.83518066 1.84741211 16.7199707 C-1.62318826 6.60869431 -1.62318826 6.60869431 -1 1 C-0.67 0.67 -0.34 0.34 0 0 Z " fill="#D67503" transform="translate(478,456)"/>
<path d="M0 0 C3.43616973 1.40580994 4.83895066 2.83408868 6.70703125 6.015625 C7.20323975 6.84336426 7.69944824 7.67110352 8.21069336 8.52392578 C8.73928955 9.42353027 9.26788574 10.32313477 9.8125 11.25 C24.01503012 34.7782023 40.05215325 57.11694856 57.58056641 78.27636719 C58.85282945 79.82128929 60.10548255 81.38231152 61.35546875 82.9453125 C66.61167181 89.51317279 72.2446485 95.65444903 78 101.78125 C80.26928063 104.20144338 82.47234368 106.66226854 84.625 109.1875 C88.35622747 113.5594433 92.56185273 117.45128097 96.7421875 121.38671875 C99.06795539 124.07865425 99.71068267 125.50932347 100 129 C64.00588384 128.88081418 30.63162961 104.81698228 3 84 C2.06317383 83.30076416 2.06317383 83.30076416 1.10742188 82.58740234 C-8.53667807 75.35952917 -17.34554157 67.37758959 -26 59 C-26.59796387 58.4239502 -27.19592773 57.84790039 -27.81201172 57.25439453 C-41.71441147 43.81018977 -41.71441147 43.81018977 -46 37 C-46 36.34 -46 35.68 -46 35 C-44.078895 33.33215965 -42.14904317 31.78520839 -40.125 30.25 C-38.8358815 29.25658308 -37.54682187 28.26308977 -36.2578125 27.26953125 C-35.22188965 26.47603271 -35.22188965 26.47603271 -34.16503906 25.66650391 C-31.95054762 23.96193483 -29.75102668 22.23960127 -27.5546875 20.51171875 C-18.53575532 13.42652321 -9.40607295 6.56307984 0 0 Z " fill="#D67503" transform="translate(481,279)"/>
<path d="M0 0 C3.78445808 1.26148603 5.24647501 3.11535477 8 6 C9.01462855 7.03091312 10.03165281 8.05947261 11.05078125 9.0859375 C11.57986084 9.62033447 12.10894043 10.15473145 12.65405273 10.70532227 C17.93662045 16.02366183 23.26826057 21.164163 29 26 C30.03619634 26.89854156 31.07124701 27.79840513 32.10546875 28.69921875 C39.66686623 35.26648402 47.38786397 41.57717767 55.31494141 47.69726562 C56.92674341 48.94336465 58.53189825 50.19804745 60.13671875 51.453125 C80.90323614 67.60775584 102.79307006 81.92024897 125 96 C123.48871293 100.21913115 120.92804112 101.54441779 117.12890625 103.72265625 C116.53891342 104.06506851 115.94892059 104.40748077 115.34104919 104.76026917 C113.4207053 105.87152499 111.49210787 106.9674219 109.5625 108.0625 C108.24106943 108.82063837 106.92010744 109.57959405 105.59960938 110.33935547 C103.61537863 111.480359 101.63052978 112.62016646 99.64297485 113.75537109 C95.73968269 115.98648662 91.87078558 118.2642092 88.02734375 120.59765625 C87.16488037 121.11642334 86.30241699 121.63519043 85.41381836 122.16967773 C83.84451785 123.11582928 82.28112615 124.07187587 80.72485352 125.03930664 C77.88103137 126.73184536 75.76467834 127.93218449 72.4453125 128.2265625 C68.45690629 126.22598814 65.82432574 123.04406681 62.875 119.75 C62.21338867 119.02562744 61.55177734 118.30125488 60.87011719 117.55493164 C58.89801849 115.38319015 56.94544156 113.19562799 55 111 C54.21254395 110.11513916 54.21254395 110.11513916 53.40917969 109.21240234 C30.09045138 82.83535127 12.80689582 52.50020047 2 19 C1.55406494 17.61880981 1.55406494 17.61880981 1.09912109 16.2097168 C-0.56804998 10.87408248 -1.40838954 6.61535615 -1 1 C-0.67 0.67 -0.34 0.34 0 0 Z " fill="#D67503" transform="translate(297,618)"/>
</svg>
