<?xml version="1.0" encoding="UTF-8"?>
<svg version="1.1" xmlns="http://www.w3.org/2000/svg" width="1000" height="1000">
<path d="M0 0 C330 0 660 0 1000 0 C1000 330 1000 660 1000 1000 C670 1000 340 1000 0 1000 C0 670 0 340 0 0 Z " fill="#E3EEE5" transform="translate(0,0)"/>
<path d="M0 0 C15.56618598 9.66268347 19.55475587 26.45031948 24.484375 42.92578125 C24.76571289 43.85648438 25.04705078 44.7871875 25.33691406 45.74609375 C30.93315052 64.30433933 35.95495345 82.99609725 39.859375 101.98828125 C40.02719482 102.79104492 40.19501465 103.59380859 40.36791992 104.42089844 C41.27502459 109.01271808 41.64597451 113.24561086 41.484375 117.92578125 C42.09394043 117.65540039 42.70350586 117.38501953 43.33154297 117.10644531 C76.50505595 102.49466721 111.07774128 91.14708496 145.80151367 80.8203125 C148.4283984 80.02289333 148.4283984 80.02289333 150.51489258 78.86767578 C152.93754526 77.70905497 155.10630892 77.40841681 157.765625 77.04296875 C164.59829386 75.98079932 171.2362126 74.31793558 177.92196655 72.58407593 C189.93832828 69.476902 201.96065455 66.47623436 214.19189453 64.33154297 C215.73155998 64.0590271 217.26905845 63.77399761 218.80419922 63.47705078 C230.87149084 61.16130736 242.79351496 60.61612546 255.046875 60.55078125 C256.13672699 60.53899841 256.13672699 60.53899841 257.24859619 60.52697754 C271.66491441 60.40547911 284.46696127 62.08110674 295.70703125 71.859375 C304.28255467 80.59518858 306.63860763 91.80682353 309.296875 103.36328125 C309.51625732 104.29156738 309.73563965 105.21985352 309.96166992 106.17626953 C312.80081105 119.35987926 311.36706082 131.90489101 308.921875 144.98828125 C308.78910156 145.72022705 308.65632812 146.45217285 308.51953125 147.20629883 C305.99822843 161.10197905 302.7888734 174.78103999 299.33691406 188.47509766 C297.93007054 194.16934918 296.65167076 199.89217152 295.359375 205.61328125 C293.38962417 214.26384594 291.23451944 222.82067448 288.7578125 231.33984375 C287.79682815 234.68443445 286.96484296 238.05228351 286.15003967 241.4352417 C284.01952787 250.22379067 281.39595538 258.76102544 278.421875 267.30078125 C278.18649017 267.98222198 277.95110535 268.66366272 277.70858765 269.36575317 C270.87884575 289.07938492 262.60241734 308.16717264 253.484375 326.92578125 C254.5681543 327.15128662 254.5681543 327.15128662 255.67382812 327.38134766 C278.1639915 332.08041369 300.46314906 337.03080402 322.30566406 344.21875 C325.13696572 345.13755878 327.98324524 346.00298353 330.83129883 346.86816406 C362.17990988 356.45351041 362.17990988 356.45351041 368.7421875 368.66796875 C371.17218733 376.06028401 369.97190782 383.66570905 366.80859375 390.625 C364.54396142 394.55971517 361.61155571 397.66485146 358.484375 400.92578125 C357.16900063 402.44412922 355.85656475 403.96502716 354.546875 405.48828125 C350.79213817 409.68643462 346.83941246 413.36123798 342.484375 416.92578125 C341.60394531 417.66699219 340.72351563 418.40820312 339.81640625 419.171875 C323.40254784 432.70304124 304.89230106 444.44048338 286.37451172 454.85644531 C284.47413595 455.93157394 282.58987651 457.03122169 280.70703125 458.13671875 C272.68795393 462.8025123 264.47212426 466.97108488 256.109375 470.98828125 C254.58256104 471.72292603 254.58256104 471.72292603 253.02490234 472.47241211 C252.07566895 472.92237549 251.12643555 473.37233887 250.1484375 473.8359375 C249.29717285 474.23949463 248.4459082 474.64305176 247.56884766 475.05883789 C245.484375 475.92578125 245.484375 475.92578125 243.484375 475.92578125 C243.484375 476.58578125 243.484375 477.24578125 243.484375 477.92578125 C244.52658203 478.24675781 244.52658203 478.24675781 245.58984375 478.57421875 C249.26673055 480.29109167 251.90329212 482.77393007 254.796875 485.55078125 C255.37373047 486.09782715 255.95058594 486.64487305 256.54492188 487.20849609 C257.68865254 488.29606714 258.82953473 489.38664309 259.96728516 490.48046875 C261.17455379 491.63061846 262.40905749 492.75216416 263.65234375 493.86328125 C285.02860162 513.55313925 300.11179752 545.59574149 301.765625 574.4609375 C302.69657743 597.85568075 294.42513779 618.44777947 278.74414062 635.85791016 C270.55693831 644.71616015 261.71343015 654.00848259 250.484375 658.92578125 C247.73046875 658.80859375 247.73046875 658.80859375 245.484375 657.92578125 C240.73901596 652.2577135 240.44865494 646.73447796 240.24536133 639.65844727 C239.68622958 622.19533252 233.76071284 608.24392512 222.484375 594.92578125 C221.81664062 594.12398437 221.14890625 593.3221875 220.4609375 592.49609375 C205.51134265 575.17183401 183.8020174 560.09523253 160.484375 557.92578125 C130.23393478 555.85232038 106.5065671 570.37081236 81.67602539 585.84838867 C35.47112154 614.61998827 -13.30256004 641.73430716 -66.515625 654.92578125 C-67.3921875 655.1475 -68.26875 655.36921875 -69.171875 655.59765625 C-71.61356587 656.14954528 -74.03929033 656.55772574 -76.515625 656.92578125 C-78.24232422 657.20228516 -78.24232422 657.20228516 -80.00390625 657.484375 C-91.63056493 659.11952583 -103.29830303 659.14198397 -115.015625 659.17578125 C-115.84477417 659.18095764 -116.67392334 659.18613403 -117.52819824 659.19146729 C-126.7410588 659.23675554 -135.50283156 659.06649436 -144.515625 656.92578125 C-145.29188232 656.75997559 -146.06813965 656.59416992 -146.86791992 656.42333984 C-149.0897439 655.94701422 -151.30285085 655.44237833 -153.515625 654.92578125 C-154.22799316 654.76174805 -154.94036133 654.59771484 -155.67431641 654.42871094 C-171.33222614 650.74904938 -186.60295083 645.50887881 -200.73828125 637.73828125 C-202.64465331 636.71790137 -202.64465331 636.71790137 -205.515625 636.92578125 C-206.70592712 638.46663578 -206.70592712 638.46663578 -207.703125 640.48828125 C-210.04184033 644.4461072 -212.61748962 647.03670196 -216.1484375 649.94140625 C-218.47843043 651.89460164 -220.69192025 653.94560935 -222.90258789 656.03198242 C-236.09967988 668.42698379 -246.62305558 672.796737 -264.72265625 672.26953125 C-280.08903955 671.43391515 -290.81921679 661.1523972 -301.203125 650.73828125 C-302.10095703 649.86880859 -302.99878906 648.99933594 -303.92382812 648.10351562 C-314.65165211 637.40712848 -321.50453919 625.77727936 -321.890625 610.48828125 C-321.49645111 594.14648882 -314.85418538 582.36235813 -303.26782227 571.08105469 C-301.83098964 569.67857739 -300.41979008 568.25359215 -299.00976562 566.82421875 C-283.95483193 551.92578125 -283.95483193 551.92578125 -277.515625 551.92578125 C-277.81855469 550.930625 -278.12148438 549.93546875 -278.43359375 548.91015625 C-289.35493307 512.68177147 -296.39146344 475.59957537 -288.515625 437.92578125 C-288.34933594 437.09884766 -288.18304688 436.27191406 -288.01171875 435.41992188 C-283.18658135 411.88397389 -274.23282121 389.81819606 -264.515625 367.92578125 C-264.10586426 367.00023437 -263.69610352 366.0746875 -263.27392578 365.12109375 C-257.25240169 351.66208701 -250.13178263 338.99102713 -242.5625 326.34863281 C-240.33773784 322.6283125 -238.12846223 318.89908341 -235.921875 315.16796875 C-223.55414627 294.27076106 -223.55414627 294.27076106 -217.3203125 283.99609375 C-192.60467716 243.27124605 -192.60467716 243.27124605 -192.54296875 196.48828125 C-196.57521887 181.71955792 -204.56064701 169.38244236 -214.515625 157.92578125 C-215.56363281 156.65927734 -215.56363281 156.65927734 -216.6328125 155.3671875 C-227.74481782 142.32177466 -243.62848395 130.53968046 -261.12573242 128.64282227 C-263.75755543 128.51843568 -266.38104266 128.45302213 -269.015625 128.42578125 C-286.19323694 128.24816931 -286.19323694 128.24816931 -291.515625 122.92578125 C-292.45402377 118.02525433 -291.41501341 115.19244277 -288.890625 110.92578125 C-274.63662635 89.9911206 -252.96742001 71.70001352 -227.796875 66.34765625 C-196.2941001 62.29729948 -165.87197851 73.41628425 -140.953125 92.30078125 C-135.94816309 96.29761357 -131.19588324 100.55557167 -126.515625 104.92578125 C-125.73960937 105.64765625 -124.96359375 106.36953125 -124.1640625 107.11328125 C-118.56128751 112.50426749 -113.65582281 118.32628338 -109.515625 124.92578125 C-109.515625 125.58578125 -109.515625 126.24578125 -109.515625 126.92578125 C-108.855625 126.92578125 -108.195625 126.92578125 -107.515625 126.92578125 C-107.41636719 126.25160156 -107.31710937 125.57742187 -107.21484375 124.8828125 C-106.3524543 121.23572417 -104.92070759 117.9861164 -103.328125 114.61328125 C-102.98499268 113.88616943 -102.64186035 113.15905762 -102.28833008 112.40991211 C-97.02568671 101.55437167 -90.71358574 91.26397976 -84.515625 80.92578125 C-83.7740918 79.67716309 -83.7740918 79.67716309 -83.01757812 78.40332031 C-73.2132431 61.89546028 -62.5977111 45.8639748 -50.515625 30.92578125 C-50.06396973 30.36584473 -49.61231445 29.8059082 -49.14697266 29.22900391 C-18.84896967 -8.04886127 -18.84896967 -8.04886127 0 0 Z " fill="#77B255" transform="translate(478.515625,118.07421875)"/>
<path d="M0 0 C0.72656799 -0.00785522 1.45313599 -0.01571045 2.20172119 -0.02380371 C16.61803941 -0.14530214 29.42008627 1.53032549 40.66015625 11.30859375 C49.23567967 20.04440733 51.59173263 31.25604228 54.25 42.8125 C54.46938232 43.74078613 54.68876465 44.66907227 54.91479492 45.62548828 C57.75393605 58.80909801 56.32018582 71.35410976 53.875 84.4375 C53.74222656 85.1694458 53.60945313 85.9013916 53.47265625 86.65551758 C50.95135343 100.5511978 47.7419984 114.23025874 44.29003906 127.92431641 C42.88319554 133.61856793 41.60479576 139.34139027 40.3125 145.0625 C38.34274917 153.71306469 36.18764444 162.26989323 33.7109375 170.7890625 C32.74995315 174.1336532 31.91796796 177.50150226 31.10316467 180.88446045 C28.97270421 189.67279763 26.35096118 198.21103468 23.375 206.75 C23.13762115 207.43542877 22.90024231 208.12085754 22.65567017 208.82705688 C11.19964865 241.79569528 -3.9575524 273.26922957 -21.5625 303.375 C-22.08682617 304.27718262 -22.61115234 305.17936523 -23.15136719 306.10888672 C-37.72213641 331.03977395 -53.87993224 355.49818811 -71.24365234 378.57275391 C-72.62160193 380.45576461 -73.91646726 382.38045961 -75.20703125 384.32421875 C-76.05457435 385.54955744 -76.90222442 386.77482215 -77.75 388 C-78.44480469 389.04414062 -79.13960937 390.08828125 -79.85546875 391.1640625 C-84.40943353 394.88346231 -89.86555344 393.63263851 -95.51268005 393.09317017 C-98.77389288 392.71576347 -102.03111047 392.31078635 -105.2890625 391.90625 C-120.5202201 390.1600332 -135.6188226 389.82516595 -150.9375 389.875 C-152.29180899 389.87567252 -153.64611811 389.87610738 -155.00042725 389.87631226 C-181.33400751 389.90471441 -207.00813685 391.67592171 -232.5625 398.375 C-234.70493409 398.84896866 -236.85026182 399.31034571 -239 399.75 C-241.5215976 400.28838032 -244.0424653 400.82941309 -246.5625 401.375 C-247.28985352 401.53162109 -248.01720703 401.68824219 -248.76660156 401.84960938 C-264.99570959 405.39272706 -280.77412752 410.23621171 -296.5625 415.375 C-297.48949707 415.67664063 -298.41649414 415.97828125 -299.37158203 416.2890625 C-342.58927251 430.52039278 -387.65259158 450.36299304 -424.5625 477.375 C-425.2225 477.045 -425.8825 476.715 -426.5625 476.375 C-426.26182617 475.90940674 -425.96115234 475.44381348 -425.65136719 474.96411133 C-414.73751271 458.00968999 -404.36981669 440.76296674 -395.62695312 422.57763672 C-394.43843993 420.11828672 -393.22693749 417.67085339 -392.015625 415.22265625 C-379.46389683 389.66787658 -369.77216666 363.34657426 -361.16082764 336.25665283 C-360.63767212 334.61140532 -360.11043718 332.96745612 -359.58251953 331.32373047 C-354.49592959 315.30861551 -351.26628938 298.7924234 -347.82659912 282.36315918 C-347.04945041 278.65390125 -346.24586927 274.95370728 -345.390625 271.26171875 C-344.54581292 267.29668093 -344.01311933 263.46491023 -343.5625 259.4375 C-343.07472 255.08667657 -342.4870717 250.84980507 -341.6015625 246.5625 C-337.73042092 227.64669456 -337.26488263 208.73870291 -337.25 189.5 C-337.2448941 187.94694656 -337.2448941 187.94694656 -337.23968506 186.36251831 C-337.21092834 171.06046533 -337.44389717 155.55931731 -340.30078125 140.47753906 C-340.5625 137.375 -340.5625 137.375 -339.49291992 135.59326172 C-338.93193604 135.16803223 -338.37095215 134.74280273 -337.79296875 134.3046875 C-337.16084473 133.80775391 -336.5287207 133.31082031 -335.87744141 132.79882812 C-335.17538574 132.28771484 -334.47333008 131.77660156 -333.75 131.25 C-333.02731934 130.69505859 -332.30463867 130.14011719 -331.56005859 129.56835938 C-329.24807026 127.80769515 -326.91014253 126.08776382 -324.5625 124.375 C-323.82370605 123.83004883 -323.08491211 123.28509766 -322.32373047 122.72363281 C-317.87273648 119.44582256 -313.38263778 116.22635663 -308.87548828 113.02636719 C-306.50898509 111.33679281 -304.15706178 109.628603 -301.80859375 107.9140625 C-292.29429897 100.97119874 -282.82190596 94.17135718 -272.43359375 88.57421875 C-267.71833947 86.0158627 -263.04525702 83.39237992 -258.38574219 80.73413086 C-211.15435816 53.81420245 -161.00809772 35.53684236 -108.97070312 20.17944336 C-106.58037612 19.45218885 -106.58037612 19.45218885 -104.5625 18.3269043 C-102.12534607 17.16693565 -99.95422171 16.85951214 -97.28125 16.4921875 C-90.44858114 15.43001807 -83.8106624 13.76715433 -77.12490845 12.03329468 C-65.10854672 8.92612075 -53.08622045 5.92545311 -40.85498047 3.78076172 C-39.31531502 3.50824585 -37.77781655 3.22321636 -36.24267578 2.92626953 C-24.17538416 0.61052611 -12.25336004 0.06534421 0 0 Z " fill="#F3900C" transform="translate(733.5625,178.625)"/>
<path d="M0 0 C15.56618598 9.66268347 19.55475587 26.45031948 24.484375 42.92578125 C24.90638184 44.32183594 24.90638184 44.32183594 25.33691406 45.74609375 C30.92717595 64.28452648 35.93951774 82.958156 39.859375 101.92578125 C40.02719482 102.72016602 40.19501465 103.51455078 40.36791992 104.33300781 C41.35053812 109.2858702 41.63356143 113.87639436 41.484375 118.92578125 C40.9080835 119.19092529 40.33179199 119.45606934 39.73803711 119.72924805 C20.43015386 128.66268944 1.98362353 138.83793489 -16.1640625 149.92578125 C-18.71325902 151.4469801 -21.26861967 152.88832334 -23.875 154.3046875 C-28.56971516 156.89858927 -32.98266266 159.81237276 -37.390625 162.86328125 C-38.2050708 163.42466797 -39.0195166 163.98605469 -39.85864258 164.56445312 C-52.79477473 173.5337034 -65.46517522 182.80910752 -77.5300293 192.92773438 C-80.17409827 195.12875439 -82.22014477 196.82728784 -85.515625 197.92578125 C-85.92187021 196.3008004 -86.32807837 194.67581027 -86.73413086 193.05078125 C-87.09370923 191.61312844 -87.45391566 190.17563258 -87.81469727 188.73828125 C-88.72286688 185.11660616 -89.62320723 181.49363497 -90.49609375 177.86328125 C-96.34459985 152.81827717 -96.34459985 152.81827717 -107.515625 129.92578125 C-108.25074075 124.35523747 -106.28547032 120.42016297 -103.890625 115.55078125 C-103.29870361 114.32597046 -103.29870361 114.32597046 -102.69482422 113.07641602 C-97.2341203 102.02568116 -90.8582481 91.48523339 -84.515625 80.92578125 C-83.553194 79.30610331 -82.59094066 77.68631978 -81.62890625 76.06640625 C-72.24103296 60.37192951 -62.02160049 45.15167629 -50.515625 30.92578125 C-50.06396973 30.36584473 -49.61231445 29.8059082 -49.14697266 29.22900391 C-18.84896967 -8.04886127 -18.84896967 -8.04886127 0 0 Z " fill="#5C913B" transform="translate(478.515625,118.07421875)"/>
<path d="M0 0 C8.62596002 0.55878217 16.95765675 2.31826454 25.375 4.1875 C26.08142639 4.34273132 26.78785278 4.49796265 27.51568604 4.65789795 C38.43526615 7.06551745 49.13047255 9.91899808 59.78369141 13.31787109 C62.77258697 14.23778453 65.78811245 15.03837313 68.81079102 15.83886719 C106.95301905 25.97924918 106.95301905 25.97924918 116 41 C118.4186867 45.8373734 117.56519906 52.61663045 116.3515625 57.734375 C114.08208211 63.9802954 110.54771335 68.2577816 106 73 C104.68462563 74.51834797 103.37218975 76.03924591 102.0625 77.5625 C98.30776317 81.76065337 94.35503746 85.43545673 90 89 C89.11957031 89.74121094 88.23914063 90.48242188 87.33203125 91.24609375 C70.91817284 104.77725999 52.40792606 116.51470213 33.89013672 126.93066406 C31.98976095 128.00579269 30.10550151 129.10544044 28.22265625 130.2109375 C20.29045883 134.83013327 12.161714 139.05057703 3.9375 143.125 C2.96151855 143.62314209 1.98553711 144.12128418 0.97998047 144.63452148 C-4.41117459 147.25282983 -8.01553224 148.87239665 -14 147 C-17.4296875 145.4765625 -17.4296875 145.4765625 -20.875 143.625 C-29.56907726 138.97099509 -38.58484463 136.45225236 -48.125 134.0625 C-49.15238281 133.80452637 -50.17976562 133.54655273 -51.23828125 133.28076172 C-62.06284293 130.63230395 -72.99593123 128.72947695 -84 127 C-83.40558105 126.74976074 -82.81116211 126.49952148 -82.19873047 126.24169922 C-79.68657718 124.82299928 -78.53146746 123.44396211 -76.8203125 121.1328125 C-76.22863281 120.34028076 -75.63695312 119.54774902 -75.02734375 118.73120117 C-74.08568359 117.44113159 -74.08568359 117.44113159 -73.125 116.125 C-72.46371094 115.22950439 -71.80242188 114.33400879 -71.12109375 113.41137695 C-44.58950719 77.31262662 -21.62786513 39.18854323 0 0 Z " fill="#5C913B" transform="translate(731,446)"/>
<path d="M0 0 C1.34810924 1.33651436 2.70069273 2.66853012 4.05761719 3.99609375 C6.04963546 5.94522913 8.02786812 7.90748236 10.00366211 9.87304688 C10.60269852 10.4545752 11.20173492 11.03610352 11.81892395 11.63525391 C17.034603 16.87779859 21.71607375 22.91367023 22.32788086 30.49804688 C21.83160042 38.19710011 17.07378026 44.39705174 11.57788086 49.49023438 C6.10935368 53.88784165 1.14166242 55.72413864 -5.92602539 55.36914062 C-17.97210335 53.48384012 -28.94446285 38.56352416 -37.25756836 30.27783203 C-39.05147744 28.49371236 -40.8558065 26.72056881 -42.66040039 24.94726562 C-60.37549226 7.39478727 -60.37549226 7.39478727 -60.79711914 -2.12695312 C-60.68913898 -8.0658621 -57.64335463 -12.28791335 -54.29711914 -17.00195312 C-53.79825195 -17.71738281 -53.29938477 -18.4328125 -52.78540039 -19.16992188 C-48.97883015 -23.85569994 -42.70858385 -25.93975244 -36.92211914 -27.00195312 C-22.9013986 -28.0932444 -9.07841317 -9.0240647 0 0 Z " fill="#F6B72C" transform="translate(672.297119140625,222.001953125)"/>
<path d="M0 0 C6.09797049 3.67239418 11.07630905 7.77836991 16.06048584 12.84309387 C17.18320892 13.96363411 17.18320892 13.96363411 18.32861328 15.10681152 C19.89626308 16.676109 21.4590249 18.25030349 23.01702881 19.82917786 C25.38433813 22.22548757 27.76980508 24.60252658 30.15814209 26.9778595 C31.68920557 28.51516073 33.21919058 30.05353696 34.74798584 31.59309387 C35.45122986 32.29340225 36.15447388 32.99371063 36.87902832 33.71524048 C42.99872436 39.9511397 49.68535261 46.97733528 50.01361084 56.04231262 C49.92200302 63.83915622 46.44819834 68.12230046 41.32611084 73.66731262 C36.80048237 77.94804777 31.98021671 81.03259681 25.63861084 81.41731262 C17.93075423 80.88059533 13.12449076 76.64526322 7.71282959 71.57746887 C7.14741455 71.05135513 6.58199951 70.52524139 5.99945068 69.98318481 C0.16722061 64.5267298 -5.52909996 58.93572818 -11.17584229 53.28816223 C-12.88335475 51.58287567 -14.59879115 49.88581804 -16.31451416 48.188797 C-17.42437646 47.08186349 -18.53376922 45.97445896 -19.64263916 44.86653137 C-20.14476929 44.37158676 -20.64689941 43.87664215 -21.16424561 43.36669922 C-26.84491106 37.64948581 -31.40663589 32.13660944 -31.79888916 23.79231262 C-31.69852538 16.17470189 -28.32241661 11.93028793 -23.13482666 6.65168762 C-16.53529152 0.51566498 -9.03714935 -4.14349642 0 0 Z " fill="#F6B72C" transform="translate(595.3613891601563,246.0826873779297)"/>
<path d="M0 0 C3.79520927 2.15671531 6.67711258 5.01567992 9.625 8.20703125 C11.49244913 10.11014347 13.37833583 11.82180039 15.3984375 13.5546875 C20.45361832 17.93845883 25.22770947 22.5950428 29.97558594 27.30541992 C30.99099745 28.30928527 32.01086687 29.30866157 33.03515625 30.3034668 C48.63627537 45.4581984 48.63627537 45.4581984 49.625 55 C48.91887698 63.89715009 42.52228688 70.3380107 36.12109375 75.90625 C32.31084605 78.60986924 28.78469433 79.80806405 24.125 79.9375 C23.34640625 79.97746094 22.5678125 80.01742187 21.765625 80.05859375 C13.18965121 78.40134476 6.99732817 72.2074166 1.078125 66.19921875 C0.28146423 65.40401321 -0.51519653 64.60880768 -1.33599854 63.789505 C-3.00797559 62.11587718 -4.67504809 60.43733656 -6.33740234 58.75415039 C-8.86941952 56.19314437 -11.41961434 53.65135684 -13.97265625 51.11132812 C-15.60267798 49.47506881 -17.23162134 47.83773437 -18.859375 46.19921875 C-19.61466492 45.44686447 -20.36995483 44.69451019 -21.14813232 43.9193573 C-27.13594564 37.82477315 -33.02911386 31.34343218 -33.5625 22.4375 C-33.45446345 16.38745323 -30.88763371 12.1127376 -27.125 7.5 C-19.26632515 0.09213285 -10.76659658 -4.83963846 0 0 Z " fill="#F6B72C" transform="translate(547.125,295.5)"/>
<path d="M0 0 C6.85664434 3.41774026 12.03676545 8.5840306 17.390625 13.95703125 C18.25766052 14.81882492 19.12469604 15.68061859 20.01800537 16.56852722 C21.84031522 18.3844413 23.65879724 20.20420395 25.47363281 22.02758789 C28.24311831 24.80559713 31.03077159 27.56441287 33.8203125 30.32226562 C35.59488133 32.09522253 37.36835646 33.86927495 39.140625 35.64453125 C40.38443939 36.87149467 40.38443939 36.87149467 41.65338135 38.12324524 C47.10212796 43.63797095 52.50065641 49.60575471 52.6875 57.8125 C52.36119212 65.11504535 48.11942524 71.05126029 42.9296875 75.95703125 C37.52237594 80.18213591 32.53362436 82.6763746 25.56117249 82.41589355 C16.6793777 80.97363177 9.63181973 73.21349819 3.59765625 67.09375 C2.75327499 66.25082397 1.90889374 65.40789795 1.03892517 64.53942871 C-0.72962509 62.76922936 -2.49327944 60.99412619 -4.25219727 59.21435547 C-6.94210557 56.4953446 -9.65035189 53.79564489 -12.36132812 51.09765625 C-14.08445046 49.36829989 -15.80649413 47.63786792 -17.52734375 45.90625 C-18.33356674 45.10296265 -19.13978973 44.29967529 -19.97044373 43.4720459 C-25.4527901 37.8967709 -29.41353518 33.27430901 -29.5 25.125 C-29.27340033 17.15460296 -25.90515606 12.8877287 -20.625 7.25 C-14.54958558 1.54041698 -8.61427964 -1.98981208 0 0 Z " fill="#F6B72C" transform="translate(495,343)"/>
<path d="M0 0 C6.56904805 3.4458604 11.42657614 7.93781197 16.61064148 13.19297791 C17.47863373 14.05951492 18.34662598 14.92605194 19.24092102 15.81884766 C21.06252458 17.6421028 22.87921903 19.47027458 24.69120789 21.30308533 C27.46243467 24.10336726 30.25195783 26.8844058 33.04423523 29.66368103 C34.81748713 31.44316811 36.58966053 33.22373071 38.36064148 35.00547791 C39.19187531 35.83377609 40.02310913 36.66207428 40.87953186 37.51547241 C46.39373756 43.12033038 50.48511919 47.78181141 50.64970398 55.97813416 C50.40787861 64.47356443 46.1805989 69.3907109 40.21220398 75.04063416 C35.08320648 79.22558468 30.29263963 81.51567428 23.58720398 81.22813416 C14.74109305 79.67428358 8.23010151 71.62701587 2.13407898 65.54844666 C1.31143555 64.73246002 0.48879211 63.91647339 -0.35877991 63.07575989 C-2.0857791 61.3588312 -3.81012681 59.63923175 -5.53193665 57.917099 C-8.15856121 55.29486189 -10.80078748 52.68905853 -13.44404602 50.08360291 C-15.1273164 48.40619905 -16.80964074 46.7278452 -18.49092102 45.04844666 C-19.27638306 44.27735565 -20.06184509 43.50626465 -20.87110901 42.71180725 C-26.26696419 37.27075855 -31.48917749 31.34879549 -31.47529602 23.22813416 C-31.11466627 15.64327625 -27.46080716 10.31287756 -21.97529602 5.29063416 C-15.50042725 0.09385866 -8.2477669 -3.59769412 0 0 Z " fill="#F6B72C" transform="translate(446.9127960205078,392.83436584472656)"/>
<path d="M0 0 C6.11724456 -0.78426212 10.07388524 1.70553654 15 5 C18.26057672 7.725826 21.24594307 10.68410024 24.234375 13.703125 C25.07542786 14.54035095 25.91648071 15.3775769 26.78302002 16.24017334 C28.54922909 18.00367419 30.31045223 19.77218142 32.06689453 21.54541016 C34.74212328 24.24206021 37.43802619 26.91669862 40.13671875 29.58984375 C41.85805473 31.31382319 43.57814935 33.03904317 45.296875 34.765625 C46.09591248 35.55656555 46.89494995 36.3475061 47.71820068 37.16241455 C53.43128972 42.97137261 58.98659092 49.10555365 59.5625 57.5625 C58.97669692 66.0127094 54.26826414 71.42450131 48.29296875 77.078125 C43.51184513 81.08547223 38.72051719 82.7030648 32.44276428 82.39179993 C24.8638774 81.17620686 18.98603908 75.55905766 13.84765625 70.23828125 C12.90834511 69.29048042 12.90834511 69.29048042 11.95005798 68.3235321 C9.97782386 66.32915936 8.02005551 64.32127132 6.0625 62.3125 C4.72424799 60.95415071 3.38506262 59.59672029 2.04492188 58.24023438 C-0.39374415 55.76904387 -2.82725082 53.29303884 -5.25366211 50.80981445 C-6.82809036 49.19899618 -8.40727281 47.59272719 -10 46 C-9.70800781 43.48486328 -9.70800781 43.48486328 -8.953125 40.3203125 C-8.685 39.16273438 -8.416875 38.00515625 -8.140625 36.8125 C-7.84671875 35.595625 -7.5528125 34.37875 -7.25 33.125 C-5.39821539 25.28920772 -3.65041977 17.50597968 -2.43310547 9.54345703 C-1.87378417 6.25878438 -1.00938731 3.17236011 0 0 Z " fill="#F6B72C" transform="translate(390,441)"/>
<path d="M0 0 C3.78416844 -0.49663837 6.57438238 -0.6117689 9.75292969 1.75 C15.95239514 7.38250896 23.04556648 14.97381867 24.7421875 23.38671875 C24.7320977 30.17715438 23.53587329 34.35486753 19.17578125 39.578125 C18.66789063 40.2071875 18.16 40.83625 17.63671875 41.484375 C12.41580113 47.32388475 6.25287856 50.01576675 -1.44921875 51.078125 C-15.89962579 48.93732396 -27.56435635 32.98166151 -37.44921875 23.015625 C-38.53361384 21.92619302 -39.61824848 20.83699943 -40.703125 19.74804688 C-43.41273806 17.02729985 -46.11863467 14.30287879 -48.82421875 11.578125 C-49.48421875 10.918125 -50.14421875 10.258125 -50.82421875 9.578125 C-39.85129393 7.04986045 -28.88047479 4.7416378 -17.77001953 2.90283203 C-15.9307576 2.59590375 -14.09417448 2.273046 -12.2578125 1.94921875 C-8.17290121 1.2595584 -4.0582713 0.8307388 0 0 Z " fill="#F6B72D" transform="translate(718.82421875,178.421875)"/>
<path d="M0 0 C5.15067785 2.26598244 8.58149593 6.25236391 12.5 10.1875 C13.25925781 10.93064453 14.01851563 11.67378906 14.80078125 12.43945312 C20.75978246 18.3932363 25.559321 23.50833473 25.625 32.375 C25.3676428 40.10459027 22.51211475 44.4262692 17.21875 49.8125 C12.35314211 54.25130018 7.92361065 56.28813934 1.25 56.5 C0.28578125 56.5515625 -0.6784375 56.603125 -1.671875 56.65625 C-11.82583078 54.65406154 -19.11888347 45.24174418 -26.0625 38.125 C-27.12884704 37.04357003 -28.19589971 35.96283537 -29.26367188 34.8828125 C-31.85062164 32.26316393 -34.42793248 29.63427181 -37 27 C-34.24033068 24.1705821 -31.56217906 21.5049342 -28.3203125 19.23828125 C-27.30795532 18.52623535 -27.30795532 18.52623535 -26.27514648 17.79980469 C-25.56559814 17.30899414 -24.8560498 16.81818359 -24.125 16.3125 C-23.01910522 15.5395459 -23.01910522 15.5395459 -21.89086914 14.75097656 C-14.66797755 9.72326995 -7.3516354 4.83688384 0 0 Z " fill="#F6B72C" transform="translate(456,270)"/>
<path d="M0 0 C4.00213136 1.61144082 6.72417207 4.41807733 9.71875 7.41796875 C10.25850464 7.95343826 10.79825928 8.48890778 11.35437012 9.04060364 C12.49318579 10.17368736 13.62940466 11.30938623 14.76318359 12.44750977 C16.48544615 14.17291956 18.22055636 15.88461241 19.95703125 17.59570312 C21.06591541 18.70231268 22.17401398 19.80971012 23.28125 20.91796875 C23.79490112 21.42241013 24.30855225 21.9268515 24.83776855 22.44657898 C29.53306448 27.20189062 33.56232648 32.41823964 33.625 39.375 C33.34647231 46.88493178 29.35991462 51.33753222 24.5625 56.75 C23.716875 57.4925 22.87125 58.235 22 59 C21.52304687 59.46535156 21.04609375 59.93070312 20.5546875 60.41015625 C15.96098545 64.39358387 11.81249083 64.53051939 5.8671875 64.46875 C2.50477876 63.9190374 0.69511043 63.08439712 -2 61 C-2.62768555 58.42236328 -2.62768555 58.42236328 -2.63671875 55.3203125 C-2.65541016 54.17328857 -2.67410156 53.02626465 -2.69335938 51.84448242 C-2.69142578 50.61705322 -2.68949219 49.38962402 -2.6875 48.125 C-2.72806585 45.58194645 -2.7736884 43.03896882 -2.82421875 40.49609375 C-2.84661621 39.2313623 -2.86901367 37.96663086 -2.89208984 36.66357422 C-3.04477379 31.47991972 -3.47261235 26.34490973 -4 21.1875 C-4.08338623 20.35428223 -4.16677246 19.52106445 -4.25268555 18.66259766 C-4.62520385 15.09333538 -5.06910115 11.63966103 -5.74609375 8.109375 C-6 5 -6 5 -4.78515625 3.22265625 C-3.19010417 2.1484375 -1.59505208 1.07421875 0 0 Z " fill="#F6B72C" transform="translate(399,311)"/>
<path d="M0 0 C2.60769807 1.30384904 2.75205294 2.3654451 4 5 C4.70125 6.010625 5.4025 7.02125 6.125 8.0625 C8.84241493 12.84104851 8.87213804 17.65911928 8 23 C5.11665354 30.49404334 -1.58929735 36.97884287 -8.375 41 C-13.84274806 42.50834429 -18.84106414 43.31807711 -24.21875 41.07421875 C-31.33549268 36.70361047 -37.48847782 30.22960544 -43 24 C-43 23.34 -43 22.68 -43 22 C-7.47378208 2.71773894 -7.47378208 2.71773894 0 0 Z " fill="#F5B62C" transform="translate(522,235)"/>
</svg>
