<?xml version="1.0" encoding="UTF-8"?>
<svg version="1.1" xmlns="http://www.w3.org/2000/svg" width="1000" height="1000">
<path d="M0 0 C330 0 660 0 1000 0 C1000 330 1000 660 1000 1000 C670 1000 340 1000 0 1000 C0 670 0 340 0 0 Z " fill="#E3EEE5" transform="translate(0,0)"/>
<path d="M0 0 C1.22762881 1.04014575 2.4369266 2.10239296 3.625 3.1875 C4.20507812 3.66574219 4.78515625 4.14398438 5.3828125 4.63671875 C18.92830452 16.69402891 24.97454645 37.74839919 26.625 55.1875 C26.75505086 58.11701666 26.76557365 61.04058103 26.7578125 63.97265625 C26.75876923 64.79140732 26.75972595 65.61015839 26.76071167 66.45372009 C26.76138834 68.17902707 26.75957009 69.90433667 26.75537109 71.62963867 C26.75006426 74.21864824 26.75530849 76.80748046 26.76171875 79.39648438 C26.76529944 89.37121146 26.45096249 99.24490592 25.625 109.1875 C26.25365967 109.47359131 26.88231934 109.75968262 27.5300293 110.05444336 C44.12780875 117.65878593 58.33376826 125.46916618 71.625 138.1875 C72.65367187 139.12142578 72.65367187 139.12142578 73.703125 140.07421875 C81.96275542 147.8298166 87.8680747 157.26966124 92.9375 167.3125 C93.40736328 168.24255859 93.40736328 168.24255859 93.88671875 169.19140625 C105.78548825 193.64998799 110.37333929 225.59420907 103.625 252.1875 C101.2324629 258.65966225 97.94092769 263.02953615 91.625 266.1875 C89.2920134 266.22772391 86.95793334 266.23070247 84.625 266.1875 C84.57601562 267.09886719 84.52703125 268.01023437 84.4765625 268.94921875 C84.01313407 276.97931486 83.42399142 284.99011529 82.6875 293 C82.61289551 293.8458667 82.53829102 294.6917334 82.46142578 295.56323242 C81.96445046 300.80586472 81.18911383 305.93617475 80.20727539 311.10913086 C79.53784027 314.64829542 78.9149317 318.19437689 78.29296875 321.7421875 C73.97503358 346.1858632 68.51986224 369.61330603 60.625 393.1875 C60.27421387 394.25162109 59.92342773 395.31574219 59.56201172 396.41210938 C49.39971136 427.19228803 36.65630068 457.51952451 19.625 485.1875 C19.12919434 485.99606445 18.63338867 486.80462891 18.12255859 487.63769531 C10.53036634 499.95091519 2.5718742 511.81871202 -6.375 523.1875 C-7.10332031 524.11691406 -7.83164062 525.04632812 -8.58203125 526.00390625 C-10.49439745 528.41416661 -12.43213239 530.8018022 -14.375 533.1875 C-15.36306641 534.43660156 -15.36306641 534.43660156 -16.37109375 535.7109375 C-25.72168011 547.41203823 -36.19160578 558.08328983 -46.75 568.6875 C-47.48661865 569.4287915 -48.2232373 570.17008301 -48.98217773 570.93383789 C-53.61768475 575.55576177 -58.40119935 579.93343601 -63.375 584.1875 C-64.39601763 585.07661132 -65.41686497 585.96591826 -66.4375 586.85546875 C-74.80173437 594.02957935 -83.47184869 600.69723477 -92.375 607.1875 C-93.04515137 607.67863281 -93.71530273 608.16976562 -94.40576172 608.67578125 C-128.7275829 633.73327266 -166.1770151 652.377947 -206.30737305 666.12109375 C-209.28910809 667.1576412 -212.24809154 668.24407034 -215.20703125 669.34375 C-219.46373574 670.90004739 -223.65387063 672.13804944 -228.0625 673.1875 C-229.4558377 673.52168321 -230.84906407 673.85633092 -232.2421875 674.19140625 C-232.93538086 674.35656738 -233.62857422 674.52172852 -234.34277344 674.69189453 C-236.23733611 675.15392748 -238.123066 675.65177129 -240.0078125 676.15234375 C-258.07928667 680.92919839 -276.54332111 683.95035143 -295.0625 686.375 C-296.82025757 686.60703125 -296.82025757 686.60703125 -298.61352539 686.84375 C-302.52992385 687.33439977 -306.45004842 687.77251345 -310.375 688.1875 C-311.18477295 688.27610291 -311.9945459 688.36470581 -312.82885742 688.45599365 C-330.03578663 690.28817597 -347.17579915 690.50073585 -364.45703125 690.44824219 C-368.2462854 690.43682785 -372.0352592 690.44364366 -375.8245039 690.45511913 C-392.42712025 690.49783545 -408.87411618 690.25858502 -425.375 688.1875 C-426.58091797 688.03619629 -427.78683594 687.88489258 -429.02929688 687.72900391 C-431.96688744 687.32292521 -434.88842103 686.86832621 -437.8125 686.375 C-438.84777832 686.20250732 -439.88305664 686.03001465 -440.94970703 685.85229492 C-444.09508309 685.31578705 -447.23557869 684.75775913 -450.375 684.1875 C-451.33519043 684.01379883 -452.29538086 683.84009766 -453.28466797 683.66113281 C-483.01362161 678.12373776 -512.61179908 667.87108418 -537.375 650.1875 C-538.19701904 649.61032227 -538.19701904 649.61032227 -539.03564453 649.02148438 C-555.1991644 637.58772387 -570.54010408 621.33038766 -574.375 601.1875 C-575.59856789 586.56486077 -570.69082208 574.23721755 -561.49609375 562.86328125 C-552.25992616 553.06734593 -540.25914269 547.36404337 -526.81640625 546.91015625 C-519.30770876 546.81190821 -511.84247327 546.89779353 -504.37109375 547.69140625 C-495.95896792 548.50912713 -487.50674202 548.4308721 -479.0625 548.4375 C-478.17204987 548.43850708 -477.28159973 548.43951416 -476.36416626 548.44055176 C-462.80601429 548.43018678 -449.710006 547.80430811 -436.375 545.1875 C-434.81122854 544.90607977 -433.2474264 544.62482997 -431.68359375 544.34375 C-386.8379671 535.89870334 -344.9680133 516.17262326 -308.375 489.1875 C-307.34632813 488.44242188 -306.31765625 487.69734375 -305.2578125 486.9296875 C-291.41310497 476.76189416 -278.50035653 465.60293081 -266.06347656 453.77441406 C-263.54286086 451.40541434 -260.95766697 449.11367738 -258.375 446.8125 C-254.69113564 443.48128834 -251.37660973 440.04792789 -248.18359375 436.25 C-246.01846328 433.78090953 -243.71272616 431.49358776 -241.375 429.1875 C-237.15919089 425.00978555 -233.20198002 420.72074671 -229.375 416.1875 C-228.65054687 415.3521875 -227.92609375 414.516875 -227.1796875 413.65625 C-181.82306553 360.57004294 -158.18975691 294.62879613 -146.0625 226.8125 C-145.89119568 225.85504883 -145.71989136 224.89759766 -145.543396 223.91113281 C-143.676548 213.40568326 -141.98077763 202.92165681 -140.78051758 192.31787109 C-140.46119398 189.85286981 -140.05571777 187.57131056 -139.375 185.1875 C-140.344375 185.27 -141.31375 185.3525 -142.3125 185.4375 C-148.52408981 185.42490043 -153.67238671 182.63653259 -158.3125 178.6875 C-163.51211968 172.38493069 -163.04268833 166.11524246 -162.375 158.1875 C-158.19933156 139.13444998 -142.41097324 124.98560896 -126.6875 114.82421875 C-107.39649123 102.82082536 -85.44041388 92.97958152 -62.375 92.1875 C-61.74980469 92.15640137 -61.12460937 92.12530273 -60.48046875 92.09326172 C-44.52951529 91.36788701 -29.08845495 93.7267507 -13.375 96.1875 C-13.6060341 93.22661555 -13.85932754 90.27032005 -14.125 87.3125 C-14.2178125 86.07886719 -14.2178125 86.07886719 -14.3125 84.8203125 C-15.26884274 74.6193233 -19.67179861 66.11617874 -24.5625 57.25 C-25.28215942 55.94349487 -25.28215942 55.94349487 -26.01635742 54.6105957 C-29.85389449 47.8020622 -34.11071001 41.98029155 -39.375 36.1875 C-40.39764393 34.93898084 -41.41866696 33.68913091 -42.4375 32.4375 C-45.1330827 29.31121813 -48.15528462 26.68533153 -51.2890625 24.0078125 C-65.06490207 11.9861997 -65.06490207 11.9861997 -65.625 5.125 C-63.72347058 0.65640586 -60.71355397 -0.86810819 -56.375 -2.8125 C-39.37033558 -8.67533852 -15.42876103 -10.92016672 0 0 Z " fill="#D92F47" transform="translate(728.375,124.8125)"/>
<path d="M0 0 C1.22762881 1.04014575 2.4369266 2.10239296 3.625 3.1875 C4.20507812 3.66574219 4.78515625 4.14398438 5.3828125 4.63671875 C18.92830452 16.69402891 24.97454645 37.74839919 26.625 55.1875 C26.75505086 58.11701666 26.76557365 61.04058103 26.7578125 63.97265625 C26.75876923 64.79140732 26.75972595 65.61015839 26.76071167 66.45372009 C26.76138834 68.17902707 26.75957009 69.90433667 26.75537109 71.62963867 C26.75006426 74.21864824 26.75530849 76.80748046 26.76171875 79.39648438 C26.76529944 89.37121146 26.45096249 99.24490592 25.625 109.1875 C26.25365967 109.47359131 26.88231934 109.75968262 27.5300293 110.05444336 C44.12780875 117.65878593 58.33376826 125.46916618 71.625 138.1875 C72.31078125 138.81011719 72.9965625 139.43273437 73.703125 140.07421875 C81.96275542 147.8298166 87.8680747 157.26966124 92.9375 167.3125 C93.25074219 167.93253906 93.56398438 168.55257812 93.88671875 169.19140625 C105.78548825 193.64998799 110.37333929 225.59420907 103.625 252.1875 C101.2324629 258.65966225 97.94092769 263.02953615 91.625 266.1875 C74.2368482 268.02895358 59.52725804 256.57565092 46.625 246.1875 C36.92808845 238.0443139 29.68735578 229.71126812 23.2265625 218.84765625 C21.8693626 216.35150587 21.8693626 216.35150587 20.625 215.1875 C8.26421746 213.53625042 -2.18778749 219.35759708 -12.81640625 224.953125 C-19.51935873 228.18691582 -25.87519371 227.90408378 -32.8125 225.5625 C-46.83620178 220.0110484 -55.7422622 209.91007711 -63.4296875 197.32421875 C-65.25452648 194.26648154 -65.25452648 194.26648154 -67.1328125 191.89453125 C-68.375 190.1875 -68.375 190.1875 -68.375 188.1875 C-70.03484798 187.50403318 -71.70336805 186.84161685 -73.375 186.1875 C-74.23480469 185.83945312 -75.09460938 185.49140625 -75.98046875 185.1328125 C-80.26081882 183.94081628 -84.14358787 183.89511235 -88.5625 183.9375 C-89.34947266 183.92976562 -90.13644531 183.92203125 -90.94726562 183.9140625 C-95.28516489 183.92813517 -99.29340992 184.30703173 -103.54296875 185.1875 C-110.51436116 186.55571148 -117.41782243 186.47969768 -124.5 186.4375 C-125.80582031 186.44523438 -127.11164062 186.45296875 -128.45703125 186.4609375 C-138.98185914 186.43965372 -149.85036435 185.97551756 -158.1875 178.75 C-162.83102316 173.3104443 -162.80740302 168.88684233 -162.68359375 161.8515625 C-161.33966617 145.8945489 -150.04153675 133.19226058 -138.375 123.1875 C-117.38393117 106.3203697 -89.62327416 93.1232237 -62.375 92.1875 C-61.74980469 92.15640137 -61.12460937 92.12530273 -60.48046875 92.09326172 C-44.52951529 91.36788701 -29.08845495 93.7267507 -13.375 96.1875 C-13.6060341 93.22661555 -13.85932754 90.27032005 -14.125 87.3125 C-14.186875 86.49007812 -14.24875 85.66765625 -14.3125 84.8203125 C-15.26884274 74.6193233 -19.67179861 66.11617874 -24.5625 57.25 C-25.04227295 56.37899658 -25.5220459 55.50799316 -26.01635742 54.6105957 C-29.85389449 47.8020622 -34.11071001 41.98029155 -39.375 36.1875 C-40.39764393 34.93898084 -41.41866696 33.68913091 -42.4375 32.4375 C-45.1330827 29.31121813 -48.15528462 26.68533153 -51.2890625 24.0078125 C-65.06490207 11.9861997 -65.06490207 11.9861997 -65.625 5.125 C-63.72347058 0.65640586 -60.71355397 -0.86810819 -56.375 -2.8125 C-39.37033558 -8.67533852 -15.42876103 -10.92016672 0 0 Z " fill="#77B255" transform="translate(728.375,124.8125)"/>
</svg>
