<?xml version="1.0" encoding="UTF-8"?>
<svg version="1.1" xmlns="http://www.w3.org/2000/svg" width="1000" height="1000">
<path d="M0 0 C330 0 660 0 1000 0 C1000 330 1000 660 1000 1000 C670 1000 340 1000 0 1000 C0 670 0 340 0 0 Z " fill="#E3EEE5" transform="translate(0,0)"/>
<path d="M0 0 C0.80050781 0.37898438 1.60101562 0.75796875 2.42578125 1.1484375 C13.29658955 6.99804818 22.4748324 16.44341812 27 28 C27.64694201 30.76261723 27.8924492 33.14990378 28 36 C28.88042969 35.65066406 29.76085937 35.30132812 30.66796875 34.94140625 C32.41013672 34.25884766 32.41013672 34.25884766 34.1875 33.5625 C35.33605469 33.11003906 36.48460937 32.65757812 37.66796875 32.19140625 C48.71518448 28.2413467 59.27983433 29.52786317 70 34 C74.66629823 36.55820257 79.22175734 39.22175734 83 43 C86.29287339 42.65373909 88.18448633 41.26022621 90.6875 39.1875 C102.07428562 30.33347604 114.13880263 30.21507481 128 31 C139.75754595 32.70023336 149.507706 40.10110674 157 49 C161.25517463 54.90893245 164.10268356 60.98402409 166 68 C166.18820312 68.62648438 166.37640625 69.25296875 166.5703125 69.8984375 C167.11284328 72.55190622 167.09471446 75.04398532 167.0625 77.75 C167.05347656 78.73484375 167.04445313 79.7196875 167.03515625 80.734375 C167.01775391 81.85585937 167.01775391 81.85585937 167 83 C168.8253125 82.9071875 168.8253125 82.9071875 170.6875 82.8125 C184.21844182 82.8763252 195.31278062 87.98624166 205.18359375 97.01953125 C211.00156705 103.36299891 216 112.28970101 216 121 C216.73605469 120.72285156 217.47210937 120.44570312 218.23046875 120.16015625 C219.20628906 119.79792969 220.18210937 119.43570313 221.1875 119.0625 C222.15042969 118.70285156 223.11335937 118.34320313 224.10546875 117.97265625 C235.0391774 114.29857602 246.49272231 114.80151697 257.00390625 119.39453125 C268.98616523 125.81527237 278.92846764 136.3720881 284 149 C284.36738281 149.89460937 284.73476563 150.78921875 285.11328125 151.7109375 C286.26830326 155.99520415 286.2916564 159.95942125 286.25 164.375 C286.25773438 165.18710937 286.26546875 165.99921875 286.2734375 166.8359375 C286.2332103 179.38682447 281.41972353 190.67585604 273 200 C269.41496599 203 269.41496599 203 267 203 C267 203.66 267 204.32 267 205 C267.969375 205.061875 268.93875 205.12375 269.9375 205.1875 C280.49504419 206.74133211 288.96255522 215.08574602 295.1875 223.1875 C303.12221068 234.73743389 305.67013839 245.16775081 304 259 C303.08385096 263.80411725 301.65676991 268.39950499 300 273 C300.84949219 273.10183594 301.69898438 273.20367187 302.57421875 273.30859375 C313.66763688 275.54751622 324.4522557 282.64561756 330.99609375 291.7890625 C338.5453239 303.93688815 340.86464379 316.45713019 338.375 330.625 C336.12215834 339.18899383 331.37251501 347.04733352 326 354 C326.56267578 354.69222656 326.56267578 354.69222656 327.13671875 355.3984375 C337.08153299 368.07369192 340.60149806 381.01304557 339 397 C336.75852598 407.91445019 331.0635408 419.22138545 322 426 C319.50842709 427.57524768 316.96176667 429.02483538 314.375 430.4375 C313.72926025 430.79215332 313.08352051 431.14680664 312.41821289 431.51220703 C308.81223684 433.38465691 306.07869479 434.44537472 302 434 C301.85304688 434.60585938 301.70609375 435.21171875 301.5546875 435.8359375 C298.7083386 446.46885007 293.11513316 457.21403116 283.32177734 462.98974609 C280.28512385 464.62362834 277.20206226 466.10066295 274.07421875 467.5546875 C270.92725971 468.94161782 270.92725971 468.94161782 268 471 C268.49628906 471.37769531 268.99257813 471.75539063 269.50390625 472.14453125 C278.32172713 479.28914133 284.86023283 489.04581986 286.31567383 500.47998047 C286.47254997 503.07857001 286.51893662 505.64681347 286.5 508.25 C286.49427979 509.1687793 286.48855957 510.08755859 286.48266602 511.03417969 C286.16993905 523.01678183 282.09865394 532.11760536 274 541 C273.43152344 541.63679687 272.86304688 542.27359375 272.27734375 542.9296875 C264.64233998 551.03427009 254.81809324 556.4402956 243.5625 557.24609375 C240.69578322 557.24947431 237.86039125 557.18257817 235 557 C235.10441406 558.27230469 235.10441406 558.27230469 235.2109375 559.5703125 C235.77015015 571.68658664 232.66917319 581.22729848 224.5625 590.5 C223.06582921 592.02410976 221.54676811 593.52675784 220 595 C219.4121875 595.58394531 218.824375 596.16789063 218.21875 596.76953125 C207.71767517 606.55237219 194.78105297 608.7119389 180.8984375 608.30859375 C168.59236906 607.33446609 157.19170587 600.13724169 148.78515625 591.31640625 C145.4203649 586.95027655 143.2454035 582.00567659 141 577 C140.34042542 575.66314414 139.67676735 574.32823499 139 573 C138.63390625 573.49628906 138.2678125 573.99257813 137.890625 574.50390625 C131.42760636 582.61345582 121.91239318 588.71992719 111.625 590.625 C95.00823352 592.35919764 81.67829472 590.69985802 68.25 580.3125 C60.00507441 572.69876489 53.61153952 560.45607798 52.6953125 549.28515625 C52.68855121 546.1715809 52.77136183 543.10439826 53 540 C52.14019531 540.05800781 51.28039062 540.11601563 50.39453125 540.17578125 C37.69418374 540.66052734 27.59240809 537.36018176 18 529 C17.30596069 528.24698608 17.30596069 528.24698608 16.59790039 527.47875977 C13.15472465 524.01518908 10.80588537 522.60387235 5.85546875 522.51953125 C3.96481733 522.58672513 2.07505184 522.6851192 0.1875 522.8125 C-13.66988535 523.58713645 -23.74089173 519.88574787 -34.625 511.25 C-35.40875 510.5075 -36.1925 509.765 -37 509 C-37 508.34 -37 507.68 -37 507 C-63.9405606 521.14371546 -88.54305518 536.56551424 -111.47851562 556.68530273 C-113.03116288 558.02692749 -114.61143081 559.32916184 -116.19921875 560.62890625 C-118.40347298 562.49499037 -120.27207061 564.24537315 -122.125 566.4375 C-124.27482345 568.97391451 -126.4355831 571.48554704 -128.65625 573.9609375 C-160.86184254 610.09021861 -184.15833598 657.76001271 -194 705 C-198.79814896 703.53904892 -203.1130312 701.58212936 -207.5625 699.3125 C-208.26648926 698.95510742 -208.97047852 698.59771484 -209.69580078 698.22949219 C-211.12840204 697.49942589 -212.55973459 696.76686431 -213.98974609 696.03173828 C-215.75551944 695.12547666 -217.52766276 694.23164891 -219.30078125 693.33984375 C-240.52633342 682.36296988 -259.93405912 667.2900638 -277.53515625 651.24609375 C-279.17892647 649.74820488 -280.83265156 648.26116833 -282.49609375 646.78515625 C-290.43022914 639.74221859 -298.09248767 632.43715147 -304.98046875 624.35546875 C-306.58700802 622.48169084 -308.21521063 620.63759888 -309.86328125 618.80078125 C-324.63079832 602.2398398 -336.15404943 584.32271941 -347 565 C-347.50257324 564.10522949 -348.00514648 563.21045898 -348.52294922 562.28857422 C-350.66810954 558.45953933 -352.80042911 554.62386795 -354.9140625 550.77734375 C-356.90212004 547.16108754 -358.94358299 543.5777934 -361 540 C-357.04890621 538.32059771 -353.07310297 537.14433775 -348.9375 536 C-308.27472377 524.27044037 -271.12753334 506.30463463 -238 480 C-236.60007812 478.89205078 -236.60007812 478.89205078 -235.171875 477.76171875 C-205.33549849 453.76474736 -184.72325018 426.17865417 -168.125 392 C-167.79408356 391.3197879 -167.46316711 390.63957581 -167.1222229 389.93875122 C-163.78610692 383.06348557 -160.49229592 376.2368889 -158 369 C-158.9075 369.0825 -159.815 369.165 -160.75 369.25 C-170.858108 369.18873874 -179.30579135 364.04742659 -187 358 C-188.546875 356.88625 -188.546875 356.88625 -190.125 355.75 C-199.50307386 346.77966848 -206.14402837 335.69710966 -206.5625 322.5625 C-206.32112988 315.23842538 -204.54627953 308.83098283 -202 302 C-201.67 301.01 -201.34 300.02 -201 299 C-201.78375 298.938125 -202.5675 298.87625 -203.375 298.8125 C-216.088883 295.96283657 -225.63352521 287.46260364 -233.05078125 277.1328125 C-240.09599918 265.80963659 -241.54880343 252.23062818 -239.57421875 239.1875 C-237.07126175 229.60562782 -230.86105719 220.07728168 -223 214 C-222.34 214 -221.68 214 -221 214 C-221 213.34 -221 212.68 -221 212 C-221.71800781 211.8865625 -222.43601562 211.773125 -223.17578125 211.65625 C-233.31004304 209.30140079 -242.83142452 201.75157883 -248.8515625 193.4453125 C-256.51355922 181.02759368 -258.76861904 168.45105889 -256.5390625 154.015625 C-252.6606685 139.68838128 -242.84347154 129.32750045 -230.46875 121.85546875 C-226.22294163 119.58434378 -222.75420775 118.57378369 -218 118 C-218.3609375 117.11441406 -218.721875 116.22882813 -219.09375 115.31640625 C-223.45648501 103.94657193 -225.9061049 90.72229054 -221.02734375 79.03125 C-220.68832031 78.3609375 -220.34929687 77.690625 -220 77 C-219.60941406 76.2059375 -219.21882812 75.411875 -218.81640625 74.59375 C-212.36993541 62.76000183 -202.12736909 53.817019 -189.5 49.125 C-177.39244613 45.9166892 -162.18907789 46.77443581 -151.0703125 52.51171875 C-145.46135548 55.89381343 -140.04118247 59.77266841 -136 65 C-136 65.66 -136 66.32 -136 67 C-135.34 67 -134.68 67 -134 67 C-133.95875 66.05125 -133.9175 65.1025 -133.875 64.125 C-133.09344413 58.68713239 -130.04706105 54.45506319 -127 50 C-126.36964844 49.06994141 -126.36964844 49.06994141 -125.7265625 48.12109375 C-118.00051329 38.03040524 -105.56030778 31.51516799 -93.21484375 29.55859375 C-83.62176865 28.9384087 -74.83844031 32.70031562 -66 36 C-65.85304688 35.05640625 -65.85304688 35.05640625 -65.703125 34.09375 C-63.36669245 20.71968783 -56.1764784 11.10359375 -45.046875 3.24609375 C-32.3704455 -4.47104558 -13.64357089 -6.51113948 0 0 Z " fill="#3E721D" transform="translate(511,121)"/>
<path d="M0 0 C0.40089844 1.03898437 0.80179688 2.07796875 1.21484375 3.1484375 C6.21997522 15.62382505 12.68390927 25.63303872 25 32 C28.61830273 33.50175989 32.26702603 34.81382135 36 36 C36 38 36 38 33.875 40.1875 C33.41738281 40.63480469 32.95976562 41.08210937 32.48828125 41.54296875 C31.99714844 42.02378906 31.50601562 42.50460937 31 43 C30.51917969 43.47050781 30.03835938 43.94101562 29.54296875 44.42578125 C22.89854163 51.49096365 18.12516691 61.21909974 18 71 C17.93941406 71.96292969 17.87882813 72.92585937 17.81640625 73.91796875 C17.30989334 86.76497795 20.97609784 97.92418393 29 108 C37.40563918 116.93447078 46.77324221 123.3744571 59.2265625 124.21875 C67.00005267 124.4219785 73.6561436 123.50150109 81 121 C82.093125 120.63648438 83.18625 120.27296875 84.3125 119.8984375 C85.199375 119.60195313 86.08625 119.30546875 87 119 C87.43699219 120.46759766 87.43699219 120.46759766 87.8828125 121.96484375 C90.2988369 129.78773316 92.85991739 136.48216329 98 143 C96.39898437 143.87398437 96.39898437 143.87398437 94.765625 144.765625 C77.95906889 153.98975938 61.30167828 163.40317578 46 175 C45.42588379 175.43135254 44.85176758 175.86270508 44.26025391 176.30712891 C33.45371387 184.46340147 23.55602063 193.41185829 14 203 C13.46117187 203.50402344 12.92234375 204.00804687 12.3671875 204.52734375 C-23.54245185 238.46289298 -48.12197992 293.58550362 -58 341 C-62.79814896 339.53904892 -67.1130312 337.58212936 -71.5625 335.3125 C-72.26648926 334.95510742 -72.97047852 334.59771484 -73.69580078 334.22949219 C-75.12840204 333.49942589 -76.55973459 332.76686431 -77.98974609 332.03173828 C-79.75551944 331.12547666 -81.52766276 330.23164891 -83.30078125 329.33984375 C-104.52633342 318.36296988 -123.93405912 303.2900638 -141.53515625 287.24609375 C-143.17892647 285.74820488 -144.83265156 284.26116833 -146.49609375 282.78515625 C-154.43022914 275.74221859 -162.09248767 268.43715147 -168.98046875 260.35546875 C-170.58700802 258.48169084 -172.21521063 256.63759888 -173.86328125 254.80078125 C-188.63079832 238.2398398 -200.15404943 220.32271941 -211 201 C-211.50257324 200.10522949 -212.00514648 199.21045898 -212.52294922 198.28857422 C-214.66810954 194.45953933 -216.80042911 190.62386795 -218.9140625 186.77734375 C-220.90212004 183.16108754 -222.94358299 179.5777934 -225 176 C-221.04890621 174.32059771 -217.07310297 173.14433775 -212.9375 172 C-172.27472377 160.27044037 -135.12753334 142.30463463 -102 116 C-101.06671875 115.26136719 -100.1334375 114.52273438 -99.171875 113.76171875 C-69.33549849 89.76474736 -48.72325018 62.17865417 -32.125 28 C-31.79408356 27.3197879 -31.46316711 26.63957581 -31.1222229 25.93875122 C-27.78610692 19.06348557 -24.49229592 12.2368889 -22 5 C-24.31 5 -26.62 5 -29 5 C-29 4.67 -29 4.34 -29 4 C-28.21238281 4.04640625 -27.42476562 4.0928125 -26.61328125 4.140625 C-18.99170572 4.39317425 -12.87164942 3.40713329 -5.6796875 0.875 C-3 0 -3 0 0 0 Z " fill="#77B255" transform="translate(375,485)"/>
<path d="M0 0 C0.75990234 -0.01160156 1.51980469 -0.02320313 2.30273438 -0.03515625 C11.3999551 0.01145632 17.46365052 3.01408917 24.07421875 9.16796875 C26.92662441 12.33419507 28.44857945 15.4454543 30.0625 19.375 C30.536875 18.22 31.01125 17.065 31.5 15.875 C35.34696635 8.19470902 42.04081902 3.14052241 50.0625 0.375 C53.03424673 -0.04578746 55.9393064 -0.10264027 58.9375 -0.0625 C59.73397949 -0.05420166 60.53045898 -0.04590332 61.35107422 -0.03735352 C70.50778833 0.22622328 76.57176594 3.1434924 83.26953125 9.38671875 C88.02417024 14.65929227 90.68067605 20.24761963 91.0625 27.375 C91.124375 28.06207031 91.18625 28.74914062 91.25 29.45703125 C91.60561302 35.80250111 89.72680338 40.67767268 87.0625 46.375 C88.20525391 46.80232422 88.20525391 46.80232422 89.37109375 47.23828125 C95.91030728 50.00012615 98.95058346 54.27085602 102.0625 60.375 C103.25875 60.045 104.455 59.715 105.6875 59.375 C115.85390579 57.16560788 125.86073212 57.19474549 135.0625 62.375 C142.14755559 67.14378742 146.81252317 74.18303891 149.0625 82.375 C150.32382274 92.39281331 148.70966654 100.00375973 143.0625 108.375 C138.44010831 114.21103335 132.51729923 118.9317085 125.0625 120.375 C114.92898869 121.40663324 107.60141539 119.99622957 99.0625 114.375 C94.91978283 110.93742618 92.09139562 106.78853361 89.0625 102.375 C87.86625 102.705 86.67 103.035 85.4375 103.375 C81.90458503 104.26765823 78.72170891 104.55796045 75.0625 104.375 C75.000625 105.65375 74.93875 106.9325 74.875 108.25 C73.85161192 117.04560563 69.83907097 123.49663033 62.984375 128.97265625 C54.83534696 134.91879663 46.94218086 135.37658182 37.0625 134.375 C29.02351581 131.87664597 22.62496763 127.49298469 18.0625 120.375 C14.0097386 112.35987336 12.56690059 102.59555042 14.67578125 93.82421875 C17.65760512 85.37790709 23.17833959 78.65931868 31.0625 74.375 C35.22980297 72.69034561 38.57482782 72.16130132 43.0625 72.375 C43.02125 71.364375 42.98 70.35375 42.9375 69.3125 C43.06823843 65.19423948 43.79500786 62.25669467 45.0625 58.375 C44.53140625 57.99988281 44.0003125 57.62476563 43.453125 57.23828125 C37.21464188 52.71879622 33.19330875 49.01039803 31.0625 41.375 C30.4025 41.375 29.7425 41.375 29.0625 41.375 C28.7221875 42.674375 28.7221875 42.674375 28.375 44 C25.58510138 51.17402501 20.70052564 54.90542052 14.0625 58.375 C9.89236303 60.12645753 6.57468469 60.58986594 2.0625 60.375 C2.05992187 60.98085937 2.05734375 61.58671875 2.0546875 62.2109375 C1.67227142 70.49661925 -1.08714243 76.65741338 -7.08984375 82.453125 C-15.26864366 89.10801177 -21.51000989 91.09437724 -32.078125 90.84375 C-41.67159062 89.67855175 -48.32059935 84.87313628 -54.31640625 77.5234375 C-57.6108871 73.15725806 -57.6108871 73.15725806 -58.9375 71.375 C-59.26621094 72.01566406 -59.59492187 72.65632813 -59.93359375 73.31640625 C-64.16386371 81.00884837 -69.05677038 86.17388664 -77.125 89.8125 C-80.13511659 90.41452332 -82.87544659 90.52081207 -85.9375 90.375 C-85.96328125 90.931875 -85.9890625 91.48875 -86.015625 92.0625 C-86.60723996 100.02241044 -89.31045189 106.59586951 -94.9375 112.375 C-104.04919722 119.36121527 -111.52353903 121.03294762 -122.9375 120.375 C-131.1811774 119.02357747 -137.50060655 113.68622703 -142.6171875 107.26953125 C-147.92962987 99.64664797 -148.90264959 92.58274893 -147.9375 83.375 C-147.16876427 79.93984948 -146.18523335 76.66515401 -144.9375 73.375 C-145.63875 73.148125 -146.34 72.92125 -147.0625 72.6875 C-155.08601635 69.02459036 -159.53529186 62.28860757 -163.3125 54.5625 C-165.06254511 45.63726994 -164.62471169 37.2965141 -159.9375 29.375 C-154.98324988 22.48344637 -149.32264813 16.59394212 -140.9375 14.375 C-130.80231333 13.24092165 -122.16133719 13.76019792 -113.76171875 19.98828125 C-109.66359994 23.36716897 -106.61646494 26.79843489 -103.9375 31.375 C-102.3596875 30.6325 -102.3596875 30.6325 -100.75 29.875 C-92.93302668 26.96442483 -83.73331662 27.29159694 -75.9921875 30.33984375 C-69.60094058 33.55976853 -65.2223533 37.79124496 -61.1640625 43.640625 C-59.91565603 45.50953464 -59.91565603 45.50953464 -57.9375 47.375 C-57.40962891 46.50488281 -57.40962891 46.50488281 -56.87109375 45.6171875 C-51.52247489 37.15435975 -45.65670465 31.43866234 -35.9375 28.375 C-32.375 28.125 -32.375 28.125 -29.9375 28.375 C-29.9890625 27.50746094 -30.040625 26.63992187 -30.09375 25.74609375 C-29.7495114 18.31914603 -25.41233623 11.27117062 -20 6.3125 C-13.79281382 1.13325548 -7.8338816 -0.11899567 0 0 Z " fill="#5B903A" transform="translate(576.9375,177.625)"/>
<path d="M0 0 C7.42889477 5.21818137 12.66383854 11.11319486 15 20 C16.25623461 29.38214857 14.87693679 37.46288979 9.421875 45.25390625 C5.79300751 49.69191311 2.18064122 52.56205119 -3 55 C-3.66 55 -4.32 55 -5 55 C-4.525625 55.7425 -4.05125 56.485 -3.5625 57.25 C0.19505784 63.8633018 -0.24485221 71.622787 -1 79 C-4.17584955 88.89050289 -9.91841382 96.11070964 -19.0625 100.9375 C-26.71201361 104.08113573 -34.43768981 104.52794351 -42.3125 101.890625 C-50.85563953 97.91806512 -57.33181306 92.84680379 -61 84 C-61.61875 84.97839844 -61.61875 84.97839844 -62.25 85.9765625 C-67.27034839 93.5743219 -73.65373898 100.96601154 -83 103 C-91.52572782 103.83403859 -98.60861353 103.49396297 -106 99 C-106.62390625 98.649375 -107.2478125 98.29875 -107.890625 97.9375 C-114.2915917 93.92993824 -118.77196604 87.16009094 -121 80 C-122.06820107 71.2702571 -122.313726 61.7205753 -117.609375 54.04296875 C-112.77072302 47.90069937 -106.7151977 42.85472036 -99 41 C-88.53791852 39.95054612 -79.13469804 40.3871608 -70.46484375 46.90625 C-66.76881181 50.04582705 -64.11089452 52.62743278 -62 57 C-61.01 57.495 -61.01 57.495 -60 58 C-59.6596875 56.9171875 -59.6596875 56.9171875 -59.3125 55.8125 C-56.57397633 49.944235 -51.26612856 46.47763207 -46 43 C-45.34 43 -44.68 43 -44 43 C-44.4846875 42.02675781 -44.969375 41.05351562 -45.46875 40.05078125 C-47.3026951 35.74814708 -47.539302 31.82366205 -47.5 27.1875 C-47.49355469 26.39432373 -47.48710938 25.60114746 -47.48046875 24.78393555 C-47.20910157 16.06180161 -44.59111802 10.17442659 -38.25 4.125 C-27.94584319 -3.9465895 -11.91047522 -6.9812336 0 0 Z " fill="#5B903A" transform="translate(771,269)"/>
<path d="M0 0 C5.59380986 4.30663211 9.77598935 10.62822575 11.00390625 17.6484375 C12.14360596 34.91208552 12.14360596 34.91208552 7.00390625 41.6484375 C6.50632812 42.33292969 6.00875 43.01742187 5.49609375 43.72265625 C0.75992428 49.6814183 -5.37219507 54.26600704 -12.99609375 55.6484375 C-23.72808566 56.5322486 -31.69002651 55.79199495 -40.2421875 48.81640625 C-46.43781674 43.05276584 -50.4725781 36.50151415 -51.234375 27.984375 C-51.50816677 17.06152444 -48.76781174 9.59052363 -41.21484375 1.62890625 C-28.93747121 -9.32994565 -13.18584249 -8.92818298 0 0 Z " fill="#5B903A" transform="translate(567.99609375,300.3515625)"/>
<path d="M0 0 C8.51757081 4.84287981 14.18525478 10.85903369 17.14453125 20.29296875 C18.84980079 29.04243582 18.12134091 37.72844879 13.5625 45.4375 C8.34719088 52.75277872 3.07269378 56.60076874 -5.4375 59.4375 C-15.19355016 60.21266857 -23.10607325 60.18331155 -31.4375 54.4375 C-32.51 53.715625 -33.5825 52.99375 -34.6875 52.25 C-42.60700543 44.15050581 -44.93596308 36.26068997 -44.84375 25.18359375 C-43.95393594 16.97848144 -39.61800216 9.39114603 -33.4609375 3.90625 C-23.23642005 -3.51540746 -11.65108779 -5.41775582 0 0 Z " fill="#5B903A" transform="translate(796.4375,384.5625)"/>
<path d="M0 0 C9.02028391 5.27908419 15.13796574 11.87414774 18.5625 21.875 C19.77690626 32.14225296 17.33435663 41.4299277 11.37109375 49.83203125 C6.28032758 55.58250794 -0.65777525 59.51119671 -8.29296875 60.24609375 C-18.3855859 60.5353171 -25.83350161 59.84329176 -33.67578125 52.890625 C-40.75840678 45.58788131 -43.60254969 38.50488739 -44 28.375 C-43.76179988 19.9529245 -41.42230751 14.30752864 -35.9375 8 C-35.1125 7.29875 -34.2875 6.5975 -33.4375 5.875 C-32.695 5.194375 -31.9525 4.51375 -31.1875 3.8125 C-21.8319869 -2.77888423 -10.74714442 -5.06229821 0 0 Z " fill="#5B903A" transform="translate(811.4375,458.125)"/>
<path d="M0 0 C8.34506391 5.15188364 15.42585986 12.33267369 18 22 C19.39044618 32.02080177 17.63776743 39.62424397 12 48 C7.1571889 54.24259799 0.81474566 58.48475309 -7 60 C-16.25225746 60.8156902 -23.20594132 60.21524814 -31 55 C-31.58394531 54.61585938 -32.16789063 54.23171875 -32.76953125 53.8359375 C-38.68885895 49.43015941 -42.06605818 42.97752579 -44 36 C-45.00168981 26.51030707 -44.40440075 18.9714911 -39 11 C-38.278125 9.9275 -37.55625 8.855 -36.8125 7.75 C-27.08707116 -1.7593082 -12.89493458 -5.67377122 0 0 Z " fill="#5B903A" transform="translate(664,400)"/>
<path d="M0 0 C0.70253906 0.00829834 1.40507812 0.01659668 2.12890625 0.02514648 C11.06276979 0.31516678 16.8821022 3.5084773 23.33203125 9.5078125 C30.53273619 17.2575908 31.49986016 24.50096483 31.40234375 34.859375 C30.84111649 42.09999714 28.04399756 48.4879693 23.1015625 53.8359375 C15.14987506 60.27900439 6.32229253 62.87897788 -3.70703125 62.78125 C-11.53475243 61.93187951 -18.61476065 57.16740358 -23.875 51.4375 C-30.21100922 43.02880691 -31.86661674 34.88085602 -30.875 24.4375 C-28.67463852 15.7941639 -22.16965725 8.36139365 -14.875 3.4375 C-9.83057903 0.9215172 -5.67922681 -0.08685715 0 0 Z " fill="#5B903A" transform="translate(355.875,191.5625)"/>
<path d="M0 0 C7.97821832 4.6311918 12.6812288 10.87655528 16.59375 19.07421875 C18.48831389 28.03033895 17.86945226 36.32185422 13.28125 44.32421875 C8.12353194 51.58843057 1.94490368 56.96045747 -6.71875 59.32421875 C-14.38656288 59.96113525 -21.99866632 60.43855569 -28.71875 56.32421875 C-29.35941406 55.93363281 -30.00007812 55.54304687 -30.66015625 55.140625 C-37.03676875 50.86938361 -42.27381201 44.65903271 -44.71875 37.32421875 C-45.46879735 27.2842992 -45.66391189 18.89631264 -39.71875 10.32421875 C-39.14125 9.41671875 -38.56375 8.50921875 -37.96875 7.57421875 C-27.66798857 -2.72654268 -13.52370739 -6.25691008 0 0 Z " fill="#5B903A" transform="translate(694.71875,488.67578125)"/>
<path d="M0 0 C6.72761275 4.42391505 11.85068174 10.14672174 14 18 C15.15738241 28.16843116 14.79460728 37.91127305 8.234375 46.2421875 C2.32789372 52.59049219 -4.39359324 56.56928109 -13.1015625 57.23828125 C-24.77074478 57.48408442 -32.52137855 55.32935706 -41.0859375 47.21875 C-47.01843328 40.34189774 -48.57610246 31.86557668 -48 23 C-47.28584342 15.39148566 -44.18343008 9.59164894 -39 4 C-26.85259777 -5.17677583 -13.86707294 -6.78030915 0 0 Z " fill="#5B903A" transform="translate(521,137)"/>
<path d="M0 0 C6.38049097 4.25742495 10.95033078 9.52250302 13 17 C14.1929154 26.45944635 14.07579981 35.99951694 8.59375 44.0703125 C3.66446397 50.37142813 -2.51183107 53.50394369 -10 56 C-20.59210765 56.96961356 -29.0360102 56.40480492 -38 50 C-44.59323299 44.39994003 -48.21596268 37.42008412 -49.44921875 28.89453125 C-49.9537259 19.51069818 -47.28367347 11.97516793 -41.13671875 4.8359375 C-39.18607518 2.99865799 -37.22888558 1.48454532 -35 0 C-34.03513672 -0.64775391 -34.03513672 -0.64775391 -33.05078125 -1.30859375 C-23.4030328 -6.61944956 -9.25789613 -5.60127647 0 0 Z " fill="#5B903A" transform="translate(418,270)"/>
<path d="M0 0 C0.70125 0.40992188 1.4025 0.81984375 2.125 1.2421875 C14.06940704 8.02583172 25.33814469 10.2967401 39 6.625 C40.67418825 6.10704801 42.34111746 5.56505687 44 5 C45.98 4.34 47.96 3.68 50 3 C51.98 9.435 51.98 9.435 54 16 C52.9275 16.35449219 51.855 16.70898438 50.75 17.07421875 C0.47714146 34.01703572 -55.35703033 56.26082562 -96 91 C-96.66 90.67 -97.32 90.34 -98 90 C-97.00363813 88.97561545 -96.00260713 87.95577287 -95 86.9375 C-94.443125 86.36902344 -93.88625 85.80054688 -93.3125 85.21484375 C-91.38807565 83.37168732 -89.42869481 81.64214356 -87.40625 79.91015625 C-82.17878917 75.36577451 -77.36039174 70.43012476 -72.5 65.5 C-67.12379837 60.04666491 -61.76148569 54.67221651 -55.94335938 49.68945312 C-52.35810759 46.5726262 -48.94221912 43.27292966 -45.5 40 C-40.10518611 34.87050483 -34.64153271 29.85742076 -29 25 C-28.43442383 24.51225098 -27.86884766 24.02450195 -27.28613281 23.52197266 C-25.65152814 22.11593972 -24.01380767 20.71363094 -22.375 19.3125 C-21.78887939 18.81065186 -21.20275879 18.30880371 -20.59887695 17.79174805 C-18.73292704 16.19409817 -16.86651102 14.59699429 -15 13 C-12.3954053 10.77133278 -9.79131417 8.54207904 -7.1875 6.3125 C-6.58276855 5.79534424 -5.97803711 5.27818848 -5.35498047 4.74536133 C-2.61537444 2.44084407 -2.61537444 2.44084407 0 0 Z " fill="#5C913B" transform="translate(412,601)"/>
<path d="M0 0 C0.76183594 0.47050781 1.52367187 0.94101562 2.30859375 1.42578125 C8.44226378 5.1243613 14.10559169 8.04658431 21 10 C21 12 21 12 18.875 14.1875 C18.41738281 14.63480469 17.95976562 15.08210937 17.48828125 15.54296875 C16.99714844 16.02378906 16.50601563 16.50460937 16 17 C15.27876953 17.70576172 15.27876953 17.70576172 14.54296875 18.42578125 C8.73091484 24.60588079 4.04557344 33.14158731 3.375 41.6875 C3.189375 43.3271875 3.189375 43.3271875 3 45 C1.68812784 45.70796445 0.3494849 46.3666654 -1 47 C-2.53269803 48.36491339 -4.01381852 49.78858439 -5.45800781 51.24682617 C-6.33281799 52.12501511 -7.20762817 53.00320404 -8.10894775 53.90800476 C-9.05703228 54.86963434 -10.00509069 55.83128966 -10.953125 56.79296875 C-11.93664029 57.78276285 -12.92067811 58.77203797 -13.9052124 59.76081848 C-16.49729697 62.36619572 -19.08376597 64.97707066 -21.66864014 67.58959961 C-25.78971214 71.75377673 -29.91736256 75.91140215 -34.04854584 80.06554604 C-35.47992998 81.50702207 -36.90777159 82.951936 -38.33526611 84.39726257 C-42.86611512 88.96145613 -47.44727709 93.3755747 -52.33065796 97.561203 C-54.3354227 99.28909903 -56.23250826 101.10323681 -58.10546875 102.97265625 C-58.77900391 103.64490234 -59.45253906 104.31714844 -60.14648438 105.00976562 C-61.15678711 106.02586914 -61.15678711 106.02586914 -62.1875 107.0625 C-62.87263672 107.74376953 -63.55777344 108.42503906 -64.26367188 109.12695312 C-68.06312689 112.93372181 -71.63110999 116.8068767 -75 121 C-75 116.89184755 -73.37536055 115.62783356 -70.8125 112.4375 C-69.88958879 111.26876977 -68.96914581 110.09808752 -68.05078125 108.92578125 C-67.55658691 108.29494629 -67.06239258 107.66411133 -66.55322266 107.01416016 C-58.34428762 96.36912494 -50.68346154 85.29371619 -43.33496094 74.04150391 C-41.86792347 71.79802049 -40.39088858 69.56126945 -38.9140625 67.32421875 C-24.63517953 45.61501232 -11.3989778 23.35703353 0 0 Z " fill="#5C913B" transform="translate(390,511)"/>
</svg>
