<?xml version="1.0" encoding="UTF-8"?>
<svg version="1.1" xmlns="http://www.w3.org/2000/svg" width="1000" height="1000">
<path d="M0 0 C330 0 660 0 1000 0 C1000 330 1000 660 1000 1000 C670 1000 340 1000 0 1000 C0 670 0 340 0 0 Z " fill="#E3EEE5" transform="translate(0,0)"/>
<path d="M0 0 C3.0921002 0.51226411 5.34466357 1.62314212 7.95703125 3.32421875 C8.35148438 3.96101563 8.7459375 4.5978125 9.15234375 5.25390625 C11.72938147 8.21024822 14.90095215 9.00942894 18.51953125 10.19921875 C37.45722364 16.92477412 52.5457472 29.75208839 61.89453125 47.63671875 C63.2532591 50.50668471 64.2697156 53.24234935 65.01953125 56.32421875 C65.61539291 59.4175851 65.61539291 59.4175851 67.89453125 60.44921875 C68.57515625 60.73796875 69.25578125 61.02671875 69.95703125 61.32421875 C73.12159433 65.2799226 73.32571705 68.34696049 72.95703125 73.32421875 C72.62703125 74.31421875 72.29703125 75.30421875 71.95703125 76.32421875 C71.91911754 79.13020334 71.93759396 81.91090549 72 84.71484375 C72.02627747 86.45814807 72.05094932 88.20147715 72.07421875 89.94482422 C72.09307129 91.32127106 72.09307129 91.32127106 72.11230469 92.7255249 C72.478187 125.06799697 69.46861797 159.65325779 58.2109375 190.31640625 C56.67702766 194.63534214 56.71095062 198.53813239 56.95703125 203.07421875 C57.2317275 208.24766481 57.43232105 212.15986287 53.95703125 216.32421875 C52.76207031 216.88882813 52.76207031 216.88882813 51.54296875 217.46484375 C47.27042014 220.53694819 46.3228427 225.24247261 44.58203125 230.07421875 C31.60080485 264.16526676 13.89626927 298.30128692 -7.8828125 327.56640625 C-16.33867413 338.80776377 -16.33867413 338.80776377 -17.24609375 352.484375 C-17.03340739 355.45789387 -17.23663425 356.62837097 -18.85546875 359.07421875 C-22.91136776 363.24600059 -22.91136776 363.24600059 -26.09155273 363.46582031 C-26.83735596 363.46549805 -27.58315918 363.46517578 -28.3515625 363.46484375 C-31.11673953 363.73069394 -32.59327574 363.9457758 -34.73486328 365.74804688 C-36.33337027 367.78724634 -37.72774142 369.8797025 -39.10546875 372.07421875 C-40.21271762 373.71975988 -41.32355574 375.36289014 -42.4375 377.00390625 C-43.01709473 377.87112305 -43.59668945 378.73833984 -44.19384766 379.63183594 C-47.38883133 384.28384015 -50.84716823 388.73163511 -54.29296875 393.19921875 C-55.66071868 394.98394411 -57.02792421 396.76908685 -58.39453125 398.5546875 C-59.34634277 399.79677979 -59.34634277 399.79677979 -60.31738281 401.06396484 C-62.45547504 403.86453896 -64.56455672 406.68501448 -66.66796875 409.51171875 C-75.31104912 421.06321209 -84.22812453 432.39994279 -93.3605957 443.56762695 C-96.78572638 447.76003694 -100.15305159 451.99146215 -103.48046875 456.26171875 C-109.3272053 463.75524119 -115.38539688 471.0705674 -121.44628906 478.39111328 C-124.36572708 481.92568671 -127.26047705 485.48021134 -130.140625 489.046875 C-132.04296875 491.32421875 -132.04296875 491.32421875 -133.8515625 493.1953125 C-137.08627374 496.55413736 -138.33579439 498.78736057 -139.04296875 503.44921875 C-139.64294253 507.36389919 -139.91019469 508.17909361 -142.73046875 511.26171875 C-146.04296875 513.32421875 -146.04296875 513.32421875 -149.265625 514.45703125 C-154.19119954 516.53071825 -157.28847822 520.347873 -160.79296875 524.26171875 C-161.49180176 525.02299072 -162.19063477 525.7842627 -162.91064453 526.56860352 C-164.96563122 528.81085801 -167.00571392 531.06585852 -169.04296875 533.32421875 C-170.55335916 534.98430364 -172.06628495 536.64200711 -173.58105469 538.2980957 C-174.89273435 539.7340927 -176.19838355 541.17559068 -177.50390625 542.6171875 C-180.0929561 545.37751295 -182.79909297 547.96872288 -185.54296875 550.57421875 C-189.72072322 554.66630948 -191.30353276 557.81600478 -193.04296875 563.32421875 C-196.13671875 566.32421875 -196.13671875 566.32421875 -199.04296875 566.32421875 C-198.95015625 567.90203125 -198.95015625 567.90203125 -198.85546875 569.51171875 C-199.05780577 573.62590492 -199.37874693 575.23028374 -202.04296875 578.32421875 C-206.05809864 580.57269149 -208.62464145 581.3535875 -213.16796875 581.26171875 C-220.10516445 581.81622249 -224.77008876 588.13808472 -229.44384766 592.78027344 C-232.53488897 595.76466203 -235.91225082 598.39362497 -239.26171875 601.078125 C-241.30693541 602.7298098 -243.32257488 604.39864527 -245.32421875 606.1015625 C-245.87134521 606.56546387 -246.41847168 607.02936523 -246.98217773 607.50732422 C-248.52685415 608.81991585 -250.06820569 610.13641728 -251.609375 611.453125 C-254.04296875 613.32421875 -254.04296875 613.32421875 -256.04296875 613.32421875 C-255.96046875 614.35546875 -255.87796875 615.38671875 -255.79296875 616.44921875 C-256.08743635 621.01346653 -257.08241147 622.8835711 -260.04296875 626.32421875 C-262.47042824 627.82353197 -264.36481531 628.30005361 -267.20800781 628.40136719 C-274.32308879 628.67362078 -278.2043577 630.87068813 -283.66796875 635.26171875 C-285.23384307 636.45594621 -286.80291693 637.64598891 -288.375 638.83203125 C-289.15439941 639.4240332 -289.93379883 640.01603516 -290.73681641 640.62597656 C-294.1640767 643.14979856 -297.7283958 645.41326125 -301.35546875 647.63671875 C-302.01643555 648.04204834 -302.67740234 648.44737793 -303.35839844 648.86499023 C-304.6463727 649.65114177 -305.93556199 650.43530683 -307.22607422 651.21728516 C-308.92537177 652.2525734 -310.61166328 653.3091254 -312.296875 654.3671875 C-337.11243686 669.92738336 -363.36367688 682.73426709 -391.04296875 692.32421875 C-391.85072754 692.61377441 -392.65848633 692.90333008 -393.49072266 693.20166016 C-407.65743958 698.26354282 -422.21872209 700.9264994 -437.04296875 703.32421875 C-437.98822418 703.48979782 -438.93347961 703.65537689 -439.90737915 703.82597351 C-447.47837641 705.09341794 -454.78718997 705.63162917 -462.45703125 705.625 C-464.15972672 705.63142769 -464.15972672 705.63142769 -465.89682007 705.63798523 C-468.28162983 705.64368464 -470.66645696 705.64426155 -473.05126953 705.63989258 C-476.63865913 705.63674447 -480.22521255 705.66020806 -483.8125 705.68554688 C-497.19113398 705.72267858 -509.92910684 705.01994702 -523.04296875 702.32421875 C-524.02249512 702.12546143 -525.00202148 701.9267041 -526.01123047 701.72192383 C-528.25076384 701.22899399 -530.45666727 700.68015512 -532.66796875 700.07421875 C-533.44172852 699.86442383 -534.21548828 699.65462891 -535.01269531 699.43847656 C-562.71743094 691.61795445 -587.56720187 675.81936372 -602.04296875 650.32421875 C-603.81445824 646.95341478 -605.57151414 643.58033373 -607.26953125 640.171875 C-609.18210229 637.10080828 -611.1777404 635.48595201 -614.04296875 633.32421875 C-617.49664455 627.48869756 -617.57499741 622.0052709 -617.04296875 615.32421875 C-616.85347656 614.65519531 -616.66398438 613.98617187 -616.46875 613.296875 C-615.91789497 610.7447485 -616.40279829 608.99398927 -616.98046875 606.44921875 C-620.41307907 587.24070757 -617.82723681 568.70043971 -610.8359375 550.6640625 C-609.90402938 546.73903075 -610.52072855 544.99096627 -612.04296875 541.32421875 C-612.58582765 535.24419904 -611.34564407 531.35956349 -607.66796875 526.51171875 C-605.54420278 524.95973592 -603.6217381 524.67270109 -601.04296875 524.32421875 C-601.14609375 523.29296875 -601.24921875 522.26171875 -601.35546875 521.19921875 C-600.94621867 516.12451774 -599.58024192 514.86149192 -596.04296875 511.32421875 C-593.08632356 509.84589615 -590.30067138 510.26389092 -587.04296875 510.32421875 C-586.78644531 509.75960938 -586.52992188 509.195 -586.265625 508.61328125 C-584.89844537 506.05364143 -583.30190946 503.95854117 -581.48046875 501.69921875 C-580.86042969 500.92320312 -580.24039063 500.1471875 -579.6015625 499.34765625 C-572.52234354 490.98228911 -564.99359997 483.11679193 -557.23046875 475.38671875 C-556.30298828 474.45537109 -555.37550781 473.52402344 -554.41992188 472.56445312 C-553.52595703 471.67177734 -552.63199219 470.77910156 -551.7109375 469.859375 C-550.90938232 469.05894775 -550.10782715 468.25852051 -549.28198242 467.43383789 C-547.04296875 465.32421875 -547.04296875 465.32421875 -544.79418945 463.68261719 C-542.83776777 462.43549877 -542.83776777 462.43549877 -542.35546875 460.0546875 C-542.25234375 459.21550781 -542.14921875 458.37632812 -542.04296875 457.51171875 C-541.06340722 451.65990333 -538.99343257 448.12464689 -534.60546875 444.07421875 C-530.37091173 441.18232615 -527.25068461 440.21170866 -522.16796875 440.44921875 C-514.05012636 439.82060078 -509.01244828 434.12117472 -503.11132812 429.04443359 C-499.61869281 426.13967575 -495.93043124 423.51886118 -492.23046875 420.88671875 C-491.47765625 420.34829346 -490.72484375 419.80986816 -489.94921875 419.25512695 C-488.41554442 418.1588302 -486.88103571 417.06369978 -485.34570312 415.96972656 C-482.29819721 413.79201347 -479.26606397 411.59341997 -476.23364258 409.39477539 C-469.53256731 404.53796615 -462.80333052 399.72313774 -456.04296875 394.94921875 C-455.33615967 394.44656494 -454.62935059 393.94391113 -453.90112305 393.42602539 C-450.94834982 391.33288933 -447.99971191 389.29704737 -444.93359375 387.37109375 C-439.31388995 383.81305643 -437.00016698 380.90941147 -434.375 374.82421875 C-431.45187498 369.3380017 -426.1104771 365.07983907 -420.54296875 362.38671875 C-417.64322922 361.50644068 -415.77452469 361.22567924 -412.83984375 361.09765625 C-407.40607387 360.52611643 -404.04909067 358.15464226 -399.79296875 354.88671875 C-399.067146 354.34611816 -398.34132324 353.80551758 -397.59350586 353.24853516 C-396.11497764 352.14438151 -394.64151732 351.03340741 -393.17333984 349.91552734 C-391.19168035 348.43530083 -389.17709288 347.03638614 -387.125 345.65625 C-380.96086091 341.61491137 -380.96086091 341.61491137 -376.94140625 335.65625 C-376.44352719 333.04867544 -376.44352719 333.04867544 -376.2890625 330.52734375 C-375.92549244 327.27252603 -374.34112477 325.5505574 -372.04296875 323.32421875 C-370.04296875 322.32421875 -370.04296875 322.32421875 -367.42578125 322.39453125 C-361.28319137 322.49764427 -357.10011656 322.00196614 -352.3996582 317.77880859 C-350.39198237 315.80785249 -348.42888343 313.79835127 -346.48388672 311.765625 C-344.30475044 309.58575028 -341.90509657 307.72265074 -339.48046875 305.82421875 C-334.5141659 301.83113951 -330.07440056 297.45503751 -325.625 292.91015625 C-322.76389426 290.04472206 -319.7869074 287.37840405 -316.69921875 284.76171875 C-316.15265625 284.28734375 -315.60609375 283.81296875 -315.04296875 283.32421875 C-314.48351562 282.87691406 -313.9240625 282.42960937 -313.34765625 281.96875 C-311.51639189 279.66047965 -311.70826021 277.92479121 -311.66796875 275.01171875 C-311.31884902 269.40351876 -310.13606396 267.11781919 -306.04296875 263.32421875 C-304.04296875 262.32421875 -304.04296875 262.32421875 -302.046875 262.39453125 C-297.47753569 262.49688445 -294.84639093 261.95093195 -291.18359375 259.09375 C-288.30105564 256.31891002 -285.66858236 253.34122818 -283.04296875 250.32421875 C-282.13804687 249.32648438 -282.13804687 249.32648438 -281.21484375 248.30859375 C-280.12539528 247.09221924 -279.05671708 245.85697348 -278.0078125 244.60546875 C-276.3782799 242.71352633 -274.7069592 240.91092463 -272.984375 239.10546875 C-265.02023042 230.7233808 -265.02023042 230.7233808 -263.03125 219.60546875 C-263.0473662 216.46818215 -262.03347868 214.69751906 -260.04296875 212.32421875 C-257.12531875 210.37911875 -255.4175959 209.87145558 -252.04296875 209.32421875 C-251.70265625 207.46796875 -251.70265625 207.46796875 -251.35546875 205.57421875 C-250.56964769 202.48550541 -250.08449204 201.36930118 -247.85546875 198.94921875 C-245.04296875 197.32421875 -245.04296875 197.32421875 -241.73046875 196.71875 C-236.63207389 194.7906494 -235.05110066 191.89352756 -232.23046875 187.38671875 C-231.11263985 185.66753899 -229.99410731 183.9488166 -228.875 182.23046875 C-227.96935303 180.82087891 -227.96935303 180.82087891 -227.04541016 179.3828125 C-224.85642387 176.03928406 -222.5886361 172.75934299 -220.3046875 169.48046875 C-219.07797022 167.70238904 -217.85355426 165.92275311 -216.63027954 164.14230347 C-215.83225172 162.98665471 -215.02896666 161.83461585 -214.22006226 160.68655396 C-209.44797193 153.89453253 -206.13704964 148.00723096 -204.63061523 139.7890625 C-203.75889538 136.13269208 -202.04349777 134.48739083 -199.04296875 132.32421875 C-198.11226562 131.9375 -197.1815625 131.55078125 -196.22265625 131.15234375 C-192.12541044 128.79667908 -190.14893981 125.95982548 -187.48046875 122.13671875 C-186.43242862 120.68941735 -185.38155567 119.24416383 -184.328125 117.80078125 C-183.78945801 117.05989258 -183.25079102 116.31900391 -182.69580078 115.55566406 C-175.81624542 106.26775623 -168.33004438 97.40644841 -160.45703125 88.94921875 C-158.52163822 86.84471371 -156.64708062 84.71202536 -154.78125 82.546875 C-150.90272666 78.09982148 -146.7879265 73.92158897 -142.60546875 69.76171875 C-141.5371582 68.68760742 -141.5371582 68.68760742 -140.44726562 67.59179688 C-129.39288313 56.55749501 -129.39288313 56.55749501 -123.04296875 52.32421875 C-121.84645358 50.1137713 -121.84645358 50.1137713 -120.79296875 47.57421875 C-118.12709642 41.97507655 -114.61940176 38.11243525 -109.04296875 35.32421875 C-106.25515791 35.04936416 -103.4676142 34.87809137 -100.671875 34.703125 C-97.81652056 34.48404672 -97.81652056 34.48404672 -95.04296875 32.32421875 C-94.21456633 30.27267139 -94.21456633 30.27267139 -93.66796875 27.94921875 C-92.72688519 25.01247054 -91.99205004 23.25687465 -90.10546875 20.76171875 C-84.57923001 18.16776995 -77.79801661 18.40586946 -72.04296875 20.32421875 C-70.09394592 19.80636016 -70.09394592 19.80636016 -68.04296875 18.84765625 C-67.24834229 18.50887451 -66.45371582 18.17009277 -65.63500977 17.82104492 C-64.77963623 17.45084229 -63.9242627 17.08063965 -63.04296875 16.69921875 C-48.70434884 10.75943282 -34.52212962 7.08256487 -19.07055664 5.48706055 C-11.84038581 4.64862735 -7.15865213 -0.39694247 0 0 Z " fill="#77B155" transform="translate(773.04296875,119.67578125)"/>
<path d="M0 0 C13.47052359 4.66007303 23.92221459 18.57600963 30 31 C30.85049029 33.64431916 31.57160416 36.25546255 32.1640625 38.96875 C33.25233614 41.61315323 34.42911278 41.9130805 37 43 C40.16456308 46.95570385 40.3686858 50.02274174 40 55 C39.67 55.99 39.34 56.98 39 58 C38.96208629 60.80598459 38.98056271 63.58668674 39.04296875 66.390625 C39.06924622 68.13392932 39.09391807 69.8772584 39.1171875 71.62060547 C39.13604004 72.99705231 39.13604004 72.99705231 39.15527344 74.40130615 C39.52115575 106.74377822 36.51158672 141.32903904 25.25390625 171.9921875 C23.71999641 176.31112339 23.75391937 180.21391364 24 184.75 C24.27469625 189.92344606 24.4752898 193.83564412 21 198 C19.80503906 198.56460938 19.80503906 198.56460938 18.5859375 199.140625 C14.31338889 202.21272944 13.36581145 206.91825386 11.625 211.75 C-1.3562264 245.84104801 -19.06076198 279.97706817 -40.83984375 309.2421875 C-49.29570538 320.48354502 -49.29570538 320.48354502 -50.203125 334.16015625 C-49.99043864 337.13367512 -50.1936655 338.30415222 -51.8125 340.75 C-55.86839901 344.92178184 -55.86839901 344.92178184 -59.04858398 345.14160156 C-59.79438721 345.1412793 -60.54019043 345.14095703 -61.30859375 345.140625 C-64.07377078 345.40647519 -65.55030699 345.62155705 -67.69189453 347.42382812 C-69.29040152 349.46302759 -70.68477267 351.55548375 -72.0625 353.75 C-73.16974887 355.39554113 -74.28058699 357.03867139 -75.39453125 358.6796875 C-75.97412598 359.5469043 -76.5537207 360.41412109 -77.15087891 361.30761719 C-80.34586258 365.9596214 -83.80419948 370.40741636 -87.25 374.875 C-88.61774993 376.65972536 -89.98495546 378.4448681 -91.3515625 380.23046875 C-92.30337402 381.47256104 -92.30337402 381.47256104 -93.27441406 382.73974609 C-95.41250629 385.54032021 -97.52158797 388.36079573 -99.625 391.1875 C-108.26808037 402.73899334 -117.18515578 414.07572404 -126.31762695 425.2434082 C-129.74275763 429.43581819 -133.11008284 433.6672434 -136.4375 437.9375 C-142.28423655 445.43102244 -148.34242813 452.74634865 -154.40332031 460.06689453 C-157.32275833 463.60146796 -160.2175083 467.15599259 -163.09765625 470.72265625 C-165 473 -165 473 -166.80859375 474.87109375 C-170.04330499 478.22991861 -171.29282564 480.46314182 -172 485.125 C-172.59997378 489.03968044 -172.86722594 489.85487486 -175.6875 492.9375 C-179 495 -179 495 -182.22265625 496.1328125 C-187.14823079 498.2064995 -190.24550947 502.02365425 -193.75 505.9375 C-194.44883301 506.69877197 -195.14766602 507.46004395 -195.86767578 508.24438477 C-197.92266247 510.48663926 -199.96274517 512.74163977 -202 515 C-203.51039041 516.66008489 -205.0233162 518.31778836 -206.53808594 519.97387695 C-207.8497656 521.40987395 -209.1554148 522.85137193 -210.4609375 524.29296875 C-213.04998735 527.0532942 -215.75612422 529.64450413 -218.5 532.25 C-222.67775447 536.34209073 -224.26056401 539.49178603 -226 545 C-229.09375 548 -229.09375 548 -232 548 C-231.9071875 549.5778125 -231.9071875 549.5778125 -231.8125 551.1875 C-232.01483702 555.30168617 -232.33577818 556.90606499 -235 560 C-239.01512989 562.24847274 -241.5816727 563.02936875 -246.125 562.9375 C-253.0621957 563.49200374 -257.72712001 569.81386597 -262.40087891 574.45605469 C-265.49192022 577.44044328 -268.86928207 580.06940622 -272.21875 582.75390625 C-274.26396666 584.40559105 -276.27960613 586.07442652 -278.28125 587.77734375 C-278.82837646 588.24124512 -279.37550293 588.70514648 -279.93920898 589.18310547 C-281.4838854 590.4956971 -283.02523694 591.81219853 -284.56640625 593.12890625 C-287 595 -287 595 -289 595 C-288.9175 596.03125 -288.835 597.0625 -288.75 598.125 C-289.0444676 602.68924778 -290.03944272 604.55935235 -293 608 C-295.42745949 609.49931322 -297.32184656 609.97583486 -300.16503906 610.07714844 C-307.28012004 610.34940203 -311.16138895 612.54646938 -316.625 616.9375 C-318.19087432 618.13172746 -319.75994818 619.32177016 -321.33203125 620.5078125 C-322.11143066 621.09981445 -322.89083008 621.69181641 -323.69384766 622.30175781 C-327.12110795 624.82557981 -330.68542705 627.0890425 -334.3125 629.3125 C-334.9734668 629.71782959 -335.63443359 630.12315918 -336.31542969 630.54077148 C-337.60340395 631.32692302 -338.89259324 632.11108808 -340.18310547 632.89306641 C-341.88240302 633.92835465 -343.56869453 634.98490665 -345.25390625 636.04296875 C-370.06946811 651.60316461 -396.32070813 664.41004834 -424 674 C-424.80775879 674.28955566 -425.61551758 674.57911133 -426.44775391 674.87744141 C-440.61447083 679.93932407 -455.17575334 682.60228065 -470 685 C-470.94525543 685.16557907 -471.89051086 685.33115814 -472.8644104 685.50175476 C-480.43540766 686.76919919 -487.74422122 687.30741042 -495.4140625 687.30078125 C-497.11675797 687.30720894 -497.11675797 687.30720894 -498.85385132 687.31376648 C-501.23866108 687.31946589 -503.62348821 687.3200428 -506.00830078 687.31567383 C-509.59569038 687.31252572 -513.1822438 687.33598931 -516.76953125 687.36132812 C-530.14816523 687.39845983 -542.88613809 686.69572827 -556 684 C-556.97952637 683.80124268 -557.95905273 683.60248535 -558.96826172 683.39770508 C-561.20779509 682.90477524 -563.41369852 682.35593637 -565.625 681.75 C-566.39875977 681.54020508 -567.17251953 681.33041016 -567.96972656 681.11425781 C-584.62044416 676.41407561 -601.33529378 669.04691568 -614 657 C-610.61870314 655.89188133 -608.15643373 656.1173697 -604.67578125 656.7421875 C-603.64646484 656.92136719 -602.61714844 657.10054687 -601.55664062 657.28515625 C-600.48607422 657.47980469 -599.41550781 657.67445313 -598.3125 657.875 C-596.20484461 658.24975172 -594.09677541 658.62218417 -591.98828125 658.9921875 C-590.58896362 659.24524658 -590.58896362 659.24524658 -589.16137695 659.50341797 C-582.13027582 660.60784763 -575.22456546 661.15663553 -568.109375 661.16796875 C-566.88148254 661.17432091 -566.88148254 661.17432091 -565.62878418 661.18080139 C-563.0024695 661.19061384 -560.37632963 661.19073543 -557.75 661.1875 C-556.85261108 661.18689575 -555.95522217 661.1862915 -555.03063965 661.18566895 C-534.81753702 661.14862379 -515.73296885 659.48975725 -496 655 C-495.32195312 654.84805176 -494.64390625 654.69610352 -493.9453125 654.53955078 C-487.22742601 653.01352486 -480.63948064 651.22042954 -474.0703125 649.15625 C-472.51920776 648.67055542 -472.51920776 648.67055542 -470.93676758 648.17504883 C-468.88862469 647.52765194 -466.84399399 646.86901279 -464.8034668 646.19799805 C-463.86414307 645.89933838 -462.92481934 645.60067871 -461.95703125 645.29296875 C-460.70369995 644.88340942 -460.70369995 644.88340942 -459.42504883 644.46557617 C-456.6307575 643.9291105 -454.73836738 644.30544528 -452 645 C-445.43613869 645.68054323 -445.43613869 645.68054323 -439.5 643.375 C-437.81996499 641.05704728 -437.81996499 641.05704728 -437.53515625 638.1640625 C-435.11536622 633.17670899 -430.87389172 632.1109756 -425.9375 630 C-423.82764833 629.04191193 -421.72097366 628.07680319 -419.6171875 627.10546875 C-418.52374023 626.60063965 -417.43029297 626.09581055 -416.30371094 625.57568359 C-380.6648108 608.57794035 -344.13693051 583.62231113 -315.3203125 556.4140625 C-311.77210197 553.09600616 -308.73336458 552.21785129 -304.05078125 551.5546875 C-301.43015337 550.84587005 -300.59172529 550.2109844 -299 548 C-298.75507813 546.9275 -298.51015625 545.855 -298.2578125 544.75 C-296.57814524 539.74229638 -293.78438217 537.40739925 -289.875 534 C-289.235625 533.4225 -288.59625 532.845 -287.9375 532.25 C-285.33985515 529.91316287 -282.71798518 527.6089458 -280.05322266 525.34887695 C-276.30027995 522.14442687 -272.80651549 518.81718132 -269.4140625 515.23046875 C-268.62773438 514.40482422 -267.84140625 513.57917969 -267.03125 512.72851562 C-265.42097222 511.02805183 -263.82461924 509.31429772 -262.2421875 507.58789062 C-257.4666552 502.62898413 -254.09607143 499.99487738 -247.13598633 499.33422852 C-243.57643753 498.77724803 -242.08919119 496.78558825 -240 494 C-238.00703532 490.72584374 -237.03188572 488.60148058 -236.828125 484.7578125 C-235.70352318 479.65466651 -233.14690986 477.3366537 -229.5 473.75 C-228.21223188 472.43093026 -226.92707924 471.10930215 -225.64453125 469.78515625 C-225.01756348 469.1420752 -224.3905957 468.49899414 -223.74462891 467.83642578 C-220.63954574 464.56796292 -217.878672 461.05305609 -215.06640625 457.53125 C-212.99887218 454.99861847 -210.83886659 452.5926884 -208.625 450.1875 C-204.60685156 445.77937528 -200.94468599 441.16642384 -197.29736328 436.45385742 C-193.98311355 432.19374445 -190.53975369 428.07403454 -187 424 C-180.51025189 416.52304917 -173.99466925 408.87335034 -168.421875 400.6796875 C-166.16622022 398.01504037 -163.30283706 397.74781216 -160 397 C-159.85304688 396.11248047 -159.85304688 396.11248047 -159.703125 395.20703125 C-157.98114 386.10723122 -157.98114 386.10723122 -154 383 C-151.16660732 382.47246142 -148.43784379 382.25001306 -145.55859375 382.140625 C-142.87890774 382.10612948 -142.87890774 382.10612948 -140 381 C-138.53652793 376.60958379 -138.36781992 372.01059334 -139.7578125 367.58984375 C-140 365 -140 365 -138.4375 362.37109375 C-137.633125 361.40300781 -136.82875 360.43492187 -136 359.4375 C-135.07099739 358.2906145 -134.14404908 357.14206307 -133.21875 355.9921875 C-132.70570313 355.36151367 -132.19265625 354.73083984 -131.6640625 354.08105469 C-128.51696409 350.14533478 -125.51808821 346.09740375 -122.5 342.0625 C-121.85611328 341.20922119 -121.21222656 340.35594238 -120.54882812 339.47680664 C-117.63223488 335.59751555 -114.76498584 331.70786754 -112.0625 327.67578125 C-111.62357422 327.02794678 -111.18464844 326.3801123 -110.73242188 325.71264648 C-109.58659775 324.00412465 -108.46417165 322.27997446 -107.34375 320.5546875 C-104.4426357 317.39247291 -102.12940926 316.90421491 -98 316 C-95.95173938 314.52040427 -95.95173938 314.52040427 -95 312 C-94.979375 310.741875 -94.95875 309.48375 -94.9375 308.1875 C-94.31461581 301.17722153 -89.55315793 295.88055095 -85.61425781 290.31542969 C-82.56408202 285.94037415 -79.66227131 281.46753534 -76.75 277 C-76.11481445 276.02724121 -75.47962891 275.05448242 -74.82519531 274.05224609 C-70.31052175 267.10318972 -65.92884629 260.08133531 -61.625 253 C-61.04314941 252.04649658 -60.46129883 251.09299316 -59.86181641 250.1105957 C-57.29357815 245.87958309 -54.77531192 241.63904264 -52.40625 237.29296875 C-52.0148584 236.59107422 -51.6234668 235.88917969 -51.22021484 235.16601562 C-50.21199933 233.34466508 -49.23344662 231.50697783 -48.2578125 229.66796875 C-45.13356065 225.97616249 -42.66302872 225.98143828 -38 225 C-36.89241624 221.67724871 -37.09569473 219.60443284 -37.3125 216.12890625 C-37.3648934 208.24479096 -34.65797054 202.78036291 -31 195.9375 C-29.79332719 193.55695238 -28.59145613 191.17447305 -27.39453125 188.7890625 C-26.51595459 187.05317871 -26.51595459 187.05317871 -25.61962891 185.28222656 C-16.68300697 167.17189414 -9.6806649 147.1311655 -5.71875 127.34765625 C-4.70428871 124.03411692 -2.44193683 122.37593854 0 120 C0.65364527 116.12122585 0.35958457 112.42199354 -0.6015625 108.62109375 C-1.1076772 105.29165294 -0.50958904 102.84288209 0.25 99.5625 C0.84865469 96.71144644 1.42521289 93.85595405 2 91 C2.14550293 90.28360352 2.29100586 89.56720703 2.44091797 88.82910156 C7.71727523 61.50703367 8.89234276 26.67702829 0 0 Z " fill="#5C913B" transform="translate(806,138)"/>
<path d="M0 0 C0.70125 0.268125 1.4025 0.53625 2.125 0.8125 C1.3622093 7.29622093 1.3622093 7.29622093 0.0625 10.125 C-2.08474359 16.28043163 -1.54625145 22.09986212 1.125 28 C4.82554501 34.66727089 10.81866363 40.37705454 18.125 42.8125 C23.86295844 43.26843973 29.48845474 43.03121249 35.125 41.8125 C35.62 43.7925 35.62 43.7925 36.125 45.8125 C28.70845669 53.01206997 23.48057559 55.91188953 13.0625 56.1875 C7.55039818 56.05808032 3.87178701 55.58145909 -0.875 52.8125 C-1.885625 52.255625 -2.89625 51.69875 -3.9375 51.125 C-9.8364488 46.48114669 -14.30617837 40.23474015 -15.875 32.8125 C-16.84385311 22.30890202 -14.88975483 13.52067526 -8.875 4.8125 C-6.24456286 1.77365289 -4.234806 -0.276183 0 0 Z " fill="#5C913B" transform="translate(640.875,209.1875)"/>
<path d="M0 0 C-0.309375 0.763125 -0.61875 1.52625 -0.9375 2.3125 C-3.79031178 9.52843567 -4.33578298 17.3684534 -2.1640625 24.8984375 C0.92751992 31.64182197 5.6512076 36.63363008 12.16796875 40.1796875 C16.23385474 41.35739241 20.10487681 41.21134428 24.3125 41.125 C25.14845703 41.11597656 25.98441406 41.10695313 26.84570312 41.09765625 C28.89725969 41.07420989 30.94866777 41.03834266 33 41 C33 45 33 45 31.0625 47.5 C27.30340166 50.5686517 23.46878632 52.20897365 19 54 C18.01 54.495 18.01 54.495 17 55 C8.59722455 55.74691337 1.25284019 55.15188304 -5.640625 50.04296875 C-12.06556101 44.52917133 -16.6283322 39.55719358 -18 31 C-18.81082628 19.83554583 -16.71724286 12.17671229 -10.6953125 2.84765625 C-7.58559306 -0.54150802 -4.32430044 -1.60159276 0 0 Z " fill="#5C913B" transform="translate(252,646)"/>
<path d="M0 0 C0.5775 0.226875 1.155 0.45375 1.75 0.6875 C1.32731489 4.1535179 0.77461991 6.64110094 -0.875 9.75 C-3.29065374 15.20937746 -2.56336506 21.0097218 -1.25 26.6875 C2.01910366 33.64965447 6.79951767 38.438905 13.75 41.6875 C20.2075565 43.84001883 28.1658066 43.15065409 34.75 41.6875 C34.49922088 45.36559371 34.23503402 47.18820028 31.625 49.875 C25.31905949 53.85048424 20.30783036 55.24920582 12.9375 55.1875 C12.14504883 55.18177979 11.35259766 55.17605957 10.53613281 55.17016602 C3.04601298 54.94233259 -2.53269664 53.18192436 -8.07421875 47.97265625 C-14.63592092 40.71188654 -17.76283256 33.60785513 -17.55859375 23.81640625 C-16.60561366 14.1539119 -11.4662327 7.06050711 -4.171875 0.9453125 C-2.25 -0.3125 -2.25 -0.3125 0 0 Z " fill="#5C913B" transform="translate(437.25,473.3125)"/>
<path d="M0 0 C-0.165 0.763125 -0.33 1.52625 -0.5 2.3125 C-2.11432751 14.2181654 -0.4895848 22.69087589 6.8125 32.375 C12.06838409 38.56181559 16.94750173 41.15966373 24.984375 42.41015625 C27.37329537 43.10923954 28.40007709 44.13173559 30 46 C29.5 47.8125 29.5 47.8125 28 50 C20.79510401 53.602448 14.29790531 53.67861663 6.4375 52.4375 C-3.44226778 48.30596075 -9.71346811 40.69097471 -13.875 31 C-16.53833094 22.84956555 -14.97034638 16.46025132 -11.49609375 8.75390625 C-8.69604851 3.59977598 -6.23465783 0 0 0 Z " fill="#5C913B" transform="translate(623,420)"/>
<path d="M0 0 C2.0625 0.4375 2.0625 0.4375 4 1 C4.01417969 1.67804687 4.02835937 2.35609375 4.04296875 3.0546875 C4.53212103 12.59976717 7.14307764 19.63087538 14.125 26.3125 C23.40106282 33.86171752 32.17431409 35.81009847 44 36 C44 37.32 44 38.64 44 40 C38.42984792 45.57015208 33.05602451 48.13525194 25.1875 48.4375 C15.64601039 48.14007202 8.8666569 44.74320609 1.98046875 38.22265625 C-4.49110849 30.95968298 -6.39837567 23.72539026 -6.36328125 14.19140625 C-5.79081125 9.16228808 -3.65823293 3.65823293 0 0 Z " fill="#5C913B" transform="translate(429,593)"/>
<path d="M0 0 C0.99 0.33 1.98 0.66 3 1 C3.03867187 1.87011719 3.03867187 1.87011719 3.078125 2.7578125 C3.54353042 9.16771446 5.0190391 13.30751918 9.9375 17.75 C15.22818752 20.95647728 19.8783657 21.72336772 26 21 C29.36123058 19.63060976 31.98493949 18.01004034 35 16 C37.1875 16.375 37.1875 16.375 39 17 C37.29399197 23.35875722 34.38810661 28.76451874 28.75 32.375 C23.1068839 35.19655805 17.48849042 35.68718398 11.4375 33.9375 C5.17648904 31.50752721 -0.16428377 28.08247214 -3.5 22.125 C-5.96126051 16.37111986 -5.67894311 11.46030503 -3.625 5.625 C-2 2 -2 2 0 0 Z " fill="#5C913B" transform="translate(521,549)"/>
<path d="M0 0 C0.99 0.33 1.98 0.66 3 1 C3.03867187 2.08667969 3.03867187 2.08667969 3.078125 3.1953125 C3.42854815 9.1684343 3.77148607 13.43765603 8 18 C13.51504582 22.16442235 19.08723103 23.464074 26 23 C28.5823732 22.14303467 30.84098185 21.12177489 33.22265625 19.8125 C33.80917969 19.544375 34.39570313 19.27625 35 19 C35.66 19.33 36.32 19.66 37 20 C36.55043745 24.94518808 34.52994983 28.5912155 31 32 C25.08076932 35.53294397 18.83430903 37.04360026 12 36 C4.21733857 33.53549055 0.16050936 28.83512252 -4 22 C-5.91809997 16.2457001 -5.80126822 10.07601312 -3.625 4.4375 C-2 2 -2 2 0 0 Z " fill="#5C913B" transform="translate(356,676)"/>
<path d="M0 0 C0.99 0 1.98 0 3 0 C3.15855469 0.79664063 3.31710937 1.59328125 3.48046875 2.4140625 C4.90929297 8.90297693 5.96043501 13.53311285 11 18 C16.39940766 21.17612215 21.85736888 22.20608739 28 21 C30.57755601 19.62980459 32.79442448 18.11217536 35.08984375 16.3125 C37 15 37 15 40 15 C39.6410554 20.86276187 38.2917364 24.85591509 34 29 C28.58220574 32.81358922 23.18209281 34.85587263 16.5234375 34.48828125 C10.70772659 33.36295019 5.78840614 30.74254957 1.5625 26.625 C-2.61087376 19.61373209 -3.96063036 14.20230537 -3 6 C-1.5 2.3125 -1.5 2.3125 0 0 Z " fill="#5C913B" transform="translate(543,368)"/>
<path d="M0 0 C0 4.35559992 -0.15256116 4.63339962 -2.9375 7.5625 C-7.04499555 11.92246573 -7.29564891 15.61391962 -7.2109375 21.43359375 C-6.7751346 26.73586233 -4.94103717 30.01519366 -1.3125 33.8125 C2.56860471 36.37549368 5.46484603 37.13988459 10 38 C9.125 41.875 9.125 41.875 8 43 C-0.45038305 43.97450875 -6.95541486 42.82560766 -14 38 C-18.96089785 33.42070968 -20.55302469 27.07295527 -21.5 20.5625 C-20.6429388 14.45593893 -18.49615182 9.13464017 -13.734375 5.0625 C-9.03226227 1.90753404 -5.71685738 -0.15044362 0 0 Z " fill="#5C923B" transform="translate(340,554)"/>
<path d="M0 0 C1.32 0.33 2.64 0.66 4 1 C4.14695312 1.87011719 4.14695312 1.87011719 4.296875 2.7578125 C5.59863983 9.55841153 7.36955229 14.0534687 13.125 18.3125 C17.49915219 20.60916814 22.13734817 20.80431985 27 21 C27 25 27 25 25.25 27.125 C21.96011 29.866575 20.05452381 30.87832418 15.75 31.375 C8.31831538 30.63183154 3.56419711 27.01917844 -1.5546875 21.78125 C-4.80920818 17.77027316 -5.47792535 14.40049036 -5.40234375 9.328125 C-4.71439452 5.34737024 -2.58510438 3.03749765 0 0 Z " fill="#5C913B" transform="translate(708,320)"/>
<path d="M0 0 C1.32 0.33 2.64 0.66 4 1 C4.07476563 1.556875 4.14953125 2.11375 4.2265625 2.6875 C5.30038493 8.91988119 7.48870932 13.49950188 12 18 C15.17386902 20.04613258 18.01847376 20.35846241 21.75 20.625 C22.73484375 20.69976562 23.7196875 20.77453125 24.734375 20.8515625 C25.48203125 20.90054688 26.2296875 20.94953125 27 21 C27 25 27 25 24.75 27.75 C20.82110712 30.72221211 16.84266324 30.81785141 12.04296875 30.62109375 C5.1336283 29.21084326 -0.17931825 23.73102263 -4 18 C-5.22821072 14.31536783 -5.38218412 11.88553855 -5 8 C-3.57504706 5.15009412 -1.8722234 2.57430717 0 0 Z " fill="#5C913B" transform="translate(732,185)"/>
<path d="M0 0 C0.77730469 0.0515625 1.55460938 0.103125 2.35546875 0.15625 C2.46503906 0.82011719 2.57460938 1.48398437 2.6875 2.16796875 C3.84013022 8.58708827 4.87259021 12.92165931 9.85546875 17.40625 C14.61939387 19.78821256 19.09011926 19.96887101 24.35546875 20.15625 C24.68546875 21.47625 25.01546875 22.79625 25.35546875 24.15625 C20.50441007 28.22065051 17.0886543 29.58780321 10.83203125 29.49609375 C5.62553749 28.78163798 1.25399507 26.22202745 -2.28515625 22.37109375 C-6.09081031 17.22033783 -7.50674906 12.51510634 -6.64453125 6.15625 C-3.78413811 0.22358275 -3.78413811 0.22358275 0 0 Z " fill="#5D923C" transform="translate(617.64453125,311.84375)"/>
<path d="M0 0 C2.609375 -0.12109375 2.609375 -0.12109375 5 0 C5.14695312 0.97839844 5.14695312 0.97839844 5.296875 1.9765625 C6.23852353 7.4803358 7.15067828 11.74548652 11 16 C16.27993321 19.72349031 21.64264673 20.70567809 28 21 C28.495 22.98 28.495 22.98 29 25 C22.34192566 28.87378871 17.4618818 30.11833777 9.86328125 28.5625 C3.366058 26.58239387 -0.01639257 22.27726445 -3.4375 16.625 C-4.53525337 11.50215095 -3.71290603 6.74661976 -1.75 1.9375 C-1.1725 1.298125 -0.595 0.65875 0 0 Z " fill="#5C913B" transform="translate(521,454)"/>
</svg>
