<?xml version="1.0" encoding="UTF-8"?>
<svg version="1.1" xmlns="http://www.w3.org/2000/svg" width="1000" height="1000">
<path d="M0 0 C330 0 660 0 1000 0 C1000 330 1000 660 1000 1000 C670 1000 340 1000 0 1000 C0 670 0 340 0 0 Z " fill="#E3EEE5" transform="translate(0,0)"/>
<path d="M0 0 C7.82177672 5.24429075 11.9467912 11.71815001 15.86889648 20.05908203 C18.8076351 26.21357437 22.40242864 29.92973695 28.94921875 32.453125 C38.20460901 34.92122907 46.60016395 31.85719978 55.33447266 28.890625 C139.73458099 0.69025907 139.73458099 0.69025907 176.68359375 18.27734375 C191.36526377 26.54580378 200.82727074 39.05559482 206 55 C208.12460643 62.84513513 208.38978133 70.75518612 208.71890259 78.83178711 C209.65228688 100.45392179 212.48944116 119.51494171 229 135 C242.52094639 145.4807336 257.43199409 147.99981563 274.08963013 148.77548218 C293.8255986 149.74045696 313.98181069 152.13799639 328.91015625 166.59375 C342.482682 182.22118152 346.23352822 199.42103213 346.25 219.75 C346.25101212 220.8644751 346.25101212 220.8644751 346.25204468 222.00146484 C346.22760203 238.9203456 343.75855082 253.88164967 338.64404297 269.96923828 C338.03141585 271.90094123 337.43897752 273.83901266 336.84765625 275.77734375 C336.46480469 277.02644531 336.08195313 278.27554687 335.6875 279.5625 C335.492771 280.19816895 335.29804199 280.83383789 335.09741211 281.48876953 C333.80632567 285.62726564 332.39274519 289.7047451 330.90625 293.77734375 C323.70811683 312.93725703 323.70811683 312.93725703 326.625 332.6875 C330.01881362 338.76445687 336.36561675 341.85885888 342.375 344.75 C349.67765261 348.45092821 355.37188733 352.84013878 359.171875 360.30078125 C362.51194899 371.18753186 359.83756199 382.10673662 355 392 C354.56558594 392.92167969 354.13117187 393.84335937 353.68359375 394.79296875 C349.74309405 402.5729297 344.48459063 409.27568789 339 416 C338.57009766 416.53431641 338.14019531 417.06863281 337.69726562 417.61914062 C325.45637665 432.75100189 311.52720959 447.23478409 296 459 C295.0615625 459.76699219 294.123125 460.53398438 293.15625 461.32421875 C277.85892084 473.62775243 260.89306636 482.46559323 242.81005859 489.90039062 C229.78789434 495.27192367 218.37574759 501.17730286 211.8203125 514.375 C210.38867214 517.83757204 209.19885643 521.31637374 208.15234375 524.9140625 C204.27864927 537.89345438 196.92532863 546.81383344 185.27734375 553.58203125 C167.77970612 562.50018204 148.02980664 563.89369636 128.77008057 565.2277832 C122.12976107 565.69185743 115.49466308 566.21937657 108.859375 566.75 C107.56287018 566.85332642 106.26636536 566.95665283 104.93057251 567.06311035 C82.90472064 568.86179996 60.99505694 571.86063484 39.56152344 577.34960938 C36.89356083 578.02702573 34.2177654 578.66336602 31.5390625 579.296875 C8.97887614 584.76091459 -14.55264557 591.86326035 -34.125 604.625 C-34.9399292 605.14787598 -35.7548584 605.67075195 -36.59448242 606.20947266 C-39.06785102 607.79893023 -41.5345766 609.39825356 -44 611 C-45.40994958 611.911778 -46.82009578 612.82325205 -48.23046875 613.734375 C-50.2850669 615.06276627 -52.33897035 616.39218366 -54.39111328 617.72436523 C-60.99360656 622.00863967 -67.63435253 626.2318048 -74.27783203 630.45214844 C-80.3554746 634.31412555 -86.42457864 638.18910994 -92.48730469 642.07446289 C-96.68745751 644.76572651 -100.89028593 647.45279626 -105.09326172 650.13964844 C-107.75330474 651.84211172 -110.41002366 653.54964691 -113.06640625 655.2578125 C-148.93866756 678.24073046 -186.53853631 695.92773761 -228 706 C-230.05490818 706.51865772 -232.10959541 707.0381916 -234.1640625 707.55859375 C-269.98635233 716.50037165 -307.12632346 719.26621642 -343.68603516 713.36376953 C-347.11470807 712.82476102 -350.55400884 712.4122382 -354 712 C-368.05624527 624.19831189 -342.41825081 539.43433267 -294.90039062 465.94335938 C-292.29661348 461.91058224 -289.71236706 457.86543353 -287.12744141 453.82055664 C-285.11021216 450.66436267 -283.09062515 447.50968976 -281.0703125 444.35546875 C-276.386542 437.04254773 -271.70546911 429.72790156 -267.0246582 422.41308594 C-263.92354041 417.56713569 -260.82192993 412.72150345 -257.71829224 407.87716675 C-256.62260469 406.1668968 -255.52709599 404.45651242 -254.43164062 402.74609375 C-253.0595996 400.60393937 -251.68722543 398.46199832 -250.31445312 396.3203125 C-249.08502787 394.40052746 -247.85870663 392.4787499 -246.63598633 390.5546875 C-245.64188666 389.00234323 -244.63469566 387.45814574 -243.60424805 385.9296875 C-239.90046784 380.33994213 -237.54409212 374.38416886 -235.1875 368.125 C-234.75663086 366.98804688 -234.32576172 365.85109375 -233.88183594 364.6796875 C-227.80549364 348.39239951 -222.74574723 331.85642972 -218.75 314.9375 C-218.52795898 314.00744141 -218.30591797 313.07738281 -218.07714844 312.11914062 C-213.09301966 290.02853112 -210.92829171 267.5807212 -209 245.0625 C-207.66418268 229.47781113 -206.3129623 213.92422958 -203.94921875 198.453125 C-203.70806335 196.87018394 -203.70806335 196.87018394 -203.46203613 195.25526428 C-201.02748064 180.10111824 -195.06503396 165.98681872 -182.5625 156.4375 C-176.76489005 152.59124138 -170.81126573 150.26501586 -164.24609375 148.0859375 C-152.93828236 144.21706184 -143.58478216 138.18345196 -137.6015625 127.50390625 C-135.76997287 123.57823802 -134.21919245 119.56156222 -132.64453125 115.52734375 C-124.77077735 95.45243769 -114.57559358 77.75682277 -101 61 C-100.57444824 60.47003418 -100.14889648 59.94006836 -99.71044922 59.39404297 C-87.48408231 44.28336703 -73.56688532 29.68127344 -58 18 C-57.06542969 17.26007813 -56.13085938 16.52015625 -55.16796875 15.7578125 C-40.86931199 4.62622388 -18.3128584 -11.04528002 0 0 Z " fill="#77B255" transform="translate(498,116)"/>
<path d="M0 0 C2.18850797 2.7982096 3.96354015 5.6478602 5.6875 8.75 C13.12640926 21.09388349 24.67691149 28.59922876 38.4375 32.375 C47.3555847 34.42205261 56.5225986 34.62082911 65.62664795 35.11117554 C83.88498795 36.11031112 102.19859498 39.3162605 115.91015625 52.59375 C129.482682 68.22118152 133.23352822 85.42103213 133.25 105.75 C133.25101212 106.8644751 133.25101212 106.8644751 133.25204468 108.00146484 C133.22760203 124.9203456 130.75855082 139.88164967 125.64404297 155.96923828 C125.03141585 157.90094123 124.43897752 159.83901266 123.84765625 161.77734375 C123.46480469 163.02644531 123.08195313 164.27554688 122.6875 165.5625 C122.492771 166.19816895 122.29804199 166.83383789 122.09741211 167.48876953 C120.80632567 171.62726564 119.39274519 175.7047451 117.90625 179.77734375 C110.70811683 198.93725703 110.70811683 198.93725703 113.625 218.6875 C117.01881362 224.76445687 123.36561675 227.85885888 129.375 230.75 C136.67765261 234.45092821 142.37188733 238.84013878 146.171875 246.30078125 C149.51194899 257.18753186 146.83756199 268.10673662 142 278 C141.56558594 278.92167969 141.13117187 279.84335937 140.68359375 280.79296875 C136.74309405 288.5729297 131.48459063 295.27568789 126 302 C125.57009766 302.53431641 125.14019531 303.06863281 124.69726562 303.61914062 C112.45637665 318.75100189 98.52720959 333.23478409 83 345 C82.0615625 345.76699219 81.123125 346.53398438 80.15625 347.32421875 C64.85892084 359.62775243 47.89306636 368.46559323 29.81005859 375.90039062 C16.78789434 381.27192367 5.37574759 387.17730286 -1.1796875 400.375 C-2.61132786 403.83757204 -3.80114357 407.31637374 -4.84765625 410.9140625 C-8.72135073 423.89345438 -16.07467137 432.81383344 -27.72265625 439.58203125 C-45.22029388 448.50018204 -64.97019336 449.89369636 -84.22991943 451.2277832 C-90.87023893 451.69185743 -97.50533692 452.21937657 -104.140625 452.75 C-105.43712982 452.85332642 -106.73363464 452.95665283 -108.06942749 453.06311035 C-130.09527936 454.86179996 -152.00494306 457.86063484 -173.43847656 463.34960938 C-176.10643917 464.02702573 -178.7822346 464.66336602 -181.4609375 465.296875 C-204.02112386 470.76091459 -227.55264557 477.86326035 -247.125 490.625 C-248.3473938 491.40931396 -248.3473938 491.40931396 -249.59448242 492.20947266 C-252.06785102 493.79893023 -254.5345766 495.39825356 -257 497 C-258.40994958 497.911778 -259.82009578 498.82325205 -261.23046875 499.734375 C-263.2850669 501.06276627 -265.33897035 502.39218366 -267.39111328 503.72436523 C-273.99360656 508.00863967 -280.63435253 512.2318048 -287.27783203 516.45214844 C-293.3554746 520.31412555 -299.42457864 524.18910994 -305.48730469 528.07446289 C-309.68745751 530.76572651 -313.89028593 533.45279626 -318.09326172 536.13964844 C-320.75330474 537.84211172 -323.41002366 539.54964691 -326.06640625 541.2578125 C-361.93866756 564.24073046 -399.53853631 581.92773761 -441 592 C-443.05490818 592.51865772 -445.10959541 593.0381916 -447.1640625 593.55859375 C-483.98278539 602.7490962 -528.99261418 608.59631981 -566 597 C-563.15389806 591.07903143 -559.97185006 585.53439528 -556.4375 580 C-555.9101123 579.17040771 -555.38272461 578.34081543 -554.83935547 577.48608398 C-550.21562073 570.25587957 -545.41348246 563.16250283 -540.4921875 556.13232422 C-538.87542813 553.82198777 -537.2657056 551.50683595 -535.65625 549.19140625 C-527.89155777 538.03927228 -520.00679633 526.97946443 -512 516 C-511.15719482 514.84201904 -511.15719482 514.84201904 -510.29736328 513.66064453 C-502.2637983 502.63573801 -494.04048178 491.77933032 -485.61230469 481.05322266 C-484.11514468 479.14663337 -482.62301616 477.23624703 -481.1328125 475.32421875 C-471.81643218 463.38708415 -462.47340587 451.47527535 -452.1796875 440.359375 C-450.32712724 438.35409472 -448.52853317 436.32053115 -446.75 434.25 C-431.63895624 416.91357688 -431.63895624 416.91357688 -422.921875 409.66796875 C-420.49180855 407.55894767 -418.25956156 405.29037376 -416 403 C-411.82149315 398.78344908 -407.5231739 394.83953074 -403 391 C-402.09121094 390.20207031 -401.18242187 389.40414063 -400.24609375 388.58203125 C-374.25932334 365.91919857 -346.74502182 350.35914623 -313 343 C-312.34335358 342.85278503 -311.68670715 342.70557007 -311.01016235 342.55389404 C-298.34532755 339.71833472 -285.62082275 337.58684345 -272.79489136 335.6222229 C-236.55000978 330.07564715 -236.55000978 330.07564715 -201.14599609 320.69042969 C-198.71491964 319.90828131 -196.27368208 319.16251947 -193.83203125 318.4140625 C-171.53943614 311.63168522 -171.53943614 311.63168522 -154.85546875 296.21484375 C-152.42348444 289.91833642 -153.01168503 281.35056781 -155.625 275.1875 C-156.37509737 273.76889479 -157.16833431 272.37237713 -158 271 C-158.44730469 270.24074219 -158.89460938 269.48148437 -159.35546875 268.69921875 C-162.64513854 263.45162217 -166.47722042 259.20427398 -171 255 C-176.60928634 249.78205922 -180.14724573 245.36144111 -180.6875 237.625 C-180.42900795 231.13595831 -177.6045789 227.37479185 -173 223 C-164.85288577 215.90529697 -153.21941517 214.46724585 -142.97460938 212.24658203 C-116.29515795 206.65028234 -116.29515795 206.65028234 -96 190 C-91.66571329 180.55467268 -94.31768919 171.76041231 -97.6875 162.44921875 C-98.68825752 159.81925181 -99.73391782 157.2229311 -100.8125 154.625 C-102.72364827 148.79096845 -102.69165215 144.14776195 -100.8125 138.3125 C-91.32950161 120.98150294 -65.99098343 112.58426995 -48 107 C-44.72360946 106.09974227 -41.42973086 105.28912653 -38.125 104.5 C-16.88524657 99.41413369 11.25803281 92.35683337 24.6796875 73.66015625 C27.46408117 68.05017966 27.03119257 61.10679812 25.0859375 55.24609375 C22.68033568 50.28745 19.59349349 45.76014989 16.48046875 41.22265625 C11.31842796 33.47278499 7.67481681 25.24916499 4.828125 16.40625 C3.64042892 12.95520856 2.21069644 9.61364229 0.76953125 6.26171875 C0 4 0 4 0 0 Z " fill="#5F943D" transform="translate(711,230)"/>
<path d="M0 0 C3.39260084 1.26579994 6.1039011 2.909097 8.4375 5.75 C10.06685614 12.26742454 8.71353727 17.69643596 6.375 23.8125 C3.58801259 31.63182749 1.55398652 39.5251344 -0.25 47.625 C-0.49572754 48.7075708 -0.74145508 49.7901416 -0.99462891 50.90551758 C-4.4871084 66.96827559 -5.40424913 82.55593309 -5.375 98.9375 C-5.37545319 99.92568726 -5.37590637 100.91387451 -5.37637329 101.93200684 C-5.35141566 120.47871787 -4.34066631 138.39683537 2 156 C8.1515855 150.7987284 13.85154425 145.23912118 19.5 139.5 C24.54138077 134.37769819 29.59808522 129.37576508 35.05273438 124.69335938 C38.46138209 121.72916924 41.7210405 118.60604562 45 115.5 C49.64354437 111.10133004 54.33890896 106.79160833 59.16943359 102.59863281 C61.59084383 100.48401636 63.95120451 98.30635229 66.3125 96.125 C70.75250784 92.07478708 75.31934281 88.24465878 79.99609375 84.47265625 C83.496661 81.59117501 86.90285267 78.61285777 90.3125 75.625 C95.72879059 70.89047544 101.25781876 66.35569668 106.94506836 61.95141602 C110.6617627 59.06939192 114.28610597 56.1040998 117.875 53.0625 C124.30450798 47.66782048 131.00421672 42.67394015 137.74609375 37.67871094 C140.14207757 35.89418053 142.52520774 34.0934752 144.90625 32.2890625 C152.84221459 26.28210547 160.80207204 20.33405145 169 14.6875 C169.65226562 14.23753662 170.30453125 13.78757324 170.9765625 13.32397461 C178.79767777 8 178.79767777 8 183.4375 8 C188.18081466 9.33145675 189.23005842 11.00802537 192 15 C193.83675192 18.67350383 194.01210212 22.02656205 193 26 C187.35090577 33.5141062 177.87892911 38.72730945 170.23046875 44.03125 C164.92143618 47.72820891 159.83049197 51.67503884 154.73242188 55.65771484 C152.83740595 57.12597831 150.92817155 58.57418209 149.015625 60.01953125 C139.43006552 67.2713407 130.09080377 74.77168895 120.85400391 82.46191406 C118.35523232 84.53490076 115.83399345 86.57974762 113.3125 88.625 C108.39073273 92.64092053 103.57058767 96.77020162 98.76879883 100.92822266 C98.20700928 101.41339355 97.64521973 101.89856445 97.06640625 102.3984375 C96.57084229 102.82817871 96.07527832 103.25791992 95.56469727 103.70068359 C93.75746117 105.20140297 91.88842129 106.60337899 90 108 C91.56790283 108.02187378 91.56790283 108.02187378 93.16748047 108.04418945 C127.52476566 108.56006684 163.12677222 109.6228548 195.85449219 121.24609375 C198.37510433 122.13180726 200.90941704 122.97156322 203.4453125 123.8125 C212.85109513 126.96365607 222.14878369 130.29591702 231.25 134.25 C231.99427246 134.56686768 232.73854492 134.88373535 233.50537109 135.21020508 C237.25242891 136.89218828 240.13171836 138.23458294 242 142 C242.46011876 146.60118758 241.32029331 150.39254718 239.1875 154.4375 C236.12347331 158.02678841 234.59078012 158.86559613 229.90234375 159.26171875 C225.09819741 158.93951875 221.69884107 157.43623099 217.375 155.4375 C172.87104377 135.83810451 124.57106148 129.53091597 76.375 134.375 C75.11896973 134.50092529 73.86293945 134.62685059 72.56884766 134.7565918 C62.23086654 135.66924493 62.23086654 135.66924493 53.546875 140.84375 C52.93650391 141.42189453 52.32613281 142.00003906 51.69726562 142.59570312 C51.05466797 143.22412109 50.41207031 143.85253906 49.75 144.5 C48.72422852 145.48129883 48.72422852 145.48129883 47.67773438 146.48242188 C41.45308079 152.47090974 35.34977279 158.58722783 29.29199219 164.74414062 C28.58719727 165.45763672 27.88240234 166.17113281 27.15625 166.90625 C26.54587891 167.52822266 25.93550781 168.15019531 25.30664062 168.79101562 C23.37768002 170.63830982 21.41321368 172.37695 19.38842773 174.1159668 C14.23984834 178.59386256 9.44663686 183.40992755 4.62890625 188.23828125 C3.65639044 189.21012184 2.68372636 190.18181408 1.71092224 191.15336609 C-0.31014804 193.17297388 -2.329428 195.19434967 -4.34741211 197.21704102 C-6.93538459 199.81075611 -9.52788364 202.39989333 -12.12170315 204.98775959 C-14.12316918 206.98561979 -16.12225709 208.98584582 -18.12062263 210.98680687 C-19.54020078 212.40737545 -20.96179148 213.82593196 -22.38340759 215.24446106 C-23.23842361 216.10262924 -24.09343964 216.96079742 -24.97436523 217.8449707 C-25.72967026 218.60107132 -26.48497528 219.35717194 -27.26316833 220.13618469 C-29.06418281 221.89286981 -29.06418281 221.89286981 -30 224 C-29.12154419 223.99000725 -29.12154419 223.99000725 -28.2253418 223.97981262 C-21.99322141 223.91216548 -15.76120903 223.86767903 -9.52880859 223.83520508 C-7.21919504 223.82034455 -4.90960849 223.80005046 -2.60009766 223.77368164 C38.85128316 223.31311074 78.2951802 231.57799149 113.8125 253.6875 C114.39402832 254.04392578 114.97555664 254.40035156 115.57470703 254.76757812 C119.11038998 257.05630619 121.19878015 259.18782922 123 263 C123.59601232 267.001797 123.20454773 268.64027812 121.1875 272.1875 C120.465625 273.115625 119.74375 274.04375 119 275 C118.5875 275.598125 118.175 276.19625 117.75 276.8125 C114.79176057 278.81987675 111.49241025 279.09859526 108 279 C105.34552679 277.79422925 103.35055225 276.69141979 101 275.0625 C99.69058424 274.21915028 98.37797294 273.38074509 97.0625 272.546875 C96.39347656 272.11955078 95.72445313 271.69222656 95.03515625 271.25195312 C80.81442068 262.50388067 64.63643093 255.89030699 48.32373047 252.48535156 C46.72865335 252.15219194 45.13658626 251.80438685 43.54736328 251.44433594 C15.00904175 245.12387574 -17.12572121 246.0841099 -46 250 C-46.94407715 250.10739502 -47.8881543 250.21479004 -48.86083984 250.32543945 C-55.16297595 251.201822 -58.44589216 252.33633503 -62.625 257.4375 C-63.07536621 257.97101074 -63.52573242 258.50452148 -63.98974609 259.05419922 C-65.35420334 260.68221747 -66.67870549 262.33687059 -68 264 C-68.78375 264.95261719 -69.5675 265.90523438 -70.375 266.88671875 C-71.86575501 268.7009883 -73.34767461 270.52255672 -74.8203125 272.3515625 C-76.97757399 274.97275119 -79.21311 277.49154281 -81.5 280 C-85.36533345 284.24651686 -89.01398246 288.6301311 -92.625 293.09375 C-94.71682325 295.65348109 -96.84166368 298.17691276 -98.98876953 300.68994141 C-104.71876513 307.39680135 -110.20788994 314.26506745 -115.62060547 321.22949219 C-117.46291563 323.59417065 -119.31899319 325.94786325 -121.17504883 328.30175781 C-139.54768581 351.61751673 -157.24374055 375.49342934 -174 400 C-173.16082031 399.47792969 -172.32164062 398.95585938 -171.45703125 398.41796875 C-125.0833003 369.8838341 -72.37083068 351.49227347 -17.5625 351.625 C-16.33566498 351.62531723 -16.33566498 351.62531723 -15.08404541 351.62564087 C-0.09503615 351.66398476 14.28365124 353.00483014 29 356 C29.98806641 356.19255371 30.97613281 356.38510742 31.99414062 356.58349609 C34.79755912 357.14315119 37.58649898 357.74554559 40.375 358.375 C41.18404785 358.54733154 41.9930957 358.71966309 42.82666016 358.8972168 C48.3764966 360.28197715 50.93214103 362.11709299 54 367 C54.66701316 371.23136475 53.44782334 375.06364212 51.625 378.875 C47.81791228 383.85349932 47.81791228 383.85349932 44.99633789 384.35888672 C37.71224973 384.18989648 30.63499452 383.21829031 23.4375 382.125 C5.11895102 379.50128866 -13.02478331 377.8541522 -31.53549194 377.70446777 C-33.54887924 377.68811814 -35.56217185 377.66116184 -37.57543945 377.63378906 C-46.79795393 377.64082781 -55.05796216 378.9151473 -64 381 C-65.20946289 381.25825562 -65.20946289 381.25825562 -66.44335938 381.52172852 C-118.54323692 392.76831245 -172.07615782 421.75101901 -211 458 C-211.61649414 458.56509277 -212.23298828 459.13018555 -212.86816406 459.71240234 C-215.31695996 462.34011851 -216.96022691 465.02682646 -218.7578125 468.13671875 C-219.10232452 468.72853439 -219.44683655 469.32035004 -219.80178833 469.93009949 C-220.9153519 471.8459214 -222.02020628 473.76660988 -223.125 475.6875 C-223.89619433 477.01809785 -224.66800768 478.34833711 -225.44042969 479.67822266 C-226.95601925 482.28872482 -228.46882514 484.90080664 -229.97949219 487.51416016 C-231.99834848 491.00273352 -234.04445606 494.4745733 -236.10205078 497.94042969 C-273.89034373 560.95426144 -273.89034373 560.95426144 -301.03955078 629.03100586 C-302.4196344 633.40706445 -304.08145861 635.60077331 -308 638 C-312.71829647 639.22828184 -317.23212099 638.29126569 -321.5625 636.1875 C-323.91460547 634.45326198 -324.88338769 633.57754611 -325.46972656 630.67358398 C-325.42456075 623.38926773 -323.9093554 617.59861741 -321.1875 610.875 C-320.78370117 609.84221924 -320.37990234 608.80943848 -319.96386719 607.74536133 C-308.97914455 580.00076726 -296.1817342 552.93048596 -281.61279297 526.89306641 C-279.87402128 523.77401637 -278.15656657 520.64381077 -276.44140625 517.51171875 C-263.95364871 494.76721417 -250.52831727 472.64747496 -236.69775391 450.69873047 C-235.191573 448.30452229 -233.69344154 445.90558682 -232.19921875 443.50390625 C-204.47068409 399.07688891 -174.95242055 355.73001049 -142 315 C-143.45698423 311.22678444 -145.09290065 307.55439697 -146.76635742 303.87426758 C-152.24304953 291.7718644 -156.74089409 279.9036513 -159.6875 266.9375 C-159.89012451 266.0710083 -160.09274902 265.2045166 -160.30151367 264.31176758 C-164.10195594 246.63503379 -164.32641151 228.55521261 -164.26074219 210.55297852 C-164.25002199 207.06964682 -164.26070769 203.58683184 -164.2734375 200.10351562 C-164.2814307 189.32897145 -164.07871362 178.61125565 -163.171875 167.87109375 C-163.10276917 167.001465 -163.03366333 166.13183624 -162.96246338 165.2358551 C-162.3184101 158.55986333 -161.22614644 151.76581831 -156.9375 146.4375 C-152.60893472 144.31926592 -148.72831956 144.22957093 -144 145 C-140.89251021 146.33534702 -138.55097096 147.89805808 -137 151 C-136.56120152 158.04118492 -136.89673955 164.83103441 -137.98828125 171.78515625 C-139.49120221 182.68829501 -139.37207293 193.66353302 -139.37060547 204.6496582 C-139.37494611 208.2675809 -139.41128543 211.88424754 -139.44921875 215.50195312 C-139.57439276 241.72897292 -136.9099346 269.1801308 -125 293 C-120.37879867 287.96365529 -115.85562967 282.88291427 -111.5625 277.5625 C-107.69708686 272.78283262 -103.61613953 268.25494907 -99.453125 263.734375 C-97.12283732 261.13692058 -94.92752832 258.47594286 -92.75 255.75 C-88.45374301 250.42172399 -83.84134093 245.44206463 -79.13574219 240.47753906 C-76.20127649 237.37846109 -73.32219809 234.24999277 -70.5234375 231.02734375 C-67.03030489 227.00611168 -63.40915182 223.11996123 -59.75 219.25 C-55.20911691 214.4316185 -50.69816625 209.59155445 -46.25 204.6875 C-42.67757263 200.76952534 -39.02048712 196.97474129 -35.25 193.25 C-31.47185398 189.51503279 -27.87193122 185.70887884 -24.4375 181.65625 C-23 180 -23 180 -21.25 178.71875 C-19.68016237 176.93491474 -19.68016237 176.93491474 -20.1328125 173.89453125 C-21.13512946 169.39313481 -22.46174627 165.07334167 -23.875 160.6875 C-28.79358407 144.88059287 -31.06415521 128.66537315 -31.2734375 112.12109375 C-31.28592026 111.20327621 -31.29840302 110.28545868 -31.31126404 109.33982849 C-31.55880105 86.72593708 -30.6186042 65.16994342 -26 43 C-25.68772461 41.49832275 -25.68772461 41.49832275 -25.36914062 39.96630859 C-24.13405129 34.23953111 -22.65895977 28.61717956 -21 23 C-20.76667969 22.17886719 -20.53335937 21.35773438 -20.29296875 20.51171875 C-19.57704507 18.01938551 -18.82732793 15.5402212 -18.0625 13.0625 C-17.84601807 12.32201416 -17.62953613 11.58152832 -17.40649414 10.81860352 C-14.62499831 2.29338335 -9.02932826 -1.70867497 0 0 Z " fill="#A5D287" transform="translate(476,139)"/>
<path d="M0 0 C2.18850797 2.7982096 3.96354015 5.6478602 5.6875 8.75 C11.95613233 19.15196412 22.13502033 27.79203495 34.13671875 30.78125 C35.08160156 30.9565625 36.02648437 31.131875 37 31.3125 C40.47192817 32.08857806 41.66730123 32.58003598 43.90625 35.40625 C45.44930122 38.22004928 46.75756431 41.04283285 48 44 C48.86625 45.60875 48.86625 45.60875 49.75 47.25 C54.42047358 57.52504189 54.48043095 68.59777194 51 79.25 C43.48148869 97.96180063 28.83532757 107.54040996 11.06640625 115.27734375 C-3.88969098 121.56973422 -19.14373206 126.79474304 -34.56008911 131.81472778 C-48.01670345 136.20322516 -61.0635529 141.23240389 -74 147 C-73.30907373 152.54512187 -73.30907373 152.54512187 -71.5625 157.8125 C-66.28701569 171.33739359 -66.43660936 185.59963492 -72 199 C-79.27902211 213.97758439 -92.06713605 222.27519236 -107.41699219 227.84301758 C-120.89351797 232.48213811 -134.80435644 236.44651448 -149 238 C-148.27554687 238.96679688 -147.55109375 239.93359375 -146.8046875 240.9296875 C-133.98275679 258.14751873 -125.36451138 272.79313109 -127 295 C-129.18592387 307.24458921 -136.2167908 317.86722769 -146.06640625 325.3203125 C-151.88569217 329.33234294 -157.98095276 332.62659927 -164.46484375 335.42578125 C-165.1541246 335.72443588 -165.84340546 336.02309052 -166.55357361 336.33079529 C-173.92649498 339.47146136 -181.4371936 342.10788811 -189.0625 344.5625 C-189.78921906 344.79778412 -190.51593811 345.03306824 -191.26467896 345.27548218 C-205.95381788 349.99094427 -220.7058868 353.12274742 -235.93060303 355.65423584 C-239.6394573 356.2739279 -243.344812 356.91410445 -247.05078125 357.55078125 C-251.62375912 358.33517419 -256.19711138 359.11700009 -260.77246094 359.88745117 C-269.00159278 361.27760047 -277.18260787 362.78799462 -285.33007812 364.60205078 C-291.6001113 365.97738514 -297.91249369 366.98803074 -304.25 368 C-338.90442977 373.69632189 -365.4814454 390.48039884 -391 414 C-392.58326444 415.39591148 -394.16659956 416.79174279 -395.75 418.1875 C-404.40074953 425.97727446 -412.84182015 434.20190424 -420.37109375 443.08984375 C-422.32237716 445.3780394 -424.34817687 447.5909906 -426.375 449.8125 C-430.2704657 454.12909713 -433.96858218 458.5740113 -437.625 463.09375 C-439.71682325 465.65348109 -441.84166368 468.17691276 -443.98876953 470.68994141 C-449.72355547 477.40240836 -455.21668149 484.27672536 -460.63378906 491.24707031 C-461.97607108 492.96929777 -463.32616694 494.68503274 -464.6796875 496.3984375 C-476.48276105 511.33998735 -487.95058868 526.49169925 -499 542 C-499.53044922 542.7434668 -500.06089844 543.48693359 -500.60742188 544.25292969 C-506.89034149 553.06978078 -513.0788379 561.9348381 -519 571 C-519.57218262 571.87591797 -520.14436523 572.75183594 -520.73388672 573.65429688 C-523.39891383 577.73626677 -526.0627191 581.81901932 -528.72192383 585.90478516 C-529.94751384 587.78779618 -531.17787848 589.66771132 -532.41381836 591.54394531 C-533.36115921 593.01081447 -534.28335346 594.49516212 -535.15063477 596.01074219 C-536.11328125 597.6640625 -536.11328125 597.6640625 -538 600 C-540.55859375 600.65625 -540.55859375 600.65625 -543.4375 600.5 C-544.48679687 600.44585938 -545.53609375 600.39171875 -546.6171875 600.3359375 C-561.75033921 598.83310719 -561.75033921 598.83310719 -566 596 C-557.61087358 581.55561778 -548.54694016 567.70208509 -539 554 C-538.39865234 553.13310547 -537.79730469 552.26621094 -537.17773438 551.37304688 C-528.92683353 539.47912533 -520.52917621 527.6957873 -512 516 C-511.15719482 514.84201904 -511.15719482 514.84201904 -510.29736328 513.66064453 C-502.2637983 502.63573801 -494.04048178 491.77933032 -485.61230469 481.05322266 C-484.11514468 479.14663337 -482.62301616 477.23624703 -481.1328125 475.32421875 C-471.81643218 463.38708415 -462.47340587 451.47527535 -452.1796875 440.359375 C-450.32712724 438.35409472 -448.52853317 436.32053115 -446.75 434.25 C-431.63895624 416.91357688 -431.63895624 416.91357688 -422.921875 409.66796875 C-420.49180855 407.55894767 -418.25956156 405.29037376 -416 403 C-411.82149315 398.78344908 -407.5231739 394.83953074 -403 391 C-402.09121094 390.20207031 -401.18242187 389.40414063 -400.24609375 388.58203125 C-374.25932334 365.91919857 -346.74502182 350.35914623 -313 343 C-312.34335358 342.85278503 -311.68670715 342.70557007 -311.01016235 342.55389404 C-298.34532755 339.71833472 -285.62082275 337.58684345 -272.79489136 335.6222229 C-236.55000978 330.07564715 -236.55000978 330.07564715 -201.14599609 320.69042969 C-198.71491964 319.90828131 -196.27368208 319.16251947 -193.83203125 318.4140625 C-171.53943614 311.63168522 -171.53943614 311.63168522 -154.85546875 296.21484375 C-152.42348444 289.91833642 -153.01168503 281.35056781 -155.625 275.1875 C-156.37509737 273.76889479 -157.16833431 272.37237713 -158 271 C-158.44730469 270.24074219 -158.89460938 269.48148437 -159.35546875 268.69921875 C-162.64513854 263.45162217 -166.47722042 259.20427398 -171 255 C-176.60928634 249.78205922 -180.14724573 245.36144111 -180.6875 237.625 C-180.42900795 231.13595831 -177.6045789 227.37479185 -173 223 C-164.85288577 215.90529697 -153.21941517 214.46724585 -142.97460938 212.24658203 C-116.29515795 206.65028234 -116.29515795 206.65028234 -96 190 C-91.66571329 180.55467268 -94.31768919 171.76041231 -97.6875 162.44921875 C-98.68825752 159.81925181 -99.73391782 157.2229311 -100.8125 154.625 C-102.72364827 148.79096845 -102.69165215 144.14776195 -100.8125 138.3125 C-91.32950161 120.98150294 -65.99098343 112.58426995 -48 107 C-44.72360946 106.09974227 -41.42973086 105.28912653 -38.125 104.5 C-16.88524657 99.41413369 11.25803281 92.35683337 24.6796875 73.66015625 C27.46408117 68.05017966 27.03119257 61.10679812 25.0859375 55.24609375 C22.68033568 50.28745 19.59349349 45.76014989 16.48046875 41.22265625 C11.31842796 33.47278499 7.67481681 25.24916499 4.828125 16.40625 C3.64042892 12.95520856 2.21069644 9.61364229 0.76953125 6.26171875 C0 4 0 4 0 0 Z " fill="#3E721D" transform="translate(711,230)"/>
<path d="M0 0 C1.2864689 2.5729378 0.96017397 4.25932673 0.8125 7.125 C0.72181854 12.87571615 2.21161628 16.05286759 5 21 C4.67 21.66 4.34 22.32 4 23 C-0.11330091 18.06403891 -2.28547898 14.9567625 -2.25 8.4375 C-2.25515625 7.48746094 -2.2603125 6.53742188 -2.265625 5.55859375 C-2 3 -2 3 0 0 Z " fill="#5A9039" transform="translate(533,459)"/>
<path d="M0 0 C2.86453858 3.41016497 4.34703566 6.90694544 6 11 C5.01 11.33 4.02 11.66 3 12 C2.49166409 10.75336669 1.99368855 9.50250613 1.5 8.25 C1.2215625 7.55390625 0.943125 6.8578125 0.65625 6.140625 C0 4 0 4 0 0 Z " fill="#548835" transform="translate(711,230)"/>
</svg>
