<?xml version="1.0" encoding="UTF-8"?>
<svg version="1.1" xmlns="http://www.w3.org/2000/svg" width="1000" height="1000">
<path d="M0 0 C330 0 660 0 1000 0 C1000 330 1000 660 1000 1000 C670 1000 340 1000 0 1000 C0 670 0 340 0 0 Z " fill="#E3EDE7" transform="translate(0,0)"/>
<path d="M0 0 C0.33 0 0.66 0 1 0 C2.45339495 6.27343208 3.8815641 12.55226629 5.29003906 18.8359375 C5.7447956 20.86263787 6.20223013 22.88874034 6.66308594 24.9140625 C12.70650047 51.62650664 15.33044323 78.28552133 17.1875 105.5625 C17.27226593 106.79884186 17.35703186 108.03518372 17.44436646 109.30899048 C18.44586067 124.11386346 19.17739325 138.90410979 19.63702393 153.73553467 C19.94040756 163.17013608 20.48092201 172.56374757 21.24731445 181.97143555 C21.44156754 184.36256887 21.62467255 186.75438747 21.80664062 189.14648438 C24.03639925 217.82035006 28.67989311 246.18359383 36 274 C36.2170459 274.84127441 36.4340918 275.68254883 36.65771484 276.54931641 C49.97923254 327.69534323 69.86820758 382.45861316 106.6171875 421.40625 C108.57064757 423.53263932 110.32742636 425.65175092 112 428 C106.65573698 426.53032767 102.56179991 424.03148364 98 421 C97.25524414 420.51015625 96.51048828 420.0203125 95.74316406 419.515625 C83.87594794 411.66150158 72.72297177 403.35902137 62 394 C60.92685547 393.07767578 60.92685547 393.07767578 59.83203125 392.13671875 C57.87113213 390.44266364 55.93354591 388.72520542 54 387 C52.68322266 385.83984375 52.68322266 385.83984375 51.33984375 384.65625 C14.92656201 352.03301999 -9.99697525 310.94772407 -17.38305664 262.18530273 C-17.68617338 260.19620545 -18.0072788 258.21059612 -18.33007812 256.22460938 C-19.91718625 246.17230837 -20.63669855 236.16539818 -21 226 C-21.02641571 225.28496307 -21.05283142 224.56992615 -21.08004761 223.83322144 C-22.52968479 181.95036371 -16.80575553 140.97774345 -9.38104248 99.85424805 C-7.87420948 91.43918014 -6.57510699 83.00145815 -5.36886597 74.53851318 C-4.99293017 71.95134588 -4.59256234 69.36874353 -4.18969727 66.78564453 C-2.0108719 52.41778196 -1.27430355 38.13852401 -0.8125 23.625 C-0.73082602 21.31637036 -0.64814852 19.00777599 -0.56445312 16.69921875 C-0.36478924 11.13316392 -0.17729653 5.56680997 0 0 Z " fill="#99AAB5" transform="translate(391,354)"/>
<path d="M0 0 C2.6314755 3.14431897 4.37294118 6.5555733 6.20800781 10.19140625 C17.86731071 33.26923216 33.85450204 53.8987994 50 74 C50.50885742 74.63502441 51.01771484 75.27004883 51.54199219 75.92431641 C57.29245399 83.08879754 63.1122365 90.17885075 69.125 97.125 C74.48304272 103.32394805 79.58546379 109.68843189 84.5859375 116.17822266 C86.00011304 118.00014564 87.43542107 119.80357644 88.875 121.60546875 C120.8012801 161.96090773 152.19133352 211.92462954 158 264 C158.11085938 264.98355469 158.22171875 265.96710938 158.3359375 266.98046875 C161.14483503 296.92938974 157.96064098 329.29608006 149 358 C148.77505859 358.74008301 148.55011719 359.48016602 148.31835938 360.24267578 C141.14445207 383.67144563 132.22381568 411.14122586 116 430 C116.10957031 429.40316406 116.21914063 428.80632812 116.33203125 428.19140625 C116.67774164 426.2998364 117.0212236 424.40785879 117.36328125 422.515625 C117.81434631 420.02508173 118.27056333 417.53577493 118.73046875 415.046875 C118.9871939 413.63545571 119.24370478 412.22399743 119.5 410.8125 C119.85578125 408.87310547 119.85578125 408.87310547 120.21875 406.89453125 C122.3771394 393.84842525 123.40389578 381.1455768 123.375 367.9375 C123.37567978 366.71433578 123.37567978 366.71433578 123.37637329 365.46646118 C123.34985726 349.04227452 121.63982956 333.21244161 119 317 C118.76966211 315.47673914 118.54030792 313.95332877 118.3125 312.4296875 C117.63919827 308.26363305 116.85044795 304.1325355 116 300 C115.76941895 298.87045898 115.53883789 297.74091797 115.30126953 296.57714844 C107.69032027 259.67359899 97.15116819 223.07450238 81.29492188 188.80175781 C79.9125721 185.81083661 78.55697831 182.80860757 77.203125 179.8046875 C68.44973579 160.49341822 59.07518395 141.47294351 49.125 122.75 C32.96095835 92.24020145 18.8226331 61.58449171 7.91796875 28.74658203 C7.1007046 26.30131031 6.26105024 23.86593878 5.40625 21.43359375 C2.93921406 14.36342978 1.03488863 7.42957362 0 0 Z " fill="#99AAB5" transform="translate(478,329)"/>
<path d="M0 0 C0.33 0 0.66 0 1 0 C1.46690855 7.4575672 0.98016368 14.32092784 -0.75 21.5625 C-0.90694336 22.22113037 -1.06388672 22.87976074 -1.22558594 23.55834961 C-3.98564143 34.45156285 -7.99272112 44.6155969 -12.8125 54.75 C-13.67050586 56.57778591 -14.528509 58.40557309 -15.38639832 60.2334137 C-16.60328282 62.82166654 -17.82638768 65.40695638 -19.04980469 67.99212646 C-31.2014008 93.37067319 -31.2014008 93.37067319 -42.2890625 119.22216797 C-42.90789058 120.76966319 -43.54603507 122.30940647 -44.1875 123.84765625 C-49.5052757 137.28750342 -53.14456822 152.89730835 -53.16796875 167.34375 C-53.17224884 168.14147827 -53.17652893 168.93920654 -53.18093872 169.7611084 C-53.19091932 172.34079619 -53.1909927 174.92029656 -53.1875 177.5 C-53.18609512 178.82088623 -53.18609512 178.82088623 -53.18466187 180.16845703 C-53.05795198 234.96705057 -36.89386828 286.98110248 2 327 C3.9355172 328.80390203 5.90895295 330.53837495 7.9296875 332.24609375 C10.18643903 334.15794552 12.371516 336.13826027 14.5625 338.125 C18.21064545 341.38046313 21.96004265 344.24939074 26 347 C25.34 347.33 24.68 347.66 24 348 C19.75244571 346.30001661 15.7376442 344.06130399 11.6875 341.9375 C11.08241608 341.622435 10.47733215 341.30737 9.85391235 340.98275757 C-16.2994818 327.31181234 -41.9347487 309.65209754 -60 286 C-60.73734375 285.07832031 -61.4746875 284.15664063 -62.234375 283.20703125 C-85.58818965 253.37051977 -96.16359956 213.84751807 -91.66308594 176.18017578 C-90.71468772 169.72732709 -89.41924571 163.36379639 -88 157 C-87.85046875 156.29649414 -87.7009375 155.59298828 -87.546875 154.86816406 C-85.1824685 143.91636449 -80.87644861 134.02299045 -76 124 C-75.63664551 123.25266602 -75.27329102 122.50533203 -74.89892578 121.73535156 C-62.65641456 96.90683035 -47.00908956 73.57613669 -29.875 51.875 C-17.53115694 36.21436166 -5.54389168 19.40362087 0 0 Z " fill="#99AAB5" transform="translate(337,445)"/>
<path d="M0 0 C0.969375 0.845625 1.93875 1.69125 2.9375 2.5625 C4.28962931 3.71073679 5.64391592 4.85643656 7 6 C7.6290625 6.54140625 8.258125 7.0828125 8.90625 7.640625 C23.50196218 19.65401887 41.71022407 26.5993588 58.84375 34.12890625 C68.71823262 38.4737627 78.40824523 43.06198109 88 48 C88.73299316 48.37350586 89.46598633 48.74701172 90.22119141 49.13183594 C134.12345818 71.53532963 172.61274781 100.41256596 189.91015625 148.48828125 C191.31190935 153.00504125 192.5674765 157.54627241 193.75 162.125 C193.96116455 162.93638428 194.1723291 163.74776855 194.38989258 164.58374023 C200.65178405 190.11734207 198.26588841 219.20233476 190 244 C189.7736084 244.68433105 189.5472168 245.36866211 189.31396484 246.07373047 C181.22182679 270.17922159 169.29992134 292.0761369 155 313 C153.6409252 308.92277559 155.14881202 306.42149704 156.6875 302.625 C157.25375981 301.1624075 157.81753941 299.69885248 158.37890625 298.234375 C158.7968042 297.14866211 158.7968042 297.14866211 159.22314453 296.04101562 C161.10782506 291.0894351 162.66314939 286.12643539 164 281 C164.18336914 280.33613281 164.36673828 279.67226563 164.55566406 278.98828125 C171.50054379 252.80690724 171.06751219 220.32550469 163.65380859 194.30273438 C163.04079437 192.14367907 162.50101104 189.9815952 161.98828125 187.796875 C151.0265405 142.83986231 124.83879989 101.67325238 87 75 C86.22881836 74.45375977 85.45763672 73.90751953 84.66308594 73.34472656 C79.65386149 69.80250371 74.62215584 66.29347842 69.58203125 62.79541016 C66.99818751 60.99873969 64.4199821 59.19428373 61.84375 57.38671875 C60.99989746 56.7947168 60.15604492 56.20271484 59.28662109 55.59277344 C57.60173899 54.41027485 55.91716626 53.22733534 54.23291016 52.04394531 C50.40458767 49.35981469 46.56686432 46.69598372 42.6796875 44.09765625 C25.67796021 32.71201206 10.42446922 19.95167451 0 2 C0 1.34 0 0.68 0 0 Z " fill="#99AAB5" transform="translate(570,382)"/>
<path d="M0 0 C-0.03222656 0.6290625 -0.06445312 1.258125 -0.09765625 1.90625 C-0.04216944 5.99994365 0.0620449 8.92346053 2.82421875 12.09375 C4.38948573 13.39060957 5.97382744 14.66471176 7.57421875 15.91796875 C11.55276994 19.33273169 14.18917989 23.61636642 17 28 C17.99 29.485 17.99 29.485 19 31 C19.4375 33.875 19.4375 33.875 19 37 C15.95676344 40.60383277 13.83712279 42.76037529 9.125 43.375 C6 43 6 43 4.0546875 40.80078125 C3.03761719 39.41439453 3.03761719 39.41439453 2 38 C0.67043703 36.26793261 -0.66288126 34.53874118 -2 32.8125 C-2.99 31.52279297 -2.99 31.52279297 -4 30.20703125 C-5.93270203 28.07426436 -7.35638311 27.05626657 -10 26 C-11.11375 27.3921875 -11.11375 27.3921875 -12.25 28.8125 C-17.31857855 34.7680798 -17.31857855 34.7680798 -21.0390625 35.28125 C-26.12592281 35.48540493 -29.57693081 34.72188873 -34 32 C-33.56429687 32.65484375 -33.12859375 33.3096875 -32.6796875 33.984375 C-20.83782838 52.13163963 -20.83782838 52.13163963 -20.25 59.5 C-21 63 -21 63 -23.5625 65.5 C-27.4836816 67.21106106 -29.77515753 67.70414041 -34 67 C-37.57906225 63.21930044 -39.87012735 58.79782942 -42.3125 54.25 C-45.71112938 48.04620893 -49.35958354 42.37154317 -54 37 C-54.4125 37.79664063 -54.825 38.59328125 -55.25 39.4140625 C-59.44058146 47.10303117 -63.43249271 53.14416424 -72 56 C-82.12853173 56.95345746 -90.06751066 54.59030702 -99 50 C-98.89558594 51.53720703 -98.89558594 51.53720703 -98.7890625 53.10546875 C-98.28169194 63.60972633 -98.28169194 63.60972633 -100.08984375 67.109375 C-102.69615391 69.45989345 -105.2248282 70.03876348 -108.625 70.625 C-112 70 -112 70 -114.3125 67.8125 C-115.85259116 65.24568139 -117.03065766 62.82724848 -118 60 C-118.556875 60.9075 -119.11375 61.815 -119.6875 62.75 C-121.98769526 65.98270685 -123.59351623 67.98707777 -127 70 C-130.99306046 70.57963781 -133.4417438 70.92547279 -136.93408203 68.85131836 C-137.83682861 68.16501343 -137.83682861 68.16501343 -138.7578125 67.46484375 C-139.67651123 66.77636353 -139.67651123 66.77636353 -140.61376953 66.07397461 C-141.07122559 65.71956299 -141.52868164 65.36515137 -142 65 C-142.01981934 65.64549805 -142.03963867 66.29099609 -142.06005859 66.95605469 C-142.15546328 69.88777221 -142.26507971 72.81879232 -142.375 75.75 C-142.42140625 77.27367187 -142.42140625 77.27367187 -142.46875 78.828125 C-142.50742187 79.8078125 -142.54609375 80.7875 -142.5859375 81.796875 C-142.6173584 82.69760742 -142.6487793 83.59833984 -142.68115234 84.52636719 C-143.01891547 87.14674698 -143.57268784 88.78539336 -145 91 C-148.66004774 93.27736304 -151.66964976 94.7976961 -156 94 C-159.37501025 91.2999918 -161.65400347 88.31862608 -162.30078125 83.984375 C-162.34371411 75.79850957 -160.66305455 67.97870217 -159 60 C-159.56847656 60.32097656 -160.13695312 60.64195312 -160.72265625 60.97265625 C-164.43533658 62.64750175 -168.01318293 62.71776921 -172 62 C-174.75569447 59.81840855 -176.43588747 58.12822506 -178 55 C-178.13415472 52.3276379 -178.04318541 49.67749512 -178 47 C-167.90307953 44.81340576 -157.78838071 42.75516393 -147.63891602 40.82617188 C-134.00129661 38.23380251 -120.4542513 35.43311161 -107 32 C-105.80246094 31.69707031 -104.60492187 31.39414062 -103.37109375 31.08203125 C-90.17913438 27.64521817 -77.09718429 23.77799583 -64 20 C-63.13455566 19.75072754 -62.26911133 19.50145508 -61.37744141 19.24462891 C-44.22797807 14.29423075 -27.28814772 8.83886538 -10.45532227 2.89550781 C-9.38596436 2.52006836 -8.31660645 2.14462891 -7.21484375 1.7578125 C-6.25698975 1.4189502 -5.29913574 1.08008789 -4.31225586 0.73095703 C-2 0 -2 0 0 0 Z " fill="#99AAB5" transform="translate(640,748)"/>
</svg>
