<?xml version="1.0" encoding="UTF-8"?>
<svg version="1.1" xmlns="http://www.w3.org/2000/svg" width="1000" height="1000">
<path d="M0 0 C330 0 660 0 1000 0 C1000 330 1000 660 1000 1000 C670 1000 340 1000 0 1000 C0 670 0 340 0 0 Z " fill="#E4EEE5" transform="translate(0,0)"/>
<path d="M0 0 C0.7425 0.226875 1.485 0.45375 2.25 0.6875 C2.5903125 1.78964844 2.930625 2.89179687 3.28125 4.02734375 C10.51601404 26.91495113 20.95345025 46.04309289 37.83740234 63.24414062 C39.15414835 64.58956102 40.44722966 65.95802943 41.73828125 67.328125 C53.34682304 79.41164804 67.16789482 88.73706154 81.25 97.6875 C81.92869141 98.1191748 82.60738281 98.55084961 83.30664062 98.99560547 C102.98941496 111.36253017 123.93561397 120.19833591 145.7800293 127.890625 C170.50995144 136.60184795 194.83779631 146.60892215 218.16210938 158.61474609 C219.59076997 159.34878897 221.02188976 160.07805981 222.45507812 160.80322266 C249.91813553 174.7053659 275.19188867 191.81219999 297.9296875 212.58984375 C299.9370432 214.40457441 301.98567609 216.14141687 304.0625 217.875 C314.7433679 227.22075941 323.75904752 238.37048295 332.25 249.6875 C332.6737793 250.24373047 333.09755859 250.79996094 333.53417969 251.37304688 C360.25818248 286.58053403 376.34496762 332.52192009 377.25 376.6875 C377.29664795 378.25467773 377.29664795 378.25467773 377.34423828 379.85351562 C377.84838316 398.20540268 376.66916781 415.64992799 373.25 433.6875 C373.10578613 434.48365723 372.96157227 435.27981445 372.81298828 436.10009766 C364.49007896 480.9227475 339.07739944 522.95376055 309.25 556.6875 C308.77062988 557.23003418 308.29125977 557.77256836 307.79736328 558.33154297 C300.7155758 566.29125729 293.26682328 573.6737392 285.25 580.6875 C284.49082275 581.35579834 284.49082275 581.35579834 283.71630859 582.03759766 C265.9419512 597.6146835 246.58023691 610.70980621 226.25 622.6875 C225.32445312 623.26628906 224.39890625 623.84507812 223.4453125 624.44140625 C221.25 625.6875 221.25 625.6875 219.25 625.6875 C218.77828732 628.45779019 218.77828732 628.45779019 219.25 631.6875 C221.09626985 633.78770664 222.73838916 635.38419734 224.875 637.125 C225.98302271 638.0816854 227.08851693 639.04130746 228.19140625 640.00390625 C228.72266113 640.46297363 229.25391602 640.92204102 229.80126953 641.39501953 C232.6312688 643.91979475 234.92046918 646.70092203 237.25 649.6875 C237.86875 650.47125 238.4875 651.255 239.125 652.0625 C240.80363333 655.97931109 241.02219601 659.50098632 240.25 663.6875 C238.375 666.75 238.375 666.75 235.25 668.6875 C231.77158837 669.37748001 228.72819077 669.38428987 225.25 668.6875 C220.96555987 665.66891718 218.45184706 661.16393886 215.6796875 656.7734375 C213.75577599 653.95278644 213.75577599 653.95278644 211.25 651.6875 C207.91651564 651.90619778 206.09345539 653.42357773 203.6875 655.625 C200.26035883 658.73156226 197.77814547 660.97896599 193 661.0625 C192.27296875 661.09085938 191.5459375 661.11921875 190.796875 661.1484375 C187.07344088 660.47456445 184.46322162 658.67029285 181.25 656.6875 C181.74628906 657.54730469 182.24257813 658.40710938 182.75390625 659.29296875 C184.55995274 662.42940988 186.34937054 665.57505618 188.13330078 668.72412109 C188.85628773 669.99527567 189.58355833 671.26400736 190.31591797 672.52978516 C191.30594153 674.2421435 192.2783033 675.96467579 193.25 677.6875 C194.11625 679.2034375 194.11625 679.2034375 195 680.75 C196.39492558 684.02807512 196.66857688 686.16160531 196.25 689.6875 C193.17787483 693.34083804 190.24406448 696.42740463 185.375 697.0625 C181.33216501 696.5773598 180.16884074 695.53632357 177.25 692.6875 C175.42661158 689.77272966 173.94146362 686.71401155 172.4375 683.625 C166.72978402 670.99389555 166.72978402 670.99389555 157.25 661.6875 C157.1675 662.368125 157.085 663.04875 157 663.75 C154.74865967 672.56774964 148.79195886 678.03395092 141.25 682.6875 C136.39268298 685.50656917 131.73120283 685.38132314 126.25 684.6875 C120.16429422 682.7625809 114.66519305 680.04491969 109.25 676.6875 C109.31960938 677.85667969 109.38921875 679.02585937 109.4609375 680.23046875 C109.51723275 681.77858821 109.57183102 683.32677002 109.625 684.875 C109.67527344 685.64392578 109.72554687 686.41285156 109.77734375 687.20507812 C109.9203047 692.75672851 109.9203047 692.75672851 108.06567383 695.33203125 C104.01000616 698.9734837 100.78767765 699.44955756 95.59375 699.17578125 C91.89941183 698.40612746 90.35043823 696.73652323 88.25 693.6875 C87.4375 690.875 87.4375 690.875 87.25 688.6875 C86.66992188 689.50154297 86.66992188 689.50154297 86.078125 690.33203125 C85.55734375 691.04746094 85.0365625 691.76289062 84.5 692.5 C83.98953125 693.20769531 83.4790625 693.91539062 82.953125 694.64453125 C79.93060629 698.27016722 78.13701335 699.58735333 73.375 700.125 C69.10649006 699.98961815 66.63333795 698.26528129 63.25 695.6875 C62.59 695.6875 61.93 695.6875 61.25 695.6875 C59.61794581 703.30903464 58.9643362 710.72422121 58.7890625 718.5 C58.25 721.6875 58.25 721.6875 56.33203125 723.55078125 C55.30142578 724.11345703 55.30142578 724.11345703 54.25 724.6875 C53.610625 725.079375 52.97125 725.47125 52.3125 725.875 C49.64902581 726.92424741 48.09215328 727.17274568 45.25 726.6875 C42.5 724.25 42.5 724.25 40.25 721.6875 C39.92 721.3575 39.59 721.0275 39.25 720.6875 C38.99658313 717.50807657 39.06475961 714.31331126 39.0625 711.125 C39.05025391 710.24263672 39.03800781 709.36027344 39.02539062 708.45117188 C39.01290585 702.82053904 39.76106729 698.10768588 41.25 692.6875 C41.25 691.3675 41.25 690.0475 41.25 688.6875 C40.569375 689.1825 39.88875 689.6775 39.1875 690.1875 C35.50859625 692.06608915 33.3408775 692.18988846 29.25 691.6875 C24.38046834 689.25273417 22.06290495 686.82406401 20.25 681.6875 C20.20565743 679.35458805 20.20030713 677.02030412 20.25 674.6875 C19.2496875 674.73390625 18.249375 674.7803125 17.21875 674.828125 C-25.3624073 676.12778288 -70.5532175 664.43843449 -108.64013672 645.72412109 C-110.71006372 644.70712155 -112.79232987 643.72058027 -114.87890625 642.73828125 C-129.77929857 635.62307755 -143.83974091 626.9860711 -156.75 616.6875 C-157.65878906 615.97078125 -158.56757813 615.2540625 -159.50390625 614.515625 C-166.53705181 608.87310139 -173.18706784 602.86326638 -179.75 596.6875 C-180.40871094 596.07132813 -181.06742187 595.45515625 -181.74609375 594.8203125 C-186.89631516 589.84850523 -191.30208317 584.2839743 -195.75 578.6875 C-196.925625 577.25470703 -196.925625 577.25470703 -198.125 575.79296875 C-213.95696671 556.0283821 -224.82985697 533.23649209 -233.75 509.6875 C-234.08507568 508.81512695 -234.42015137 507.94275391 -234.76538086 507.04394531 C-237.23289016 500.47564542 -239.14931602 493.87615328 -240.8125 487.0625 C-241.06926514 486.01924561 -241.32603027 484.97599121 -241.59057617 483.90112305 C-259.12632743 411.40256934 -237.3074348 340.20257951 -199.55224609 277.88842773 C-183.78830966 252.3744139 -165.45718288 228.45084472 -145.8125 205.8125 C-119.06780698 174.85010141 -98.72633671 140.08440616 -87.31103516 100.625 C-86.82102519 98.93278108 -86.30885055 97.24701198 -85.79296875 95.5625 C-82.28814281 83.68407515 -81.39583837 71.61451495 -81.43432617 59.30126953 C-81.43749834 57.18860715 -81.41386135 55.07733603 -81.38867188 52.96484375 C-81.3528983 44.84011101 -82.10884794 37.56941229 -84.10473633 29.65820312 C-84.70945412 26.87416754 -84.95256904 24.52282858 -84.75 21.6875 C-84.42 21.3575 -84.09 21.0275 -83.75 20.6875 C-77.21176943 20.98548906 -72.14737919 23.65157164 -66.375 26.5625 C-51.31578877 34.18111072 -51.31578877 34.18111072 -34.75 34.6875 C-24.47944181 30.36031051 -17.450659 17.23200803 -11.16162109 8.47607422 C-10.64809082 7.77111816 -10.13456055 7.06616211 -9.60546875 6.33984375 C-9.15196045 5.70941162 -8.69845215 5.07897949 -8.23120117 4.42944336 C-5.69857457 1.45098765 -4.01452638 -0.45619618 0 0 Z " fill="#ECD5A5" transform="translate(435.75,109.3125)"/>
<path d="M0 0 C2.79929733 2.79929733 3.91418649 6.22082721 5.4375 9.8125 C20.2552931 43.79010804 41.41959766 73.70917473 63.64257812 103.15966797 C68.69859311 109.86271813 73.62050675 116.6416776 78.43896484 123.51757812 C81.47415343 127.84711322 84.543471 132.14848953 87.65185547 136.42578125 C131.15215013 196.28686501 131.15215013 196.28686501 147 226 C147.47791992 226.88864746 147.95583984 227.77729492 148.44824219 228.69287109 C152.05212545 235.41852421 155.55890523 242.18972849 159 249 C159.40460449 249.79841309 159.80920898 250.59682617 160.22607422 251.41943359 C200.90542515 332.41384276 211.23950217 422.83374087 181 528 C174.69960768 546.73686816 166.89265052 564.38046569 158 582 C156.83668875 578.50928831 157.15458409 575.89330091 157.76196289 572.29174805 C158.03465248 570.57433159 158.03465248 570.57433159 158.31285095 568.82221985 C158.5099617 567.58537949 158.70707245 566.34853912 158.91015625 565.07421875 C161.14766442 549.95273247 161.59039741 535.10174084 161.4375 519.8125 C161.43034973 518.52984253 161.42319946 517.24718506 161.41583252 515.92565918 C161.29936239 495.79724742 160.67006651 475.96262216 158 456 C157.90289734 455.25713745 157.80579468 454.5142749 157.70574951 453.74890137 C154.76434711 431.31538574 150.6366179 409.25103895 145.45155334 387.23118591 C144.41022325 382.80511041 143.41902528 378.37031254 142.45172119 373.92749023 C140.92417098 366.92523634 139.29862326 360.02280283 137.125 353.1875 C136.59610471 351.48094883 136.06880806 349.77390153 135.54296875 348.06640625 C135.15117432 346.79627686 135.15117432 346.79627686 134.75146484 345.50048828 C134.04293467 343.14286447 133.37987838 340.77894978 132.73828125 338.40234375 C124.74347654 308.86794419 114.00466613 280.11745252 102 252 C101.57590851 251.00546814 101.57590851 251.00546814 101.14324951 249.99084473 C93.08503688 231.12003779 84.62242748 212.44653649 75.88476562 193.88024902 C74.96152008 191.91822486 74.03925601 189.95574164 73.1171875 187.99316406 C71.45996234 184.46619768 69.80160585 180.93976482 68.14273071 177.41357422 C67.46351346 175.96963927 66.78445699 174.52562867 66.1055603 173.08154297 C62.79277658 166.03508135 59.47764587 158.99005612 56.11889648 151.96536255 C34.69521912 107.14298656 16.81197051 60.80658216 2.8125 13.125 C2.37502441 11.63637451 2.37502441 11.63637451 1.92871094 10.11767578 C0 3.39120632 0 3.39120632 0 0 Z " fill="#E2A759" transform="translate(440,173)"/>
<path d="M0 0 C2.46951571 2.46951571 2.69944745 4.10245355 3.515625 7.484375 C3.7940625 8.63019043 4.0725 9.77600586 4.359375 10.95654297 C4.80023438 12.8343042 4.80023438 12.8343042 5.25 14.75 C5.40339844 15.39890198 5.55679687 16.04780396 5.71484375 16.71636963 C11.03375866 39.25513418 15.26344385 61.85151021 18.6875 84.75 C18.8321167 85.71258728 18.9767334 86.67517456 19.12573242 87.66693115 C23.05297412 113.97035658 25.64769875 140.33738617 27.8125 166.83294678 C28.36948497 173.64168918 28.93384475 180.44982716 29.5 187.2578125 C29.56177114 188.00069456 29.62354229 188.74357662 29.68718529 189.50897026 C35.3549962 257.51513327 42.44142036 325.62598456 63 391 C63.47093536 392.51023224 63.9417962 394.02048773 64.41259766 395.53076172 C84.29453265 459.10629118 107.52799153 525.10237814 152 576 C148.62176405 576 147.96329216 575.52675101 145.3046875 573.62109375 C144.59344727 573.11570068 143.88220703 572.61030762 143.14941406 572.08959961 C142.39885742 571.54440674 141.64830078 570.99921387 140.875 570.4375 C140.10381836 569.88392822 139.33263672 569.33035645 138.53808594 568.76000977 C120.45787227 555.72690264 103.96825101 541.02963117 88.1875 525.3125 C86.98649658 524.11850586 86.98649658 524.11850586 85.76123047 522.90039062 C80.9684662 518.09464325 76.40808 513.15937016 72 508 C71.154375 507.03578125 70.30875 506.0715625 69.4375 505.078125 C39.11617394 469.89761208 16.40605749 430.18259471 2 386 C1.69336426 385.0620459 1.38672852 384.1240918 1.07080078 383.15771484 C-5.48272173 362.71238467 -8.73503133 341.58094967 -11.25 320.3125 C-11.37462616 319.26408432 -11.37462616 319.26408432 -11.50177002 318.19448853 C-13.78831745 298.70309392 -14.20691193 279.42425199 -14.1875 259.8125 C-14.18623108 258.49788788 -14.18496216 257.18327576 -14.18365479 255.8288269 C-14.1273946 219.74087895 -11.37962861 184.75706766 -7.06236267 148.93331909 C-5.61992639 136.92152512 -4.37527168 124.90208267 -3.33984375 112.84765625 C-3.10365232 110.17353484 -2.85560123 107.50313999 -2.58984375 104.83203125 C0.8613931 69.95002684 0.30651376 35.00767039 0 0 Z " fill="#E2A759" transform="translate(381,194)"/>
<path d="M0 0 C0.33 0 0.66 0 1 0 C1.92557804 21.10832143 -0.79201548 42.11442536 -8 62 C-8.23804352 62.6637413 -8.47608704 63.3274826 -8.72134399 64.01133728 C-13.20968302 76.50930939 -18.1055989 88.81639054 -23.16333008 101.09368896 C-25.3654821 106.44073266 -27.55538768 111.7927902 -29.74609375 117.14453125 C-30.40791153 118.7604718 -30.40791153 118.7604718 -31.08309937 120.40905762 C-35.4356365 131.04563346 -39.73006143 141.70503821 -44 152.375 C-44.33079559 153.19962738 -44.66159119 154.02425476 -45.00241089 154.87387085 C-73.68185864 226.39104312 -67.92756354 301.13600025 -38.3918457 371.95288086 C-25.01675444 403.01682179 -7.80489517 432.47049996 14.4375 458.03515625 C16.94191847 460.93279897 19.35170737 463.88928772 21.75 466.875 C24.76698474 470.58449548 27.89094359 474.01310149 31.328125 477.33203125 C33.10825885 479.10800591 34.73934856 480.96548949 36.375 482.875 C42.38374583 489.82682253 48.93285201 496.13577081 56 502 C52.68965402 502 51.8657446 501.52068095 49.1484375 499.796875 C48.38797119 499.31710205 47.62750488 498.8373291 46.84399414 498.34301758 C46.02922607 497.81732178 45.21445801 497.29162598 44.375 496.75 C43.10934204 495.94115356 43.10934204 495.94115356 41.81811523 495.1159668 C29.1602536 486.96025623 16.9465918 478.16169093 5 469 C4.18716553 468.38439209 4.18716553 468.38439209 3.35791016 467.75634766 C-4.72683863 461.62539396 -12.29514905 455.13213077 -19.6484375 448.140625 C-21.98348174 445.92432948 -24.3753167 443.79796594 -26.81640625 441.69921875 C-31.61045753 437.53142776 -36.08306867 433.06338112 -40.5625 428.5625 C-41.37396484 427.75490234 -42.18542969 426.94730469 -43.02148438 426.11523438 C-84.75166774 384.31768994 -108.18538485 326.247395 -108.25 267.3125 C-108.25133942 266.58789581 -108.25267883 265.86329163 -108.25405884 265.11672974 C-108.24891417 252.21160395 -107.18367213 239.73028858 -105 227 C-104.78022326 225.59260787 -104.56140771 224.18506515 -104.34375 222.77734375 C-97.56316176 182.45706009 -77.94610563 147.46108031 -57 113 C-55.75448448 110.93272761 -54.50967668 108.86502864 -53.265625 106.796875 C-48.09179969 98.21997152 -42.85730399 89.69603411 -37.375 81.3125 C-21.04512942 56.32116766 -4.43105008 30.04805835 0 0 Z " fill="#E2A759" transform="translate(353,261)"/>
<path d="M0 0 C0.72445313 0.72960937 1.44890625 1.45921875 2.1953125 2.2109375 C32.88571072 32.73035857 73.85811212 50.1255982 112.16897583 69.07269287 C127.88932677 76.85114702 127.88932677 76.85114702 134.4375 80.75 C135.13157959 81.16209717 135.82565918 81.57419434 136.54077148 81.9987793 C149.93751686 90.08445136 162.22781409 99.55344125 174.23974609 109.54833984 C175.80617487 110.84015476 177.39572919 112.10381198 178.98828125 113.36328125 C190.28909268 122.30907553 200.23778014 132.5617095 209 144 C209.42490723 144.54849609 209.84981445 145.09699219 210.28759766 145.66210938 C229.45277607 170.51684238 242.38259921 198.78253008 250.75 228.9375 C251.03190186 229.93612061 251.31380371 230.93474121 251.60424805 231.96362305 C256.23637358 249.32060823 257.58645888 266.59779387 257.5 284.5 C257.49790527 285.50268921 257.49581055 286.50537842 257.49365234 287.53845215 C257.38588293 312.66568824 252.88851743 335.14307304 244.97973633 358.9987793 C243.96832814 362.09702022 243.01493028 365.20891591 242.0703125 368.328125 C235.56853719 389.55167573 227.77312035 410.0655587 218 430 C217.5143457 430.99483398 217.02869141 431.98966797 216.52832031 433.01464844 C211.89823662 442.4660914 207.18286365 451.83788267 202 461 C200.8293352 457.57345918 201.18468254 455.52162167 202.2578125 452.09765625 C202.55131592 451.13577393 202.84481934 450.1738916 203.1472168 449.18286133 C203.63121948 447.63828247 203.63121948 447.63828247 204.125 446.0625 C214.4755369 411.79714174 220.58805376 377.20056181 220.33618164 341.34179688 C220.31242124 337.73805508 220.31567688 334.13505148 220.32226562 330.53125 C220.23985874 263.00255027 199.50455358 192.10823006 154 141 C153.47083984 140.38616455 152.94167969 139.7723291 152.39648438 139.13989258 C148.18812294 134.26433743 143.80657862 129.61352993 139.25 125.0625 C138.1995752 124.01328369 138.1995752 124.01328369 137.12792969 122.94287109 C132.48423002 118.35351486 127.75427409 114.08760888 122.61328125 110.05859375 C119.81026169 107.85053499 117.13480178 105.52319361 114.4375 103.1875 C104.34539095 94.76652932 93.10485995 87.88984861 81.9375 81 C69.61842396 73.37974744 57.89747445 65.09848933 46.9765625 55.57421875 C44.20570399 53.17789885 41.37255775 50.89738358 38.5 48.625 C23.056742 35.95705213 8.75376674 20.11233917 0 2 C0 1.34 0 0.68 0 0 Z " fill="#E2A759" transform="translate(501,225)"/>
<path d="M0 0 C0.23332031 0.89976562 0.46664062 1.79953125 0.70703125 2.7265625 C2.17326494 6.43865866 3.63481585 7.85992485 6.6875 10.375 C21.14893616 22.78842931 21.14893616 22.78842931 22.34765625 30.12890625 C22.61391589 34.27299862 22.32780853 36.4645794 20.125 40.0625 C15.72543789 42.79022851 12.04639861 43.01095071 7 42 C2.71555987 38.98141718 0.20184706 34.47643886 -2.5703125 30.0859375 C-4.49422401 27.26528644 -4.49422401 27.26528644 -7 25 C-10.33348436 25.21869778 -12.15654461 26.73607773 -14.5625 28.9375 C-17.98964117 32.04406226 -20.47185453 34.29146599 -25.25 34.375 C-25.97703125 34.40335938 -26.7040625 34.43171875 -27.453125 34.4609375 C-31.17655912 33.78706445 -33.78677838 31.98279285 -37 30 C-36.50371094 30.85980469 -36.00742187 31.71960938 -35.49609375 32.60546875 C-33.69004726 35.74190988 -31.90062946 38.88755618 -30.11669922 42.03662109 C-29.39371227 43.30777567 -28.66644167 44.57650736 -27.93408203 45.84228516 C-26.94405847 47.5546435 -25.9716967 49.27717579 -25 51 C-24.4225 52.010625 -23.845 53.02125 -23.25 54.0625 C-21.85507442 57.34057512 -21.58142312 59.47410531 -22 63 C-25.07212517 66.65333804 -28.00593552 69.73990463 -32.875 70.375 C-36.91783499 69.8898598 -38.08115926 68.84882357 -41 66 C-42.82338842 63.08522966 -44.30853638 60.02651155 -45.8125 56.9375 C-51.52021598 44.30639555 -51.52021598 44.30639555 -61 35 C-61.0825 35.680625 -61.165 36.36125 -61.25 37.0625 C-63.50134033 45.88024964 -69.45804114 51.34645092 -77 56 C-81.85731702 58.81906917 -86.51879717 58.69382314 -92 58 C-98.08570578 56.0750809 -103.58480695 53.35741969 -109 50 C-108.89558594 51.75376953 -108.89558594 51.75376953 -108.7890625 53.54296875 C-108.73276725 55.09108821 -108.67816898 56.63927002 -108.625 58.1875 C-108.57472656 58.95642578 -108.52445313 59.72535156 -108.47265625 60.51757812 C-108.3296953 66.06922851 -108.3296953 66.06922851 -110.18432617 68.64453125 C-114.23999384 72.2859837 -117.46232235 72.76205756 -122.65625 72.48828125 C-126.35058817 71.71862746 -127.89956177 70.04902323 -130 67 C-130.8125 64.1875 -130.8125 64.1875 -131 62 C-131.38671875 62.54269531 -131.7734375 63.08539062 -132.171875 63.64453125 C-132.69265625 64.35996094 -133.2134375 65.07539062 -133.75 65.8125 C-134.26046875 66.52019531 -134.7709375 67.22789062 -135.296875 67.95703125 C-138.31939371 71.58266722 -140.11298665 72.89985333 -144.875 73.4375 C-149.14350994 73.30211815 -151.61666205 71.57778129 -155 69 C-155.66 69 -156.32 69 -157 69 C-158.63205419 76.62153464 -159.2856638 84.03672121 -159.4609375 91.8125 C-160 95 -160 95 -161.91796875 96.86328125 C-162.60503906 97.23839844 -163.29210937 97.61351562 -164 98 C-164.639375 98.391875 -165.27875 98.78375 -165.9375 99.1875 C-168.60097419 100.23674741 -170.15784672 100.48524568 -173 100 C-175.75 97.5625 -175.75 97.5625 -178 95 C-178.495 94.505 -178.495 94.505 -179 94 C-179.25341687 90.82057657 -179.18524039 87.62581126 -179.1875 84.4375 C-179.19974609 83.55513672 -179.21199219 82.67277344 -179.22460938 81.76367188 C-179.23709415 76.13303904 -178.48893271 71.42018588 -177 66 C-177 64.68 -177 63.36 -177 62 C-177.680625 62.495 -178.36125 62.99 -179.0625 63.5 C-182.74140375 65.37858915 -184.9091225 65.50238846 -189 65 C-193.00859305 62.88225273 -195.35447679 61.22478518 -197 57 C-197.1953125 54.640625 -197.1953125 54.640625 -197.125 52.25 C-197.10695313 51.45078125 -197.08890625 50.6515625 -197.0703125 49.828125 C-197.04710937 49.22484375 -197.02390625 48.6215625 -197 48 C-195.88254395 47.9498877 -194.76508789 47.89977539 -193.61376953 47.84814453 C-189.37520233 47.65647768 -185.13703113 47.45697151 -180.89892578 47.25537109 C-179.08196421 47.16997614 -177.26490792 47.08656802 -175.44775391 47.00537109 C-158.8673618 46.26214378 -142.51159036 44.9162859 -126.1875 41.8125 C-125.06150391 41.60036865 -123.93550781 41.3882373 -122.77539062 41.16967773 C-103.77426587 37.49638867 -84.85144925 33.09851596 -66.51904297 26.85400391 C-63.66615385 25.88681975 -60.80379423 24.95040381 -57.94140625 24.01171875 C-39.10156761 17.74877217 -20.99840702 10.15082704 -3.31396484 1.12573242 C-1 0 -1 0 0 0 Z " fill="#D39A56" transform="translate(654,736)"/>
</svg>
