<svg width="343" height="467" viewBox="0 0 343 467" fill="none" xmlns="http://www.w3.org/2000/svg">
<path d="M0 119.329V447C0 458.046 8.9543 467 20 467H323C334.046 467 343 458.046 343 447V118.61C343 109.037 335.24 101.277 325.667 101.277C316.094 101.277 308.334 93.5164 308.334 83.9435V68.6991C308.334 60.62 303.473 53.3343 296.013 50.2322L180.454 2.17771C175.558 0.141748 170.054 0.133339 165.152 2.15433L48.4824 50.253C40.9925 53.3408 36.1053 60.642 36.1053 68.7433V83.224C36.1053 93.1942 28.0228 101.277 18.0526 101.277C8.08244 101.277 0 109.359 0 119.329Z" fill="#FFCA24"/>
</svg>
